<svg viewBox="0 0 32 32" xmlns="http://www.w3.org/2000/svg">
  <path d="M.39 20.276l3.334 3.333c.25.251.589.392.943.391h8.666c.369 0 .667.298.667.667v6.666c0 .369.298.667.667.667h2.666a.667.667 0 00.667-.667v-6.666c0-.369.298-.667.667-.667h8c.736 0 1.333-.597 1.333-1.333V16c0-.736-.597-1.333-1.333-1.333h-8A.667.667 0 0118 14v-1.333c0-.369.298-.667.667-.667h8.666c.354.001.694-.14.943-.39l3.333-3.334c.52-.52.52-1.365 0-1.885l-3.333-3.334a1.324 1.324 0 00-.943-.39h-8.666A.667.667 0 0118 2a2 2 0 10-4 0 .667.667 0 01-.667.667h-8C4.597 2.667 4 3.264 4 4v6.667C4 11.403 4.597 12 5.333 12h8c.369 0 .667.298.667.667V14a.667.667 0 01-.667.667H4.667a1.324 1.324 0 00-.943.39L.391 18.391c-.52.52-.52 1.364 0 1.885z" fill="#1F477D" fill-rule="evenodd"/>
</svg>