<svg viewBox="0 0 32 26" xmlns="http://www.w3.org/2000/svg">
  <g fill="#1F477D" fill-rule="evenodd">
    <path d="M32 7.333a2.667 2.667 0 00-2.667-2.666H27a.333.333 0 01-.333-.334V2c0-.736-.597-1.333-1.334-1.333H2.667A2.667 2.667 0 000 3.333v16c0 .737.597 1.334 1.333 1.334h2.334c.184 0 .333.149.333.333v2.333A2.667 2.667 0 006.667 26h4c.736 0 1.333-.597 1.333-1.333a1 1 0 112 0c0 .736.597 1.333 1.333 1.333h5.334c.736 0 1.333-.597 1.333-1.333a1 1 0 112 0c0 .736.597 1.333 1.333 1.333h4A2.667 2.667 0 0032 23.333v-16zm-2.667 15.334a.667.667 0 01-.666.666h-2.031a.33.33 0 01-.303-.194 3.667 3.667 0 00-6.666 0 .33.33 0 01-.303.194h-2.728a.33.33 0 01-.303-.194 3.667 3.667 0 00-6.666 0 .33.33 0 01-.303.194h-2.03a.667.667 0 01-.667-.666V8c0-.368.298-.667.666-.667h21.334c.368 0 .666.299.666.667v14.667z"/>
    <path d="M19.667 11.667a1 1 0 001 1h6a1 1 0 000-2h-6a1 1 0 00-1 1zM24 14.667h-3.333a1 1 0 100 2H24a1 1 0 000-2zM15.088 15.456c-.019-.101-.017-.267-.025-.283a4.684 4.684 0 001.032-3.246 2.765 2.765 0 10-5.523 0 4.599 4.599 0 00.981 3.174.812.812 0 01.026.355c-1.752.653-2.72 1.145-3.131 1.965-.214.472-.36.972-.437 1.484a.667.667 0 00.656.786H18a.666.666 0 00.656-.786 5.613 5.613 0 00-.437-1.484c-.412-.82-1.38-1.312-3.131-1.965z"/>
  </g>
</svg>