<?xml version="1.0" encoding="UTF-8"?>
<svg width="30px" height="30px" viewBox="0 0 30 30" version="1.1" xmlns="http://www.w3.org/2000/svg" xmlns:xlink="http://www.w3.org/1999/xlink">
    <!-- Generator: Sketch 55.2 (78181) - https://sketchapp.com -->
    <title>icon-connections</title>
    <desc>Created with Sketch.</desc>
    <g id="docs-design-final" stroke="none" stroke-width="1" fill="none" fill-rule="evenodd">
        <g id="1.1-docs-home" transform="translate(-358.000000, -497.000000)" fill-rule="nonzero">
            <g id="icon-connections" transform="translate(358.000000, 497.000000)">
                <path d="M28.5375,11.175 L22.6875,11.175 C22.1766366,11.175 21.7625,11.5891366 21.7625,12.1 L21.7625,14.4375 L18.3375,14.4375 C18.0130327,14.4375 17.75,14.7005327 17.75,15.025 C17.75,15.3494673 18.0130327,15.6125 18.3375,15.6125 L21.7625,15.6125 L21.7625,17.95 C21.7625,18.4608634 22.1766366,18.875 22.6875,18.875 L28.5375,18.875 C29.0483634,18.875 29.4625,18.4608634 29.4625,17.95 L29.4625,12.1 C29.4625,11.5891366 29.0483634,11.175 28.5375,11.175 Z M28.2875,17.6875 L22.9375,17.6875 L22.9375,15.1875 C22.9541667,15.0965909 22.9541667,15.0034091 22.9375,14.9125 L22.9375,12.4125 L28.2875,12.4125 L28.2875,17.6875 Z" id="Shape" fill="#999999"></path>
                <path d="M28.65,0.424914255 L22.7125,0.424914255 C22.4628336,0.421602704 22.2223978,0.519283426 22.0458406,0.695840603 C21.8692834,0.87239778 21.7716027,1.11283356 21.775,1.3625 L21.775,3.75 L16.175,3.75 C15.1443281,3.7499771 14.3068711,4.58185097 14.3,5.6125 L14.3,11.575 C14.3,11.8994673 14.5630327,12.1625 14.8875,12.1625 C15.2119673,12.1625 15.475,11.8994673 15.475,11.575 L15.475,5.5875 C15.4782852,5.40515388 15.5538881,5.23158483 15.6851702,5.10499136 C15.8164524,4.97839789 15.992655,4.90915449 16.175,4.9125 L21.775,4.9125 L21.775,7.3125 C21.7749774,7.56000646 21.8741465,7.79719817 22.0503306,7.97103316 C22.2265147,8.14486816 22.4650161,8.24084468 22.7125,8.2375 L28.65,8.2375 C28.8953253,8.2375 29.1306026,8.14004492 29.3040738,7.96657377 C29.4775449,7.79310262 29.5750846,7.55782525 29.5750846,7.3125 L29.5750846,1.3625 C29.5783447,1.11501614 29.4823682,0.876514725 29.3085332,0.700330612 C29.1346982,0.524146499 28.8975065,0.424914255 28.65,0.424914255 Z M28.4,7.0625 L22.95,7.0625 L22.95,1.6 L28.4,1.6 L28.4,7.0625 Z" id="Shape" fill="#999999"></path>
                <path d="M28.525,21.775 L22.7,21.775 C22.1870756,21.7749544 21.769339,22.1871212 21.7625,22.7 L21.7625,25.0875 L16.175,25.0875 C15.7932301,25.0875609 15.4818173,24.781709 15.475,24.4 L15.475,18.475 C15.475,18.1505327 15.2119673,17.8875 14.8875,17.8875 C14.5630327,17.8875 14.3,18.1505327 14.3,18.475 L14.3,24.4 C14.313678,25.4257577 15.1491512,26.2500912 16.175,26.25 L21.7625,26.25 L21.7625,28.6375 C21.769339,29.1503788 22.1870756,29.5625 22.7,29.5625 L28.525,29.5625 C29.0379244,29.5625 29.455661,29.1503788 29.4625,28.6375 L29.4625,22.7 C29.455661,22.1871212 29.0379244,21.7749544 28.525,21.775 Z M28.275,28.4 L22.95,28.4 L22.95,22.95 L28.275,22.95 L28.275,28.4 Z" id="Shape" fill="#999999"></path>
                <path d="M11.4375,14.4375 L8.125,14.4375 L8.125,12.1 C8.125,11.8546747 8.02754492,11.6193974 7.85407377,11.4459262 C7.68060262,11.2724551 7.44532525,11.175 7.2,11.175 L2.875,11.175 C2.52982203,11.175 2.25,11.454822 2.25,11.8 C2.25,12.145178 2.52982203,12.425 2.875,12.425 L6.95,12.425 L6.95,15 C6.93333333,15.0571429 6.93333333,15.1178571 6.95,15.175 L6.95,17.75 L1.6,17.75 L1.6,12.1 C1.6,11.7755327 1.33696729,11.5125 1.0125,11.5125 C0.688032713,11.5125 0.425,11.7755327 0.425,12.1 L0.425,17.95 C0.425,18.4608634 0.839136606,18.875 1.35,18.875 L7.2,18.875 C7.44532525,18.875 7.68060262,18.7775449 7.85407377,18.6040738 C8.02754492,18.4306026 8.125,18.1953253 8.125,17.95 L8.125,15.6125 L11.4375,15.6125 C11.7619673,15.6125 12.025,15.3494673 12.025,15.025 C12.025,14.7005327 11.7619673,14.4375 11.4375,14.4375 L11.4375,14.4375 Z" id="Path" fill="#999999"></path>
                <path d="M14.8875,18.75 C12.8164322,18.75 11.1375,17.0710678 11.1375,15 C11.1375,12.9289322 12.8164322,11.25 14.8875,11.25 C16.9585678,11.25 18.6375,12.9289322 18.6375,15 C18.6375,15.9945618 18.2424118,16.948389 17.5391504,17.6516504 C16.835889,18.3549118 15.8820618,18.75 14.8875,18.75 Z M14.8875,12.225 C13.7403826,12.2251797 12.7072632,12.9190047 12.273099,13.9807861 C11.8389348,15.0425675 12.0899361,16.2614716 12.9082803,17.0653318 C13.7266244,17.869192 14.949816,18.0983889 16.0036758,17.645335 C17.0575357,17.1922812 17.7328029,16.1469377 17.7125,15 C17.6920599,13.4524116 16.4352089,12.2066832 14.8875,12.2 L14.8875,12.225 Z" id="Shape" fill="#009C6C"></path>
            </g>
        </g>
    </g>
</svg>