<?xml version="1.0" encoding="UTF-8"?>
<svg width="30px" height="30px" viewBox="0 0 30 30" version="1.1" xmlns="http://www.w3.org/2000/svg" xmlns:xlink="http://www.w3.org/1999/xlink">
    <!-- Generator: Sketch 55.2 (78181) - https://sketchapp.com -->
    <title>icon-personas</title>
    <desc>Created with Sketch.</desc>
    <g id="docs-design-final" stroke="none" stroke-width="1" fill="none" fill-rule="evenodd">
        <g id="1.1-docs-home" transform="translate(-358.000000, -662.000000)" fill-rule="nonzero">
            <g id="icon-personas" transform="translate(358.000000, 662.000000)">
                <path d="M28.4625,27.7625 L28.55,27.65 L28.6125,27.5625 C28.6615272,27.5495621 28.7080152,27.5284312 28.75,27.5 L28.75,27.4375 L28.85,27.2875 L28.85,27.2875 C28.8785683,27.22657 28.9120104,27.1680464 28.95,27.1125 L28.95,27.1125 C29.0932673,26.8435882 29.2144978,26.5635041 29.3125,26.275 L29.3125,26.2125 L29.3125,26.0625 L29.3125,25.9375 C29.3194934,25.8961268 29.3194934,25.8538732 29.3125,25.8125 C29.319691,25.7543883 29.319691,25.6956117 29.3125,25.6375 L29.3125,25.5625 C29.6143723,23.5645661 29.3725708,21.522207 28.6125,19.65 C28.1121388,18.0336383 27.4417209,16.4749167 26.6125,15 C27.5071629,13.5737177 28.2487718,12.056981 28.825,10.475 C30.1625,6.725 29.9125,3.65 28.1375,1.8625 C26.3625,0.075 23.2875,-0.1625 19.525,1.175 C17.9440975,1.75376195 16.4276196,2.49524426 15,3.3875 C12.3596431,1.59101383 9.28674173,0.533625029 6.1,0.325 C5.21605821,0.314697343 4.33813864,0.471620164 3.5125,0.7875 C3.28546701,0.845394225 3.11290268,1.030146 3.07061243,1.26059611 C3.02832217,1.49104622 3.12404342,1.72503149 3.31572699,1.85976504 C3.50741056,1.99449858 3.75998601,2.00532954 3.9625,1.8875 C4.64390419,1.6249395 5.36991318,1.4975695 6.1,1.5125 C8.87380371,1.6978629 11.5543226,2.58850081 13.8875,4.1 C10.0459375,6.72690945 6.72690945,10.0459375 4.1,13.8875 C2.58850081,11.5543226 1.6978629,8.87380371 1.5125,6.1 C1.49801521,5.38435848 1.61669821,4.67226042 1.8625,4 C1.93841894,3.80350393 1.90374152,3.58143179 1.7715304,3.41743603 C1.63931928,3.25344026 1.42966046,3.17243572 1.2215304,3.20493603 C1.01340034,3.23743634 0.838418938,3.37850393 0.7625,3.575 C0.464178541,4.37434102 0.31586379,5.22185389 0.325,6.075 C0.530309642,9.26821218 1.58312007,12.3489771 3.375,15 C2.49136392,16.4305129 1.75429871,17.946522 1.175,19.525 C-0.1625,23.275 0.0875,26.35 1.8625,28.1375 C3.00915817,29.2016334 4.53775739,29.7562579 6.1,29.675 C7.59553161,29.6376379 9.07427536,29.3503391 10.475,28.825 C12.056981,28.2487718 13.5737177,27.5071629 15,26.6125 C16.926824,27.8443134 19.0361586,28.7639833 21.25,29.3375 L21.425,29.3375 L21.5625,29.3375 C22.3331521,29.5163714 23.1213714,29.6086098 23.9125,29.6125 C25.0557849,29.6408911 26.1860616,29.364793 27.1875,28.8125 L27.1875,28.8125 L27.375,28.75 L27.375,28.75 L27.5125,28.65 L27.6,28.5875 L27.7125,28.5 L27.8125,28.4125 L27.9,28.3375 L28.0875,28.175 L28.25,27.9875 L28.325,27.9 L28.4625,27.7625 Z M19.9125,2.3 C21.1860531,1.80697584 22.5348307,1.53637471 23.9,1.5 C25.1557088,1.43993471 26.3822333,1.89086283 27.3,2.75 C28.7375,4.2 28.8875,6.825 27.7,10.1375 C27.2189592,11.4411954 26.6163025,12.6967302 25.9,13.8875 C24.5887384,11.9713223 23.1032597,10.180379 21.4625,8.5375 L21.4625,8.5375 L21.4625,8.5375 C19.8331875,6.9078978 18.0545582,5.4347743 16.15,4.1375 C17.3433297,3.40756482 18.6031239,2.7923165 19.9125,2.3 Z M9.375,9.375 C11.0880388,7.65733421 12.9729235,6.120106 15,4.7875 C17.0184337,6.10719105 18.8950701,7.6319581 20.6,9.3375 L20.6,9.3375 L20.6,9.3375 C21.425,10.1625 22.1875,11 22.9,11.8375 L22.9,11.8375 C23.7337283,12.8442043 24.5059643,13.9002893 25.2125,15 C23.8865877,17.0319775 22.3488129,18.9175325 20.625,20.625 C18.9119612,22.3426658 17.0270765,23.879894 15,25.2125 C13.2866576,24.1092994 11.6760033,22.8542441 10.1875,21.4625 L10.1875,21.4625 L9.825,21.1125 L9.75,21 L9.4,20.65 L9.4,20.65 L9.4,20.65 C7.66648287,18.9355705 6.12028152,17.0415786 4.7875,15 C6.120106,12.9729235 7.65733421,11.0880388 9.375,9.375 L9.375,9.375 Z M10.0875,27.7 C6.775,28.8875 4.15,28.7375 2.7,27.3 C1.25,25.8625 1.1125,23.225 2.3,19.9125 C2.78344571,18.6098241 3.38599722,17.3545085 4.1,16.1625 C5.40994121,18.0796733 6.89551769,19.8707346 8.5375,21.5125 L8.925,21.8875 L9.05,22.0125 L9.325,22.275 C9.37690173,22.3143342 9.42316581,22.3605983 9.4625,22.4125 L9.7625,22.675 L9.975,22.875 L10.225,23.1 L10.4375,23.2875 L10.6,23.425 L10.85,23.6375 L10.9125,23.6375 C11.8627249,24.4446593 12.855837,25.1999252 13.8875,25.9 C12.6795223,26.6167848 11.4073511,27.2193922 10.0875,27.7 L10.0875,27.7 Z M22.9625,28.4375 L22.9,28.4375 C20.4917327,28.0716876 18.1826838,27.2212092 16.1125,25.9375 C18.0334403,24.6325631 19.8249563,23.1466094 21.4625,21.5 C23.1061598,19.8597638 24.5918717,18.0685392 25.9,16.15 C26.4407492,17.0633543 26.9209486,18.0112261 27.3375,18.9875 C27.3375,19.075 27.4,19.1625 27.4375,19.2375 L27.4375,19.3125 C27.4845361,19.4144378 27.5262587,19.5187443 27.5625,19.625 L27.5625,19.625 L27.675,19.9375 C27.8125,20.3 27.925,20.6625 28.025,21.0125 C28.025,21.075 28.025,21.1375 28.025,21.2125 L28.025,21.2875 C28.2536459,22.1484524 28.3753956,23.0342859 28.3875,23.925 C28.4390447,24.7172246 28.3152732,25.5110696 28.025,26.25 L28.025,26.25 L27.95,26.4 L27.95,26.4 L27.875,26.525 L27.875,26.525 L27.8,26.6375 L27.8,26.6375 L27.725,26.7375 L27.725,26.8 L27.6375,26.9 L27.6375,26.9 L27.5,27.05 L27.3625,27.175 C27.3336144,27.1807259 27.3038856,27.1807259 27.275,27.175 L27.1625,27.2625 L27.1625,27.2625 L27.0125,27.3625 L27.0125,27.3625 C26.8084457,27.5012086 26.590626,27.6184961 26.3625,27.7125 L26.3625,27.7125 C25.3205365,28.2708434 24.1415908,28.5222362 22.9625,28.4375 Z" id="Shape" fill="#999999"></path>
                <path d="M15,11.2499748 C13.4349838,11.255609 12.0290964,12.2080275 11.4434861,13.6593605 C10.8578757,15.1106936 11.2090896,16.7720994 12.3319619,17.8622667 C13.4548343,18.952434 15.125893,19.2543997 16.5592873,18.6261579 C17.9926817,17.9979161 18.90314,16.5644985 18.8625,15 C18.8081572,12.9079905 17.0927018,11.2424998 15,11.2499748 Z M13.0875,17.5 C13.1452517,17.4741346 13.1964987,17.4356993 13.2375,17.3875 C13.5099173,16.9664605 13.9867287,16.7232866 14.4875,16.75 L15.5125,16.75 C16.0132713,16.7232866 16.4900827,16.9664605 16.7625,17.3875 C16.8087546,17.4439073 16.8691402,17.4870399 16.9375,17.5125 C15.8242981,18.4208889 14.2257019,18.4208889 13.1125,17.5125 L13.0875,17.5 Z M15,15.45 C14.5236544,15.45 14.1375,15.0638456 14.1375,14.5875 C14.1375,14.1111544 14.5236544,13.725 15,13.725 C15.4763456,13.725 15.8625,14.1111544 15.8625,14.5875 C15.8625,14.8162492 15.7716297,15.0356295 15.6098796,15.1973796 C15.4481295,15.3591297 15.2287492,15.45 15,15.45 Z M17.425,16.9125 C17.4227375,16.8792051 17.4227375,16.8457949 17.425,16.8125 C17.0935238,16.3472377 16.5974828,16.0254813 16.0375,15.9125 C16.6069341,15.487106 16.8399522,14.7448566 16.6158205,14.0703344 C16.3916888,13.3958122 15.7607849,12.9406287 15.05,12.9406287 C14.3392151,12.9406287 13.7083112,13.3958122 13.4841795,14.0703344 C13.2600478,14.7448566 13.4930659,15.487106 14.0625,15.9125 C13.5025172,16.0254813 13.0064762,16.3472377 12.675,16.8125 L12.675,16.8875 C11.6982183,15.6297624 11.8483647,13.8333058 13.0203773,12.7551626 C14.1923899,11.6770194 15.9951101,11.6770194 17.1671227,12.7551626 C18.3391353,13.8333058 18.4892817,15.6297624 17.5125,16.8875 L17.425,16.9125 Z" id="Shape" fill="#583FA0"></path>
            </g>
        </g>
    </g>
</svg>