<?xml version="1.0" encoding="UTF-8"?>
<svg width="34px" height="20px" viewBox="0 0 34 20" version="1.1" xmlns="http://www.w3.org/2000/svg" xmlns:xlink="http://www.w3.org/1999/xlink">
    <!-- Generator: Sketch 55.2 (78181) - https://sketchapp.com -->
    <title>Group 3</title>
    <desc>Created with Sketch.</desc>
    <g id="docs-design-final" stroke="none" stroke-width="1" fill="none" fill-rule="evenodd">
        <g id="1.1-docs-home" transform="translate(-806.000000, -669.000000)">
            <g id="Group-3" transform="translate(807.000000, 670.000000)">
                <path d="M3.55271368e-15,9.12 C3.55271368e-15,9.12 7.10202401,-1.19015908e-13 15.7840137,-1.19015908e-13 C24.4660034,-1.19015908e-13 31.5680274,9.12 31.5680274,9.12 C31.5680274,9.12 24.3565009,18.24 15.7840137,18.24 C7.21152659,18.24 3.55271368e-15,9.12 3.55271368e-15,9.12 Z" id="Path" stroke="#A9A8A7" stroke-width="1.33" stroke-linecap="round" stroke-linejoin="round"></path>
                <ellipse id="Oval" stroke="#A9A8A7" stroke-width="1.33" stroke-linecap="round" stroke-linejoin="round" cx="15.7578731" cy="6.84" rx="6.75787307" ry="6.84"></ellipse>
                <path d="M15.8501125,10.7001125 C14.2929329,10.7001125 12.8890832,9.76209015 12.2931763,8.32344375 C11.6972695,6.88479735 12.0266591,5.22884371 13.1277514,4.12775143 C14.2288437,3.02665914 15.8847973,2.69726948 17.3234438,3.29317634 C18.7620902,3.88908319 19.7001125,5.29293289 19.7001125,6.85011254 C19.7001125,8.97640882 17.9764088,10.7001125 15.8501125,10.7001125 Z M15.8501125,3.88761254 C14.6475511,3.86731326 13.5520655,4.57609064 13.0777313,5.68133861 C12.603397,6.78658657 12.8443651,8.0689237 13.6875571,8.92659107 C14.5307491,9.78425844 15.8087992,10.0470171 16.9219602,9.59156293 C18.0351213,9.13610878 18.7624412,8.05284525 18.7626125,6.85011254 C18.7561866,5.23602937 17.4638525,3.92150932 15.8501125,3.88761254 L15.8501125,3.88761254 Z" id="Shape" fill="#03466B" fill-rule="nonzero"></path>
            </g>
        </g>
    </g>
</svg>