<svg width="16" height="16" viewBox="0 0 16 16" fill="none" xmlns="http://www.w3.org/2000/svg">
<path fill-rule="evenodd" clip-rule="evenodd" d="M12.8847 13.6282C12.8376 13.4024 12.7529 13.1577 12.6494 12.913C12.3106 12.1035 11.5953 11.6612 10.1176 11.0306C9.98588 10.9741 9.56235 10.7953 9.55294 10.7953C9.35529 10.7106 9.21412 10.6541 9.08235 10.5882C9.10118 10.4941 9.10118 10.4 9.11059 10.2965C9.11059 10.2588 9.12 10.2212 9.12 10.1741C9.05412 10.1177 8.99765 10.0612 8.94118 9.99531C9.14824 9.69413 9.31765 9.36472 9.44941 9.00707C9.46824 8.9506 9.46824 8.9506 9.47765 8.91295C9.75059 8.69648 9.92941 8.37648 10.0329 8.00943C10.1835 7.69884 10.2682 7.32237 10.2306 6.91766C10.2024 6.54119 10.08 6.20237 9.88235 5.94825C9.86353 5.44943 9.81647 4.88472 9.74118 4.49884C9.73176 4.44237 9.72235 4.3859 9.71294 4.32001C9.92941 4.26354 10.1647 4.23531 10.3906 4.23531C10.8518 4.23531 11.3788 4.3859 11.7459 4.66825C12.1035 4.94119 12.3765 5.32707 12.4988 5.76943C12.5271 5.86354 12.5459 5.96707 12.5647 6.06119C12.6306 6.40943 12.6682 6.9459 12.6682 7.31295C12.6682 7.33178 12.6682 7.3506 12.6682 7.36001C12.8 7.41648 12.9224 7.55766 12.9412 7.84001C12.96 8.07531 12.8753 8.26354 12.8188 8.34825C12.7718 8.5459 12.6682 8.76237 12.4612 8.80001C12.4424 8.89413 12.4141 8.98825 12.3765 9.08237C12.3765 9.09178 12.3671 9.1106 12.3671 9.1106C12.2071 9.52472 11.9624 9.89178 11.6612 10.1553C11.6612 10.2024 11.6612 10.2494 11.6612 10.2871C11.6894 10.6165 11.5765 10.8424 12.4424 11.2282C13.3176 11.6141 14.6259 12.0188 14.8894 12.64C15.1624 13.2612 15.0494 13.6188 15.0494 13.6188H12.8847V13.6282ZM11.7835 13.2706C12.1318 14.08 11.9906 14.5506 11.9906 14.5506H0.0564706C0.0564706 14.5506 -0.0752941 14.08 0.263529 13.2706C0.602353 12.4612 2.26824 11.9247 3.37882 11.4259C4.48 10.9177 4.36706 10.6165 4.40471 10.2024C4.40471 10.1553 4.41412 10.0988 4.41412 10.0424C4.02824 9.71295 3.70824 9.23295 3.50118 8.67766V8.66825C3.50118 8.66825 3.49176 8.65884 3.49176 8.64943C3.45412 8.53648 3.40706 8.40472 3.37882 8.28237C3.11529 8.23531 2.96471 7.94354 2.90824 7.68001C2.85176 7.56707 2.72941 7.31295 2.75765 7.01178C2.79529 6.6259 2.95529 6.44707 3.12471 6.37178C3.12471 6.35295 3.12471 6.33413 3.12471 6.31531C3.12471 5.83531 3.17176 5.12943 3.25647 4.67766C3.27529 4.55531 3.30353 4.42354 3.34118 4.30119C3.50118 3.73648 3.84941 3.23766 4.30118 2.88001C4.77176 2.51295 5.44 2.31531 6.03294 2.31531C6.62588 2.31531 7.29412 2.51295 7.76471 2.88001C8.21647 3.23766 8.56471 3.73648 8.72471 4.3106C8.76235 4.43295 8.79059 4.56472 8.80941 4.68707C8.89412 5.13884 8.94118 5.83531 8.94118 6.31531C8.94118 6.33413 8.94118 6.36237 8.94118 6.38119C9.11059 6.45648 9.26118 6.63531 9.28941 7.01178C9.31765 7.31295 9.20471 7.56707 9.13882 7.68001C9.08235 7.94354 8.94118 8.2259 8.68706 8.27295C8.65882 8.39531 8.62118 8.51766 8.57412 8.64001C8.57412 8.64943 8.56471 8.67766 8.56471 8.67766C8.35765 9.22354 8.04706 9.69413 7.67059 10.0424C7.67059 10.0988 7.67059 10.1647 7.67059 10.2118C7.70824 10.6353 7.55765 10.9365 8.66824 11.4353C9.77882 11.9341 11.4447 12.4612 11.7835 13.2706Z" fill="#8F95B2"/>
</svg>
