<svg width="16" height="16" viewBox="0 0 16 16" fill="none" xmlns="http://www.w3.org/2000/svg">
<path fill-rule="evenodd" clip-rule="evenodd" d="M6 9H2C1.45 9 1 9.45 1 10C1 10.55 1.45 11 2 11H3.59L0.3 14.29C0.11 14.47 0 14.72 0 15C0 15.55 0.45 16 1 16C1.28 16 1.53 15.89 1.71 15.71L5 12.41V14C5 14.55 5.45 15 6 15C6.55 15 7 14.55 7 14V10C7 9.45 6.55 9 6 9ZM15.55 3.17L11.06 0.17C10.9 0.06 10.71 0 10.5 0C10.31 0 10.14 0.06 9.99 0.15L5.53 2.82L1.56 0.17C1.4 0.06 1.21 0 1 0C0.45 0 0 0.45 0 1V7H2V2.87L4.94 4.83C4.96 4.84 4.98 4.85 5 4.86V7H6V4.86C6 4.86 6.01 4.86 6.01 4.85L10 2.47V11.14C10 11.14 9.99 11.14 9.99 11.15L9 11.73V14.06L10.47 13.18L14.44 15.83C14.6 15.94 14.79 16 15 16C15.55 16 16 15.55 16 15V4C16 3.65 15.82 3.35 15.55 3.17ZM14 13.13L11.06 11.17C11.04 11.16 11.02 11.15 11.01 11.14V2.54L14.01 4.54V13.13H14Z" fill="#8F95B2"/>
</svg>
