<svg width="16" height="16" viewBox="0 0 16 16" fill="none" xmlns="http://www.w3.org/2000/svg">
<path fill-rule="evenodd" clip-rule="evenodd" d="M15.2283 14.4188C14.7953 13.4306 12.7059 12.7718 11.313 12.16C9.92004 11.5482 10.1083 11.1718 10.0612 10.6635C10.0518 10.5976 10.0518 10.5224 10.0518 10.4471C10.5318 10.0235 10.9177 9.44 11.1718 8.77176C11.1718 8.77176 11.1812 8.73412 11.1906 8.7247C11.2471 8.58353 11.2942 8.42353 11.3318 8.27294C11.6518 8.20706 11.84 7.85882 11.9059 7.53882C11.9812 7.40706 12.1224 7.08706 12.0942 6.72C12.0471 6.24941 11.8589 6.03294 11.6518 5.94823C11.6518 5.92 11.6518 5.89176 11.6518 5.86353C11.6518 5.27059 11.5953 4.4047 11.4918 3.84C11.473 3.68 11.4353 3.52941 11.3883 3.36941C11.1812 2.68235 10.7577 2.05176 10.1836 1.61882C9.58122 1.17647 8.74357 0.931763 8.00004 0.931763C7.25651 0.931763 6.41886 1.16706 5.82592 1.61882C5.25181 2.06117 4.82828 2.68235 4.62122 3.36941C4.57416 3.52941 4.53651 3.68 4.51769 3.84C4.40475 4.4047 4.35769 5.26117 4.35769 5.86353C4.35769 5.89176 4.35769 5.91059 4.35769 5.93882C4.13181 6.02353 3.93416 6.24 3.8871 6.72C3.85886 7.07764 4.00945 7.39764 4.07533 7.52941C4.15063 7.85882 4.33886 8.20706 4.66828 8.26353C4.70592 8.42353 4.75298 8.57412 4.80945 8.7247C4.80945 8.73412 4.81886 8.74353 4.81886 8.75294L4.82828 8.76235C5.08239 9.44 5.4871 10.0329 5.97651 10.4565C5.97651 10.5224 5.9671 10.5882 5.9671 10.6541C5.92004 11.1624 6.06122 11.5388 4.67769 12.1506C3.28475 12.7624 1.19533 13.4212 0.762393 14.4094C0.329452 15.3976 0.508276 15.9812 0.508276 15.9812H15.4918C15.4824 15.9906 15.6612 15.4071 15.2283 14.4188Z" fill="#8F95B2"/>
</svg>
