<svg width="16" height="16" viewBox="0 0 16 16" fill="none" xmlns="http://www.w3.org/2000/svg">
<path fill-rule="evenodd" clip-rule="evenodd" d="M15.2375 6.95529H13.4963C13.3928 6.60706 13.2422 6.28706 13.0728 5.97647L14.3528 4.69647C14.6446 4.4047 14.6446 3.9247 14.3528 3.63294L13.2893 2.56941C12.9975 2.27764 12.5175 2.27764 12.2258 2.56941L10.9458 3.84941C10.6352 3.68941 10.3152 3.53882 9.96694 3.43529V1.6847C9.96694 1.27059 9.62811 0.931763 9.21399 0.931763H7.70811C7.29399 0.931763 6.95517 1.27059 6.95517 1.6847V3.43529C6.58811 3.54823 6.24929 3.69882 5.91988 3.87765L4.69635 2.65412C4.41399 2.37176 3.95282 2.37176 3.67046 2.65412L2.65399 3.68C2.37164 3.96235 2.37164 4.42353 2.65399 4.70588L3.87752 5.92941C3.68929 6.24941 3.5387 6.58823 3.42576 6.95529H1.68458C1.27046 6.95529 0.931641 7.29412 0.931641 7.70823V9.21412C0.931641 9.62823 1.27046 9.96706 1.68458 9.96706H3.42576C3.52929 10.3153 3.67988 10.6353 3.84929 10.9459L2.56929 12.2259C2.27752 12.5176 2.27752 12.9976 2.56929 13.2894L3.63282 14.3529C3.92458 14.6447 4.40458 14.6447 4.69635 14.3529L5.97635 13.0729C6.28693 13.2424 6.60694 13.3835 6.95517 13.4871V15.2376C6.95517 15.6518 7.29399 15.9906 7.70811 15.9906H9.21399C9.62811 15.9906 9.96694 15.6518 9.96694 15.2376V13.4871C10.334 13.3741 10.6728 13.2235 11.0022 13.0447L12.2258 14.2682C12.5081 14.5506 12.9693 14.5506 13.2516 14.2682L14.2775 13.2424C14.5599 12.96 14.5599 12.4988 14.2775 12.2165L13.054 10.9929C13.2328 10.6635 13.3928 10.3247 13.5058 9.95765H15.2469C15.6611 9.95765 15.9999 9.61882 15.9999 9.2047V7.69882C15.9905 7.29412 15.6516 6.95529 15.2375 6.95529ZM8.46105 11.2847C6.8987 11.2847 5.63752 10.0235 5.63752 8.46117C5.63752 6.89882 6.8987 5.63765 8.46105 5.63765C10.0234 5.63765 11.2846 6.89882 11.2846 8.46117C11.2846 10.0235 10.0234 11.2847 8.46105 11.2847Z" fill="#8F95B2"/>
</svg>
