<svg width="16" height="16" viewBox="0 0 16 16" fill="none" xmlns="http://www.w3.org/2000/svg">
<path fill-rule="evenodd" clip-rule="evenodd" d="M9.40487 11.7463C8.96778 11.9103 8.49437 12 8 12C7.50563 12 7.03222 11.9103 6.59513 11.7463L5.89269 13.6195C6.54832 13.8655 7.25845 14 8 14C8.74155 14 9.45168 13.8655 10.1073 13.6195L9.40487 11.7463ZM11.7463 9.40487L13.6195 10.1073C13.8655 9.45168 14 8.74155 14 8C14 7.25845 13.8655 6.54832 13.6195 5.89269L11.7463 6.59513C11.9103 7.03222 12 7.50563 12 8C12 8.49437 11.9103 8.96778 11.7463 9.40487ZM9.40487 4.25367L10.1073 2.3805C9.45168 2.13453 8.74155 2 8 2C7.25845 2 6.54832 2.13453 5.89269 2.3805L6.59513 4.25367C7.03222 4.08968 7.50563 4 8 4C8.49437 4 8.96778 4.08968 9.40487 4.25367ZM4.25367 6.59513L2.3805 5.89269C2.13453 6.54832 2 7.25845 2 8C2 8.74155 2.13453 9.45168 2.3805 10.1073L4.25367 9.40487C4.08968 8.96778 4 8.49437 4 8C4 7.50563 4.08968 7.03222 4.25367 6.59513ZM8 16C3.58172 16 0 12.4183 0 8C0 3.58172 3.58172 0 8 0C12.4183 0 16 3.58172 16 8C16 12.4183 12.4183 16 8 16ZM8 10C9.10457 10 10 9.10457 10 8C10 6.89543 9.10457 6 8 6C6.89543 6 6 6.89543 6 8C6 9.10457 6.89543 10 8 10Z" fill="#8F95B2"/>
</svg>
