<svg width="270" height="110" viewBox="0 0 270 110" xmlns="http://www.w3.org/2000/svg">
  <g transform="rotate(180 255 195)" fill="#DADEE2" fill-rule="evenodd" opacity=".148">
    <circle cx="245" cy="285" r="5"/>
    <circle cx="265" cy="285" r="5"/>
    <circle cx="285" cy="285" r="5"/>
    <circle cx="305" cy="285" r="5"/>
    <circle cx="325" cy="285" r="5"/>
    <circle cx="345" cy="285" r="5"/>
    <circle cx="365" cy="285" r="5"/>
    <circle cx="385" cy="285" r="5"/>
    <circle cx="405" cy="285" r="5"/>
    <circle cx="425" cy="285" r="5"/>
    <circle cx="445" cy="285" r="5"/>
    <circle cx="465" cy="285" r="5"/>
    <circle cx="485" cy="285" r="5"/>
    <circle cx="505" cy="285" r="5"/>
    <circle cx="245" cy="305" r="5"/>
    <circle cx="265" cy="305" r="5"/>
    <circle cx="285" cy="305" r="5"/>
    <circle cx="305" cy="305" r="5"/>
    <circle cx="325" cy="305" r="5"/>
    <circle cx="345" cy="305" r="5"/>
    <circle cx="365" cy="305" r="5"/>
    <circle cx="385" cy="305" r="5"/>
    <circle cx="405" cy="305" r="5"/>
    <circle cx="425" cy="305" r="5"/>
    <circle cx="445" cy="305" r="5"/>
    <circle cx="465" cy="305" r="5"/>
    <circle cx="485" cy="305" r="5"/>
    <circle cx="505" cy="305" r="5"/>
    <circle cx="245" cy="325" r="5"/>
    <circle cx="265" cy="325" r="5"/>
    <circle cx="285" cy="325" r="5"/>
    <circle cx="305" cy="325" r="5"/>
    <circle cx="325" cy="325" r="5"/>
    <circle cx="345" cy="325" r="5"/>
    <circle cx="365" cy="325" r="5"/>
    <circle cx="385" cy="325" r="5"/>
    <circle cx="405" cy="325" r="5"/>
    <circle cx="425" cy="325" r="5"/>
    <circle cx="445" cy="325" r="5"/>
    <circle cx="465" cy="325" r="5"/>
    <circle cx="485" cy="325" r="5"/>
    <circle cx="245" cy="345" r="5"/>
    <circle cx="265" cy="345" r="5"/>
    <circle cx="285" cy="345" r="5"/>
    <circle cx="305" cy="345" r="5"/>
    <circle cx="325" cy="345" r="5"/>
    <circle cx="345" cy="345" r="5"/>
    <circle cx="365" cy="345" r="5"/>
    <circle cx="385" cy="345" r="5"/>
    <circle cx="405" cy="345" r="5"/>
    <circle cx="425" cy="345" r="5"/>
    <circle cx="445" cy="345" r="5"/>
    <circle cx="465" cy="345" r="5"/>
    <circle cx="245" cy="365" r="5"/>
    <circle cx="265" cy="365" r="5"/>
    <circle cx="285" cy="365" r="5"/>
    <circle cx="305" cy="365" r="5"/>
    <circle cx="325" cy="365" r="5"/>
    <circle cx="345" cy="365" r="5"/>
    <circle cx="365" cy="365" r="5"/>
    <circle cx="385" cy="365" r="5"/>
    <circle cx="405" cy="365" r="5"/>
    <circle cx="425" cy="365" r="5"/>
    <circle cx="445" cy="365" r="5"/>
    <circle cx="245" cy="385" r="5"/>
    <circle cx="265" cy="385" r="5"/>
    <circle cx="285" cy="385" r="5"/>
    <circle cx="305" cy="385" r="5"/>
    <circle cx="325" cy="385" r="5"/>
    <circle cx="345" cy="385" r="5"/>
    <circle cx="365" cy="385" r="5"/>
    <circle cx="385" cy="385" r="5"/>
    <circle cx="405" cy="385" r="5"/>
    <circle cx="425" cy="385" r="5"/>
  </g>
</svg>