
<svg width="270px" height="110px" viewBox="0 0 270 110" version="1.1" xmlns="http://www.w3.org/2000/svg" xmlns:xlink="http://www.w3.org/1999/xlink">
    <g id="Docs-(desktop)" stroke="none" stroke-width="1" fill="none" fill-rule="evenodd" opacity="0.147623698">
        <g id="02–04—Segment—Docs" transform="translate(-832.000000, -4028.000000)" fill="#DADEE2">
            <g id="Pre-Footer" transform="translate(416.000000, 3670.000000)">
                <g id="Get-started-with-Segment" transform="translate(3.000000, 276.000000)">
                    <g id="pattern" transform="translate(668.000000, 277.000000) scale(-1, -1) translate(-668.000000, -277.000000) translate(413.000000, 82.000000)">
                        <circle cx="245" cy="285" r="5"></circle>
                        <circle cx="265" cy="285" r="5"></circle>
                        <circle cx="285" cy="285" r="5"></circle>
                        <circle cx="305" cy="285" r="5"></circle>
                        <circle cx="325" cy="285" r="5"></circle>
                        <circle cx="345" cy="285" r="5"></circle>
                        <circle cx="365" cy="285" r="5"></circle>
                        <circle cx="385" cy="285" r="5"></circle>
                        <circle cx="405" cy="285" r="5"></circle>
                        <circle cx="425" cy="285" r="5"></circle>
                        <circle cx="445" cy="285" r="5"></circle>
                        <circle cx="465" cy="285" r="5"></circle>
                        <circle cx="485" cy="285" r="5"></circle>
                        <circle cx="505" cy="285" r="5"></circle>
                        <circle cx="245" cy="305" r="5"></circle>
                        <circle cx="265" cy="305" r="5"></circle>
                        <circle cx="285" cy="305" r="5"></circle>
                        <circle cx="305" cy="305" r="5"></circle>
                        <circle cx="325" cy="305" r="5"></circle>
                        <circle cx="345" cy="305" r="5"></circle>
                        <circle cx="365" cy="305" r="5"></circle>
                        <circle cx="385" cy="305" r="5"></circle>
                        <circle cx="405" cy="305" r="5"></circle>
                        <circle cx="425" cy="305" r="5"></circle>
                        <circle cx="445" cy="305" r="5"></circle>
                        <circle cx="465" cy="305" r="5"></circle>
                        <circle cx="485" cy="305" r="5"></circle>
                        <circle cx="505" cy="305" r="5"></circle>
                        <circle cx="245" cy="325" r="5"></circle>
                        <circle cx="265" cy="325" r="5"></circle>
                        <circle cx="285" cy="325" r="5"></circle>
                        <circle cx="305" cy="325" r="5"></circle>
                        <circle cx="325" cy="325" r="5"></circle>
                        <circle cx="345" cy="325" r="5"></circle>
                        <circle cx="365" cy="325" r="5"></circle>
                        <circle cx="385" cy="325" r="5"></circle>
                        <circle cx="405" cy="325" r="5"></circle>
                        <circle cx="425" cy="325" r="5"></circle>
                        <circle cx="445" cy="325" r="5"></circle>
                        <circle cx="465" cy="325" r="5"></circle>
                        <circle cx="485" cy="325" r="5"></circle>
                        <circle cx="245" cy="345" r="5"></circle>
                        <circle cx="265" cy="345" r="5"></circle>
                        <circle cx="285" cy="345" r="5"></circle>
                        <circle cx="305" cy="345" r="5"></circle>
                        <circle cx="325" cy="345" r="5"></circle>
                        <circle cx="345" cy="345" r="5"></circle>
                        <circle cx="365" cy="345" r="5"></circle>
                        <circle cx="385" cy="345" r="5"></circle>
                        <circle cx="405" cy="345" r="5"></circle>
                        <circle cx="425" cy="345" r="5"></circle>
                        <circle cx="445" cy="345" r="5"></circle>
                        <circle cx="465" cy="345" r="5"></circle>
                        <circle cx="245" cy="365" r="5"></circle>
                        <circle cx="265" cy="365" r="5"></circle>
                        <circle cx="285" cy="365" r="5"></circle>
                        <circle cx="305" cy="365" r="5"></circle>
                        <circle cx="325" cy="365" r="5"></circle>
                        <circle cx="345" cy="365" r="5"></circle>
                        <circle cx="365" cy="365" r="5"></circle>
                        <circle cx="385" cy="365" r="5"></circle>
                        <circle cx="405" cy="365" r="5"></circle>
                        <circle cx="425" cy="365" r="5"></circle>
                        <circle cx="445" cy="365" r="5"></circle>
                        <circle cx="245" cy="385" r="5"></circle>
                        <circle cx="265" cy="385" r="5"></circle>
                        <circle cx="285" cy="385" r="5"></circle>
                        <circle cx="305" cy="385" r="5"></circle>
                        <circle cx="325" cy="385" r="5"></circle>
                        <circle cx="345" cy="385" r="5"></circle>
                        <circle cx="365" cy="385" r="5"></circle>
                        <circle cx="385" cy="385" r="5"></circle>
                        <circle cx="405" cy="385" r="5"></circle>
                        <circle cx="425" cy="385" r="5"></circle>
                    </g>
                </g>
            </g>
        </g>
    </g>
</svg>