<svg viewBox="0 0 16 16" xmlns="http://www.w3.org/2000/svg">
  <path d="M8.333 0c.737 0 1.334.623 1.334 1.391v2.087c0 .384-.299.696-.667.696-.368 0-.667-.312-.667-.696V1.74A.34.34 0 0 0 8 1.391H1.667a.34.34 0 0 0-.334.348v12.522c0 .192.15.348.334.348H8a.34.34 0 0 0 .333-.348v-1.74c0-.383.299-.695.667-.695.368 0 .667.312.667.696v2.087c0 .768-.597 1.391-1.334 1.391h-7C.597 16 0 15.377 0 14.609V1.39C0 .623.597 0 1.333 0zm2.686 4.952a.643.643 0 0 1 .684.035l4 2.782a.704.704 0 0 1 .297.579c0 .232-.111.45-.297.579l-4 2.782a.647.647 0 0 1-.37.117.691.691 0 0 1-.666-.696V9.391h-6A.993.993 0 0 1 3.8 8.87a1.083 1.083 0 0 1 0-1.044.993.993 0 0 1 .866-.522h6V5.565a.7.7 0 0 1 .352-.613z" fill="#1F477D" fill-rule="evenodd"/>
</svg>