<?xml version="1.0" encoding="UTF-8"?>
<svg width="3068px" height="3190px" viewBox="0 0 3068 3190" version="1.1" xmlns="http://www.w3.org/2000/svg" xmlns:xlink="http://www.w3.org/1999/xlink">
    <title>Styles</title>
    <g id="Styles" stroke="none" stroke-width="1" fill="none" fill-rule="evenodd">
        <rect fill="#FFFFFF" x="0" y="0" width="3068" height="3190"></rect>
        <path d="M1504,2666 L1730,2666 C1741.04569,2666 1750,2674.95431 1750,2686 L1750,2912 C1750,2923.04569 1741.04569,2932 1730,2932 L1504,2932 C1492.95431,2932 1484,2923.04569 1484,2912 L1484,2686 C1484,2674.95431 1492.95431,2666 1504,2666 Z" id="light-blue" stroke="#4184FB" stroke-width="4" stroke-linecap="round" stroke-dasharray="4,10"></path>
        <path d="M1158,2666 L1384,2666 C1395.04569,2666 1404,2674.95431 1404,2686 L1404,2912 C1404,2923.04569 1395.04569,2932 1384,2932 L1158,2932 C1146.95431,2932 1138,2923.04569 1138,2912 L1138,2686 C1138,2674.95431 1146.95431,2666 1158,2666 Z" id="grey" stroke="#C7D8E7" stroke-width="4" stroke-linecap="round" stroke-dasharray="4,10"></path>
        <path d="M812,2666 L1038,2666 C1049.04569,2666 1058,2674.95431 1058,2686 L1058,2912 C1058,2923.04569 1049.04569,2932 1038,2932 L812,2932 C800.954305,2932 792,2923.04569 792,2912 L792,2686 C792,2674.95431 800.954305,2666 812,2666 Z" id="dark" stroke="#435A6F" stroke-width="3" stroke-linecap="round" stroke-dasharray="4,10"></path>
        <path d="M1504,2346 L1730,2346 C1741.04569,2346 1750,2354.95431 1750,2366 L1750,2592 C1750,2603.04569 1741.04569,2612 1730,2612 L1504,2612 C1492.95431,2612 1484,2603.04569 1484,2592 L1484,2366 C1484,2354.95431 1492.95431,2346 1504,2346 Z" id="blue" stroke="#4286E2" stroke-width="4" stroke-linecap="round" stroke-dasharray="4,10"></path>
        <path d="M1158,2346 L1384,2346 C1395.04569,2346 1404,2354.95431 1404,2366 L1404,2592 C1404,2603.04569 1395.04569,2612 1384,2612 L1158,2612 C1146.95431,2612 1138,2603.04569 1138,2592 L1138,2366 C1138,2354.95431 1146.95431,2346 1158,2346 Z" id="navy" stroke="#1F477D" stroke-width="4" stroke-linecap="round" stroke-dasharray="4,10"></path>
        <path d="M812,2346 L1038,2346 C1049.04569,2346 1058,2354.95431 1058,2366 L1058,2592 C1058,2603.04569 1049.04569,2612 1038,2612 L812,2612 C800.954305,2612 792,2603.04569 792,2592 L792,2366 C792,2354.95431 800.954305,2346 812,2346 Z" id="green" stroke="#1DC989" stroke-width="3" stroke-linecap="round" stroke-dasharray="4,10"></path>
        <rect id="light-blue" stroke="#4184FB" stroke-width="3" x="2173.5" y="1790.5" width="269" height="269" rx="20"></rect>
        <rect id="success" stroke="#1EB57D" stroke-width="3" x="2519.5" y="1472.5" width="269" height="269" rx="20"></rect>
        <rect id="error" stroke="#FA6161" stroke-width="3" x="2173.5" y="1472.5" width="269" height="269" rx="20"></rect>
        <rect id="light-grey" stroke="#E4EBEE" stroke-width="3" x="1482.5" y="1790.5" width="269" height="269" rx="20"></rect>
        <rect id="grey" stroke="#C7D8E7" stroke-width="3" x="1136.5" y="1790.5" width="269" height="269" rx="20"></rect>
        <rect id="dark" stroke="#435A6F" stroke-width="3" stroke-linecap="round" x="790.5" y="1790.5" width="269" height="269" rx="20"></rect>
        <rect id="blue" stroke="#4286E2" stroke-width="3" x="1482.5" y="1470.5" width="269" height="269" rx="20"></rect>
        <rect id="navy" stroke="#1F477D" stroke-width="3" x="1136.5" y="1470.5" width="269" height="269" rx="20"></rect>
        <rect id="green" stroke="#1DC989" stroke-width="3" x="790.5" y="1470.5" width="269" height="269" rx="20"></rect>
        <rect id="light-blue" fill="#4184FB" x="2175" y="918" width="266" height="266" rx="20"></rect>
        <rect id="success" fill="#1EB57D" x="2521" y="598" width="266" height="266" rx="20"></rect>
        <rect id="error" fill="#FA6161" x="2175" y="598" width="266" height="266" rx="20"></rect>
        <rect id="light-grey" fill="#F7F9FA" x="1484" y="918" width="266" height="266" rx="20"></rect>
        <rect id="grey" fill="#C7D8E7" x="1138" y="918" width="266" height="266" rx="20"></rect>
        <rect id="dark" fill="#435A6F" x="792" y="918" width="266" height="266" rx="20"></rect>
        <rect id="blue" fill="#4286E2" x="1484" y="598" width="266" height="266" rx="20"></rect>
        <rect id="navy" fill="#1F477D" x="1138" y="598" width="266" height="266" rx="20"></rect>
        <rect id="green" fill="#1DC989" x="792" y="598" width="266" height="266" rx="20"></rect>
        <g id="label" transform="translate(242.000000, 107.000000)">
            <text id="01-Fills" font-family="Helvetica" font-size="36" font-weight="normal">
                <tspan x="0" y="555" fill="#A5B0BA">01</tspan>
                <tspan x="40.0429688" y="555" fill="#1F477D"> Fills</tspan>
            </text>
            <text id="Styles" font-family="Helvetica" font-size="56" font-weight="normal" fill="#1F477D">
                <tspan x="0" y="163">Styles</tspan>
            </text>
            <text id="02-Paths-Solid" font-family="Helvetica" font-size="36" font-weight="normal">
                <tspan x="0" y="1408" fill="#A5B0BA">02</tspan>
                <tspan x="40.0429688" y="1408" fill="#1F477D"> Paths Solid</tspan>
            </text>
            <text id="03-Paths-Dotted" font-family="Helvetica" font-size="36" font-weight="normal">
                <tspan x="0" y="2280" fill="#A5B0BA">03</tspan>
                <tspan x="40.0429688" y="2280" fill="#1F477D"> Paths Dotted</tspan>
            </text>
            <line x1="0" y1="1220.5" x2="2544" y2="1220.5" id="Line" stroke="#ACB2CA" stroke-linecap="square"></line>
            <line x1="0" y1="2095.5" x2="2544" y2="2095.5" id="Line" stroke="#ACB2CA" stroke-linecap="square"></line>
            <g id="Segment/Logo/Horizontal" fill="#1DC989">
                <g id="Combined-Shape">
                    <path d="M38.3804367,23.0381358 L38.4886995,23.0421891 L41.4476396,23.3431618 C41.6676967,23.3644906 41.8640918,23.4735044 42.0013317,23.6465045 C42.1385716,23.8195045 42.1989099,24.0363471 42.1705154,24.2567445 C41.5257244,29.3045551 39.0897158,33.9767423 35.3144348,37.4130453 C31.356956,41.0152388 26.2305717,43 20.8782147,43 C18.2103179,43 15.6051256,42.5141779 13.1395394,41.5591226 C12.9324965,41.4785472 12.7704114,41.3221362 12.6840449,41.1171429 C12.5964953,40.9145196 12.5953122,40.6905674 12.6816787,40.4867591 L12.6816787,40.4867591 L13.8257391,37.7377167 C13.9961059,37.3301 14.4504173,37.1345862 14.8597709,37.2909973 C16.7775805,38.0256552 18.8030524,38.3977238 20.8782147,38.3977238 C25.0853282,38.3977238 29.1137931,36.8383532 32.2229872,34.0087354 C35.1724625,31.3236794 37.0843565,27.6764584 37.6037387,23.741299 C37.6617107,23.3040591 38.0509515,22.9971617 38.4886995,23.0421891 Z M109.8777,11.1642325 C112.381795,11.1642325 114.340304,11.9479404 115.571368,13.4354347 L115.571368,13.4354347 L115.571368,12.2055978 C115.571368,11.8393903 115.861647,11.5423686 116.218375,11.5423686 L116.218375,11.5423686 L119.522195,11.5423686 C119.878923,11.5423686 120.169203,11.8393903 120.169203,12.2055978 L120.169203,12.2055978 L120.169203,30.6519586 C120.169203,33.5875829 119.390462,36.0937782 117.915751,37.8973799 C116.135605,40.0779249 113.430996,41.1825117 109.8777,41.1825117 C104.937126,41.1825117 101.041091,38.0464872 100.401077,33.5553757 C100.353281,33.2189897 100.570116,32.8945322 100.8977,32.8181893 L100.8977,32.8181893 L104.129241,32.05476 C104.304108,32.0130099 104.491798,32.0476028 104.639852,32.1513815 C104.78674,32.2539673 104.886997,32.416196 104.912645,32.5987033 C105.296186,35.1955559 107.290835,36.9407076 109.8777,36.9407076 C113.734099,36.9407076 115.530565,34.9820342 115.530565,30.7784016 L115.530565,30.7784016 L115.530565,29.1620786 C114.231887,30.7139872 112.194104,31.5955095 109.8777,31.5955095 C104.390375,31.5955095 100.408072,27.3083768 100.408072,21.4013425 C100.408072,18.610054 101.334867,16.0394444 103.015921,14.1630783 C104.749435,12.229455 107.185915,11.1642325 109.8777,11.1642325 Z M7.2429552,33.4778859 C8.58577685,33.4778859 9.67541451,34.5692083 9.67541451,35.9141062 C9.67541451,37.260189 8.58577685,38.3503265 7.2429552,38.3503265 C5.89895045,38.3503265 4.80931279,37.260189 4.80931279,35.9141062 C4.80931279,34.5692083 5.89895045,33.4778859 7.2429552,33.4778859 Z M213.735454,6.66149063 C214.120208,6.66149063 214.433292,6.95316936 214.433292,7.30901742 L214.433292,7.30901742 L214.433292,12.9127493 L218.344954,12.9127493 C218.729708,12.9127493 219.042792,13.2032613 219.042792,13.5614428 L219.042792,13.5614428 L219.042792,16.5388994 C219.042792,16.8959141 218.729708,17.1864261 218.344954,17.1864261 L218.344954,17.1864261 L214.433292,17.1864261 L214.433292,27.0790022 C214.433292,28.7532381 215.148733,29.4054318 216.984485,29.4054318 C217.332776,29.4054318 217.834464,29.3645967 218.231791,29.3050943 C218.434227,29.2747597 218.640435,29.3284286 218.797606,29.4521004 C218.953519,29.5746054 219.042792,29.7542795 219.042792,29.9444541 L219.042792,29.9444541 L219.042792,32.7317361 C219.042792,33.0175812 218.839099,33.2719251 218.544875,33.3524284 C218.266998,33.4282649 217.242245,33.6779419 215.787474,33.6779419 C211.865753,33.6779419 209.42898,31.3701797 209.42898,27.6553593 L209.42898,27.6553593 L209.42898,17.1864261 L206.05044,17.1864261 C205.664429,17.1864261 205.352603,16.8959141 205.352603,16.5388994 L205.352603,16.5388994 L205.352603,13.5614428 C205.352603,13.2032613 205.664429,12.9127493 206.05044,12.9127493 L206.05044,12.9127493 L206.923051,12.9127493 C207.991812,12.9127493 209.783557,12.5685684 209.783557,10.2584728 L209.783557,10.2584728 L209.783557,7.30901742 C209.783557,6.95316936 210.09664,6.66149063 210.481394,6.66149063 L210.481394,6.66149063 Z M63.8682479,11.1642325 C66.5800319,11.1642325 68.7847731,11.7976637 70.4204334,13.0485476 C71.9344034,14.2058435 72.5571712,15.6050987 72.7922004,16.3366832 C72.893609,16.6482628 72.6979501,16.9701143 72.3388445,17.0842461 L72.3388445,17.0842461 L69.0257675,18.1331168 C68.8277226,18.1947479 68.6082029,18.1833348 68.4220884,18.0988773 C68.2359739,18.0144198 68.1011602,17.8660485 68.0522454,17.691427 C67.7778458,16.7190245 66.869941,15.0857992 63.8682479,15.0857992 C61.8007065,15.0857992 60.5659083,16.1860292 60.5659083,17.2497371 C60.5659083,18.2620857 61.3139455,18.9126366 62.7909312,19.1831289 L62.7909312,19.1831289 L66.441639,19.8576475 C70.6184783,20.6303194 73.0141062,22.8307794 73.0141062,25.8940754 C73.0141062,28.9402517 69.9730427,32.1770279 64.3347273,32.1770279 C57.815947,32.1770279 55.2568724,28.632096 54.7736905,26.5377785 C54.704494,26.2398946 54.9144694,25.9283149 55.2509072,25.827879 L55.2509072,25.827879 L58.6606206,24.8086825 C58.8622446,24.7481927 59.0853435,24.7653125 59.271458,24.8566179 C59.4575725,24.9479233 59.5888071,25.1031424 59.6281775,25.2834706 C60.0397769,27.1449593 61.8162161,28.2554612 64.3824489,28.2554612 C66.7279691,28.2554612 67.7778458,27.168927 67.7778458,26.0926646 C67.7778458,25.0723269 66.8460802,24.3087855 65.2223504,23.9994885 L65.2223504,23.9994885 L61.386721,23.2861651 C57.7097663,22.620777 55.4238982,20.4294475 55.4238982,17.5670234 C55.4238982,14.096277 59.2905466,11.1642325 63.8682479,11.1642325 Z M85.9235681,11.1642325 C92.0348264,11.1642325 95.8310883,15.1371585 95.8310883,21.5319601 C95.8310883,21.8663662 95.810927,22.2338704 95.7765341,22.5386021 C95.7409553,22.8558884 95.4634403,23.0967064 95.1313712,23.0967064 L95.1313712,23.0967064 L80.8523978,23.0967064 C81.1002637,26.0709796 83.3713795,28.1367642 86.4181139,28.1367642 C88.9572569,28.1367642 90.6780867,27.0022946 91.5319788,24.7630298 C91.6529468,24.4480262 92.0205948,24.2813939 92.351478,24.3921017 L92.351478,24.3921017 L95.2025289,25.3405365 C95.3661915,25.3953197 95.5002051,25.5083101 95.5749207,25.658964 C95.6508222,25.8084766 95.6603099,25.9773916 95.6045697,26.1337521 C94.2537599,29.8612948 90.7338269,32.1770279 86.4181139,32.1770279 C83.6239892,32.1770279 81.0480814,31.1897883 79.1647749,29.39792 C77.1308514,27.4633869 76.0563705,24.7710191 76.0563705,21.6118524 C76.0563705,15.0721034 81.0741725,11.1642325 85.9235681,11.1642325 Z M147.801637,11.1642325 C151.4612,11.1642325 155.155242,13.5978425 155.155242,19.0334461 L155.155242,19.0334461 L155.155242,31.5332465 C155.155242,31.8881962 154.859195,32.1770279 154.495379,32.1770279 L154.495379,32.1770279 L151.124729,32.1770279 C150.760913,32.1770279 150.464866,31.8881962 150.464866,31.5332465 L150.464866,31.5332465 L150.464866,19.4429143 C150.464866,17.9059585 149.960755,15.3308326 146.586538,15.3308326 C144.080249,15.3308326 142.328938,17.2064987 142.328938,19.8918214 L142.328938,19.8918214 L142.328938,31.5332465 C142.328938,31.8881962 142.03408,32.1770279 141.670264,32.1770279 L141.670264,32.1770279 L138.25919,32.1770279 C137.894185,32.1770279 137.598138,31.8881962 137.598138,31.5332465 L137.598138,31.5332465 L137.598138,19.4429143 C137.598138,17.9059585 137.094027,15.3308326 133.718621,15.3308326 C131.148129,15.3308326 129.421785,17.1809794 129.421785,19.9335802 L129.421785,19.9335802 L129.421785,31.5332465 C129.421785,31.8881962 129.125739,32.1770279 128.760734,32.1770279 L128.760734,32.1770279 L125.391273,32.1770279 C125.028646,32.1770279 124.732599,31.8881962 124.732599,31.5332465 L124.732599,31.5332465 L124.732599,12.3810375 C124.732599,12.0260877 125.028646,11.737256 125.391273,11.737256 L125.391273,11.737256 L128.635895,11.737256 C128.999711,11.737256 129.295758,12.0260877 129.295758,12.3810375 L129.295758,12.3810375 L129.295758,13.5328844 C130.636884,12.0434872 132.747256,11.1642325 135.018135,11.1642325 C137.661152,11.1642325 139.913008,12.3937971 141.092438,14.4643376 C142.567915,12.3044797 144.882785,11.1642325 147.801637,11.1642325 Z M169.585836,11.1642325 C175.697094,11.1642325 179.493356,15.1371585 179.493356,21.5319601 C179.493356,21.8663662 179.473195,22.2338704 179.439988,22.5386021 C179.404409,22.8558884 179.126894,23.0967064 178.794825,23.0967064 L178.794825,23.0967064 L164.515852,23.0967064 C164.763717,26.0709796 167.033647,28.1367642 170.080382,28.1367642 C172.620711,28.1367642 174.340355,27.0022946 175.195433,24.7630298 C175.315215,24.4480262 175.682863,24.2813939 176.014932,24.3921017 L176.014932,24.3921017 L178.865983,25.3405365 C179.029645,25.3953197 179.162473,25.5083101 179.238374,25.658964 C179.31309,25.8084766 179.323764,25.9762503 179.266838,26.1337521 C177.917214,29.8612948 174.396095,32.1770279 170.080382,32.1770279 C167.287443,32.1770279 164.711535,31.1897883 162.827043,29.39792 C160.794305,27.4633869 159.718638,24.7710191 159.718638,21.6118524 C159.718638,15.0721034 164.735254,11.1642325 169.585836,11.1642325 Z M194.623859,11.1642325 C197.050219,11.1642325 199.04755,11.9878088 200.401938,13.546804 C201.65057,14.9840026 202.310338,16.9803052 202.310338,19.3199579 L202.310338,19.3199579 L202.310338,31.5332465 C202.310338,31.8881962 202.011099,32.1770279 201.644561,32.1770279 L201.644561,32.1770279 L198.1955,32.1770279 C197.82776,32.1770279 197.528521,31.8881962 197.528521,31.5332465 L197.528521,31.5332465 L197.528521,19.974179 C197.528521,16.9466661 196.065975,15.4131903 193.184146,15.4131903 C191.830961,15.4131903 190.713321,15.907336 189.950201,16.8434291 C189.235151,17.7250037 188.839771,18.9963272 188.839771,20.4230861 L188.839771,20.4230861 L188.839771,31.5332465 C188.839771,31.8881962 188.540532,32.1770279 188.172793,32.1770279 L188.172793,32.1770279 L184.724933,32.1770279 C184.355992,32.1770279 184.056753,31.8881962 184.056753,31.5332465 L184.056753,31.5332465 L184.056753,12.3810375 C184.056753,12.0260877 184.355992,11.737256 184.724933,11.737256 L184.724933,11.737256 L188.088669,11.737256 C188.455207,11.737256 188.754446,12.0260877 188.754446,12.3810375 L188.754446,12.3810375 L188.754446,13.7161591 C190.172527,12.0666865 192.241964,11.1642325 194.623859,11.1642325 Z M24.9161445,23.8740114 C25.3621742,23.8740114 25.7265699,24.2377856 25.7265699,24.6856899 L25.7265699,24.6856899 L25.7265699,27.6634242 C25.7265699,28.1113285 25.3621742,28.4751026 24.9161445,28.4751026 L24.9161445,28.4751026 L0.810425402,28.4751026 C0.364395655,28.4751026 -4.26325641e-14,28.1113285 -4.26325641e-14,27.6634242 L-4.26325641e-14,27.6634242 L-4.26325641e-14,24.6856899 C-4.26325641e-14,24.2377856 0.364395655,23.8740114 0.810425402,23.8740114 L0.810425402,23.8740114 Z M110.453595,15.3225365 C107.218557,15.3225365 105.12948,17.7082532 105.12948,21.4013425 C105.12948,25.1504961 107.169594,27.4789555 110.453595,27.4789555 C113.587211,27.4789555 115.69494,25.0371746 115.69494,21.4013425 C115.69494,17.7655104 113.587211,15.3225365 110.453595,15.3225365 Z M85.9650767,15.2056376 C82.9693386,15.2056376 81.3078069,17.3193575 80.998271,19.3337828 L80.998271,19.3337828 L90.9899945,19.3337828 C90.7421286,16.7829383 88.8279872,15.2056376 85.9650767,15.2056376 Z M169.627345,15.2056376 C166.631606,15.2056376 164.971261,17.3193575 164.661725,19.3337828 L164.661725,19.3337828 L174.653448,19.3337828 C174.404396,16.7829383 172.491441,15.2056376 169.627345,15.2056376 Z M20.8782147,1.41651001e-14 C23.2976599,1.41651001e-14 25.6709641,0.399322109 27.9342397,1.18848687 C28.1436489,1.26195266 28.3104664,1.4112541 28.4039315,1.61269255 C28.4973966,1.81294607 28.5068614,2.03689823 28.4275935,2.24426135 L27.3769983,5.03122158 C27.2220118,5.44357794 26.7736158,5.65449585 26.3571637,5.51111907 C24.6014391,4.90798865 22.7569819,4.60109124 20.8782147,4.60109124 C16.9775249,4.60109124 13.3134556,5.89740693 10.2847124,8.34784645 C7.48785748,10.6110667 5.44937139,13.7677258 4.54903018,17.234837 C4.45438196,17.5997961 4.13021179,17.8403373 3.76818234,17.8403373 C3.70902721,17.8403373 3.64750586,17.8332277 3.58598452,17.8201934 L0.685016508,17.1590014 C0.469691802,17.1104191 0.288677078,16.9788917 0.172733005,16.7904875 C0.0579720361,16.6008983 0.0236620555,16.3781311 0.0792678861,16.1636584 C1.21622965,11.7130535 3.81668956,7.66651051 7.39794166,4.76816666 C11.1980678,1.69326793 15.9860847,1.41651001e-14 20.8782147,1.41651001e-14 Z M41.3671886,13.0780953 C41.8144014,13.0780953 42.177614,13.4430544 42.177614,13.8909587 L42.177614,13.8909587 L42.177614,16.8675081 C42.177614,17.3154124 41.8144014,17.6803715 41.3671886,17.6803715 L41.3671886,17.6803715 L17.2614695,17.6803715 C16.8142567,17.6803715 16.4510441,17.3154124 16.4510441,16.8675081 L16.4510441,16.8675081 L16.4510441,13.8909587 C16.4510441,13.4430544 16.8142567,13.0780953 17.2614695,13.0780953 L17.2614695,13.0780953 Z M34.0721769,4.03232384 C35.4149985,4.03232384 36.5034531,5.12364628 36.5034531,6.46854419 C36.5034531,7.81462702 35.4149985,8.90476453 34.0721769,8.90476453 C32.7281721,8.90476453 31.6397176,7.81462702 31.6397176,6.46854419 C31.6397176,5.12364628 32.7281721,4.03232384 34.0721769,4.03232384 Z"></path>
                </g>
            </g>
        </g>
    </g>
</svg>