<?xml version="1.0" encoding="UTF-8"?>
<svg width="15px" height="15px" viewBox="0 0 15 15" version="1.1" xmlns="http://www.w3.org/2000/svg" xmlns:xlink="http://www.w3.org/1999/xlink">
    <!-- Generator: Sketch 55.2 (78181) - https://sketchapp.com -->
    <title>Group 9</title>
    <desc>Created with Sketch.</desc>
    <g id="docs-design-final" stroke="none" stroke-width="1" fill="none" fill-rule="evenodd">
        <g id="1.1-docs-home" transform="translate(-33.000000, -184.000000)" fill="#12424A" fill-rule="nonzero">
            <g id="Group-9" transform="translate(33.000000, 184.000000)">
                <path d="M14.3802567,13.9749401 C14.394854,13.9568799 14.408948,13.9383181 14.4235453,13.9197562 C14.4381426,13.9011943 14.4451896,13.8911609 14.4562634,13.8766124 C14.4673372,13.8620639 14.4874714,13.8329669 14.5025721,13.8108933 L14.5257265,13.7767796 C14.5423372,13.7511943 14.5584446,13.7266124 14.5760621,13.7000238 L14.590156,13.6764452 C14.6077735,13.6468465 14.6248876,13.6172478 14.6404916,13.5871475 L14.6404916,13.5826325 C14.7139084,13.4455593 14.7752136,13.3023767 14.8237131,13.154706 L14.8352902,13.1220973 C14.8433439,13.0965121 14.8508943,13.0719301 14.8584446,13.0443381 C14.8659949,13.0167462 14.8705251,13.003201 14.8760621,12.9821308 C14.881599,12.9610606 14.8866325,12.941997 14.8916661,12.9219301 C14.8992164,12.8913281 14.9062634,12.8607261 14.912807,12.8296224 C14.9153238,12.8170806 14.9183439,12.8050405 14.9208607,12.7924987 C15.0914983,11.9612278 14.9711963,10.9363114 14.560458,9.77744851 C14.2662824,8.9732871 13.8890905,8.20175573 13.4349547,7.4752746 C13.8894387,6.74883563 14.2669686,5.97730283 14.5614647,5.17310068 C15.2465318,3.25320102 15.1216996,1.69550871 14.2091157,0.786478611 C13.2965318,-0.122551489 11.7341157,-0.246464533 9.80777346,0.435308042 C9.00219632,0.728259999 8.22927085,1.10367907 7.50139762,1.55554216 C5.88210232,0.562231119 4.28394796,0.000358209644 2.95106205,0.000358209644 C2.49928629,-0.00607971634 2.05049897,0.0743160051 1.62924997,0.237147507 C1.47907619,0.302252817 1.408327,0.474782331 1.46975971,0.626081675 C1.53119243,0.777381018 1.7024205,0.852315579 1.85576004,0.795007039 C2.20530982,0.662432751 2.57712349,0.597889512 2.95106205,0.60487326 C4.09216943,0.60487326 5.492505,1.08547527 6.92757212,1.9252746 C4.96595537,3.26310052 3.27075603,4.95246018 1.92824326,6.90738162 C1.08612916,5.47611072 0.603914399,4.08096022 0.603914399,2.94417092 C0.597232495,2.57981675 0.658858652,2.21742144 0.785625809,1.87560905 C0.833086919,1.72485268 0.755513226,1.56318215 0.607974164,1.50536708 C0.460435101,1.44755202 0.293155799,1.51327378 0.224887554,1.6558766 C0.0705272408,2.06716258 -0.00527312182,2.50359877 0.0013976207,2.9426659 C0.0013976207,4.27209734 0.564652654,5.86440503 1.56180031,7.47778296 C1.10801685,8.2035766 0.730838806,8.97423921 0.43629695,9.77744851 C-0.248770165,11.6973482 -0.12393795,13.2550405 0.788645943,14.1640706 C1.31163252,14.6858097 2.05055869,14.950191 2.94955198,14.950191 C3.61549158,14.950191 4.36951843,14.8057094 5.18898151,14.5152412 C5.99583415,14.2226554 6.76996531,13.8472243 7.49888084,13.395007 C8.59216943,14.0657428 9.67941775,14.5403248 10.6861292,14.7776157 L10.7772365,14.798686 L10.8446862,14.8137361 C11.2398641,14.901666 11.6433129,14.9474088 12.0482097,14.950191 C12.6955251,14.950191 13.2587802,14.8127328 13.719854,14.5418298 L13.7389815,14.530793 C13.7661627,14.5142378 13.7933439,14.497181 13.8200218,14.4806258 L13.8512298,14.4600572 C13.8748876,14.4440037 13.8980419,14.4279502 13.9206929,14.40989 L13.9619681,14.379288 C13.9810956,14.3642378 14.0007265,14.3496893 14.019854,14.3341375 C14.0389815,14.3185856 14.0555923,14.3045388 14.0737131,14.288987 L14.1159949,14.2528666 C14.1482097,14.2237696 14.1794178,14.1946726 14.2101225,14.1645723 C14.2408272,14.1344719 14.2695184,14.1028666 14.2982097,14.0712612 L14.3334446,14.0306258 C14.349552,14.0115622 14.365156,13.993502 14.3802567,13.9749401 Z M10.0111292,1.00370269 C10.7686795,0.73480637 11.4552567,0.602364899 12.0487131,0.602364899 C12.783109,0.602364899 13.3750553,0.807047173 13.7827735,1.21340169 C14.5206929,1.94784985 14.5961963,3.28279968 13.9921694,4.97142844 C13.7464523,5.64536614 13.4378877,6.29486297 13.0705251,6.911395 C12.4027051,5.93252139 11.642537,5.01950681 10.8003909,4.18480637 C10.7968674,4.18129466 10.7928406,4.17928798 10.7893171,4.17577627 C10.7857936,4.17226456 10.7832768,4.16774951 10.7797533,4.16423781 C9.94801138,3.33318922 9.03945548,2.58220283 8.06616272,1.92126122 C8.68437057,1.55565369 9.33552736,1.24846358 10.0111292,1.00370269 L10.0111292,1.00370269 Z M4.62522312,4.61022443 C5.49782984,3.73422982 6.45936402,2.95093066 7.49435064,2.27293346 C8.52489455,2.94513092 9.48285233,3.72184567 10.3529077,4.59065921 C10.3564312,4.59417092 10.360458,4.59667928 10.3639815,4.59968931 C10.367505,4.60269935 10.3695184,4.6072144 10.3725386,4.61022443 C10.7918339,5.02811741 11.185458,5.45805052 11.5498876,5.89550871 L11.5554245,5.90303379 C11.9742874,6.40388913 12.3632147,6.92887683 12.7201896,7.4752746 C12.0396324,8.50822866 11.2530086,9.46775 10.3730419,10.3383181 C9.50046453,11.2143449 8.53892684,11.9976469 7.5039144,12.675609 C6.62947748,12.106543 5.80760913,11.4610183 5.04804192,10.7466793 L5.04804192,10.7466793 C4.98629695,10.6884853 4.92455198,10.6297896 4.86280702,10.5705923 L4.82002178,10.5294552 L4.63831037,10.3513616 L4.62622984,10.3393214 L4.62622984,10.3393214 C3.74661976,9.46700694 2.9605046,8.50580747 2.28059225,7.47126122 C2.96034534,6.43931346 3.74576409,5.48049421 4.62421641,4.61022443 L4.62522312,4.61022443 Z M4.98663252,13.9468465 C3.29233722,14.5488532 1.95290769,14.4736024 1.21498822,13.7381509 C0.477068762,13.0026993 0.401565406,11.6677495 1.00559225,9.97912075 C1.25118159,9.30594178 1.55940292,8.65712994 1.92622984,8.04116089 C2.59513264,9.01888564 3.35558579,9.93116584 4.19737078,10.7657428 C4.26331037,10.8314619 4.32975333,10.8961776 4.39871306,10.9608933 L4.46213588,11.0220973 L4.60156541,11.1550405 L4.67404863,11.2227662 C4.7243842,11.2694218 4.77471977,11.3160773 4.82505534,11.3617294 C4.86029024,11.3943381 4.89602849,11.4264452 4.93176675,11.4585522 C4.967505,11.4906592 5.01733722,11.5358097 5.06062581,11.5739368 L5.17237078,11.6742713 L5.25089426,11.7424987 C5.29418286,11.7801241 5.3379748,11.8172478 5.38176675,11.8543716 L5.40945131,11.8774485 C5.89646392,12.289135 6.40542634,12.6743111 6.93411574,13.0312947 C6.31502883,13.396352 5.66302569,13.7028721 4.98663252,13.9468465 Z M11.5685117,14.3215957 C11.5571023,14.3189201 11.5455251,14.3169134 11.5337802,14.3155756 C10.4933439,14.1976826 9.29284057,13.7406592 8.06918286,13.0252746 C9.0495363,12.3610297 9.96408087,11.6050978 10.8003909,10.7677495 C11.6419255,9.93349088 12.401739,9.0211693 13.0695184,8.04316757 C13.3457433,8.5093985 13.5905779,8.99340788 13.8024043,9.49199701 C13.8200218,9.53463915 13.8376392,9.57677961 13.8527399,9.61942175 L13.8678406,9.6565455 C13.8884782,9.70671272 13.908109,9.75988998 13.9277399,9.81156222 L13.9302567,9.81758229 C13.9508943,9.87226456 13.9710285,9.92694684 13.990156,9.98112744 C14.056599,10.1667462 14.1139815,10.3478498 14.1638137,10.5244385 C14.1733775,10.5590539 14.1834446,10.5931676 14.192505,10.6247729 C14.1960285,10.6378164 14.1990486,10.6508599 14.2025721,10.6634017 C14.3228814,11.1017735 14.3874807,11.5534677 14.394854,12.0078833 C14.394854,12.4719301 14.3153238,12.8727662 14.1577735,13.2063783 L14.1532433,13.2154084 C14.140156,13.2430004 14.1260621,13.2700907 14.1119681,13.2966793 L14.0993842,13.3197562 C14.0873037,13.3418298 14.0747198,13.3634017 14.0616325,13.3844719 C14.0555923,13.3945054 14.049552,13.4045388 14.0430084,13.4145723 C14.0314312,13.4336358 14.0193506,13.451696 14.0067667,13.4697562 C13.9941829,13.4878164 13.9921694,13.4918298 13.9841157,13.5028666 C13.9760621,13.5139034 13.9594513,13.5369803 13.9463641,13.5530338 C13.9332768,13.5690873 13.9302567,13.5746057 13.9216996,13.5851408 C13.9131426,13.5956759 13.8930084,13.6197562 13.878411,13.635308 L13.85576,13.6618967 C13.833109,13.6869803 13.8094513,13.7120639 13.7852902,13.7361442 C13.7611292,13.7602244 13.7404916,13.779288 13.7173372,13.8003582 L13.6750553,13.8364786 C13.6659949,13.8445054 13.6569345,13.8525321 13.6473708,13.8600572 C13.6282433,13.875609 13.6086124,13.8906592 13.5884782,13.9057094 L13.5748876,13.9157428 C13.5517332,13.9327997 13.5275721,13.9498565 13.5029077,13.96591 L13.5029077,13.96591 C13.3975485,14.0349104 13.2859972,14.0940263 13.1696862,14.1424987 L13.1550889,14.1490204 C12.7161627,14.3316291 12.1826057,14.3883181 11.5685117,14.3215957 Z" id="Shape"></path>
                <path d="M7.50693453,5.54182978 C6.42275138,5.54182978 5.54384729,6.4177944 5.54384729,7.49835152 C5.54384729,8.57890864 6.42275138,9.45487326 7.50693453,9.45487326 C8.59111768,9.45487326 9.47002178,8.57890864 9.47002178,7.49835152 C9.47002178,6.97944969 9.26319711,6.48180073 8.89504684,6.11488173 C8.52689657,5.74796273 8.02757764,5.54182978 7.50693453,5.54182978 Z M6.52589426,8.70687995 C6.55747751,8.6937923 6.58519475,8.67290124 6.60643118,8.64617761 C6.76347816,8.44550871 6.92404863,8.31908731 7.23612916,8.31908731 L7.76163252,8.31908731 C8.07371306,8.31908731 8.23428353,8.44450537 8.39133051,8.64617761 C8.41495558,8.6758945 8.44654436,8.69833275 8.48243789,8.71089333 C7.91076931,9.16916937 7.09566528,9.16749738 6.52589426,8.70687995 L6.52589426,8.70687995 Z M7.49888084,7.70353547 C7.25646861,7.70353547 7.05995467,7.50767876 7.05995467,7.26607727 C7.05995467,7.02447578 7.25646861,6.82861908 7.49888084,6.82861908 C7.74129307,6.82861908 7.93780817,7.02447578 7.93780817,7.26607727 C7.93807429,7.38231832 7.89196449,7.49389697 7.80963537,7.57623304 C7.72730624,7.65856911 7.61551219,7.70490764 7.49888084,7.70504048 L7.49888084,7.70353547 Z M8.73814259,8.45102711 C8.73097529,8.4330519 8.72131776,8.41616553 8.70945131,8.40085988 C8.56448487,8.21473948 8.35710232,8.0065455 8.00072648,7.94032476 C8.29210842,7.72461158 8.41190124,7.34701484 8.29791649,7.00355758 C8.18393175,6.66010033 7.86185251,6.42817044 7.49888084,6.42817044 C7.13590917,6.42817044 6.81382994,6.66010033 6.69984519,7.00355758 C6.58586045,7.34701484 6.70565326,7.72461158 6.9970352,7.94032476 C6.64166608,8.0065455 6.43327682,8.21473948 6.28831037,8.40085988 C6.27909011,8.4129605 6.27131935,8.42609293 6.26515601,8.43999032 C5.77481577,7.79782453 5.85876035,6.88855024 6.45844233,6.34634376 C7.05812432,5.80413729 7.97428983,5.80915535 8.56795625,6.35789809 C9.16162267,6.90664082 9.23553489,7.81677973 8.73814259,8.45353547 L8.73814259,8.45102711 Z" id="Shape"></path>
            </g>
        </g>
    </g>
</svg>