<?xml version="1.0" encoding="utf-8"?>
<!-- Svg Vector Icons : http://www.onlinewebfonts.com/icon -->
<!DOCTYPE svg PUBLIC "-//W3C//DTD SVG 1.1//EN" "http://www.w3.org/Graphics/SVG/1.1/DTD/svg11.dtd">
<svg version="1.1" xmlns="http://www.w3.org/2000/svg" xmlns:xlink="http://www.w3.org/1999/xlink" x="0px" y="0px" viewBox="0 0 1000 1000" enable-background="new 0 0 1000 1000" xml:space="preserve">
<metadata> Svg Vector Icons : http://www.onlinewebfonts.com/icon </metadata>
<g><g><path d="M10,908.3c0,45.1,36.5,81.7,81.7,81.7h816.7c45.1,0,81.7-36.5,81.7-81.7l0-816.7c0-45.1-36.5-81.7-81.7-81.7H91.7C46.5,10,10,46.5,10,91.7V908.3L10,908.3z M806.2,734.8c0,28.2-22.9,51-51,51s-51-22.9-51-51c0-231.1-187.4-418.5-418.5-418.5c-28.2,0-51-22.9-51-51s22.9-51,51-51c151.5,0,275.8,52.3,373.4,149.9C759.1,464.1,806.2,588.2,806.2,734.8z M622.5,734.8c0,28.2-22.9,51-51,51c-28.2,0-51-22.9-51-51c0-129.6-105.1-234.8-234.8-234.8c-28.2,0-51-22.9-51-51c0-28.2,22.9-51,51-51C471.6,397.9,622.5,548.8,622.5,734.8L622.5,734.8z M234.6,694c0-50.8,41-91.9,91.9-91.9s91.9,41,91.9,91.9c0,50.8-41,91.9-91.9,91.9S234.6,744.8,234.6,694z"/></g></g>
</svg>