<svg xmlns="http://www.w3.org/2000/svg" width="48" height="48">
  <g fill="none" fill-rule="nonzero">
    <rect width="48" height="48" fill="#DBF1E6" rx="24"/>
    <g fill="#49B882">
      <path d="M24 12c-4.9 0-10 1.3-10 3.7 0 2.3 5.1 3.6 10 3.6 4.7 0 9.8-1.3 9.8-3.6 0-2.4-5-3.7-9.9-3.7z"/>
      <path d="M24 20.3c-3.2 0-8-.5-10-2.5V24c0 2.3 5.1 3.7 10 3.7 4.7 0 9.8-1.4 9.8-3.7v-6.2c-2 2-6.8 2.5-9.9 2.5z"/>
      <path d="M24 28.7c-3.2 0-8-.6-10-2.5v6.1c0 2.4 5.1 3.7 10 3.7 4.7 0 9.8-1.3 9.8-3.7v-6.1c-2 2-6.8 2.5-9.9 2.5z"/>
    </g>
  </g>
</svg>
