<svg width="10" height="10" viewBox="0 0 10 10" fill="none" xmlns="http://www.w3.org/2000/svg">
<g clip-path="url(#clip0)">
<path d="M8.4375 6.25H7.8125C7.72962 6.25 7.65013 6.28292 7.59153 6.34153C7.53292 6.40013 7.5 6.47962 7.5 6.5625V8.75H1.25V2.5H4.0625C4.14538 2.5 4.22487 2.46708 4.28347 2.40847C4.34208 2.34987 4.375 2.27038 4.375 2.1875V1.5625C4.375 1.47962 4.34208 1.40013 4.28347 1.34153C4.22487 1.28292 4.14538 1.25 4.0625 1.25H0.9375C0.68886 1.25 0.450403 1.34877 0.274587 1.52459C0.098772 1.7004 0 1.93886 0 2.1875L0 9.0625C0 9.31114 0.098772 9.5496 0.274587 9.72541C0.450403 9.90123 0.68886 10 0.9375 10H7.8125C8.06114 10 8.2996 9.90123 8.47541 9.72541C8.65123 9.5496 8.75 9.31114 8.75 9.0625V6.5625C8.75 6.47962 8.71708 6.40013 8.65847 6.34153C8.59987 6.28292 8.52038 6.25 8.4375 6.25ZM9.53125 0H7.03125C6.61387 0 6.40527 0.506055 6.69922 0.800781L7.39707 1.49863L2.63672 6.25723C2.59302 6.30077 2.55835 6.35252 2.53469 6.4095C2.51103 6.46648 2.49885 6.52756 2.49885 6.58926C2.49885 6.65095 2.51103 6.71204 2.53469 6.76902C2.55835 6.82599 2.59302 6.87774 2.63672 6.92129L3.07949 7.36328C3.12304 7.40698 3.17479 7.44165 3.23176 7.46531C3.28874 7.48897 3.34983 7.50115 3.41152 7.50115C3.47322 7.50115 3.5343 7.48897 3.59128 7.46531C3.64826 7.44165 3.70001 7.40698 3.74355 7.36328L8.50156 2.60391L9.19922 3.30078C9.49219 3.59375 10 3.38867 10 2.96875V0.46875C10 0.34443 9.95061 0.225201 9.86271 0.137294C9.7748 0.049386 9.65557 0 9.53125 0V0Z" fill="#3366FF"/>
</g>
<defs>
<clipPath id="clip0">
<rect width="10" height="10" fill="white"/>
</clipPath>
</defs>
</svg>
