<svg xmlns="http://www.w3.org/2000/svg" width="48" height="48">
  <g fill="none" fill-rule="nonzero">
    <rect width="48" height="48" fill="#DBF1E6" rx="24"/>
    <g fill="#49B882">
      <path d="M35.7 22.3v-9.8c0-.3-.2-.5-.6-.5H12.5c-.3 0-.5.2-.5.5v9.8h23.7zm-18.6-3h-1v-4h1v4zm3.1 0h-1v-4h1v4zm3.1 0h-1v-4h1v4zm3.1 0h-1v-4h1v4zm4.1 0a2 2 0 1 1 0-4.1c1.2 0 2 1 2 2.1 0 1.2-.8 2-2 2zM12 23.3v9.8c0 .3.2.5.5.5h1.6v1.5c0 .4.2.6.5.6s.5-.2.5-.6v-1.5h17.5v1.5c0 .4.2.6.5.6s.5-.2.5-.6v-1.5h1.5c.4 0 .6-.2.6-.5v-9.8H12zm5.1 7.2h-1v-4.1h1v4.1zm3.1 0h-1v-4.1h1v4.1zm3.1 0h-1v-4.1h1v4.1zm3.1 0h-1v-4.1h1v4.1zm4.1 0a2 2 0 0 1 0-4.1c1.2 0 2 1 2 2 0 1.2-.8 2.1-2 2.1z"/>
    </g>
  </g>
</svg>
