<svg viewBox="0 0 32 27" fill="none" xmlns="http://www.w3.org/2000/svg">
<path d="M31.1957 7.42657L16.6502 0.153819C16.2415 -0.0512729 15.7586 -0.0512729 15.3484 0.153819L0.802912 7.42657C0.510547 7.57348 0.286546 7.82657 0.155637 8.10003C0.0669093 8.27748 0 8.57857 0 8.72839V17.1139C0 17.9168 0.651638 18.5684 1.45455 18.5684C2.25746 18.5684 2.9091 17.9168 2.9091 17.1139V10.4259L16.0219 15.8891L31.0866 10.0797C31.6176 9.8673 31.9754 9.36257 31.9986 8.78948C32.0234 8.21639 31.7077 7.68402 31.1957 7.42657Z"/>
<path d="M16 18.2005C16 18.2005 15.6008 18.145 15.4133 18.0361L5.33334 14.2222V20.659C5.33334 21.4663 5.65944 22.2074 6.17601 22.5683C8.78934 24.4007 11.4819 26.6666 16 26.6666C20.5151 26.6666 23.2152 24.3964 25.824 22.5683C26.3406 22.2095 26.6667 21.4684 26.6667 20.6612V14.6792L16.5471 18.0596C16.3703 18.1535 16 18.2005 16 18.2005Z"/>
<path d="M1.45455 20.3649C0.651638 20.3649 0 21.0165 0 21.8194V24.7285C0 25.5314 0.651638 26.1831 1.45455 26.1831C2.25746 26.1831 2.9091 25.5314 2.9091 24.7285V21.8194C2.9091 21.0165 2.25746 20.3649 1.45455 20.3649Z"/>
</svg>
