<svg viewBox="0 0 32 32" fill="none" xmlns="http://www.w3.org/2000/svg">
<g clip-path="url(#clip0)">
<path d="M25.4665 11.216C26.2533 10.3219 26.7164 9.18917 26.7812 8V2.66667C26.7812 1.95942 26.5002 1.28115 26.0001 0.781049C25.5 0.280952 24.8218 0 24.1145 0V0L18.4372 0.00666667C17.2432 0.0725126 16.1071 0.542734 15.2159 1.34L0.781191 15.7787C0.281268 16.2787 0.000427246 16.9569 0.000427246 17.664C0.000427246 18.3711 0.281268 19.0493 0.781191 19.5493L7.22919 26C7.47503 26.2465 7.76726 26.4419 8.08903 26.5749C8.41079 26.7078 8.75571 26.7757 9.10386 26.7747H9.11986C9.47072 26.7733 9.81776 26.7018 10.1406 26.5644C10.4635 26.427 10.7556 26.2265 10.9999 25.9747L12.1892 24.7613C12.2665 24.6815 12.3223 24.5834 12.3512 24.4761C12.3802 24.3688 12.3813 24.2559 12.3545 24.148C11.8619 22.1117 12.0978 19.9672 13.0212 18.0867C13.8066 16.4635 15.0382 15.0977 16.5719 14.1493C17.5657 13.489 18.6824 13.0356 19.8552 12.8162C21.0281 12.5967 22.2332 12.6157 23.3985 12.872C23.5077 12.8962 23.6213 12.8925 23.7287 12.8613C23.8361 12.83 23.934 12.7723 24.0132 12.6933L25.4665 11.216ZM16.7812 7.33333C16.7812 6.80592 16.9376 6.29034 17.2306 5.85181C17.5236 5.41328 17.9401 5.07149 18.4274 4.86965C18.9146 4.66782 19.4508 4.61501 19.9681 4.71791C20.4854 4.8208 20.9605 5.07478 21.3335 5.44772C21.7064 5.82066 21.9604 6.29581 22.0633 6.81309C22.1662 7.33038 22.1134 7.86655 21.9115 8.35382C21.7097 8.84109 21.3679 9.25757 20.9294 9.55059C20.4908 9.8436 19.9753 10 19.4479 10C18.7406 10 18.0623 9.71905 17.5622 9.21895C17.0621 8.71885 16.7812 8.04058 16.7812 7.33333Z" fill="#1F477D"/>
<path d="M14.104 22.0373C14.1021 23.3594 14.4561 24.6576 15.129 25.7957C15.8018 26.9338 16.7686 27.8697 17.9279 28.5053C19.0872 29.1408 20.3962 29.4526 21.7175 29.4078C23.0389 29.363 24.3237 28.9633 25.4373 28.2507C25.5013 28.2099 25.5772 28.1922 25.6526 28.2004C25.728 28.2087 25.7983 28.2424 25.852 28.296L29.164 31.608C29.287 31.7353 29.4341 31.8369 29.5968 31.9068C29.7595 31.9767 29.9344 32.0135 30.1115 32.015C30.2885 32.0165 30.4641 31.9828 30.6279 31.9158C30.7918 31.8487 30.9407 31.7497 31.0659 31.6245C31.191 31.4993 31.2901 31.3505 31.3571 31.1866C31.4241 31.0227 31.4579 30.8472 31.4563 30.6701C31.4548 30.4931 31.418 30.3181 31.3481 30.1555C31.2783 29.9928 31.1767 29.8457 31.0493 29.7227L27.7333 26.4107C27.6796 26.3568 27.646 26.2861 27.6379 26.2104C27.6299 26.1347 27.6481 26.0586 27.6893 25.9947C28.3043 25.0296 28.686 23.9346 28.8044 22.7964C28.9228 21.6583 28.7746 20.5081 28.3714 19.4372C27.9683 18.3662 27.3213 17.4038 26.4818 16.6263C25.6422 15.8487 24.6332 15.2772 23.5345 14.9572C22.4358 14.6372 21.2777 14.5774 20.152 14.7826C19.0262 14.9877 17.9636 15.4522 17.0484 16.1392C16.1333 16.8262 15.3906 17.7168 14.8793 18.7405C14.368 19.7643 14.1021 20.893 14.1027 22.0373H14.104ZM26.1827 22.0373C26.1832 22.9683 25.9076 23.8786 25.3907 24.6529C24.8739 25.4273 24.139 26.031 23.279 26.3876C22.419 26.7443 21.4726 26.8379 20.5594 26.6565C19.6462 26.4752 18.8073 26.0272 18.1488 25.3691C17.4903 24.7109 17.0418 23.8723 16.86 22.9592C16.6781 22.0461 16.7712 21.0996 17.1273 20.2394C17.4835 19.3793 18.0868 18.644 18.8608 18.1267C19.6349 17.6094 20.545 17.3333 21.476 17.3333C22.7234 17.3347 23.9193 17.8307 24.8016 18.7125C25.6839 19.5943 26.1805 20.7899 26.1827 22.0373V22.0373Z" fill="#1F477D"/>
</g>
<defs>
<clipPath id="clip0">
<rect width="32" height="32" fill="white"/>
</clipPath>
</defs>
</svg>
