<svg viewBox="0 0 32 32" fill="none" xmlns="http://www.w3.org/2000/svg">
<g clip-path="url(#clip0)">
<path d="M10.4 17.7187C10.4741 17.7936 10.5157 17.8947 10.5157 18C10.5157 18.1054 10.4741 18.2065 10.4 18.2813L9.25468 19.4813C8.93819 19.8058 8.73692 20.2252 8.68176 20.6752C8.62661 21.1251 8.72061 21.5807 8.94935 21.972C9.17472 22.3773 9.52691 22.6973 9.95181 22.8831C10.3767 23.0688 10.8508 23.1099 11.3013 23L12.9333 22.6373C13.04 22.6116 13.1524 22.6268 13.2484 22.6798C13.3444 22.7329 13.4171 22.82 13.452 22.924L13.9427 24.5027C14.082 24.9378 14.3559 25.3174 14.725 25.5868C15.094 25.8561 15.5391 26.0013 15.996 26.0013C16.4529 26.0013 16.898 25.8561 17.267 25.5868C17.6361 25.3174 17.91 24.9378 18.0493 24.5027L18.54 22.9253C18.5752 22.8213 18.6481 22.7341 18.7444 22.6811C18.8406 22.628 18.9532 22.6129 19.06 22.6387L20.696 23.008C21.1465 23.1181 21.6207 23.0771 22.0457 22.8914C22.4706 22.7056 22.8228 22.3854 23.048 21.98C23.2767 21.5887 23.3708 21.1331 23.3156 20.6832C23.2604 20.2332 23.0592 19.8138 22.7427 19.4893L21.5973 18.2893C21.5233 18.2145 21.4817 18.1134 21.4817 18.008C21.4817 17.9027 21.5233 17.8016 21.5973 17.7267L22.7427 16.5267C23.0592 16.2022 23.2604 15.7828 23.3156 15.3329C23.3708 14.8829 23.2767 14.4274 23.048 14.036C22.8226 13.6307 22.4705 13.3107 22.0456 13.125C21.6206 12.9392 21.1465 12.8982 20.696 13.008L19.0587 13.3773C18.9521 13.4027 18.8398 13.3874 18.7438 13.3344C18.6479 13.2814 18.5752 13.1945 18.54 13.0907L18.0533 11.4987C17.914 11.0635 17.6401 10.6839 17.271 10.4146C16.902 10.1452 16.4569 10.0001 16 10.0001C15.5431 10.0001 15.098 10.1452 14.729 10.4146C14.3599 10.6839 14.086 11.0635 13.9467 11.4987L13.456 13.076C13.4216 13.1806 13.3488 13.2684 13.2524 13.3215C13.1559 13.3747 13.0429 13.3894 12.936 13.3627L11.3 12.9933C10.8495 12.8828 10.3751 12.9236 9.95006 13.1094C9.52501 13.2951 9.17288 13.6156 8.94801 14.0213C8.71928 14.4127 8.62527 14.8683 8.68043 15.3182C8.73558 15.7681 8.93685 16.1875 9.25335 16.512L10.4 17.7187ZM16 15.452C16.5019 15.4636 16.9893 15.623 17.401 15.9103C17.8127 16.1976 18.1305 16.6 18.3145 17.0672C18.4985 17.5343 18.5406 18.0453 18.4354 18.5363C18.3303 19.0272 18.0826 19.4761 17.7234 19.8269C17.3642 20.1777 16.9094 20.4146 16.4161 20.5081C15.9228 20.6015 15.413 20.5473 14.9503 20.3523C14.4877 20.1572 14.093 19.83 13.8155 19.4115C13.5381 18.9931 13.3903 18.5021 13.3907 18C13.3945 17.6612 13.465 17.3264 13.5983 17.0149C13.7315 16.7033 13.9247 16.4211 14.167 16.1842C14.4093 15.9474 14.6959 15.7606 15.0104 15.6345C15.3249 15.5084 15.6612 15.4455 16 15.4493V15.452Z" fill="#1F477D"/>
<path d="M29.3333 1.33331H2.66667C1.95942 1.33331 1.28115 1.61426 0.781049 2.11436C0.280952 2.61446 0 3.29274 0 3.99998L0 28C0 28.7072 0.280952 29.3855 0.781049 29.8856C1.28115 30.3857 1.95942 30.6666 2.66667 30.6666H29.3333C30.0406 30.6666 30.7189 30.3857 31.219 29.8856C31.719 29.3855 32 28.7072 32 28V3.99998C32 3.29274 31.719 2.61446 31.219 2.11436C30.7189 1.61426 30.0406 1.33331 29.3333 1.33331ZM7.33333 4.77731C7.33333 4.5136 7.41153 4.25582 7.55804 4.03655C7.70455 3.81729 7.91279 3.64639 8.15642 3.54547C8.40006 3.44456 8.66815 3.41815 8.92679 3.4696C9.18543 3.52105 9.42301 3.64803 9.60948 3.8345C9.79595 4.02097 9.92293 4.25855 9.97438 4.51719C10.0258 4.77583 9.99942 5.04392 9.89851 5.28756C9.79759 5.53119 9.62669 5.73943 9.40743 5.88594C9.18816 6.03245 8.93038 6.11065 8.66667 6.11065C8.31304 6.11065 7.97391 5.97017 7.72386 5.72012C7.47381 5.47007 7.33333 5.13093 7.33333 4.77731ZM12 4.77731C12 4.5136 12.0782 4.25582 12.2247 4.03655C12.3712 3.81729 12.5795 3.64639 12.8231 3.54547C13.0667 3.44456 13.3348 3.41815 13.5935 3.4696C13.8521 3.52105 14.0897 3.64803 14.2761 3.8345C14.4626 4.02097 14.5896 4.25855 14.641 4.51719C14.6925 4.77583 14.6661 5.04392 14.5652 5.28756C14.4643 5.53119 14.2934 5.73943 14.0741 5.88594C13.8548 6.03245 13.597 6.11065 13.3333 6.11065C12.9797 6.11065 12.6406 5.97017 12.3905 5.72012C12.1405 5.47007 12 5.13093 12 4.77731ZM4 3.44398C4.26371 3.44398 4.52149 3.52218 4.74076 3.66869C4.96003 3.8152 5.13092 4.02343 5.23184 4.26707C5.33276 4.5107 5.35916 4.77879 5.30771 5.03743C5.25627 5.29607 5.12928 5.53365 4.94281 5.72012C4.75634 5.90659 4.51876 6.03358 4.26012 6.08503C4.00148 6.13647 3.73339 6.11007 3.48976 6.00915C3.24612 5.90823 3.03788 5.73734 2.89137 5.51807C2.74487 5.29881 2.66667 5.04102 2.66667 4.77731C2.66667 4.42369 2.80714 4.08455 3.05719 3.8345C3.30724 3.58446 3.64638 3.44398 4 3.44398V3.44398ZM28.6667 28H3.33333C3.15652 28 2.98695 27.9297 2.86193 27.8047C2.7369 27.6797 2.66667 27.5101 2.66667 27.3333V9.33331C2.66667 9.1565 2.7369 8.98693 2.86193 8.86191C2.98695 8.73688 3.15652 8.66665 3.33333 8.66665H28.6667C28.8435 8.66665 29.013 8.73688 29.1381 8.86191C29.2631 8.98693 29.3333 9.1565 29.3333 9.33331V27.3333C29.3333 27.5101 29.2631 27.6797 29.1381 27.8047C29.013 27.9297 28.8435 28 28.6667 28Z" fill="#1F477D"/>
</g>
<defs>
<clipPath id="clip0">
<rect width="32" height="32" fill="white"/>
</clipPath>
</defs>
</svg>
