<svg viewBox="0 0 32 32" fill="none" xmlns="http://www.w3.org/2000/svg">
<path d="M30.056 14.036H11.8667C11.7783 14.036 11.6935 14.0009 11.631 13.9384C11.5685 13.8759 11.5333 13.7911 11.5333 13.7027V12.1187C11.533 11.8926 11.4727 11.6707 11.3586 11.4756C11.2446 11.2804 11.0808 11.119 10.884 11.0077C10.6873 10.8965 10.4645 10.8393 10.2385 10.8422C10.0125 10.8451 9.79124 10.9078 9.59735 11.024L3.20001 14.8573C3.01053 14.9706 2.85367 15.131 2.74474 15.323C2.63581 15.515 2.57855 15.7319 2.57855 15.9527C2.57855 16.1734 2.63581 16.3904 2.74474 16.5823C2.85367 16.7743 3.01053 16.9348 3.20001 17.048L9.58801 20.8813C9.782 20.9976 10.0034 21.0603 10.2295 21.0631C10.4556 21.0659 10.6785 21.0087 10.8753 20.8973C11.0721 20.7859 11.2358 20.6243 11.3498 20.4289C11.4638 20.2336 11.5239 20.0115 11.524 19.7853V18.2027C11.524 18.1143 11.5591 18.0295 11.6216 17.967C11.6842 17.9045 11.7689 17.8693 11.8573 17.8693H30.056C30.5556 17.8562 31.0303 17.6484 31.379 17.2904C31.7277 16.9324 31.9228 16.4524 31.9228 15.9527C31.9228 15.4529 31.7277 14.9729 31.379 14.6149C31.0303 14.2569 30.5556 14.0492 30.056 14.036Z" fill="#1F477D"/>
<path d="M0.0279851 5.77734C0.0278099 6.02906 0.0772395 6.27835 0.173449 6.51097C0.269659 6.74358 0.410762 6.95496 0.588697 7.13302C0.766631 7.31107 0.977909 7.45233 1.21046 7.5487C1.443 7.64507 1.69226 7.69467 1.94398 7.69467H20.1333C20.2217 7.69467 20.3065 7.72979 20.369 7.7923C20.4315 7.85481 20.4667 7.9396 20.4667 8.028V9.61067C20.4664 9.83699 20.5262 10.0593 20.6401 10.2549C20.754 10.4505 20.9178 10.6123 21.1147 10.7238C21.3117 10.8353 21.5347 10.8925 21.761 10.8895C21.9873 10.8865 22.2087 10.8234 22.4027 10.7067L28.8 6.87334C28.9895 6.76011 29.1463 6.59966 29.2553 6.40768C29.3642 6.2157 29.4214 5.99874 29.4214 5.778C29.4214 5.55727 29.3642 5.34031 29.2553 5.14833C29.1463 4.95634 28.9895 4.7959 28.8 4.68267L22.408 0.849337C22.2142 0.732691 21.9929 0.669606 21.7667 0.666534C21.5405 0.663462 21.3175 0.720511 21.1206 0.83185C20.9237 0.94319 20.7599 1.10482 20.6459 1.30023C20.532 1.49563 20.4719 1.71779 20.472 1.944V3.528C20.472 3.61641 20.4369 3.70119 20.3744 3.76371C20.3118 3.82622 20.2271 3.86134 20.1387 3.86134H1.94398C1.43583 3.86134 0.948488 4.0632 0.589169 4.42252C0.229849 4.78184 0.0279851 5.26918 0.0279851 5.77734Z" fill="#1F477D"/>
<path d="M28.8 25.1267L22.408 21.2933C22.214 21.1771 21.9926 21.1143 21.7665 21.1115C21.5404 21.1087 21.3175 21.166 21.1207 21.2774C20.9239 21.3888 20.7602 21.5504 20.6462 21.7458C20.5322 21.9411 20.4721 22.1632 20.472 22.3893V23.972C20.472 24.0604 20.4369 24.1452 20.3744 24.2077C20.3118 24.2702 20.2271 24.3053 20.1387 24.3053H1.94399C1.44441 24.3185 0.969714 24.5262 0.621025 24.8842C0.272336 25.2422 0.0772095 25.7222 0.0772095 26.222C0.0772095 26.7218 0.272336 27.2018 0.621025 27.5598C0.969714 27.9178 1.44441 28.1255 1.94399 28.1387H20.1333C20.2217 28.1387 20.3065 28.1738 20.369 28.2363C20.4315 28.2988 20.4667 28.3836 20.4667 28.472V30.056C20.4666 30.2822 20.5266 30.5044 20.6406 30.6998C20.7546 30.8952 20.9184 31.0568 21.1153 31.1682C21.3122 31.2795 21.5351 31.3365 21.7613 31.3335C21.9875 31.3304 22.2088 31.2673 22.4027 31.1507L28.8 27.3173C28.9895 27.2041 29.1463 27.0437 29.2553 26.8517C29.3642 26.6597 29.4214 26.4427 29.4214 26.222C29.4214 26.0013 29.3642 25.7843 29.2553 25.5923C29.1463 25.4003 28.9895 25.2399 28.8 25.1267Z" fill="#1F477D"/>
</svg>
