<svg class="ub-w_24px ub-h_24px ub-dspl_flex ub-box-szg_border-box" viewBox="-3 -3 24 24" fill="#3366ff" xmlns="http://www.w3.org/2000/svg"><g><circle cx="9" cy="9" r="4.5"></circle><g><path d="M8,15.6c-2.9-0.4-5.3-2.8-5.7-5.7C2.1,8.2,2.5,6.5,3.4,5.2C3.6,5,3.5,4.7,3.3,4.5L2.5,3.7 C2.3,3.4,1.9,3.5,1.7,3.8C0.6,5.2,0,7,0,9v8.3C0,17.6,0.3,18,0.7,18H9c1.9,0,3.7-0.6,5.2-1.7c0.3-0.2,0.3-0.6,0.1-0.9l-0.8-0.8 c-0.2-0.2-0.5-0.2-0.7-0.1C11.5,15.5,9.8,15.9,8,15.6z"></path><path d="M10,2.3c2.9,0.4,5.3,2.8,5.7,5.7c0.2,1.8-0.2,3.4-1.1,4.7c-0.1,0.2-0.1,0.5,0.1,0.7l0.8,0.8 c0.2,0.2,0.7,0.2,0.9-0.1c1-1.5,1.7-3.3,1.7-5.2V0.7C18,0.3,17.7,0,17.3,0H9C7.1,0,5.3,0.6,3.8,1.6C3.5,1.8,3.5,2.2,3.7,2.5 l0.8,0.8C4.7,3.5,5,3.5,5.2,3.4C6.5,2.5,8.2,2,10,2.3z"></path></g></g></svg>