<svg width="32" height="32" viewBox="0 0 32 32" fill="none" xmlns="http://www.w3.org/2000/svg">
<path d="M32 5.33333C32 4.27247 31.5786 3.25505 30.8284 2.50491C30.0783 1.75476 29.0609 1.33333 28 1.33333H26.968C26.851 1.33333 26.736 1.30252 26.6347 1.24401C26.5333 1.1855 26.4492 1.10134 26.3907 1C26.2167 0.696325 25.9657 0.44394 25.663 0.268352C25.3603 0.0927643 25.0166 0.000195197 24.6667 0L5.392 0C4.86157 0 4.35286 0.210714 3.97779 0.585786C3.60271 0.960859 3.392 1.46957 3.392 2V3C3.392 3.08841 3.42712 3.17319 3.48963 3.2357C3.55214 3.29821 3.63693 3.33333 3.72533 3.33333H5.33333C5.68696 3.33333 6.02609 3.47381 6.27614 3.72386C6.52619 3.97391 6.66667 4.31305 6.66667 4.66667C6.66667 5.02029 6.52619 5.35943 6.27614 5.60948C6.02609 5.85952 5.68696 6 5.33333 6H1.33333C0.979711 6 0.640573 6.14048 0.390524 6.39052C0.140476 6.64057 0 6.97971 0 7.33333C0 7.68696 0.140476 8.02609 0.390524 8.27614C0.640573 8.52619 0.979711 8.66667 1.33333 8.66667H3.05867C3.14707 8.66667 3.23186 8.70179 3.29437 8.7643C3.35688 8.82681 3.392 8.91159 3.392 9V13C3.392 13.0884 3.42712 13.1732 3.48963 13.2357C3.55214 13.2982 3.63693 13.3333 3.72533 13.3333H5.33333C5.68696 13.3333 6.02609 13.4738 6.27614 13.7239C6.52619 13.9739 6.66667 14.313 6.66667 14.6667C6.66667 15.0203 6.52619 15.3594 6.27614 15.6095C6.02609 15.8595 5.68696 16 5.33333 16H1.33333C0.979711 16 0.640573 16.1405 0.390524 16.3905C0.140476 16.6406 0 16.9797 0 17.3333C0 17.687 0.140476 18.0261 0.390524 18.2761C0.640573 18.5262 0.979711 18.6667 1.33333 18.6667H3.05867C3.14707 18.6667 3.23186 18.7018 3.29437 18.7643C3.35688 18.8268 3.392 18.9116 3.392 19V23C3.392 23.0884 3.42712 23.1732 3.48963 23.2357C3.55214 23.2982 3.63693 23.3333 3.72533 23.3333H5.33333C5.68696 23.3333 6.02609 23.4738 6.27614 23.7239C6.52619 23.9739 6.66667 24.313 6.66667 24.6667C6.66667 25.0203 6.52619 25.3594 6.27614 25.6095C6.02609 25.8595 5.68696 26 5.33333 26H1.33333C0.979711 26 0.640573 26.1405 0.390524 26.3905C0.140476 26.6406 0 26.9797 0 27.3333C0 27.687 0.140476 28.0261 0.390524 28.2761C0.640573 28.5262 0.979711 28.6667 1.33333 28.6667H3.05867C3.14707 28.6667 3.23186 28.7018 3.29437 28.7643C3.35688 28.8268 3.392 28.9116 3.392 29V30C3.392 30.5304 3.60271 31.0391 3.97779 31.4142C4.35286 31.7893 4.86157 32 5.392 32H24.6667C25.0166 31.9998 25.3603 31.9072 25.663 31.7316C25.9657 31.5561 26.2167 31.3037 26.3907 31C26.4492 30.8987 26.5333 30.8145 26.6347 30.756C26.736 30.6975 26.851 30.6667 26.968 30.6667H28C29.0609 30.6667 30.0783 30.2452 30.8284 29.4951C31.5786 28.7449 32 27.7275 32 26.6667V5.33333ZM20.2747 10.6667C20.2747 11.1971 20.064 11.7058 19.6889 12.0809C19.3138 12.456 18.8051 12.6667 18.2747 12.6667H12.6667C12.1362 12.6667 11.6275 12.456 11.2525 12.0809C10.8774 11.7058 10.6667 11.1971 10.6667 10.6667V7.33333C10.6667 6.8029 10.8774 6.29419 11.2525 5.91912C11.6275 5.54405 12.1362 5.33333 12.6667 5.33333H18.2747C18.8051 5.33333 19.3138 5.54405 19.6889 5.91912C20.064 6.29419 20.2747 6.8029 20.2747 7.33333V10.6667ZM29.3333 14.3333C29.3333 14.4217 29.2982 14.5065 29.2357 14.569C29.1732 14.6315 29.0884 14.6667 29 14.6667H27C26.9116 14.6667 26.8268 14.6315 26.7643 14.569C26.7018 14.5065 26.6667 14.4217 26.6667 14.3333V11C26.6667 10.9116 26.7018 10.8268 26.7643 10.7643C26.8268 10.7018 26.9116 10.6667 27 10.6667H29C29.0884 10.6667 29.1732 10.7018 29.2357 10.7643C29.2982 10.8268 29.3333 10.9116 29.3333 11V14.3333ZM26.6667 17.6667C26.6667 17.5783 26.7018 17.4935 26.7643 17.431C26.8268 17.3685 26.9116 17.3333 27 17.3333H29C29.0884 17.3333 29.1732 17.3685 29.2357 17.431C29.2982 17.4935 29.3333 17.5783 29.3333 17.6667V21C29.3333 21.0884 29.2982 21.1732 29.2357 21.2357C29.1732 21.2982 29.0884 21.3333 29 21.3333H27C26.9116 21.3333 26.8268 21.2982 26.7643 21.2357C26.7018 21.1732 26.6667 21.0884 26.6667 21V17.6667ZM29.3333 5.33333V7.66667C29.3333 7.75507 29.2982 7.83986 29.2357 7.90237C29.1732 7.96488 29.0884 8 29 8H27C26.9116 8 26.8268 7.96488 26.7643 7.90237C26.7018 7.83986 26.6667 7.75507 26.6667 7.66667V4.33333C26.6667 4.24493 26.7018 4.16014 26.7643 4.09763C26.8268 4.03512 26.9116 4 27 4H28C28.3536 4 28.6928 4.14048 28.9428 4.39052C29.1929 4.64057 29.3333 4.97971 29.3333 5.33333ZM29.3333 26.6667C29.3333 27.0203 29.1929 27.3594 28.9428 27.6095C28.6928 27.8595 28.3536 28 28 28H27C26.9116 28 26.8268 27.9649 26.7643 27.9024C26.7018 27.8399 26.6667 27.7551 26.6667 27.6667V24.3333C26.6667 24.2449 26.7018 24.1601 26.7643 24.0976C26.8268 24.0351 26.9116 24 27 24H29C29.0884 24 29.1732 24.0351 29.2357 24.0976C29.2982 24.1601 29.3333 24.2449 29.3333 24.3333V26.6667Z"/>
</svg>
