<svg width="32" height="32" viewBox="0 0 32 32" fill="none" xmlns="http://www.w3.org/2000/svg">
<g clip-path="url(#clip0)">
<path d="M19.1333 27.5747C19.0708 27.4992 18.9923 27.4384 18.9036 27.3967C18.8149 27.355 18.718 27.3333 18.62 27.3333H13.38C13.282 27.3333 13.1851 27.355 13.0964 27.3967C13.0077 27.4384 12.9292 27.4992 12.8667 27.5747L10.0667 30.9507C9.99661 31.0506 9.95533 31.1679 9.94734 31.2897C9.93934 31.4115 9.96493 31.5331 10.0213 31.6414C10.0777 31.7496 10.1627 31.8403 10.2671 31.9035C10.3715 31.9668 10.4913 32.0001 10.6133 32H21.3853C21.5074 32.0001 21.6271 31.9668 21.7315 31.9035C21.8359 31.8403 21.9209 31.7496 21.9773 31.6414C22.0337 31.5331 22.0593 31.4115 22.0513 31.2897C22.0433 31.1679 22.0021 31.0506 21.932 30.9507L19.1333 27.5747Z" fill="#1F477D"/>
<path d="M30 5.86667H29.6667V4C29.6667 3.02754 29.2804 2.09491 28.5927 1.40727C27.9051 0.719641 26.9725 0.333332 26 0.333332C25.0275 0.333332 24.0949 0.719641 23.4073 1.40727C22.7196 2.09491 22.3333 3.02754 22.3333 4V5.86667H22C21.6464 5.86667 21.3072 6.00714 21.0572 6.25719C20.8071 6.50724 20.6667 6.84638 20.6667 7.2V13.2C20.6667 13.5536 20.8071 13.8928 21.0572 14.1428C21.3072 14.3929 21.6464 14.5333 22 14.5333H30C30.3536 14.5333 30.6928 14.3929 30.9428 14.1428C31.1929 13.8928 31.3333 13.5536 31.3333 13.2V7.2C31.3333 6.84638 31.1929 6.50724 30.9428 6.25719C30.6928 6.00714 30.3536 5.86667 30 5.86667ZM26 10.8667C25.7363 10.8667 25.4785 10.7885 25.2592 10.642C25.04 10.4955 24.8691 10.2872 24.7682 10.0436C24.6672 9.79994 24.6408 9.53185 24.6923 9.27321C24.7437 9.01457 24.8707 8.77699 25.0572 8.59052C25.2437 8.40405 25.4812 8.27707 25.7399 8.22562C25.9985 8.17417 26.2666 8.20058 26.5102 8.30149C26.7539 8.40241 26.9621 8.57331 27.1086 8.79257C27.2551 9.01184 27.3333 9.26962 27.3333 9.53333C27.3333 9.88695 27.1929 10.2261 26.9428 10.4761C26.6928 10.7262 26.3536 10.8667 26 10.8667ZM24.3333 5.86667V4C24.3333 3.55797 24.5089 3.13405 24.8215 2.82149C25.134 2.50893 25.558 2.33333 26 2.33333C26.442 2.33333 26.866 2.50893 27.1785 2.82149C27.4911 3.13405 27.6667 3.55797 27.6667 4V5.86667H24.3333Z" fill="#1F477D"/>
<path d="M30.6667 16.6667C30.313 16.6667 29.9739 16.8071 29.7239 17.0572C29.4738 17.3072 29.3333 17.6464 29.3333 18V19.3333C29.3333 19.5101 29.2631 19.6797 29.1381 19.8047C29.013 19.9298 28.8435 20 28.6667 20H3.33333C3.15652 20 2.98695 19.9298 2.86193 19.8047C2.7369 19.6797 2.66667 19.5101 2.66667 19.3333V3.33333C2.66667 3.15652 2.7369 2.98695 2.86193 2.86193C2.98695 2.7369 3.15652 2.66667 3.33333 2.66667H18.6667C19.0203 2.66667 19.3594 2.52619 19.6095 2.27614C19.8595 2.02609 20 1.68696 20 1.33333C20 0.979711 19.8595 0.640573 19.6095 0.390524C19.3594 0.140476 19.0203 0 18.6667 0L2.66667 0C1.95942 0 1.28115 0.280952 0.781049 0.781049C0.280952 1.28115 0 1.95942 0 2.66667L0 22.7267C0.0394651 23.6017 0.412362 24.4284 1.04215 25.0371C1.67194 25.6458 2.51084 25.9903 3.38667 26H28.6133C29.4892 25.9903 30.3281 25.6458 30.9579 25.0371C31.5876 24.4284 31.9605 23.6017 32 22.7267V18C32 17.6464 31.8595 17.3072 31.6095 17.0572C31.3594 16.8071 31.0203 16.6667 30.6667 16.6667Z" fill="#1F477D"/>
<path d="M18.7493 7.36667C18.7493 7.10145 18.644 6.8471 18.4564 6.65956C18.2689 6.47203 18.0145 6.36667 17.7493 6.36667H7.08267C6.46415 6.36773 5.87127 6.6139 5.43392 7.05125C4.99656 7.48861 4.75039 8.08149 4.74933 8.7V13.3667C4.75039 13.9852 4.99656 14.5781 5.43392 15.0154C5.87127 15.4528 6.46415 15.6989 7.08267 15.7H17.7493C18.0145 15.7 18.2689 15.5946 18.4564 15.4071C18.644 15.2196 18.7493 14.9652 18.7493 14.7C18.7493 14.4348 18.644 14.1804 18.4564 13.9929C18.2689 13.8054 18.0145 13.7 17.7493 13.7H7.08267C6.99437 13.6996 6.90979 13.6644 6.84735 13.602C6.78492 13.5395 6.74968 13.455 6.74933 13.3667V8.7C6.74968 8.6117 6.78492 8.52712 6.84735 8.46469C6.90979 8.40225 6.99437 8.36702 7.08267 8.36667H17.7493C18.0145 8.36667 18.2689 8.26131 18.4564 8.07378C18.644 7.88624 18.7493 7.63189 18.7493 7.36667Z" fill="#1F477D"/>
<path d="M10.084 12.3667C10.8204 12.3667 11.4173 11.7697 11.4173 11.0333C11.4173 10.297 10.8204 9.7 10.084 9.7C9.34762 9.7 8.75067 10.297 8.75067 11.0333C8.75067 11.7697 9.34762 12.3667 10.084 12.3667Z" fill="#1F477D"/>
<path d="M14.7507 12.3667C15.487 12.3667 16.084 11.7697 16.084 11.0333C16.084 10.297 15.487 9.7 14.7507 9.7C14.0143 9.7 13.4173 10.297 13.4173 11.0333C13.4173 11.7697 14.0143 12.3667 14.7507 12.3667Z" fill="#1F477D"/>
</g>
<defs>
<clipPath id="clip0">
<rect width="32" height="32" fill="white"/>
</clipPath>
</defs>
</svg>
