<svg width="32" height="32" viewBox="0 0 32 32" fill="none" xmlns="http://www.w3.org/2000/svg">
<path d="M12.6321 28.7706C12.7008 28.7747 12.7691 28.7576 12.8278 28.7216C12.8864 28.6856 12.9326 28.6324 12.9601 28.5693C13.0534 28.3506 13.3067 27.7693 13.9787 26.224C14.006 26.1596 14.0126 26.0882 13.9975 26.0199C13.9825 25.9516 13.9466 25.8897 13.8947 25.8426C13.0654 25.1 12.2947 24.428 11.9881 24.1346C11.934 24.0819 11.8633 24.0494 11.7881 24.0426C8.03207 23.7 4.46407 22.6493 2.38141 20.9533C2.33228 20.9136 2.27295 20.8885 2.21021 20.8809C2.14748 20.8734 2.08389 20.8837 2.02674 20.9106C1.96984 20.9377 1.92181 20.9804 1.88829 21.0338C1.85476 21.0872 1.83711 21.149 1.83741 21.212V23.5C1.83741 26.1786 6.52674 28.3893 12.6321 28.7706Z" fill="#1F477D"/>
<path d="M25.62 15.6507C25.5514 15.6926 25.5001 15.7578 25.4756 15.8345C25.4511 15.9111 25.4551 15.994 25.4867 16.068L26.1534 17.6307C26.1795 17.6903 26.2224 17.7411 26.2768 17.7769C26.3312 17.8126 26.3949 17.8318 26.46 17.832H26.8027C26.8894 17.832 26.9726 17.7982 27.0347 17.7376C27.0967 17.6771 27.1326 17.5947 27.1347 17.508C27.1587 16.6773 27.164 16.0413 27.1654 15.2107C27.1664 15.1471 27.1494 15.0846 27.1162 15.0304C27.083 14.9762 27.0351 14.9326 26.9781 14.9046C26.921 14.8766 26.8571 14.8655 26.794 14.8724C26.7308 14.8794 26.6709 14.9043 26.6214 14.944C26.3046 15.2028 25.97 15.4389 25.62 15.6507V15.6507Z" fill="#1F477D"/>
<path d="M1.8374 17.5C1.8374 19.8626 5.48674 21.8613 10.5387 22.5666C10.5914 22.5744 10.6451 22.5692 10.6952 22.5515C10.7454 22.5339 10.7905 22.5043 10.8267 22.4653C10.8634 22.4266 10.8901 22.3795 10.9048 22.3283C10.9194 22.277 10.9214 22.2229 10.9107 22.1707C10.7772 21.5249 10.825 20.8547 11.0488 20.2344C11.2726 19.6141 11.6636 19.0678 12.1787 18.656C12.2325 18.6149 12.2725 18.5584 12.2934 18.494C12.3143 18.4297 12.3151 18.3605 12.2957 18.2956C12.2763 18.2308 12.2376 18.1734 12.1848 18.1311C12.132 18.0887 12.0676 18.0635 12.0001 18.0586C8.16807 17.7373 4.50407 16.6813 2.38274 14.9533C2.33361 14.9136 2.27428 14.8885 2.21154 14.8809C2.14881 14.8734 2.08522 14.8837 2.02807 14.9106C1.97117 14.9377 1.92314 14.9804 1.88962 15.0338C1.85609 15.0872 1.83844 15.149 1.83874 15.212L1.8374 17.5Z" fill="#1F477D"/>
<path d="M14.5054 12.1666C9.83874 12.1666 4.96407 11.056 2.3814 8.95196C2.33251 8.9121 2.27332 8.88692 2.21069 8.87936C2.14806 8.8718 2.08457 8.88216 2.0276 8.90925C1.97062 8.93634 1.92251 8.97904 1.88884 9.03239C1.85517 9.08574 1.83734 9.14755 1.8374 9.21063V11.5C1.8374 14.4466 7.5094 16.8333 14.5041 16.8333C15.3721 16.8333 16.2174 16.7946 17.0374 16.724C17.0975 16.7186 17.155 16.6972 17.2041 16.662C17.2531 16.6269 17.2917 16.5792 17.3161 16.524L18.1161 14.6813L18.1401 14.6266L18.1667 14.5746C18.4747 13.9531 18.9496 13.4296 19.5384 13.063C20.1272 12.6963 20.8065 12.5009 21.5001 12.4986C22.1393 12.494 22.7685 12.658 23.3242 12.974C23.8799 13.29 24.3425 13.7469 24.6654 14.2986C24.7134 14.3735 24.7892 14.4262 24.8761 14.4453C24.9191 14.4547 24.9635 14.4554 25.0068 14.4474C25.05 14.4394 25.0913 14.4228 25.1281 14.3986C25.6841 14.1249 26.1626 13.7161 26.5199 13.2098C26.8772 12.7034 27.1019 12.1156 27.1734 11.5V9.2133C27.1735 9.15021 27.1556 9.08841 27.122 9.03506C27.0883 8.98171 27.0402 8.93901 26.9832 8.91192C26.9262 8.88483 26.8627 8.87446 26.8001 8.88202C26.7375 8.88958 26.6783 8.91476 26.6294 8.95463C24.0441 11.0573 19.1761 12.1666 14.5054 12.1666Z" fill="#1F477D"/>
<path d="M14.5053 10.8334C21.5009 10.8334 27.172 8.44554 27.172 5.50002C27.172 2.5545 21.5009 0.166687 14.5053 0.166687C7.50968 0.166687 1.83862 2.5545 1.83862 5.50002C1.83862 8.44554 7.50968 10.8334 14.5053 10.8334Z" fill="#1F477D"/>
<path d="M28.484 19.832H25.1506C25.0856 19.832 25.022 19.813 24.9677 19.7772C24.9135 19.7414 24.8709 19.6904 24.8453 19.6307L23.052 15.4747L23.036 15.4387C22.8898 15.1526 22.6666 14.913 22.3916 14.7469C22.1166 14.5808 21.8007 14.4947 21.4795 14.4985C21.1582 14.5022 20.8444 14.5956 20.5733 14.768C20.3023 14.9405 20.0848 15.1852 19.9453 15.4747L18.1506 19.6307C18.125 19.6904 18.0825 19.7414 18.0282 19.7772C17.9739 19.813 17.9103 19.832 17.8453 19.832H14.512C14.181 19.8242 13.8554 19.9167 13.5779 20.0973C13.3005 20.2779 13.0841 20.5382 12.9573 20.844C12.8321 21.1619 12.8059 21.5102 12.882 21.8433C12.9581 22.1764 13.1331 22.4787 13.384 22.7107L16.3093 25.3173C16.3614 25.3641 16.3976 25.4261 16.4127 25.4945C16.4277 25.5629 16.421 25.6343 16.3933 25.6987L14.7626 29.452C14.6171 29.777 14.5793 30.14 14.6546 30.488C14.7299 30.836 14.9144 31.1509 15.1813 31.3867C15.4486 31.6329 15.7877 31.7872 16.149 31.827C16.5102 31.8668 16.8747 31.7901 17.1893 31.608L21.3333 29.268C21.3832 29.2401 21.4394 29.2254 21.4966 29.2254C21.5538 29.2254 21.61 29.2401 21.66 29.268L25.812 31.6C26.1265 31.7821 26.491 31.8588 26.8523 31.819C27.2136 31.7792 27.5526 31.6249 27.82 31.3787C28.0866 31.143 28.2711 30.8285 28.3466 30.4808C28.4221 30.1331 28.3848 29.7703 28.24 29.4453L26.608 25.6907C26.5803 25.6263 26.5735 25.5549 26.5886 25.4865C26.6037 25.4181 26.6398 25.3561 26.692 25.3093L29.6426 22.68C29.8843 22.4482 30.0514 22.1496 30.1227 21.8223C30.1939 21.4951 30.1661 21.154 30.0426 20.8427C29.9149 20.5368 29.6977 20.2767 29.4196 20.0963C29.1414 19.916 28.8153 19.8238 28.484 19.832V19.832Z" fill="#1F477D"/>
</svg>
