<svg width="36" height="37" viewBox="0 0 36 37" fill="none" xmlns="http://www.w3.org/2000/svg">
<path fill-rule="evenodd" clip-rule="evenodd" d="M6.19143 10.2822C6.19143 4.81195 10.6267 0.377441 16.098 0.377441C16.5188 0.377441 16.86 0.718558 16.86 1.13935V19.4251C16.86 19.8458 16.5188 20.187 16.098 20.187C10.6267 20.187 6.19143 15.7525 6.19143 10.2822ZM19.9082 14.0917C22.0125 14.0917 23.7184 12.3861 23.7184 10.2822C23.7184 8.17826 22.0125 6.47268 19.9082 6.47268C19.7975 6.47342 19.6871 6.48105 19.5774 6.49554C19.4685 6.51004 19.3586 6.47683 19.276 6.40443C19.1934 6.33203 19.146 6.22748 19.1461 6.11763V1.13935C19.1461 0.718558 19.4873 0.377441 19.9082 0.377441C20.4616 0.382214 21.0137 0.433185 21.5587 0.529822C21.9263 0.588617 22.1976 0.904319 22.2004 1.27649V2.7622C22.2007 2.92299 22.3019 3.06628 22.4534 3.1203C22.7026 3.20852 22.9468 3.31026 23.1849 3.42506C23.3312 3.49082 23.5031 3.45792 23.6147 3.34277L24.6633 2.29592C24.9268 2.03285 25.3418 1.9987 25.6448 2.21516C26.5478 2.85664 27.3366 3.64527 27.9782 4.54811C28.1943 4.85138 28.1594 5.26639 27.8959 5.52944L26.8488 6.5763C26.7347 6.69087 26.7054 6.86497 26.7757 7.01058C26.8884 7.24982 26.9906 7.49516 27.0805 7.74354C27.1345 7.89498 27.2778 7.99619 27.4386 7.99649H28.9155C29.2875 7.99654 29.6051 8.26513 29.6668 8.63192C29.864 9.72328 29.864 10.8411 29.6668 11.9325C29.6051 12.2993 29.2875 12.5679 28.9155 12.5679H27.4386C27.2754 12.5651 27.1288 12.667 27.0744 12.8209C26.986 13.0687 26.8844 13.3126 26.7696 13.5523C26.6993 13.6979 26.7286 13.872 26.8427 13.9866L27.8928 15.0304C28.1556 15.2932 28.1903 15.7072 27.9751 16.0102C27.3335 16.9135 26.5448 17.7026 25.6417 18.3447C25.3384 18.5607 24.9233 18.5259 24.6602 18.2624L23.6117 17.2155C23.4971 17.1015 23.3229 17.0722 23.1773 17.1424C22.9389 17.2566 22.6947 17.3583 22.4457 17.4472C22.2938 17.5014 22.1924 17.6454 22.1927 17.8068V19.2833C22.1927 19.6553 21.9241 19.9728 21.5572 20.0346C21.0122 20.1312 20.4601 20.1822 19.9066 20.187C19.4858 20.187 19.1446 19.8458 19.1446 19.4251V14.3858C19.1444 14.2887 19.1866 14.1964 19.2601 14.1328C19.3335 14.0693 19.431 14.041 19.5271 14.0552C19.6532 14.0759 19.7805 14.0881 19.9082 14.0917ZM16.0979 20.9489C7.68452 20.9581 0.866386 27.775 0.857147 36.187C0.857147 36.6078 1.19832 36.9489 1.61919 36.9489H16.0979C16.5188 36.9489 16.86 36.6078 16.86 36.187V21.7108C16.86 21.29 16.5188 20.9489 16.0979 20.9489ZM34.1888 33.1393C34.5635 33.1424 34.8817 33.4143 34.9432 33.7839C35.0735 34.5866 35.1403 35.3982 35.1429 36.2113C35.1281 36.6214 34.7912 36.9461 34.3808 36.9458H27.0652C26.8729 36.9441 26.7137 36.7961 26.6979 36.6045C26.3137 32.7917 23.2979 29.7765 19.4845 29.3923C19.2928 29.3765 19.1448 29.2173 19.1431 29.0251V21.7108C19.1429 21.2982 19.4713 20.9604 19.8838 20.9489C20.9736 20.9486 22.0603 21.0645 23.1255 21.2948C23.4713 21.375 23.716 21.6834 23.7153 22.0384V24.3378C23.7152 24.4996 23.8172 24.6437 23.9698 24.6974C24.5462 24.9012 25.1066 25.1478 25.6463 25.435C25.7941 25.514 25.9762 25.4867 26.0944 25.3679L27.6718 23.8075C27.9297 23.5497 28.3342 23.5108 28.6366 23.7146C30.4172 24.958 31.9103 26.5689 33.0152 28.4384C33.1847 28.7359 33.1348 29.1099 32.8933 29.3527L31.2168 31.0289C31.1059 31.1384 31.0733 31.3046 31.1345 31.4479C31.3321 31.9088 31.5006 32.3816 31.639 32.8635C31.6865 33.0269 31.8361 33.1393 32.0063 33.1393H34.1888Z" />
</svg>
