<svg width="34" height="37" viewBox="0 0 34 37" fill="none" xmlns="http://www.w3.org/2000/svg">
<path fill-rule="evenodd" clip-rule="evenodd" d="M14.8227 12.6962C23.0082 12.6962 29.6439 9.93853 29.6439 6.5368C29.6439 3.13508 23.0082 0.377441 14.8227 0.377441C6.63709 0.377441 0.00137854 3.13508 0.00137854 6.5368C0.00137854 9.93853 6.63709 12.6962 14.8227 12.6962ZM24.5867 13.0668C24.6839 13.2063 24.6773 13.3921 24.5706 13.5246C24.2291 13.9443 23.7376 14.5511 23.0232 15.433L23.0218 15.4348L23.0193 15.4378L23.0166 15.4412L23.0131 15.4455C22.2794 16.3512 21.3118 17.5457 20.0321 19.1235C19.9709 19.1993 19.8828 19.2493 19.7856 19.2636C18.1423 19.5059 16.4829 19.6268 14.8213 19.6255C6.63681 19.6255 2.08403e-07 16.8691 2.08403e-07 13.4661V10.8222C-0.000155076 10.6735 0.0864799 10.538 0.222546 10.4741C0.358613 10.4103 0.519775 10.4295 0.636535 10.5235C3.65696 12.9533 9.35457 14.236 14.8228 14.236C17.9801 14.2545 21.1227 13.8103 24.1478 12.9179C24.3113 12.8669 24.4895 12.9273 24.5867 13.0668ZM7.81868e-06 20.3954C7.81868e-06 23.9601 7.00501 26.5547 14.8478 26.5547C15.0564 26.5541 15.2279 26.3923 15.2378 26.1867C15.2634 25.3844 15.5612 24.6139 16.0834 23.9986L17.965 21.6781C18.0628 21.5582 18.0789 21.3924 18.0059 21.2564C17.9329 21.1204 17.7849 21.0404 17.6295 21.0529C16.6934 21.1299 15.7574 21.1714 14.8213 21.1714C9.36082 21.1714 3.65852 19.8888 0.634983 17.4604C0.518541 17.3661 0.357323 17.3467 0.221322 17.4107C0.0853219 17.4746 -0.000932438 17.6105 7.81868e-06 17.7592V20.3954ZM14.8213 33.484C16.4018 33.4846 17.9804 33.3755 19.5454 33.1576C19.7377 33.1301 19.8805 32.9675 19.8808 32.7757V30.4043C19.8808 30.1917 19.7062 30.0194 19.4908 30.0194H18.9104C17.6273 30.0109 16.4404 29.3465 15.7745 28.264C15.7024 28.1482 15.5737 28.0785 15.436 28.0807C13.439 28.1084 5.03144 27.9775 0.642784 24.3851C0.526643 24.289 0.364451 24.2683 0.227364 24.3321C0.090278 24.396 0.00333913 24.5327 0.00468926 24.6823V27.3185C8.85545e-06 30.7277 6.63682 33.484 14.8213 33.484ZM28.4616 22.7051C28.4616 22.9177 28.6362 23.0901 28.8516 23.0901H31.7784C32.3105 23.0904 32.7939 23.3957 33.017 23.8725C33.2402 24.3493 33.1622 24.9106 32.8175 25.3105L23.6127 36.6607C23.4055 36.9156 23.0578 37.0136 22.7454 36.9052C22.433 36.7968 22.2241 36.5055 22.2241 36.1787V28.0946C22.2241 27.882 22.0495 27.7096 21.8341 27.7096H18.9089C18.3771 27.7087 17.8942 27.4034 17.6709 26.927C17.4477 26.4507 17.5247 25.8897 17.8682 25.4892L27.073 14.1405C27.2776 13.8827 27.6267 13.7833 27.9389 13.8942C28.2519 14.0022 28.4616 14.2937 28.4616 14.621V22.7051Z" />
</svg>
