<svg viewBox="0 0 26 32" xmlns="http://www.w3.org/2000/svg">
  <path d="M22.667 12.667h-1V9a9 9 0 00-18 0v3.667h-1A2.667 2.667 0 000 15.333v14A2.667 2.667 0 002.667 32h20a2.667 2.667 0 002.666-2.667v-14a2.667 2.667 0 00-2.666-2.666zm-8.383 16.766A5.673 5.673 0 017 24v-2.667c0-.548.079-1.093.235-1.618a1 1 0 111.917.57c-.101.34-.152.693-.152 1.048V24a3.67 3.67 0 004.716 3.516 1 1 0 01.568 1.917zm-1.617-8.6a.833.833 0 110-1.666 2.17 2.17 0 012.166 2.166v2a.833.833 0 11-1.666 0v-2a.5.5 0 00-.5-.5zm-.5 1.167v2a.5.5 0 00.5.5.833.833 0 110 1.667A2.168 2.168 0 0110.5 24v-2a.833.833 0 111.667 0zm6.166 2a5.624 5.624 0 01-.546 2.43 1 1 0 11-1.806-.86c.234-.49.354-1.027.352-1.57v-2.667a3.667 3.667 0 00-5.556-3.142 1 1 0 01-1.032-1.714 5.667 5.667 0 018.588 4.856V24zm0-12a.667.667 0 01-.666.667h-10A.667.667 0 017 12V9a5.667 5.667 0 0111.333 0v3z" fill="#1F477D" fill-rule="evenodd"/>
</svg>