<svg viewBox="0 0 32 32" xmlns="http://www.w3.org/2000/svg">
  <g fill-rule="evenodd">
    <path d="M3.333 8H26a3.333 3.333 0 003.333-3.333V3.333A3.333 3.333 0 0026 0H3.333A3.333 3.333 0 000 3.333v1.334A3.333 3.333 0 003.333 8zm1.514-4A1.487 1.487 0 117.82 4a1.487 1.487 0 01-2.973 0zM10 4a1.487 1.487 0 112.973 0A1.487 1.487 0 0110 4zM23.333 12.667a10.61 10.61 0 015.036 1.265.657.657 0 00.964-.585v-.678A3.333 3.333 0 0026 9.333H3.333A3.333 3.333 0 000 12.667V14a3.333 3.333 0 003.333 3.333h10.852c.212 0 .41-.102.534-.274a10.656 10.656 0 018.614-4.392zm-10.361.666a1.487 1.487 0 11-2.973 0 1.487 1.487 0 012.973 0zm-5.152 0a1.487 1.487 0 11-2.973 0 1.487 1.487 0 012.973 0zM3.333 26.667h8.99a.673.673 0 00.641-.851 10.49 10.49 0 01.4-6.25.667.667 0 00-.617-.9H3.333A3.333 3.333 0 000 22v1.333a3.333 3.333 0 003.333 3.334zm1.514-4a1.487 1.487 0 112.973-.003 1.487 1.487 0 01-2.973.003z"/>
    <path d="M14.667 23.333a8.667 8.667 0 108.666-8.666 8.677 8.677 0 00-8.666 8.666zm5.682-.221l1.734 1.733a.337.337 0 00.509-.036l3.641-4.857a1 1 0 011.6 1.2l-3.873 5.165a1.99 1.99 0 01-1.467.8h-.149a1.981 1.981 0 01-1.407-.59l-2-2a1 1 0 011.415-1.415h-.003z"/>
  </g>
</svg>
