<svg width="32" height="32" viewBox="0 0 32 32" fill="none" xmlns="http://www.w3.org/2000/svg">
<path fill-rule="evenodd" clip-rule="evenodd" d="M2.612 0H13.3333C13.7015 0 14 0.304127 14 0.679286V11.8875C14 12.2627 13.7015 12.5668 13.3333 12.5668H0.666669C0.489543 12.5668 0.319714 12.4949 0.194665 12.3671C0.0697141 12.2394 -0.000315277 12.0664 1.06712e-06 11.8861L0.0160021 2.66008C0.0174288 1.19739 1.17651 0.00970093 2.612 0ZM0.846893 16.6425H13.3336C13.7017 16.6425 14.0002 16.9466 14.0002 17.3218V31.6221C14.0002 31.6591 13.9943 31.6959 13.9827 31.731C13.9238 31.9087 13.7346 32.0041 13.5602 31.9441C6.99637 29.589 2.07532 23.9702 0.522893 17.0582C0.517329 17.0336 0.514488 17.0083 0.514424 16.983C0.513948 16.7955 0.662799 16.643 0.846893 16.6425ZM31.1413 16.6425L18.6667 16.6425C18.2985 16.6425 18 16.9466 18 17.3218V31.6602C17.9999 31.8477 18.149 31.9999 18.3331 32C18.3695 32 18.4056 31.994 18.44 31.9821C25.0099 29.6178 29.9286 23.9826 31.4667 17.0582C31.5079 16.8754 31.3959 16.6932 31.2165 16.6511C31.1918 16.6454 31.1666 16.6425 31.1413 16.6425ZM29.3881 0C30.8235 0.00972737 31.9826 1.19739 31.984 2.66008L32 11.8861C32.0003 12.0664 31.9303 12.2394 31.8053 12.3671C31.6803 12.4949 31.5105 12.5668 31.3333 12.5668H18.6667C18.2985 12.5668 18 12.2627 18 11.8875V0.679286C18 0.304127 18.2985 0 18.6667 0H29.3881Z" />
</svg>
