<svg width="32" height="32" viewBox="0 0 32 32" fill="none" xmlns="http://www.w3.org/2000/svg">
<path d="M31.8814 9.3644C31.6086 8.62824 30.9079 8.13842 30.1228 8.13512H23.7804C23.4982 8.13495 23.2467 7.95713 23.1524 7.69113L20.8658 1.21806V1.21806C20.5022 0.247915 19.421 -0.243779 18.4509 0.119839C17.9433 0.310066 17.5429 0.710518 17.3527 1.21806L17.346 1.24339L15.0661 7.69647C14.9717 7.96292 14.7195 8.14085 14.4368 8.14045H8.09569C7.05964 8.14178 6.22084 8.98273 6.22216 10.0188C6.22287 10.574 6.46953 11.1004 6.89573 11.4563L12.3249 15.9561C12.5365 16.1317 12.6185 16.4193 12.5315 16.6801L11.9995 18.268C11.8903 18.5944 12.0474 18.9502 12.3622 19.0894C13.5179 19.5984 14.4369 20.5278 14.9327 21.6893C15.0731 22.0136 15.1604 22.3585 15.1914 22.7105C15.224 23.0773 15.5477 23.3481 15.9145 23.3155C16.027 23.3055 16.1351 23.2671 16.2287 23.2039L18.7219 21.5186C18.955 21.3613 19.2617 21.3672 19.4886 21.5333L25.0883 25.6344C25.9222 26.2494 27.0966 26.0719 27.7115 25.2381C28.0736 24.7471 28.1744 24.1107 27.9816 23.5318L25.6977 16.6801C25.6106 16.4193 25.6927 16.1317 25.9043 15.9561L31.3494 11.4443C31.9438 10.9302 32.1559 10.1008 31.8814 9.3644L31.8814 9.3644Z"/>
<path d="M8.49967 26.0011C8.03945 26.0011 7.66637 25.628 7.66637 25.1678C7.66637 24.7076 8.03945 24.3345 8.49967 24.3345H11.8662C12.6025 24.3344 13.1994 23.7374 13.1993 23.0011C13.1993 22.8205 13.1626 22.6418 13.0915 22.4759V22.4759C12.6229 21.3787 11.5446 20.6672 10.3516 20.668H4.66648H4.66648C4.29831 20.668 3.99984 20.9664 3.99984 21.3346V30.0009C3.99984 30.3691 4.29831 30.6676 4.66648 30.6676H19.0179H19.0179C20.6638 30.6661 21.9977 29.3322 21.9991 27.6864V27.3344C21.9991 26.598 21.4022 26.0011 20.6659 26.0011H8.49967Z"/>
<path d="M2.66656 21.0013V21.0013C2.65237 20.2709 2.06367 19.6822 1.33328 19.668H1.33328C0.59693 19.668 0 20.265 0 21.0013V30.6676H0C1.11186e-07 31.4039 0.59693 32.0009 1.33328 32.0009C2.05688 31.971 2.63666 31.3912 2.66656 30.6676V21.0013Z"/>
</svg>
