<svg width="32" height="32" viewBox="0 0 32 32" fill="none" xmlns="http://www.w3.org/2000/svg">
<g clip-path="url(#clip0)">
<path d="M9.35866 20.6267C9.26319 20.719 9.18706 20.8293 9.13471 20.9514C9.08236 21.0734 9.05484 21.2046 9.05374 21.3374C9.05265 21.4702 9.07802 21.6019 9.12836 21.7247C9.1787 21.8476 9.253 21.9592 9.34694 22.0531C9.44087 22.1469 9.55256 22.2211 9.67548 22.2713C9.7984 22.3216 9.93009 22.3468 10.0629 22.3456C10.1956 22.3444 10.3269 22.3167 10.4488 22.2643C10.5708 22.2118 10.6811 22.1356 10.7733 22.04L14.1067 18.7067C14.1995 18.6139 14.2732 18.5038 14.3235 18.3825C14.3738 18.2612 14.3997 18.1313 14.3997 18C14.3997 17.8687 14.3738 17.7388 14.3235 17.6175C14.2732 17.4962 14.1995 17.3861 14.1067 17.2933L10.7733 13.96C10.5848 13.7778 10.3323 13.6768 10.0701 13.679C9.80785 13.6811 9.55699 13.7862 9.37149 13.9715C9.186 14.1568 9.08071 14.4076 9.07831 14.6698C9.07591 14.932 9.17658 15.1846 9.35866 15.3733L11.7493 17.764C11.7804 17.795 11.805 17.8317 11.8218 17.8722C11.8386 17.9127 11.8473 17.9562 11.8473 18C11.8473 18.0438 11.8386 18.0873 11.8218 18.1278C11.805 18.1683 11.7804 18.205 11.7493 18.236L9.35866 20.6267Z" fill="#1F477D"/>
<path d="M16.7334 21H22.0667C22.3319 21 22.5863 20.8946 22.7738 20.7071C22.9614 20.5196 23.0667 20.2652 23.0667 20C23.0667 19.7348 22.9614 19.4804 22.7738 19.2929C22.5863 19.1054 22.3319 19 22.0667 19H16.7334C16.4682 19 16.2138 19.1054 16.0263 19.2929C15.8388 19.4804 15.7334 19.7348 15.7334 20C15.7334 20.2652 15.8388 20.5196 16.0263 20.7071C16.2138 20.8946 16.4682 21 16.7334 21Z" fill="#1F477D"/>
<path d="M32 6.33331C32 5.27245 31.5786 4.25503 30.8284 3.50489C30.0783 2.75474 29.0609 2.33331 28 2.33331H4C2.93913 2.33331 1.92172 2.75474 1.17157 3.50489C0.421427 4.25503 0 5.27245 0 6.33331L0 25.6666C0 26.7275 0.421427 27.7449 1.17157 28.4951C1.92172 29.2452 2.93913 29.6666 4 29.6666H28C29.0609 29.6666 30.0783 29.2452 30.8284 28.4951C31.5786 27.7449 32 26.7275 32 25.6666V6.33331ZM12.872 4.99998C12.9832 4.79818 13.1466 4.62991 13.345 4.51272C13.5434 4.39554 13.7696 4.33372 14 4.33372C14.2304 4.33372 14.4566 4.39554 14.655 4.51272C14.8534 4.62991 15.0168 4.79818 15.128 4.99998C15.2563 5.19917 15.3273 5.4298 15.3333 5.66665C15.3273 5.90349 15.2563 6.13412 15.128 6.33331C15.0168 6.53511 14.8534 6.70338 14.655 6.82057C14.4566 6.93776 14.2304 6.99957 14 6.99957C13.7696 6.99957 13.5434 6.93776 13.345 6.82057C13.1466 6.70338 12.9832 6.53511 12.872 6.33331C12.7437 6.13412 12.6727 5.90349 12.6667 5.66665C12.6727 5.4298 12.7437 5.19917 12.872 4.99998V4.99998ZM8.20533 4.99998C8.31656 4.79818 8.4799 4.62991 8.6783 4.51272C8.8767 4.39554 9.10291 4.33372 9.33333 4.33372C9.56376 4.33372 9.78997 4.39554 9.98837 4.51272C10.1868 4.62991 10.3501 4.79818 10.4613 4.99998C10.5896 5.19917 10.6606 5.4298 10.6667 5.66665C10.6606 5.90349 10.5896 6.13412 10.4613 6.33331C10.3501 6.53511 10.1868 6.70338 9.98837 6.82057C9.78997 6.93776 9.56376 6.99957 9.33333 6.99957C9.10291 6.99957 8.8767 6.93776 8.6783 6.82057C8.4799 6.70338 8.31656 6.53511 8.20533 6.33331C8.07706 6.13412 8.00602 5.90349 8 5.66665C8.00602 5.4298 8.07706 5.19917 8.20533 4.99998V4.99998ZM3.456 5.12265C3.56058 4.88863 3.73039 4.68971 3.94511 4.54972C4.15983 4.40973 4.41035 4.33459 4.66667 4.33331C4.89659 4.33596 5.12179 4.39894 5.31974 4.51593C5.5177 4.63292 5.68146 4.79984 5.79467 4.99998C5.92294 5.19917 5.99398 5.4298 6 5.66665C5.99398 5.90349 5.92294 6.13412 5.79467 6.33331C5.68344 6.53511 5.5201 6.70338 5.3217 6.82057C5.1233 6.93776 4.89709 6.99957 4.66667 6.99957C4.43624 6.99957 4.21003 6.93776 4.01163 6.82057C3.81323 6.70338 3.6499 6.53511 3.53867 6.33331C3.41039 6.13412 3.33936 5.90349 3.33333 5.66665C3.33456 5.47859 3.3764 5.29303 3.456 5.12265V5.12265ZM29.3333 25.6666C29.3333 26.0203 29.1929 26.3594 28.9428 26.6095C28.6928 26.8595 28.3536 27 28 27H4C3.64638 27 3.30724 26.8595 3.05719 26.6095C2.80714 26.3594 2.66667 26.0203 2.66667 25.6666V9.33331C2.66667 9.24491 2.70179 9.16012 2.7643 9.09761C2.82681 9.0351 2.91159 8.99998 3 8.99998H29C29.0884 8.99998 29.1732 9.0351 29.2357 9.09761C29.2982 9.16012 29.3333 9.24491 29.3333 9.33331V25.6666Z" fill="#1F477D"/>
</g>
<defs>
<clipPath id="clip0">
<rect width="32" height="32" fill="white"/>
</clipPath>
</defs>
</svg>
