<svg width="32" height="32" viewBox="0 0 32 32" fill="none" xmlns="http://www.w3.org/2000/svg">
<g clip-path="url(#clip0)">
<path d="M29.5067 24.3106C29.4488 24.2874 29.3988 24.2483 29.3622 24.1978C29.3256 24.1473 29.3041 24.0875 29.3 24.0253C29.1377 21.6685 28.0877 19.4609 26.3618 17.8478C24.6358 16.2348 22.3624 15.3362 20 15.3333H17.6667C17.5783 15.3333 17.4935 15.2982 17.431 15.2357C17.3685 15.1732 17.3334 15.0884 17.3334 15V7.98131C17.3334 7.91561 17.3527 7.85138 17.389 7.79661C17.4253 7.74184 17.4769 7.69896 17.5374 7.67331C18.3911 7.31787 19.0954 6.67758 19.5302 5.86139C19.9651 5.0452 20.1037 4.10354 19.9225 3.19666C19.7412 2.28979 19.2514 1.47373 18.5362 0.887355C17.8211 0.300982 16.9248 -0.0194702 16 -0.0194702C15.0752 -0.0194702 14.179 0.300982 13.4638 0.887355C12.7487 1.47373 12.2588 2.28979 12.0776 3.19666C11.8963 4.10354 12.035 5.0452 12.4698 5.86139C12.9047 6.67758 13.6089 7.31787 14.4627 7.67331C14.5232 7.69896 14.5748 7.74184 14.611 7.79661C14.6473 7.85138 14.6667 7.91561 14.6667 7.98131V14.9986C14.6667 15.087 14.6316 15.1718 14.5691 15.2343C14.5065 15.2969 14.4218 15.332 14.3334 15.332H11.3334C9.0417 15.3595 6.85251 16.2859 5.23707 17.9115C3.62164 19.5372 2.70914 21.7322 2.69602 24.024C2.69208 24.0867 2.67063 24.1471 2.63409 24.1982C2.59756 24.2494 2.54742 24.2892 2.48935 24.3133C1.63409 24.6629 0.926205 25.2977 0.485946 26.11C0.045686 26.9223 -0.099797 27.8619 0.07421 28.7693C0.248217 29.6767 0.730983 30.4959 1.4405 31.0877C2.15002 31.6795 3.04253 32.0075 3.96643 32.0158C4.89032 32.0242 5.78862 31.7125 6.50874 31.1336C7.22885 30.5547 7.72637 29.7444 7.91677 28.8403C8.10718 27.9362 7.97873 26.9941 7.55324 26.174C7.12776 25.3538 6.43148 24.7063 5.58269 24.3413C5.51914 24.3134 5.4658 24.2665 5.42999 24.2071C5.39418 24.1476 5.37765 24.0785 5.38269 24.0093C5.38952 22.4278 6.01681 20.9121 7.12965 19.7883C8.24249 18.6645 9.75195 18.0223 11.3334 18H14.3334C14.4218 18 14.5065 18.0351 14.5691 18.0976C14.6316 18.1601 14.6667 18.2449 14.6667 18.3333V24.0173C14.6667 24.083 14.6473 24.1472 14.611 24.202C14.5748 24.2568 14.5232 24.2997 14.4627 24.3253C13.6089 24.6807 12.9047 25.321 12.4698 26.1372C12.035 26.9534 11.8963 27.8951 12.0776 28.802C12.2588 29.7088 12.7487 30.5249 13.4638 31.1113C14.179 31.6976 15.0752 32.0181 16 32.0181C16.9248 32.0181 17.8211 31.6976 18.5362 31.1113C19.2514 30.5249 19.7412 29.7088 19.9225 28.802C20.1037 27.8951 19.9651 26.9534 19.5302 26.1372C19.0954 25.321 18.3911 24.6807 17.5374 24.3253C17.4767 24.2996 17.4249 24.2565 17.3886 24.2015C17.3523 24.1464 17.3331 24.0819 17.3334 24.016V18.332C17.3334 18.2436 17.3685 18.1588 17.431 18.0963C17.4935 18.0338 17.5783 17.9986 17.6667 17.9986H20C21.6498 18.0034 23.2391 18.6206 24.4596 19.7307C25.68 20.8408 26.4447 22.3647 26.6054 24.0066C26.6123 24.0769 26.5969 24.1475 26.5612 24.2083C26.5255 24.2692 26.4714 24.3172 26.4067 24.3453C25.5593 24.7127 24.8652 25.3621 24.4421 26.1831C24.0191 27.0042 23.8932 27.9463 24.0859 28.8496C24.2786 29.7529 24.7779 30.5617 25.4992 31.1387C26.2204 31.7157 27.1191 32.0253 28.0426 32.0149C28.9662 32.0046 29.8577 31.675 30.5659 31.082C31.274 30.4891 31.7552 29.6693 31.9276 28.7619C32.1 27.8546 31.9531 26.9155 31.5118 26.1041C31.0706 25.2927 30.3621 24.659 29.5067 24.3106V24.3106Z" fill="#1F477D"/>
</g>
<defs>
<clipPath id="clip0">
<rect width="32" height="32" fill="white"/>
</clipPath>
</defs>
</svg>
