<svg width="32" height="32" viewBox="0 0 32 32" fill="none" xmlns="http://www.w3.org/2000/svg">
<g clip-path="url(#clip0)">
<path d="M6.66663 13.6653H15.3333C15.5985 13.6653 15.8529 13.56 16.0404 13.3725C16.2279 13.1849 16.3333 12.9306 16.3333 12.6653C16.3333 12.4001 16.2279 12.1458 16.0404 11.9582C15.8529 11.7707 15.5985 11.6653 15.3333 11.6653H6.66663C6.40141 11.6653 6.14706 11.7707 5.95952 11.9582C5.77198 12.1458 5.66663 12.4001 5.66663 12.6653C5.66663 12.9306 5.77198 13.1849 5.95952 13.3725C6.14706 13.56 6.40141 13.6653 6.66663 13.6653V13.6653Z" fill="#1F477D"/>
<path d="M6.66663 18.332H10.6666C10.9318 18.332 11.1862 18.2266 11.3737 18.0391C11.5613 17.8516 11.6666 17.5972 11.6666 17.332C11.6666 17.0668 11.5613 16.8124 11.3737 16.6249C11.1862 16.4374 10.9318 16.332 10.6666 16.332H6.66663C6.40141 16.332 6.14706 16.4374 5.95952 16.6249C5.77198 16.8124 5.66663 17.0668 5.66663 17.332C5.66663 17.5972 5.77198 17.8516 5.95952 18.0391C6.14706 18.2266 6.40141 18.332 6.66663 18.332Z" fill="#1F477D"/>
<path d="M6.66663 23H10.3333C10.5985 23 10.8529 22.8946 11.0404 22.7071C11.2279 22.5196 11.3333 22.2652 11.3333 22C11.3333 21.7348 11.2279 21.4804 11.0404 21.2929C10.8529 21.1054 10.5985 21 10.3333 21H6.66663C6.40141 21 6.14706 21.1054 5.95952 21.2929C5.77198 21.4804 5.66663 21.7348 5.66663 22C5.66663 22.2652 5.77198 22.5196 5.95952 22.7071C6.14706 22.8946 6.40141 23 6.66663 23Z" fill="#1F477D"/>
<path d="M6.99996 8.33199H18.3333C18.4215 8.33199 18.5061 8.29706 18.5685 8.23483C18.631 8.17261 18.6663 8.08817 18.6666 7.99999V3.99999C18.6663 3.91169 18.631 3.82711 18.5686 3.76468C18.5062 3.70224 18.4216 3.66701 18.3333 3.66666H16V3.33333C15.9983 2.81867 15.878 2.31134 15.6483 1.85078C15.4186 1.39023 15.0858 0.988886 14.6756 0.677972C14.2655 0.367058 13.7892 0.154961 13.2837 0.0581837C12.7782 -0.0385939 12.2573 -0.0174424 11.7613 0.119992C11.0489 0.334203 10.426 0.775471 9.98767 1.37654C9.54933 1.97761 9.31953 2.70552 9.33329 3.44933V3.66533H6.99996C6.91143 3.66568 6.82665 3.70109 6.76418 3.76382C6.7017 3.82654 6.66663 3.91146 6.66663 3.99999V7.99999C6.66698 8.08817 6.70225 8.17261 6.76473 8.23483C6.8272 8.29706 6.91178 8.33199 6.99996 8.33199ZM13.6666 2.99866C13.6669 3.1965 13.6085 3.38997 13.4987 3.55459C13.389 3.71922 13.2329 3.8476 13.0502 3.92349C12.8675 3.99938 12.6664 4.01937 12.4724 3.98094C12.2783 3.94251 12.1 3.84737 11.96 3.70757C11.82 3.56777 11.7246 3.38959 11.6859 3.19557C11.6472 3.00156 11.667 2.80042 11.7426 2.61762C11.8183 2.43481 11.9464 2.27856 12.1109 2.16862C12.2754 2.05868 12.4688 1.99999 12.6666 1.99999C12.9316 1.99999 13.1858 2.10517 13.3733 2.29241C13.5608 2.47966 13.6663 2.73367 13.6666 2.99866V2.99866Z" fill="#1F477D"/>
<path d="M12.0693 30.6667L12.256 29.7333C12.2658 29.6852 12.2648 29.6354 12.253 29.5877C12.2413 29.5399 12.2191 29.4954 12.188 29.4573C12.1567 29.4188 12.1173 29.3878 12.0726 29.3663C12.0278 29.3449 11.9789 29.3336 11.9293 29.3333H3.33333C3.15652 29.3333 2.98695 29.2631 2.86193 29.1381C2.7369 29.013 2.66667 28.8435 2.66667 28.6667V6.99866C2.66667 6.82185 2.7369 6.65228 2.86193 6.52725C2.98695 6.40223 3.15652 6.33199 3.33333 6.33199H4.33333C4.42151 6.33199 4.50609 6.29705 4.56857 6.23483C4.63104 6.17261 4.66631 6.08816 4.66667 5.99999V3.99999C4.66632 3.91169 4.63108 3.82711 4.56865 3.76468C4.50621 3.70224 4.42163 3.66701 4.33333 3.66666H2.66667C1.95942 3.66666 1.28115 3.94761 0.781049 4.4477C0.280952 4.9478 0 5.62608 0 6.33332L0 29.3333C0 30.0406 0.280952 30.7188 0.781049 31.2189C1.28115 31.719 1.95942 32 2.66667 32H11.7013C11.7483 32.0003 11.7947 31.9906 11.8376 31.9717C11.8806 31.9527 11.919 31.9248 11.9503 31.8899C11.9817 31.855 12.0053 31.8139 12.0196 31.7692C12.0339 31.7245 12.0386 31.6773 12.0333 31.6307C11.9951 31.3094 12.0073 30.9842 12.0693 30.6667V30.6667Z" fill="#1F477D"/>
<path d="M25.1786 12.996C25.226 12.9656 25.265 12.9238 25.2921 12.8744C25.3191 12.825 25.3333 12.7696 25.3333 12.7133V6.33201C25.3333 5.62477 25.0523 4.94649 24.5522 4.44639C24.0521 3.9463 23.3739 3.66534 22.6666 3.66534H21C20.9114 3.6657 20.8266 3.70111 20.7642 3.76384C20.7017 3.82656 20.6666 3.91148 20.6666 4.00001V6.00001C20.6666 6.08842 20.7017 6.1732 20.7643 6.23571C20.8268 6.29823 20.9116 6.33334 21 6.33334H22C22.1768 6.33334 22.3463 6.40358 22.4714 6.52861C22.5964 6.65363 22.6666 6.8232 22.6666 7.00001V14.4827C22.6665 14.5487 22.686 14.6133 22.7226 14.6682C22.7592 14.7231 22.8113 14.7659 22.8723 14.7912C22.9333 14.8165 23.0004 14.8231 23.0652 14.8102C23.1299 14.7973 23.1893 14.7654 23.236 14.7187L24.1533 13.8013C24.464 13.4955 24.8079 13.2254 25.1786 12.996V12.996Z" fill="#1F477D"/>
<path d="M16.9853 26.7253C16.9031 26.6434 16.801 26.5843 16.689 26.5539C16.5769 26.5235 16.4589 26.5229 16.3466 26.5521C16.2343 26.5813 16.1315 26.6394 16.0485 26.7205C15.9655 26.8016 15.9051 26.903 15.8733 27.0147L14.692 31.148C14.6594 31.2623 14.6579 31.3832 14.6877 31.4983C14.7176 31.6133 14.7776 31.7183 14.8616 31.8023C14.9457 31.8864 15.0507 31.9464 15.1657 31.9762C15.2808 32.0061 15.4017 32.0046 15.516 31.972L19.6493 30.7907C19.7612 30.759 19.8628 30.6986 19.9442 30.6155C20.0255 30.5324 20.0837 30.4294 20.1129 30.3169C20.1422 30.2044 20.1415 30.0861 20.1109 29.9739C20.0803 29.8617 20.0209 29.7595 19.9386 29.6773L16.9853 26.7253Z" fill="#1F477D"/>
<path d="M25.028 17.6373C24.903 17.5123 24.7334 17.4421 24.5567 17.4421C24.3799 17.4421 24.2103 17.5123 24.0853 17.6373L17.4053 24.316C17.3432 24.3779 17.294 24.4515 17.2604 24.5325C17.2268 24.6135 17.2095 24.7003 17.2095 24.788C17.2095 24.8757 17.2268 24.9625 17.2604 25.0435C17.294 25.1245 17.3432 25.1981 17.4053 25.26L21.4053 29.26C21.5304 29.385 21.6999 29.4552 21.8767 29.4552C22.0534 29.4552 22.223 29.385 22.348 29.26L29.028 22.58C29.153 22.455 29.2232 22.2854 29.2232 22.1087C29.2232 21.9319 29.153 21.7623 29.028 21.6373L25.028 17.6373Z" fill="#1F477D"/>
<path d="M25.9707 15.752C25.8457 15.877 25.7755 16.0466 25.7755 16.2233C25.7755 16.4001 25.8457 16.5697 25.9707 16.6947L29.9707 20.6947C30.0287 20.7499 30.0972 20.7931 30.172 20.8217C30.2468 20.8503 30.3266 20.8638 30.4067 20.8613C30.6185 20.8609 30.822 20.7787 30.9747 20.632C31.2993 20.3075 31.5568 19.9222 31.7324 19.4982C31.9081 19.0741 31.9985 18.6197 31.9985 18.1607C31.9985 17.7017 31.9081 17.2472 31.7324 16.8232C31.5568 16.3991 31.2993 16.0139 30.9747 15.6893C30.3028 15.0341 29.3982 14.6726 28.4597 14.6843C27.5213 14.6961 26.626 15.0801 25.9707 15.752V15.752Z" fill="#1F477D"/>
</g>
<defs>
<clipPath id="clip0">
<rect width="32" height="32" fill="white"/>
</clipPath>
</defs>
</svg>
