<svg width="32" height="32" viewBox="0 0 32 32" fill="none" xmlns="http://www.w3.org/2000/svg">
<g clip-path="url(#clip0)">
<path d="M24.32 12.5L25.5773 11.216C26.3638 10.3218 26.8269 9.1891 26.892 8V2.66667C26.892 1.95942 26.6111 1.28115 26.111 0.781049C25.6109 0.280952 24.9326 0 24.2253 0V0L18.5453 0.00666667C17.3529 0.0724429 16.2185 0.542753 15.3293 1.34L0.893339 15.7773C0.645601 16.025 0.449079 16.319 0.314999 16.6426C0.180919 16.9662 0.111908 17.3131 0.111908 17.6633C0.111908 18.0136 0.180919 18.3605 0.314999 18.6841C0.449079 19.0077 0.645601 19.3017 0.893339 19.5493L7.34001 26C7.58604 26.2466 7.87851 26.4421 8.2005 26.575C8.52249 26.708 8.86764 26.7758 9.21601 26.7747H9.23201C9.58268 26.7734 9.92957 26.702 10.2522 26.5646C10.5749 26.4272 10.8667 26.2266 11.1107 25.9747L12.4067 24.6533C12.4708 24.5864 12.5199 24.5066 12.551 24.4193C12.582 24.332 12.5942 24.239 12.5867 24.1467C12.4713 22.632 12.6808 21.1102 13.2012 19.6831C13.7215 18.2559 14.5406 16.9564 15.6038 15.8714C16.6669 14.7864 17.9496 13.941 19.3658 13.3918C20.7821 12.8426 22.2993 12.6022 23.816 12.6867C23.9084 12.693 24.0012 12.6796 24.088 12.6474C24.1749 12.6153 24.254 12.565 24.32 12.5V12.5ZM16.892 7.33333C16.892 6.80592 17.0484 6.29034 17.3414 5.85181C17.6344 5.41328 18.0509 5.07149 18.5382 4.86965C19.0255 4.66782 19.5616 4.61501 20.0789 4.71791C20.5962 4.8208 21.0714 5.07478 21.4443 5.44772C21.8172 5.82066 22.0712 6.29581 22.1741 6.81309C22.277 7.33038 22.2242 7.86655 22.0224 8.35382C21.8205 8.84109 21.4787 9.25757 21.0402 9.55059C20.6017 9.8436 20.0861 10 19.5587 10C18.8514 10 18.1732 9.71905 17.6731 9.21895C17.173 8.71885 16.892 8.04058 16.892 7.33333Z" fill="#1F477D"/>
<path d="M23.2213 14.6667C21.5072 14.6667 19.8316 15.1749 18.4064 16.1273C16.9812 17.0796 15.8703 18.4331 15.2144 20.0167C14.5584 21.6004 14.3868 23.3429 14.7212 25.0241C15.0556 26.7053 15.881 28.2495 17.0931 29.4616C18.3051 30.6736 19.8494 31.4991 21.5305 31.8335C23.2117 32.1679 24.9543 31.9962 26.5379 31.3403C28.1215 30.6843 29.4751 29.5735 30.4274 28.1483C31.3797 26.723 31.888 25.0474 31.888 23.3333C31.8852 21.0356 30.9712 18.8329 29.3465 17.2082C27.7218 15.5835 25.519 14.6695 23.2213 14.6667V14.6667ZM26.756 25.4547C26.8515 25.5469 26.9276 25.6573 26.9799 25.7794C27.0323 25.9014 27.0598 26.0326 27.0609 26.1654C27.062 26.2982 27.0366 26.4298 26.9863 26.5527C26.936 26.6756 26.8616 26.7872 26.7677 26.8811C26.6738 26.9749 26.5621 27.0491 26.4392 27.0993C26.3163 27.1495 26.1846 27.1748 26.0518 27.1736C25.919 27.1724 25.7878 27.1447 25.6658 27.0922C25.5438 27.0398 25.4335 26.9635 25.3413 26.868L23.456 24.9827C23.3935 24.9204 23.3089 24.8854 23.2207 24.8854C23.1324 24.8854 23.0478 24.9204 22.9853 24.9827L21.1 26.8667C20.9115 27.0489 20.6589 27.1498 20.3967 27.1477C20.1345 27.1455 19.8837 27.0405 19.6982 26.8551C19.5127 26.6698 19.4074 26.4191 19.405 26.1569C19.4026 25.8947 19.5033 25.642 19.6853 25.4533L21.5707 23.568C21.6017 23.537 21.6263 23.5002 21.6431 23.4597C21.6599 23.4192 21.6686 23.3758 21.6686 23.332C21.6686 23.2881 21.6599 23.2447 21.6431 23.2042C21.6263 23.1637 21.6017 23.127 21.5707 23.096L19.6853 21.2107C19.5033 21.022 19.4026 20.7693 19.405 20.5071C19.4074 20.2449 19.5127 19.9942 19.6982 19.8088C19.8837 19.6235 20.1345 19.5185 20.3967 19.5163C20.6589 19.5142 20.9115 19.6151 21.1 19.7973L22.9853 21.6827C23.0478 21.7449 23.1324 21.7799 23.2207 21.7799C23.3089 21.7799 23.3935 21.7449 23.456 21.6827L25.3413 19.7973C25.5298 19.6151 25.7824 19.5142 26.0446 19.5163C26.3068 19.5185 26.5577 19.6235 26.7432 19.8088C26.9287 19.9942 27.0339 20.2449 27.0363 20.5071C27.0387 20.7693 26.9381 21.022 26.756 21.2107L24.8707 23.096C24.8396 23.127 24.815 23.1637 24.7982 23.2042C24.7814 23.2447 24.7727 23.2881 24.7727 23.332C24.7727 23.3758 24.7814 23.4192 24.7982 23.4597C24.815 23.5002 24.8396 23.537 24.8707 23.568L26.756 25.4547Z" fill="#1F477D"/>
</g>
<defs>
<clipPath id="clip0">
<rect width="32" height="32" fill="white"/>
</clipPath>
</defs>
</svg>
