<svg viewBox="0 0 32 32" xmlns="http://www.w3.org/2000/svg">
  <g fill-rule="evenodd">
    <path d="M25.333 13.333c0-.736-.597-1.333-1.333-1.333h-3.667a.333.333 0 01-.333-.333V8c0-.736-.597-1.333-1.333-1.333h-5.334C12.597 6.667 12 7.264 12 8v3.667c0 .184-.15.333-.333.333H8c-.736 0-1.333.597-1.333 1.333v5.334C6.667 19.403 7.264 20 8 20h3.667c.184 0 .333.15.333.333V24c0 .736.597 1.333 1.333 1.333h5.334c.736 0 1.333-.597 1.333-1.333v-3.667c0-.184.15-.333.333-.333H24c.736 0 1.333-.597 1.333-1.333v-5.334z"/>
    <rect y="13" width="4.667" height="6" rx="1.333"/>
    <rect x="27.333" y="13" width="4.667" height="6" rx="1.333"/>
    <rect x="13" width="6" height="4.667" rx="1.333"/>
    <rect x="13" y="27.333" width="6" height="4.667" rx="1.333"/>
  </g>
</svg>
