<svg width="32" height="32" viewBox="0 0 32 32" fill="none" xmlns="http://www.w3.org/2000/svg">
<path d="M3.91867 32H28.0813C29.1203 31.9989 30.1164 31.5857 30.8511 30.8511C31.5857 30.1164 31.9989 29.1203 32 28.0813V3.91867C31.9989 2.8797 31.5857 1.88358 30.8511 1.14892C30.1164 0.414257 29.1203 0.00105891 28.0813 0L3.91867 0C2.8797 0.00105891 1.88358 0.414257 1.14892 1.14892C0.414257 1.88358 0.00105891 2.8797 0 3.91867V28.0813C0.00105891 29.1203 0.414257 30.1164 1.14892 30.8511C1.88358 31.5857 2.8797 31.9989 3.91867 32V32ZM28.0813 29.388H3.91867C3.57212 29.388 3.23976 29.2503 2.99471 29.0053C2.74967 28.7602 2.612 28.4279 2.612 28.0813V4C2.612 3.64638 2.75248 3.30724 3.00252 3.05719C3.25257 2.80714 3.59171 2.66667 3.94533 2.66667H28.0547C28.4083 2.66667 28.7474 2.80714 28.9975 3.05719C29.2475 3.30724 29.388 3.64638 29.388 4V28.0813C29.388 28.4279 29.2503 28.7602 29.0053 29.0053C28.7602 29.2503 28.4279 29.388 28.0813 29.388Z" fill="#1F477D"/>
<path d="M25.1147 20.7893L22.3627 23.232C22.3052 23.2824 22.2323 23.3117 22.1559 23.3151C22.0796 23.3185 22.0044 23.2958 21.9427 23.2507L20.1213 21.9013C19.6789 21.5914 19.148 21.4328 18.608 21.4493C18.0589 21.4613 17.5313 21.6646 17.116 22.024L13.76 25.0027C13.4948 25.2375 13.3337 25.568 13.3122 25.9216C13.2907 26.2752 13.4105 26.6228 13.6453 26.888C13.8801 27.1532 14.2107 27.3143 14.5643 27.3358C14.9178 27.3573 15.2654 27.2375 15.5307 27.0027L18.508 24.36C18.5651 24.3095 18.6378 24.28 18.714 24.2766C18.7902 24.2732 18.8653 24.2961 18.9267 24.3413L20.748 25.6907C21.1902 26.0014 21.7211 26.1604 22.2613 26.144C22.8105 26.1315 23.3382 25.9278 23.7533 25.568L26.8853 22.7893C27.0167 22.6731 27.1238 22.5321 27.2006 22.3744C27.2775 22.2167 27.3225 22.0455 27.3331 21.8704C27.3438 21.6953 27.3198 21.5199 27.2627 21.3541C27.2055 21.1883 27.1163 21.0353 27 20.904C26.8837 20.7727 26.7427 20.6655 26.5851 20.5887C26.4274 20.5119 26.2562 20.4668 26.0811 20.4562C25.906 20.4456 25.7306 20.4695 25.5647 20.5266C25.3989 20.5838 25.246 20.6731 25.1147 20.7893V20.7893Z" fill="#1F477D"/>
<path d="M19.108 13.4973C19.0843 13.4639 19.0534 13.4362 19.0177 13.4161C18.9819 13.3961 18.9422 13.3842 18.9013 13.3813L13.48 12.9626C13.436 12.959 13.3918 12.9657 13.3509 12.9824C13.31 12.9991 13.2736 13.0252 13.2448 13.0586C13.2159 13.092 13.1954 13.1318 13.1848 13.1747C13.1742 13.2176 13.174 13.2623 13.184 13.3053L14.3627 18.6133C14.3718 18.6531 14.3894 18.6905 14.4142 18.723C14.4391 18.7554 14.4706 18.7821 14.5067 18.8013C14.5428 18.8203 14.5826 18.8312 14.6233 18.8333C14.6641 18.8354 14.7048 18.8285 14.7427 18.8133C15.8295 18.3793 16.7968 17.6918 17.564 16.8082C18.3313 15.9245 18.8762 14.8703 19.1533 13.7333C19.164 13.6931 19.1654 13.651 19.1576 13.6101C19.1497 13.5693 19.1328 13.5307 19.108 13.4973Z" fill="#1F477D"/>
<path d="M9.612 5.07869C9.57361 5.0923 9.53862 5.11404 9.50942 5.14243C9.48021 5.17082 9.45749 5.20519 9.4428 5.24317C9.42811 5.28116 9.42181 5.32187 9.42432 5.36252C9.42682 5.40317 9.43809 5.4428 9.45733 5.47869L12.4787 11.0667C12.501 11.1079 12.5333 11.1428 12.5727 11.1682C12.6121 11.1936 12.6572 11.2087 12.704 11.212L19.0293 11.7014C19.0701 11.7046 19.1112 11.6989 19.1496 11.6847C19.1879 11.6705 19.2228 11.6481 19.2516 11.619C19.2804 11.5899 19.3025 11.5549 19.3164 11.5164C19.3303 11.4779 19.3356 11.4368 19.332 11.396C19.2383 10.2816 18.8909 9.20338 18.3165 8.24382C17.7421 7.28427 16.9558 6.46881 16.0178 5.85981C15.0798 5.25082 14.0149 4.86443 12.9046 4.7302C11.7944 4.59597 10.6681 4.71745 9.612 5.08536V5.07869Z" fill="#1F477D"/>
<path d="M7.78133 6.14403C7.74142 6.13535 7.70009 6.13551 7.66024 6.14449C7.62039 6.15347 7.583 6.17106 7.55067 6.19603C6.33993 7.13107 5.45191 8.42132 5.01095 9.88615C4.56998 11.351 4.59815 12.917 5.0915 14.3651C5.58486 15.8131 6.5187 17.0706 7.76227 17.9615C9.00585 18.8524 10.4969 19.332 12.0267 19.3334C12.1693 19.3334 12.3107 19.3334 12.452 19.3214C12.4928 19.3192 12.5326 19.308 12.5685 19.2886C12.6045 19.2693 12.6357 19.2422 12.66 19.2094C12.6844 19.1768 12.7016 19.1393 12.7103 19.0995C12.7191 19.0597 12.7192 19.0185 12.7107 18.9787L11.2347 12.3374C11.229 12.3119 11.22 12.2872 11.208 12.264L7.97067 6.28537C7.95124 6.24949 7.92425 6.21827 7.89156 6.19386C7.85886 6.16946 7.82125 6.15245 7.78133 6.14403V6.14403Z" fill="#1F477D"/>
<path d="M24.6667 8.66667C25.403 8.66667 26 8.06971 26 7.33333C26 6.59695 25.403 6 24.6667 6C23.9303 6 23.3333 6.59695 23.3333 7.33333C23.3333 8.06971 23.9303 8.66667 24.6667 8.66667Z" fill="#1F477D"/>
<path d="M24.6667 12.6667C25.403 12.6667 26 12.0697 26 11.3333C26 10.597 25.403 10 24.6667 10C23.9303 10 23.3333 10.597 23.3333 11.3333C23.3333 12.0697 23.9303 12.6667 24.6667 12.6667Z" fill="#1F477D"/>
<path d="M24.6667 16.6667C25.403 16.6667 26 16.0697 26 15.3333C26 14.597 25.403 14 24.6667 14C23.9303 14 23.3333 14.597 23.3333 15.3333C23.3333 16.0697 23.9303 16.6667 24.6667 16.6667Z" fill="#1F477D"/>
</svg>
