<svg width="32" height="32" viewBox="0 0 32 32" fill="none" xmlns="http://www.w3.org/2000/svg">
<g clip-path="url(#clip0)">
<path d="M19.3333 8.66667C21.5425 8.66667 23.3333 6.87581 23.3333 4.66667C23.3333 2.45753 21.5425 0.666672 19.3333 0.666672C17.1242 0.666672 15.3333 2.45753 15.3333 4.66667C15.3333 6.87581 17.1242 8.66667 19.3333 8.66667Z" fill="#1F477D"/>
<path d="M15.9107 15.0147C15.9312 15.0627 15.9628 15.1053 16.0028 15.1389C16.0428 15.1725 16.0901 15.1962 16.141 15.2081C16.1919 15.2201 16.2448 15.2199 16.2956 15.2076C16.3464 15.1953 16.3936 15.1712 16.4333 15.1373C18.3546 13.4895 20.8022 12.5838 23.3333 12.584C23.4222 12.584 23.5111 12.584 23.6 12.584C23.6657 12.5875 23.731 12.5715 23.7877 12.538C23.8443 12.5045 23.8898 12.4549 23.9183 12.3956C23.9468 12.3363 23.9571 12.2698 23.9479 12.2047C23.9387 12.1395 23.9105 12.0785 23.8667 12.0293C23.2744 11.363 22.5427 10.8353 21.7234 10.4837C20.9041 10.1322 20.0175 9.96543 19.1265 9.99535C18.2355 10.0253 17.362 10.2511 16.5681 10.6568C15.7743 11.0625 15.0796 11.6381 14.5333 12.3427C14.4874 12.4024 14.4631 12.4759 14.4643 12.5512C14.4655 12.6265 14.4922 12.6991 14.54 12.7573C15.1014 13.4412 15.5628 14.2012 15.9107 15.0147Z" fill="#1F477D"/>
<path d="M12.348 24C12.3934 23.9999 12.4383 23.9905 12.4799 23.9725C12.5216 23.9544 12.5591 23.928 12.5902 23.8949C12.6213 23.8618 12.6453 23.8227 12.6607 23.7801C12.6762 23.7374 12.6827 23.692 12.68 23.6467C12.68 23.5133 12.6667 23.38 12.6667 23.2467C12.6645 21.1501 13.2845 19.1 14.448 17.356C14.4727 17.3187 14.4897 17.2768 14.4979 17.2329C14.5062 17.1889 14.5055 17.1437 14.496 17.1C14.1083 15.3346 13.0824 13.7746 11.615 12.7193C10.1477 11.664 8.34232 11.1878 6.54536 11.382C4.74841 11.5762 3.08647 12.4272 1.87847 13.7716C0.67048 15.1161 0.00153097 16.8592 0 18.6667L0 23.3333C0 23.5101 0.0702379 23.6797 0.195262 23.8047C0.320286 23.9298 0.489856 24 0.666667 24H3.08C3.16353 24 3.244 24.0314 3.30549 24.088C3.36697 24.1445 3.40498 24.2221 3.412 24.3053L4 31.3893C4.01407 31.5563 4.09047 31.7118 4.21401 31.8249C4.33754 31.9381 4.49914 32.0006 4.66667 32H10C10.1675 32.0006 10.3291 31.9381 10.4527 31.8249C10.5762 31.7118 10.6526 31.5563 10.6667 31.3893L11.2573 24.3053C11.2643 24.2225 11.3019 24.1454 11.3629 24.0889C11.4238 24.0324 11.5036 24.0007 11.5867 24H12.348Z" fill="#1F477D"/>
<path d="M7.33332 9.33333C9.91065 9.33333 12 7.244 12 4.66667C12 2.08934 9.91065 0 7.33332 0C4.75599 0 2.66666 2.08934 2.66666 4.66667C2.66666 7.244 4.75599 9.33333 7.33332 9.33333Z" fill="#1F477D"/>
<path d="M23.3333 14.6667C21.6192 14.6667 19.9436 15.175 18.5184 16.1273C17.0932 17.0796 15.9823 18.4331 15.3264 20.0167C14.6704 21.6004 14.4988 23.343 14.8332 25.0241C15.1676 26.7053 15.993 28.2495 17.2051 29.4616C18.4171 30.6737 19.9614 31.4991 21.6425 31.8335C23.3237 32.1679 25.0663 31.9963 26.6499 31.3403C28.2335 30.6843 29.5871 29.5735 30.5394 28.1483C31.4917 26.7231 32 25.0474 32 23.3333C31.9972 21.0357 31.0832 18.8329 29.4585 17.2082C27.8338 15.5835 25.631 14.6695 23.3333 14.6667ZM27.576 27.576C27.326 27.826 26.9869 27.9664 26.6333 27.9664C26.2798 27.9664 25.9407 27.826 25.6907 27.576L23.5693 25.4547C23.5066 25.3923 23.4218 25.3573 23.3333 25.3573C23.2449 25.3573 23.16 25.3923 23.0973 25.4547L20.976 27.576C20.853 27.7034 20.7059 27.8049 20.5432 27.8748C20.3805 27.9447 20.2056 27.9815 20.0285 27.983C19.8515 27.9845 19.6759 27.9508 19.5121 27.8838C19.3482 27.8167 19.1993 27.7177 19.0741 27.5925C18.9489 27.4673 18.8499 27.3185 18.7829 27.1546C18.7159 26.9907 18.6821 26.8152 18.6837 26.6381C18.6852 26.4611 18.722 26.2861 18.7919 26.1235C18.8617 25.9608 18.9633 25.8137 19.0907 25.6907L21.212 23.5693C21.243 23.5384 21.2677 23.5016 21.2845 23.4611C21.3013 23.4206 21.3099 23.3772 21.3099 23.3333C21.3099 23.2895 21.3013 23.2461 21.2845 23.2056C21.2677 23.1651 21.243 23.1283 21.212 23.0973L19.0907 20.976C18.9633 20.853 18.8617 20.7059 18.7919 20.5432C18.722 20.3805 18.6852 20.2056 18.6837 20.0285C18.6821 19.8515 18.7159 19.6759 18.7829 19.5121C18.8499 19.3482 18.9489 19.1993 19.0741 19.0741C19.1993 18.949 19.3482 18.85 19.5121 18.7829C19.6759 18.7159 19.8515 18.6821 20.0285 18.6837C20.2056 18.6852 20.3805 18.722 20.5432 18.7919C20.7059 18.8617 20.853 18.9633 20.976 19.0907L23.0973 21.212C23.16 21.2744 23.2449 21.3094 23.3333 21.3094C23.4218 21.3094 23.5066 21.2744 23.5693 21.212L25.6907 19.0907C25.8137 18.9633 25.9608 18.8617 26.1235 18.7919C26.2861 18.722 26.4611 18.6852 26.6381 18.6837C26.8152 18.6821 26.9907 18.7159 27.1546 18.7829C27.3185 18.85 27.4673 18.949 27.5925 19.0741C27.7177 19.1993 27.8167 19.3482 27.8838 19.5121C27.9508 19.6759 27.9845 19.8515 27.983 20.0285C27.9815 20.2056 27.9447 20.3805 27.8748 20.5432C27.8049 20.7059 27.7033 20.853 27.576 20.976L25.4547 23.0973C25.4236 23.1283 25.399 23.1651 25.3822 23.2056C25.3654 23.2461 25.3567 23.2895 25.3567 23.3333C25.3567 23.3772 25.3654 23.4206 25.3822 23.4611C25.399 23.5016 25.4236 23.5384 25.4547 23.5693L27.576 25.6907C27.826 25.9407 27.9664 26.2798 27.9664 26.6333C27.9664 26.9869 27.826 27.326 27.576 27.576Z" fill="#1F477D"/>
<path d="M19.3333 8.66667C21.5425 8.66667 23.3333 6.87581 23.3333 4.66667C23.3333 2.45753 21.5425 0.666672 19.3333 0.666672C17.1242 0.666672 15.3333 2.45753 15.3333 4.66667C15.3333 6.87581 17.1242 8.66667 19.3333 8.66667Z" fill="#1F477D"/>
<path d="M15.9107 15.0147C15.9312 15.0627 15.9628 15.1053 16.0028 15.1389C16.0428 15.1725 16.0901 15.1962 16.141 15.2081C16.1919 15.2201 16.2448 15.2199 16.2956 15.2076C16.3464 15.1953 16.3936 15.1712 16.4333 15.1373C18.3546 13.4895 20.8022 12.5838 23.3333 12.584C23.4222 12.584 23.5111 12.584 23.6 12.584C23.6657 12.5875 23.731 12.5715 23.7877 12.538C23.8443 12.5045 23.8898 12.4549 23.9183 12.3956C23.9468 12.3363 23.9571 12.2698 23.9479 12.2047C23.9387 12.1395 23.9105 12.0785 23.8667 12.0293C23.2744 11.363 22.5427 10.8353 21.7234 10.4837C20.9041 10.1322 20.0175 9.96543 19.1265 9.99535C18.2355 10.0253 17.362 10.2511 16.5681 10.6568C15.7743 11.0625 15.0796 11.6381 14.5333 12.3427C14.4874 12.4024 14.4631 12.4759 14.4643 12.5512C14.4655 12.6265 14.4922 12.6991 14.54 12.7573C15.1014 13.4412 15.5628 14.2012 15.9107 15.0147Z" fill="#1F477D"/>
<path d="M12.348 24C12.3934 23.9999 12.4383 23.9905 12.4799 23.9725C12.5216 23.9544 12.5591 23.928 12.5902 23.8949C12.6213 23.8618 12.6453 23.8227 12.6607 23.7801C12.6762 23.7374 12.6827 23.692 12.68 23.6467C12.68 23.5133 12.6667 23.38 12.6667 23.2467C12.6645 21.1501 13.2845 19.1 14.448 17.356C14.4727 17.3187 14.4897 17.2768 14.4979 17.2329C14.5062 17.1889 14.5055 17.1437 14.496 17.1C14.1083 15.3346 13.0824 13.7746 11.615 12.7193C10.1477 11.664 8.34232 11.1878 6.54536 11.382C4.74841 11.5762 3.08647 12.4272 1.87847 13.7716C0.67048 15.1161 0.00153097 16.8592 0 18.6667L0 23.3333C0 23.5101 0.0702379 23.6797 0.195262 23.8047C0.320286 23.9298 0.489856 24 0.666667 24H3.08C3.16353 24 3.244 24.0314 3.30549 24.088C3.36697 24.1445 3.40498 24.2221 3.412 24.3053L4 31.3893C4.01407 31.5563 4.09047 31.7118 4.21401 31.8249C4.33754 31.9381 4.49914 32.0006 4.66667 32H10C10.1675 32.0006 10.3291 31.9381 10.4527 31.8249C10.5762 31.7118 10.6526 31.5563 10.6667 31.3893L11.2573 24.3053C11.2643 24.2225 11.3019 24.1454 11.3629 24.0889C11.4238 24.0324 11.5036 24.0007 11.5867 24H12.348Z" fill="#1F477D"/>
<path d="M7.33332 9.33333C9.91065 9.33333 12 7.244 12 4.66667C12 2.08934 9.91065 0 7.33332 0C4.75599 0 2.66666 2.08934 2.66666 4.66667C2.66666 7.244 4.75599 9.33333 7.33332 9.33333Z" fill="#1F477D"/>
<path d="M23.3333 14.6667C21.6192 14.6667 19.9436 15.175 18.5184 16.1273C17.0932 17.0796 15.9823 18.4331 15.3264 20.0167C14.6704 21.6004 14.4988 23.343 14.8332 25.0241C15.1676 26.7053 15.993 28.2495 17.2051 29.4616C18.4171 30.6737 19.9614 31.4991 21.6425 31.8335C23.3237 32.1679 25.0663 31.9963 26.6499 31.3403C28.2335 30.6843 29.5871 29.5735 30.5394 28.1483C31.4917 26.7231 32 25.0474 32 23.3333C31.9972 21.0357 31.0832 18.8329 29.4585 17.2082C27.8338 15.5835 25.631 14.6695 23.3333 14.6667ZM27.576 27.576C27.326 27.826 26.9869 27.9664 26.6333 27.9664C26.2798 27.9664 25.9407 27.826 25.6907 27.576L23.5693 25.4547C23.5066 25.3923 23.4218 25.3573 23.3333 25.3573C23.2449 25.3573 23.16 25.3923 23.0973 25.4547L20.976 27.576C20.853 27.7034 20.7059 27.8049 20.5432 27.8748C20.3805 27.9447 20.2056 27.9815 20.0285 27.983C19.8515 27.9845 19.6759 27.9508 19.5121 27.8838C19.3482 27.8167 19.1993 27.7177 19.0741 27.5925C18.9489 27.4673 18.8499 27.3185 18.7829 27.1546C18.7159 26.9907 18.6821 26.8152 18.6837 26.6381C18.6852 26.4611 18.722 26.2861 18.7919 26.1235C18.8617 25.9608 18.9633 25.8137 19.0907 25.6907L21.212 23.5693C21.243 23.5384 21.2677 23.5016 21.2845 23.4611C21.3013 23.4206 21.3099 23.3772 21.3099 23.3333C21.3099 23.2895 21.3013 23.2461 21.2845 23.2056C21.2677 23.1651 21.243 23.1283 21.212 23.0973L19.0907 20.976C18.9633 20.853 18.8617 20.7059 18.7919 20.5432C18.722 20.3805 18.6852 20.2056 18.6837 20.0285C18.6821 19.8515 18.7159 19.6759 18.7829 19.5121C18.8499 19.3482 18.9489 19.1993 19.0741 19.0741C19.1993 18.949 19.3482 18.85 19.5121 18.7829C19.6759 18.7159 19.8515 18.6821 20.0285 18.6837C20.2056 18.6852 20.3805 18.722 20.5432 18.7919C20.7059 18.8617 20.853 18.9633 20.976 19.0907L23.0973 21.212C23.16 21.2744 23.2449 21.3094 23.3333 21.3094C23.4218 21.3094 23.5066 21.2744 23.5693 21.212L25.6907 19.0907C25.8137 18.9633 25.9608 18.8617 26.1235 18.7919C26.2861 18.722 26.4611 18.6852 26.6381 18.6837C26.8152 18.6821 26.9907 18.7159 27.1546 18.7829C27.3185 18.85 27.4673 18.949 27.5925 19.0741C27.7177 19.1993 27.8167 19.3482 27.8838 19.5121C27.9508 19.6759 27.9845 19.8515 27.983 20.0285C27.9815 20.2056 27.9447 20.3805 27.8748 20.5432C27.8049 20.7059 27.7033 20.853 27.576 20.976L25.4547 23.0973C25.4236 23.1283 25.399 23.1651 25.3822 23.2056C25.3654 23.2461 25.3567 23.2895 25.3567 23.3333C25.3567 23.3772 25.3654 23.4206 25.3822 23.4611C25.399 23.5016 25.4236 23.5384 25.4547 23.5693L27.576 25.6907C27.826 25.9407 27.9664 26.2798 27.9664 26.6333C27.9664 26.9869 27.826 27.326 27.576 27.576Z" fill="#1F477D"/>
</g>
<defs>
<clipPath id="clip0">
<rect width="32" height="32" fill="white"/>
</clipPath>
</defs>
</svg>
