<svg width="32" height="32" viewBox="0 0 32 32" fill="none" xmlns="http://www.w3.org/2000/svg">
<g clip-path="url(#clip0)">
<path d="M32 3.33334C32.0002 3.02681 31.94 2.72325 31.8228 2.44C31.7056 2.15675 31.5337 1.89937 31.3171 1.68256C31.1004 1.46575 30.8431 1.29376 30.5599 1.17641C30.2767 1.05907 29.9732 0.998669 29.6667 0.998669H16C15.6464 0.998669 15.3072 1.13914 15.0572 1.38919C14.8071 1.63924 14.6667 1.97838 14.6667 2.332V13.6653C14.6667 13.8053 14.6226 13.9416 14.5408 14.0551C14.459 14.1687 14.3436 14.2535 14.2108 14.2978C14.0781 14.342 13.9348 14.3434 13.8012 14.3017C13.6677 14.26 13.5506 14.1773 13.4667 14.0653L10.9333 10.6867C10.9023 10.6453 10.862 10.6117 10.8157 10.5885C10.7695 10.5654 10.7184 10.5533 10.6667 10.5533C10.6149 10.5533 10.5639 10.5654 10.5176 10.5885C10.4713 10.6117 10.431 10.6453 10.4 10.6867L7.86667 14.0627C7.78271 14.1746 7.66567 14.2573 7.53211 14.299C7.39855 14.3407 7.25526 14.3394 7.12251 14.2951C6.98977 14.2509 6.87432 14.166 6.7925 14.0525C6.71069 13.939 6.66667 13.8026 6.66667 13.6627V2.32934C6.66667 1.97571 6.52619 1.63658 6.27614 1.38653C6.02609 1.13648 5.68695 0.996002 5.33333 0.996002H2.33333C2.02658 0.996002 1.72283 1.05649 1.43948 1.174C1.15613 1.29151 0.898724 1.46374 0.682001 1.68083C0.465279 1.89793 0.29349 2.15562 0.176465 2.43918C0.0594392 2.72273 -0.000526251 3.02658 -3.85814e-07 3.33334V28.6667C0.000352872 29.2854 0.246299 29.8787 0.683807 30.3162C1.12132 30.7537 1.7146 30.9997 2.33333 31H29.6667C30.2854 30.9997 30.8787 30.7537 31.3162 30.3162C31.7537 29.8787 31.9996 29.2854 32 28.6667V3.33334ZM5.66667 23.6653C5.66702 23.4004 5.77253 23.1463 5.96003 22.9591C6.14753 22.7718 6.40168 22.6667 6.66667 22.6667H22C22.2652 22.6667 22.5196 22.772 22.7071 22.9596C22.8946 23.1471 23 23.4015 23 23.6667C23 23.9319 22.8946 24.1862 22.7071 24.3738C22.5196 24.5613 22.2652 24.6667 22 24.6667H6.66667C6.53523 24.6667 6.40509 24.6408 6.28367 24.5904C6.16226 24.5401 6.05196 24.4663 5.95909 24.3733C5.86621 24.2803 5.79258 24.1699 5.7424 24.0484C5.69223 23.927 5.66649 23.7968 5.66667 23.6653V23.6653ZM26 8.66667H19.3333C19.0681 8.66667 18.8138 8.56131 18.6262 8.37378C18.4387 8.18624 18.3333 7.93189 18.3333 7.66667C18.3333 7.40145 18.4387 7.1471 18.6262 6.95956C18.8138 6.77203 19.0681 6.66667 19.3333 6.66667H26C26.2652 6.66667 26.5196 6.77203 26.7071 6.95956C26.8946 7.1471 27 7.40145 27 7.66667C27 7.93189 26.8946 8.18624 26.7071 8.37378C26.5196 8.56131 26.2652 8.66667 26 8.66667ZM27 13C27 13.2652 26.8946 13.5196 26.7071 13.7071C26.5196 13.8946 26.2652 14 26 14H19.3333C19.0681 14 18.8138 13.8946 18.6262 13.7071C18.4387 13.5196 18.3333 13.2652 18.3333 13C18.3333 12.7348 18.4387 12.4804 18.6262 12.2929C18.8138 12.1054 19.0681 12 19.3333 12H26C26.265 12 26.5191 12.1052 26.7066 12.2924C26.8941 12.4797 26.9996 12.7337 27 12.9987V13ZM26 17.3333C26.2652 17.3333 26.5196 17.4387 26.7071 17.6262C26.8946 17.8138 27 18.0681 27 18.3333C27 18.5986 26.8946 18.8529 26.7071 19.0404C26.5196 19.228 26.2652 19.3333 26 19.3333H6.66667C6.40145 19.3333 6.1471 19.228 5.95956 19.0404C5.77202 18.8529 5.66667 18.5986 5.66667 18.3333C5.66667 18.0681 5.77202 17.8138 5.95956 17.6262C6.1471 17.4387 6.40145 17.3333 6.66667 17.3333H26Z" fill="#1F477D"/>
</g>
<defs>
<clipPath id="clip0">
<rect width="32" height="32" fill="white"/>
</clipPath>
</defs>
</svg>
