<svg viewBox="0 0 32 32" fill="none" xmlns="http://www.w3.org/2000/svg">
<g clip-path="url(#clip0)">
<path d="M2.55993 27.3987C2.60633 27.4573 2.63157 27.5299 2.63157 27.6047C2.63157 27.6795 2.60633 27.7521 2.55993 27.8107L0.954601 29.84C0.839601 29.9766 0.753202 30.1349 0.70053 30.3055C0.647858 30.4761 0.629986 30.6555 0.647973 30.8332C0.665961 31.0108 0.719442 31.183 0.805244 31.3396C0.891046 31.4962 1.00742 31.6339 1.14747 31.7447C1.28751 31.8554 1.44837 31.9369 1.62051 31.9843C1.79264 32.0317 1.97255 32.0441 2.14955 32.0206C2.32654 31.9972 2.49703 31.9384 2.6509 31.8479C2.80477 31.7573 2.93887 31.6367 3.04527 31.4934L4.44793 29.7214C4.50157 29.6537 4.57935 29.6096 4.66489 29.5981C4.75043 29.5867 4.83708 29.6089 4.9066 29.66C7.00944 31.214 9.56386 32.0355 12.1783 31.9987C14.7928 31.9618 17.3231 31.0687 19.3813 29.456C19.4478 29.4033 19.532 29.3781 19.6166 29.3855C19.7011 29.3929 19.7796 29.4325 19.8359 29.496C20.3573 30.0814 21.6693 31.5534 21.6706 31.5534C21.9083 31.8133 22.2383 31.9701 22.59 31.9903C22.9417 32.0105 23.2874 31.8924 23.5533 31.6614C23.8171 31.4263 23.9767 31.0961 23.9972 30.7433C24.0177 30.3906 23.8974 30.0441 23.6626 29.78L21.6626 27.5334C21.6121 27.4762 21.5826 27.4035 21.5792 27.3273C21.5758 27.2511 21.5987 27.1761 21.6439 27.1147C23.0759 25.1882 23.8939 22.8748 23.9915 20.4764C24.089 18.0779 23.4614 15.7058 22.1906 13.6694C22.163 13.6258 22.1258 13.5891 22.0819 13.5619C22.038 13.5348 21.9885 13.5179 21.9372 13.5127C21.8859 13.5074 21.834 13.5139 21.7855 13.5315C21.737 13.5492 21.6932 13.5776 21.6573 13.6147L19.4666 15.812C19.4178 15.861 19.386 15.9244 19.3759 15.9928C19.3658 16.0612 19.378 16.131 19.4106 16.192C20.3523 18.0108 20.5945 20.1117 20.0914 22.0971C19.5883 24.0825 18.3747 25.8145 16.6804 26.9652C14.9862 28.116 12.9288 28.6057 10.8978 28.3416C8.86676 28.0775 7.00305 27.0779 5.65946 25.5321C4.31587 23.9862 3.58564 22.0015 3.60702 19.9534C3.62839 17.9054 4.39988 15.9363 5.77544 14.4189C7.15101 12.9014 9.03517 11.941 11.0713 11.7193C13.1074 11.4976 15.1541 12.0301 16.8239 13.216C16.8633 13.2441 16.8961 13.2804 16.9201 13.3225C16.944 13.3645 16.9585 13.4113 16.9626 13.4595C16.9667 13.5077 16.9602 13.5562 16.9436 13.6017C16.927 13.6471 16.9007 13.6884 16.8666 13.7227L15.9013 14.688C15.8468 14.7423 15.7752 14.7761 15.6986 14.7836C15.6221 14.7912 15.5453 14.772 15.4813 14.7294C14.7736 14.2537 13.9761 13.9277 13.1378 13.7716C12.2995 13.6154 11.4381 13.6324 10.6066 13.8214C9.50636 14.0698 8.49241 14.6075 7.66951 15.3789C6.84661 16.1504 6.2446 17.1275 5.9257 18.2094C5.60679 19.2914 5.58254 20.4388 5.85547 21.5332C6.12839 22.6277 6.68859 23.6294 7.47817 24.4348C8.26775 25.2403 9.25809 25.8204 10.3469 26.1151C11.4356 26.4098 12.5833 26.4084 13.6714 26.1112C14.7595 25.8139 15.7484 25.2315 16.5361 24.4241C17.3238 23.6168 17.8816 22.6138 18.1519 21.5187C18.4436 20.341 18.388 19.1041 17.9919 17.9574C17.9719 17.9048 17.9389 17.8581 17.8961 17.8215C17.8533 17.785 17.802 17.7598 17.7469 17.7483C17.6919 17.7367 17.6348 17.7392 17.5809 17.7555C17.527 17.7717 17.4781 17.8013 17.4386 17.8414L14.6146 20.6667C14.5767 20.7036 14.5487 20.7495 14.5333 20.8C14.3853 21.2706 14.1096 21.6909 13.737 22.0142C13.3644 22.3375 12.9094 22.5511 12.4227 22.6312C11.9359 22.7114 11.4365 22.6549 10.9799 22.4682C10.5233 22.2814 10.1275 21.9717 9.83639 21.5734C9.54533 21.1751 9.37046 20.7039 9.33122 20.2121C9.29198 19.7204 9.38991 19.2274 9.61413 18.788C9.83835 18.3486 10.1801 17.98 10.6013 17.7232C11.0225 17.4664 11.5066 17.3314 11.9999 17.3334C12.1577 17.3336 12.3152 17.3474 12.4706 17.3747C12.5304 17.3858 12.586 17.4129 12.6315 17.4532C12.677 17.4935 12.7106 17.5454 12.7289 17.6034C12.7471 17.6613 12.7492 17.7232 12.7349 17.7823C12.7207 17.8413 12.6906 17.8954 12.6479 17.9387L11.4666 19.12C11.3737 19.2128 11.3 19.3229 11.2497 19.4442C11.1995 19.5655 11.1736 19.6954 11.1736 19.8267C11.1736 19.958 11.1995 20.0879 11.2497 20.2092C11.3 20.3305 11.3737 20.4406 11.4666 20.5334C11.6563 20.7169 11.91 20.8195 12.1739 20.8195C12.4379 20.8195 12.6915 20.7169 12.8813 20.5334L22.6493 10.764C22.712 10.7017 22.7968 10.6667 22.8853 10.6667H27.3333C27.5007 10.6669 27.662 10.604 27.7853 10.4907L31.7853 6.8147C31.8705 6.73619 31.9339 6.63681 31.969 6.52636C32.0041 6.41592 32.0099 6.29821 31.9857 6.18487C31.9614 6.07153 31.9081 5.96646 31.8308 5.88003C31.7536 5.79361 31.6552 5.72881 31.5453 5.69203L27.7773 4.43603C27.7284 4.41939 27.6839 4.39174 27.6474 4.35521C27.6109 4.31869 27.5832 4.27426 27.5666 4.22536L26.3093 0.456028C26.2726 0.345878 26.2078 0.247216 26.1212 0.169809C26.0347 0.0924017 25.9295 0.0389331 25.8159 0.0146951C25.7024 -0.00877477 25.5847 -0.00257763 25.4742 0.0326885C25.3637 0.0679546 25.2642 0.131099 25.1853 0.216028L21.5079 4.21603C21.3954 4.33911 21.3331 4.49991 21.3333 4.6667V9.1147C21.3327 9.20302 21.2978 9.28766 21.2359 9.3507L19.9546 10.632C19.8963 10.6898 19.8188 10.724 19.7369 10.7282C19.655 10.7324 19.5744 10.7062 19.5106 10.6547C17.2174 8.80526 14.3236 7.86486 11.3813 8.01294C8.43905 8.16102 5.65428 9.38721 3.55839 11.4575C1.46251 13.5279 0.202252 16.2974 0.0180919 19.2376C-0.166068 22.1779 0.738764 25.083 2.55993 27.3987V27.3987Z" fill="#1F477D"/>
</g>
<defs>
<clipPath id="clip0">
<rect width="32" height="32" fill="white"/>
</clipPath>
</defs>
</svg>
