<svg viewBox="0 0 32 32" fill="none" xmlns="http://www.w3.org/2000/svg">
<g clip-path="url(#clip0)">
<path d="M14 30.6933C13.9996 30.347 13.8618 30.015 13.6168 29.7702C13.3718 29.5255 13.0397 29.388 12.6933 29.388H10.0827C9.90765 29.3824 9.73329 29.412 9.56996 29.4752C9.40662 29.5383 9.25763 29.6336 9.13185 29.7554C9.00607 29.8772 8.90606 30.0231 8.83776 30.1843C8.76946 30.3456 8.73426 30.5189 8.73426 30.694C8.73426 30.8691 8.76946 31.0424 8.83776 31.2037C8.90606 31.3649 9.00607 31.5108 9.13185 31.6326C9.25763 31.7544 9.40662 31.8497 9.56996 31.9128C9.73329 31.9759 9.90765 32.0056 10.0827 32H12.6947C13.041 31.9996 13.373 31.8618 13.6178 31.6168C13.8625 31.3718 14 31.0396 14 30.6933Z" fill="#1F477D"/>
<path d="M5.72533 28.5333C4.80584 27.9734 4.05667 27.1731 3.55867 26.2187C3.47992 26.0655 3.37167 25.9294 3.24016 25.8183C3.10864 25.7071 2.95644 25.623 2.79232 25.5709C2.6282 25.5187 2.45539 25.4995 2.28382 25.5144C2.11226 25.5293 1.94532 25.5779 1.79262 25.6575C1.63991 25.7371 1.50445 25.8461 1.39401 25.9782C1.28358 26.1104 1.20035 26.263 1.14912 26.4275C1.09789 26.5919 1.07966 26.7648 1.09549 26.9363C1.11131 27.1077 1.16088 27.2744 1.24133 27.4267C1.96036 28.8011 3.0404 29.9535 4.36533 30.76C4.56948 30.8853 4.80447 30.9513 5.044 30.9507C5.32807 30.9502 5.60422 30.857 5.83055 30.6853C6.05688 30.5137 6.22103 30.2729 6.29809 29.9994C6.37515 29.726 6.36092 29.4349 6.25755 29.1703C6.15419 28.9058 5.96733 28.6821 5.72533 28.5333V28.5333Z" fill="#1F477D"/>
<path d="M2.82 17.4667C1.71307 18.5545 0.925823 19.9251 0.543998 21.4293C0.502041 21.5957 0.493285 21.7687 0.51823 21.9384C0.543176 22.1081 0.601334 22.2713 0.689379 22.4185C0.777424 22.5658 0.89363 22.6942 1.03135 22.7965C1.16907 22.8988 1.3256 22.9729 1.492 23.0147C1.59651 23.0417 1.70406 23.0551 1.812 23.0547C2.10259 23.0543 2.38479 22.9571 2.61395 22.7784C2.84311 22.5997 3.00617 22.3498 3.07733 22.068C3.34119 21.0258 3.88637 20.0761 4.65333 19.3227C4.7759 19.2023 4.87356 19.059 4.94073 18.9008C5.0079 18.7427 5.04327 18.5729 5.04481 18.4011C5.04636 18.2293 5.01406 18.0589 4.94975 17.8996C4.88544 17.7403 4.79038 17.5952 4.67 17.4727C4.54962 17.3501 4.40628 17.2525 4.24816 17.1853C4.09004 17.1181 3.92024 17.0827 3.74845 17.0812C3.57666 17.0797 3.40625 17.112 3.24695 17.1763C3.08764 17.2406 2.94257 17.3356 2.82 17.456V17.4667Z" fill="#1F477D"/>
<path d="M23.144 17.632C23.4832 17.6212 23.8048 17.4788 24.0409 17.2351C24.2769 16.9914 24.4089 16.6653 24.4089 16.326C24.4089 15.9867 24.2769 15.6607 24.0409 15.4169C23.8048 15.1732 23.4832 15.0309 23.144 15.02H21.184C20.8448 15.0309 20.5232 15.1732 20.2871 15.4169C20.0511 15.6607 19.9191 15.9867 19.9191 16.326C19.9191 16.6653 20.0511 16.9914 20.2871 17.2351C20.5232 17.4788 20.8448 17.6212 21.184 17.632H23.144Z" fill="#1F477D"/>
<path d="M30 11.6534C29.8522 11.566 29.6886 11.5087 29.5186 11.4847C29.3486 11.4607 29.1756 11.4705 29.0094 11.5135C28.8431 11.5565 28.687 11.6318 28.55 11.7352C28.4129 11.8386 28.2976 11.968 28.2107 12.116C27.813 12.7962 27.2819 13.389 26.6493 13.8587C26.5092 13.9603 26.3906 14.0889 26.3005 14.2367C26.2105 14.3846 26.1507 14.5489 26.1247 14.7201C26.0987 14.8913 26.1069 15.0659 26.149 15.2339C26.1911 15.4019 26.2661 15.5598 26.3697 15.6985C26.4734 15.8372 26.6035 15.954 26.7527 16.0419C26.9018 16.1299 27.067 16.1873 27.2385 16.2109C27.41 16.2345 27.5846 16.2238 27.7519 16.1793C27.9193 16.1349 28.0761 16.0576 28.2133 15.952C29.1234 15.2735 29.8886 14.4199 30.464 13.4414C30.6391 13.1426 30.6886 12.7866 30.6016 12.4514C30.5146 12.1163 30.2983 11.8293 30 11.6534V11.6534Z" fill="#1F477D"/>
<path d="M31.496 7.74266C31.4958 7.65633 31.4877 7.5702 31.472 7.48532C31.1681 5.96119 30.4514 4.54984 29.4 3.40532C29.2857 3.2729 29.146 3.16477 28.9892 3.08733C28.8324 3.0099 28.6616 2.96474 28.487 2.95453C28.3124 2.94432 28.1375 2.96927 27.9727 3.02791C27.8079 3.08654 27.6566 3.17766 27.5277 3.29586C27.3987 3.41407 27.2949 3.55696 27.2222 3.71605C27.1495 3.87515 27.1095 4.04721 27.1046 4.22205C27.0996 4.39689 27.1298 4.57094 27.1934 4.73389C27.257 4.89683 27.3526 5.04536 27.4747 5.17065C28.2023 5.96178 28.6981 6.93785 28.908 7.99199C28.9668 8.2884 29.1265 8.55529 29.3598 8.74731C29.5932 8.93934 29.8858 9.04464 30.188 9.04532C30.2736 9.04598 30.3589 9.03749 30.4427 9.01999C30.7389 8.96171 31.0057 8.80258 31.1978 8.56968C31.3898 8.33679 31.4952 8.04452 31.496 7.74266V7.74266Z" fill="#1F477D"/>
<path d="M25.0973 2.10399C25.1127 1.93324 25.0943 1.76113 25.0431 1.59752C24.9919 1.4339 24.9089 1.28198 24.799 1.15046C24.689 1.01894 24.5542 0.910397 24.4022 0.83104C24.2502 0.751683 24.0841 0.703071 23.9133 0.687987C23.6587 0.666654 23.404 0.65332 23.144 0.65332H21.8373C21.4982 0.664158 21.1766 0.806503 20.9405 1.05024C20.7044 1.29398 20.5724 1.62 20.5724 1.95932C20.5724 2.29864 20.7044 2.62466 20.9405 2.8684C21.1766 3.11214 21.4982 3.25448 21.8373 3.26532H23.144C23.3253 3.26532 23.504 3.27465 23.6773 3.28932C23.7173 3.28932 23.7573 3.28932 23.7947 3.28932C24.1206 3.29003 24.435 3.1688 24.676 2.94946C24.9171 2.73011 25.0674 2.42852 25.0973 2.10399V2.10399Z" fill="#1F477D"/>
<path d="M11.4387 12C11.4881 12.1189 11.5718 12.2205 11.6791 12.2917C11.7865 12.3629 11.9125 12.4006 12.0413 12.4H13.6747C13.7613 12.4 13.8444 12.4344 13.9057 12.4957C13.9669 12.557 14.0013 12.64 14.0013 12.7267V25.7933C14.0013 26.3128 14.2077 26.811 14.575 27.1783C14.9423 27.5457 15.4405 27.752 15.96 27.752C16.4795 27.752 16.9777 27.5457 17.345 27.1783C17.7123 26.811 17.9187 26.3128 17.9187 25.7933V12.7267C17.9187 12.64 17.9531 12.557 18.0143 12.4957C18.0756 12.4344 18.1587 12.4 18.2453 12.4H19.8787C20.0077 12.3998 20.1338 12.3613 20.241 12.2895C20.3482 12.2177 20.4317 12.1157 20.4811 11.9965C20.5304 11.8773 20.5433 11.7461 20.5182 11.6196C20.4931 11.493 20.4311 11.3767 20.34 11.2853L16.4213 7.37468C16.3608 7.31404 16.2889 7.26594 16.2097 7.23312C16.1305 7.2003 16.0457 7.18341 15.96 7.18341C15.8743 7.18341 15.7895 7.2003 15.7103 7.23312C15.6311 7.26594 15.5592 7.31404 15.4987 7.37468L11.58 11.2933C11.4897 11.3843 11.4282 11.4998 11.4031 11.6254C11.378 11.7511 11.3903 11.8813 11.4387 12V12Z" fill="#1F477D"/>
<path d="M15.96 5.224C17.4026 5.224 18.572 4.05457 18.572 2.612C18.572 1.16943 17.4026 0 15.96 0C14.5174 0 13.348 1.16943 13.348 2.612C13.348 4.05457 14.5174 5.224 15.96 5.224Z" fill="#1F477D"/>
<path d="M8.776 15.02C8.43685 15.0309 8.11522 15.1732 7.87914 15.4169C7.64307 15.6607 7.51107 15.9867 7.51107 16.326C7.51107 16.6653 7.64307 16.9914 7.87914 17.2351C8.11522 17.4788 8.43685 17.6212 8.776 17.632H10.736C11.0751 17.6212 11.3968 17.4788 11.6329 17.2351C11.8689 16.9914 12.0009 16.6653 12.0009 16.326C12.0009 15.9867 11.8689 15.6607 11.6329 15.4169C11.3968 15.1732 11.0751 15.0309 10.736 15.02H8.776Z" fill="#1F477D"/>
</g>
<defs>
<clipPath id="clip0">
<rect width="32" height="32" fill="white"/>
</clipPath>
</defs>
</svg>
