<svg viewBox="0 0 32 32" xmlns="http://www.w3.org/2000/svg">
  <g fill="#1F477D" fill-rule="evenodd">
    <path d="M8.163 22.533H5.55a.98.98 0 000 1.959h2.612a.98.98 0 100-1.959zM9.704 18.743l-2.267-1.306a.98.98 0 10-.98 1.696l2.267 1.307a.98.98 0 00.98-1.697zM11.624 13.97a.98.98 0 00-1.697.98l1.306 2.266a.982.982 0 001.7-.984l-1.309-2.263zM16 16.65a.98.98 0 00.98-.98v-2.603a.98.98 0 10-1.96 0v2.61a.98.98 0 00.98.974zM25.541 19.132a.98.98 0 00-.978-1.697l-2.267 1.304a.98.98 0 00.49 1.828c.172 0 .34-.047.489-.134l2.266-1.301zM26.452 22.533H23.84a.98.98 0 000 1.959h2.612a.98.98 0 000-1.959zM20.667 14.933l-5.703 5.694a3.635 3.635 0 00-.923 2.23v.652a1.032 1.032 0 001.28 1.051l.704-.14a2.699 2.699 0 001.766-1.467l3.142-7.848a.164.164 0 00-.266-.176v.004z"/>
    <path d="M3.919 32H28.08A3.923 3.923 0 0032 28.081V3.92A3.923 3.923 0 0028.081 0H3.92A3.923 3.923 0 000 3.919V28.08A3.923 3.923 0 003.919 32zM14.693 3.919a.98.98 0 11-1.96 0 .98.98 0 011.96 0zm-3.917 0a.98.98 0 11-1.96-.011.98.98 0 011.96.01zm-3.919 0a.98.98 0 11-1.96-.011.98.98 0 011.96.01zm21.224 25.466H3.92a1.307 1.307 0 01-1.307-1.306V8.844c0-.736.597-1.333 1.333-1.333h24.11c.736 0 1.333.597 1.333 1.333v19.237c0 .722-.585 1.307-1.307 1.307v-.003z"/>
  </g>
</svg>