<?xml version="1.0" encoding="UTF-8"?>
<svg width="15px" height="15px" viewBox="0 0 15 15" version="1.1" xmlns="http://www.w3.org/2000/svg" xmlns:xlink="http://www.w3.org/1999/xlink">
    <!-- Generator: Sketch 55.2 (78181) - https://sketchapp.com -->
    <title>Group 11</title>
    <desc>Created with Sketch.</desc>
    <g id="docs-design-final" stroke="none" stroke-width="1" fill="none" fill-rule="evenodd">
        <g id="1.1-docs-home" transform="translate(-33.000000, -217.000000)" fill="#12424A" fill-rule="nonzero">
            <g id="Group-11" transform="translate(33.000000, 217.000000)">
                <path d="M12.9722527,11.0000106 C12.8060132,11.0000106 12.6712494,11.1370663 12.6712494,11.3061331 L12.6712494,13.9525616 C12.6682218,14.1647085 12.4970828,14.334424 12.2884735,14.3321535 L0.985296221,14.3321535 C0.776492074,14.3347074 0.605045929,14.1649099 0.602018629,13.9525616 L0.602018629,11.5750106 L8.19783803,11.5750106 C8.36407758,11.5750106 8.49884137,11.4379549 8.49884137,11.2688882 C8.49884137,11.0998214 8.36407758,10.9627657 8.19783803,10.9627657 L0.602018629,10.9627657 L0.602018629,7.77909226 L3.68228619,7.77909226 C3.84852574,7.77909226 3.98328953,7.64203657 3.98328953,7.47296981 C3.98328953,7.30390305 3.84852574,7.16684736 3.68228619,7.16684736 L0.602018629,7.16684736 L0.602018629,3.98317389 L8.19783803,3.98317389 C8.36407758,3.98317389 8.49884137,3.8461182 8.49884137,3.67705144 C8.49884137,3.50798468 8.36407758,3.37092899 8.19783803,3.37092899 L0.602018629,3.37092899 L0.602018629,0.993377974 C0.601800257,0.935388711 0.615216625,0.87818661 0.641149064,0.82654124 C0.716372463,0.675508267 0.656964093,0.491054153 0.508456756,0.414551444 C0.359949418,0.338048735 0.178579821,0.398467451 0.103356421,0.549500423 C0.0346819853,0.686993229 -0.00074696524,0.839165029 3.31290551e-13,0.993377974 L3.31290551e-13,13.9525616 C0.00332742012,14.5029227 0.444132917,14.9466597 0.985296221,14.9444093 L12.2874701,14.9444093 C12.8288289,14.946942 13.2699406,14.5031228 13.2732561,13.9525616 L13.2732561,11.3046025 C13.2724278,11.1361338 13.1379063,11.0000085 12.9722527,11.0000106 Z" id="Path"></path>
                <path d="M12.2874701,1.687539e-14 L2.03579789,1.687539e-14 C1.86955834,1.687539e-14 1.73479455,0.137066319 1.73479455,0.306133076 C1.73479455,0.475199834 1.86955834,0.612255522 2.03579789,0.612255525 L12.2874701,0.612255525 C12.3880986,0.610894261 12.4851228,0.650317064 12.5571262,0.721822022 C12.6291296,0.793326979 12.6701919,0.891034739 12.6712494,0.993377974 L12.6712494,3.64133716 C12.6712494,3.81040392 12.8060132,3.94745961 12.9722527,3.94745961 C13.1384923,3.94745961 13.2732561,3.81040392 13.2732561,3.64133716 L13.2732561,0.993377974 C13.2720614,0.728701871 13.1675302,0.475349197 12.9826589,0.289056078 C12.7977876,0.102762958 12.5477202,-0.00121000913 12.2874701,1.687539e-14 Z" id="Path"></path>
                <path d="M5.16673435,7.47296981 C5.16673435,7.64203657 5.30149814,7.77909226 5.46773769,7.77909226 L11.1868012,7.77909226 C11.3530408,7.77909226 11.4878046,7.64203657 11.4878046,7.47296981 C11.4878046,7.30390305 11.3530408,7.16684736 11.1868012,7.16684736 L5.46773769,7.16684736 C5.30149814,7.16684736 5.16673435,7.30390305 5.16673435,7.47296981 Z" id="Path"></path>
                <path d="M12.996333,9.46786777 C11.9130052,9.46786777 11.0347945,8.57472153 11.0347945,7.47296981 C11.0347945,6.37121809 11.9130052,5.47807185 12.996333,5.47807185 C14.0796608,5.47807185 14.9578715,6.37121809 14.9578715,7.47296981 C14.9567654,8.57425524 14.0792023,9.46674286 12.996333,9.46786777 Z M12.996333,5.93725553 C12.1623646,5.93725553 11.4862996,6.62481823 11.4862996,7.47296981 C11.4862996,8.32112139 12.1623646,9.0086841 12.996333,9.0086841 C13.8303015,9.0086841 14.5063665,8.32112139 14.5063665,7.47296981 C14.505261,6.62528435 13.8298431,5.93837978 12.996333,5.93725553 L12.996333,5.93725553 Z" id="Shape"></path>
            </g>
        </g>
    </g>
</svg>