<svg viewBox="0 0 16 15" fill="none" xmlns="http://www.w3.org/2000/svg">
  <path fill-rule="evenodd" clip-rule="evenodd" d="M0 14c0 .55.45 1 1 1h2c.55 0 1-.45 1-1V8.4L0 10v4zm6-5.5V14c0 .55.45 1 1 1h2c.55 0 1-.45 1-1V9l-1 1-3-1.5zM13 6l-1 1v7c0 .55.45 1 1 1h2c.55 0 1-.45 1-1V6.88c-.26.07-.58.12-1 .12-1.96 0-2-1-2-1zm2-6h-3c-.55 0-1 .45-1 1s.45 1 1 1h.59L8.8 5.78 5.45 4.11v.01C5.31 4.05 5.16 4 5 4c-.16 0-.31.05-.44.11V4.1l-4 2v.01C.23 6.28 0 6.61 0 7c0 .55.45 1 1 1 .16 0 .31-.05.44-.11v.01L5 6.12 8.55 7.9v-.01c.14.06.29.11.45.11.28 0 .53-.11.71-.29L14 3.41V4c0 .55.45 1 1 1s1-.45 1-1V1c0-.55-.45-1-1-1z"/>
</svg>