<svg viewBox="0 0 22 22" fill="none" xmlns="http://www.w3.org/2000/svg">
  <path d="M11 5.5c-3.05 0-5.5 2.45-5.5 5.5s2.45 5.5 5.5 5.5 5.5-2.45 5.5-5.5S14 5.5 11 5.5zm0 9.5c-2.2 0-4-1.8-4-4s1.8-4 4-4 4 1.8 4 4-1.8 4-4 4zM3 0C1.3 0 0 1.35 0 3s1.35 3 3 3 3-1.35 3-3-1.35-3-3-3zm0 4.5c-.85 0-1.5-.65-1.5-1.5S2.15 1.5 3 1.5s1.5.65 1.5 1.5S3.8 4.5 3 4.5zM3 16c-1.65 0-3 1.35-3 3s1.35 3 3 3 3-1.35 3-3-1.35-3-3-3zm0 4.5c-.85 0-1.5-.65-1.5-1.5s.65-1.5 1.5-1.5 1.5.65 1.5 1.5-.7 1.5-1.5 1.5zM19 16c-1.65 0-3 1.35-3 3s1.35 3 3 3 3-1.35 3-3-1.35-3-3-3zm0 4.5c-.85 0-1.5-.65-1.5-1.5s.65-1.5 1.5-1.5 1.5.65 1.5 1.5-.7 1.5-1.5 1.5zM19 0c-1.65 0-3 1.35-3 3s1.35 3 3 3 3-1.35 3-3-1.35-3-3-3zm0 4.5c-.85 0-1.5-.65-1.5-1.5s.65-1.5 1.5-1.5 1.5.65 1.5 1.5-.7 1.5-1.5 1.5z"/>
  <path fill-rule="evenodd" clip-rule="evenodd" d="M17.98 5.08l-3.1 3.1-1.06-1.06 3.1-3.1 1.06 1.06zM8.08 14.98l-3.05 3.05-1.06-1.06 3.05-3.05 1.06 1.06zM5.035 4.224l3.05 3.1-1.07 1.052-3.05-3.1 1.07-1.052zM14.726 13.965l3.05 3-1.052 1.07-3.05-3 1.052-1.07z" />
</svg>