<svg class="twlo-icon-product-flex" height="32" style="enable-background:new 0 0 32 32;" viewBox="0 0 32 32" width="32" xml:space="preserve" xmlns="http://www.w3.org/2000/svg">
<style type="text/css">.st0{fill:#3366ff;}</style>
<path d="M1.7,12.5C1.1,11.9,0,12.3,0,13.2v9.1c0,0.3,0.1,0.5,0.3,0.7l8.6,8.6c0.6,0.6,1.7,0.2,1.7-0.7v-9.1
		c0-0.3-0.1-0.5-0.3-0.7L1.7,12.5z" fill="currentColor"></path>
<path d="M1,0C0.5,0,0,0.5,0,1v6.6c0,0.3,0.1,0.5,0.3,0.7L15,23c0.2,0.2,0.4,0.3,0.7,0.3h10.2c0.9,0,1.3-1.1,0.7-1.7
		L18,12.9c-0.2-0.2-0.4-0.3-0.7-0.3h-5.6c-0.5,0-1-0.4-1-1c0-0.5,0.4-1,1-1H31c0.9,0,1.3-1.1,0.7-1.7l-8.6-8.6
		C22.9,0.1,22.6,0,22.4,0H1z" fill="currentColor"></path>
</svg>