<svg width="24" height="24" viewBox="0 0 24 24" fill="none" xmlns="http://www.w3.org/2000/svg">
  <path d="M7 18a1 1 0 100-2 1 1 0 000 2z" />
  <path fill-rule="evenodd" clip-rule="evenodd" d="M7 16.5a.5.5 0 100 1 .5.5 0 000-1zm1 .5a1 1 0 11-2 0 1 1 0 012 0z" />
  <path d="M4 21a1 1 0 100-2 1 1 0 000 2z" />
  <path fill-rule="evenodd" clip-rule="evenodd" d="M4 19.5a.5.5 0 100 1 .5.5 0 000-1zm1 .5a1 1 0 11-2 0 1 1 0 012 0zM14.349 6.792l-7.846 7.5-5.058-5.058L14.35 6.792zM4.513 10.18l2.014 2.014L9.65 9.208l-5.138.972zM17.208 9.651l-2.442 12.904-5.058-5.058 7.5-7.846zm-5.402 7.822l2.014 2.014.972-5.138-2.986 3.124z" />
  <path fill-rule="evenodd" clip-rule="evenodd" d="M22.212 1.716l-.846 6.222-10.079 10.077-1.06-1.06 9.721-9.72.508-3.74-3.686.553-9.725 9.725-1.06-1.06L16.058 2.638l6.154-.922z" />
  <path fill-rule="evenodd" clip-rule="evenodd" d="M17.474 10.778l-4.28-4.205 1.05-1.07 4.282 4.205-1.052 1.07z" />
</svg>