<svg viewBox="0 0 20 21" fill="none" xmlns="http://www.w3.org/2000/svg">
  <path d="M1 9a1 1 0 100-2 1 1 0 000 2z" />
  <path fill-rule="evenodd" clip-rule="evenodd" d="M17.693 2.29c-.652-.163-1.673-.283-3.07-.05a6.973 6.973 0 00-3.048 1.297 6.234 6.234 0 00-.825.739v11.74c.822-.72 2.03-1.49 3.627-1.756 1.56-.26 2.748-.263 3.56-.195.112.01.216.02.313.031V2.466a4.431 4.431 0 00-.557-.176zm.898.339l-.001-.001h.001zM19 2l.416-.624.334.223V16.04l-.983-.328h-.002a2.957 2.957 0 00-.2-.049 6.303 6.303 0 00-.752-.104c-.688-.057-1.75-.06-3.19.18-1.316.22-2.313.879-2.991 1.5-.338.31-.591.606-.758.82a4.837 4.837 0 00-.224.314l-.007.012h-.002L9.25 18V3.75l.15-.2.6.45-.6-.45v-.001l.002-.001.002-.003.006-.009.02-.025.067-.081c.056-.067.137-.16.243-.27.212-.22.523-.513.935-.823A8.473 8.473 0 0114.377.76c1.603-.267 2.832-.137 3.68.075.423.106.748.23.974.335a3.608 3.608 0 01.37.196l.008.005.004.003.002.001.001.001L19 2zm-8.358 16.388z"/>
  <path fill-rule="evenodd" clip-rule="evenodd" d="M2.307 2.29c.652-.163 1.673-.283 3.07-.05a6.973 6.973 0 013.048 1.297 6.235 6.235 0 01.825.739v11.74c-.821-.72-2.03-1.49-3.627-1.756-1.56-.26-2.748-.263-3.56-.195-.112.01-.216.02-.313.031V11H.25v5.04l.983-.327h.001l.032-.01c.033-.008.09-.023.168-.04.158-.032.41-.074.753-.103.688-.057 1.75-.06 3.19.18 1.316.22 2.313.879 2.991 1.5.338.31.591.606.758.82a4.86 4.86 0 01.224.314l.007.012h.001L10.75 18V3.75l-.15-.2L10 4l.6-.45v-.001l-.002-.001-.002-.003-.007-.009-.019-.025a5.64 5.64 0 00-.31-.351 7.734 7.734 0 00-.935-.823A8.473 8.473 0 005.623.76C4.02.493 2.791.623 1.943.835a5.61 5.61 0 00-.974.335 3.626 3.626 0 00-.37.196l-.008.005-.004.003-.002.001S.584 1.376 1 2l-.416-.624-.334.223V5h1.5V2.467c.141-.056.327-.12.557-.177zm-.898.339l.001-.001H1.41zm7.95 15.76z"/>
  <path fill-rule="evenodd" clip-rule="evenodd" d="M18.75 14.844v5.006l-8.843-1.106.186-1.488 7.157.894v-3.306h1.5z" />
  <path fill-rule="evenodd" clip-rule="evenodd" d="M2.75 18.29V15h-1.5v5.022l8.857-1.28-.214-1.484L2.75 18.29z" />
</svg>