<svg viewBox="0 0 24 24" fill="none" xmlns="http://www.w3.org/2000/svg">
<path fill-rule="evenodd" clip-rule="evenodd" d="M14.25 3V5.39525L2.25 9.46225V14.5377L5.25 15.5544V21.75H9.50777L11.1818 17.5648L14.25 18.6047V21H15.75V15H14.25V17.0209L9.75 15.4958V8.50419L14.25 6.97906V9H15.75V3H14.25ZM8.25 9.01256L3.75 10.5377V13.4623L8.25 14.9874V9.01256ZM6.75 20.25V16.0628L9.75916 17.0827L8.49223 20.25H6.75ZM15 13.0002C15.5523 13.0002 16 12.5525 16 12.0002C16 11.448 15.5523 11.0002 15 11.0002C14.4477 11.0002 14 11.448 14 12.0002C14 12.5525 14.4477 13.0002 15 13.0002ZM18 12.75H23V11.25H18V12.75ZM21.5304 5.53039L18.5304 8.53039L17.4697 7.46973L20.4697 4.46973L21.5304 5.53039ZM21.5304 18.4697L18.5304 15.4697L17.4697 16.5304L20.4697 19.5304L21.5304 18.4697Z"/>
</svg>
