<svg width="20" height="20" viewBox="0 0 20 20" fill="none" xmlns="http://www.w3.org/2000/svg">
<path fill-rule="evenodd" clip-rule="evenodd" d="M10.0046 4C12.4097 4.01096 14.7103 4.95468 16.3934 6.62074C18.0862 8.27781 19.0249 10.5228 19.0002 12.8551V14.3636C18.9991 15.2669 18.2442 15.9989 17.3127 16H2.68774C1.75625 15.9989 1.00142 15.2669 1.00024 14.3636V12.853C0.963891 7.99977 4.99098 4.03653 10.0046 4ZM10.0002 13.2748L9.99192 13.2736C9.0639 13.2789 8.31409 14.0092 8.31274 14.9091H11.6877C11.6864 14.0092 10.9367 13.2789 10.0087 13.2735L10.0002 13.2748ZM17.8752 14.3636C17.875 14.6648 17.6233 14.9088 17.3127 14.9091H12.8127C12.8105 13.683 11.9656 12.6087 10.7467 12.2824L12.2212 7.9929C12.3192 7.70727 12.1601 7.39866 11.8656 7.3034C11.5711 7.20814 11.2527 7.36226 11.1542 7.64773L9.58422 12.2151C8.20856 12.4153 7.19018 13.5602 7.18774 14.9091H2.68774C2.3772 14.9088 2.12553 14.6648 2.12524 14.3636V12.8474C2.0809 10.0904 3.57254 7.52431 6.02789 6.1336C8.48323 4.74289 11.521 4.74354 13.9757 6.13532C16.4304 7.52709 17.9209 10.0939 17.8752 12.8509V14.3636ZM4.64415 11.6375C4.64821 11.6369 4.65227 11.6364 4.65649 11.6364C5.08616 11.6054 5.46175 11.9149 5.49941 12.3311C5.53708 12.7473 5.22283 13.1156 4.79417 13.1577C4.36551 13.1997 3.98158 12.8999 3.93255 12.4848C3.88351 12.0697 4.18757 11.6935 4.61494 11.6404L4.62295 11.6396H4.62295C4.62631 11.6392 4.62966 11.6388 4.63309 11.6387C4.63686 11.6386 4.6405 11.638 4.64414 11.6375L4.64415 11.6375ZM6.62524 9.7294C6.62524 10.1813 6.24748 10.5476 5.78149 10.5476C5.3155 10.5476 4.93774 10.1813 4.93774 9.7294C4.93774 9.27753 5.3155 8.91122 5.78149 8.91122C6.24748 8.91122 6.62524 9.27753 6.62524 9.7294ZM15.344 13.2727C15.81 13.2727 16.1877 12.9064 16.1877 12.4545C16.1877 12.0027 15.81 11.6364 15.344 11.6364C14.878 11.6364 14.5002 12.0027 14.5002 12.4545C14.5002 12.9064 14.878 13.2727 15.344 13.2727ZM15.0627 9.7294C15.0615 9.30535 14.7256 8.95284 14.2898 8.91815C14.2702 8.91513 14.2504 8.91319 14.2305 8.91234C14.2289 8.91232 14.2273 8.91212 14.2257 8.91189L14.2249 8.91178C14.223 8.9115 14.221 8.91122 14.219 8.91122C13.753 8.91122 13.3752 9.27753 13.3752 9.7294C13.3752 10.1813 13.753 10.5476 14.219 10.5476C14.685 10.5476 15.0627 10.1813 15.0627 9.7294ZM7.96409 6.736C8.00883 6.73026 8.05416 6.73026 8.0989 6.736C8.55032 6.77108 8.89267 7.14548 8.87457 7.58427C8.85647 8.02307 8.48436 8.36975 8.03149 8.36975C7.57862 8.36975 7.20652 8.02307 7.18842 7.58427C7.17032 7.14548 7.51267 6.77108 7.96409 6.736Z" fill="#606B85"/>
</svg>
