<svg viewBox="0 0 12 12" xmlns="http://www.w3.org/2000/svg">
  <path d="M6.25.25a1 1 0 011 1v1.5a.5.5 0 01-1 0V1.5A.25.25 0 006 1.25H1.25A.25.25 0 001 1.5v9l.007.057a.25.25 0 00.243.193H6a.25.25 0 00.25-.25V9.25l.008-.09a.5.5 0 01.492-.41l.09.008a.5.5 0 01.41.492v1.5a1 1 0 01-1 1H1a1 1 0 01-1-1v-9.5l.007-.117A1 1 0 011 .25zm1.834 3.723a.5.5 0 01.693-.139l3 2a.5.5 0 010 .831v.001l-3 2a.5.5 0 01-.277.084l-.09-.01A.507.507 0 018 8.25V7H3.5a.75.75 0 010-1.5H8V4.25a.5.5 0 01.084-.277z" fill-rule="nonzero" fill="#67798B"/>
</svg>