<svg viewBox="0 0 19 21" fill="none" xmlns="http://www.w3.org/2000/svg">
  <path d="M0 19.75v.75h8.5V19h-7c.35-3.7 3.3-6.6 6.95-6.95v-1.5c-4.7.4-8.45 4.35-8.45 9.2zM4.5 4.75c0 2.35 1.75 4.3 4 4.7V7.9C7.05 7.55 6 6.25 6 4.75s1.05-2.8 2.5-3.15V.1c-2.3.35-4 2.3-4 4.65zM11.5 8.05c.2-.1.4-.25.6-.4l1 1 1.05-1.05-1.1-1.1c.15-.3.3-.65.35-1H15V4h-1.6c-.05-.35-.2-.7-.35-1l1.1-1.1L13.1.85l-1 1c-.2-.15-.4-.3-.6-.4V0H10v2.55c1.1.15 2 1.05 2 2.2 0 1.15-.9 2.1-2 2.2V9.5h1.5V8.05zM17.4 19c-.1-.7-.25-1.35-.5-2l1.3-.65-.7-1.3-1.3.65c-.4-.65-.95-1.25-1.5-1.75l.85-1.35-1.3-.8-.8 1.3c-.6-.35-1.3-.65-2-.8v-1.8h-1.5v3.05c3.35.25 6 3.05 6 6.45v.5h3V19H17.4z" />
  <path d="M10 15.05v1.5c1.7.25 3 1.7 3 3.45v.5h1.5V20c0-2.55-2-4.7-4.5-4.95z" />
</svg>