<svg viewBox="0 0 22 21" fill="none" xmlns="http://www.w3.org/2000/svg">
  <path fill-rule="evenodd" clip-rule="evenodd" d="M11 1.5a1.95 1.95 0 100 3.9 1.95 1.95 0 000-3.9zM7.55 3.45a3.45 3.45 0 116.9 0 3.45 3.45 0 01-6.9 0zM3.45 13.9c-.304 0-.568.047-.715.12l-.021.012-.023.01A2.009 2.009 0 001.5 15.85c0 1.086.864 1.95 1.95 1.95.483 0 .96-.208 1.348-.558A1.88 1.88 0 005.4 15.85c0-1.036-.914-1.95-1.95-1.95zm-1.362-1.232c.448-.217.973-.268 1.362-.268 1.864 0 3.45 1.586 3.45 3.45a3.38 3.38 0 01-1.098 2.508c-.612.55-1.435.942-2.352.942A3.439 3.439 0 010 15.85c0-1.4.876-2.662 2.088-3.182zM18.05 13.9a1.95 1.95 0 100 3.9 1.95 1.95 0 000-3.9zm-3.45 1.95a3.45 3.45 0 116.9 0 3.45 3.45 0 01-6.9 0z" />
  <path fill-rule="evenodd" clip-rule="evenodd" d="M8.75 4.423C5.465 5.336 3.1 8.299 3.1 11.8c0 .401.045.81.095 1.267l-1.49.166-.002-.018A12.79 12.79 0 011.6 11.8c0-4.199 2.836-7.736 6.75-8.823l.4 1.446zM5.602 17.442c1.373 1.236 3.197 2.008 5.148 2.008 1.999 0 3.774-.77 5.148-2.008l1.004 1.116c-1.626 1.462-3.75 2.392-6.152 2.392-2.349 0-4.525-.928-6.152-2.392l1.004-1.116zM18.35 11.8c0-3.276-2.046-6.054-4.963-7.148l.526-1.404c3.483 1.306 5.937 4.628 5.937 8.552 0 .492-.054.977-.103 1.415l-.002.018-1.49-.166c.05-.457.095-.866.095-1.267zM14.614 9.38l-4.012 5.732L6.97 11.48l1.06-1.06 2.368 2.368 2.988-4.268 1.228.86z" />
</svg>