<svg class="ub-color_8F95B2 ub-w_24px ub-h_24px ub-dspl_flex ub-box-szg_border-box" viewBox="0 0 24 24" style="fill: none" xmlns="http://www.w3.org/2000/svg"><path d="M14.7465 8.81416C13.5105 9.02458 12.2587 9.12857 11.0049 9.125C5.82738 9.125 1.62988 7.44583 1.62988 5.375M1.62988 5.375C1.62988 3.30417 5.82738 1.625 11.0049 1.625C16.1824 1.625 20.3882 3.30333 20.3882 5.375M1.62988 5.375V10.375M20.3882 5.375C20.3009 6.16968 19.8282 6.87053 19.124 7.24916M20.3882 5.375L20.3882 10.3742M1.62988 10.375C1.62988 12.3533 5.46321 13.9733 10.3165 14.115M1.62988 10.375V15.375C1.62988 17.6917 6.87988 19.5175 12.8799 19.0517M17.889 9.125L12.9632 14.86C12.8513 14.9914 12.8672 15.1887 12.9987 15.3005C13.0553 15.3487 13.1272 15.3751 13.2015 15.375H15.389V20.375L20.314 14.6392C20.4258 14.5083 20.4104 14.3116 20.2796 14.1997C20.223 14.1514 20.1509 14.1249 20.0765 14.125H17.889V9.125Z" stroke="#8F95B2" stroke-width="1.5" stroke-linecap="round" stroke-linejoin="round"></path></svg>