<?xml version="1.0" encoding="UTF-8"?>
<svg width="294.5" height="75.5" id="Constructor" xmlns="http://www.w3.org/2000/svg" viewBox="175 0 294.5 151" margin="5px;">
  <defs>
    <style>
      .cls-1 {
        fill: none;
        opacity: 0;
      }

      .cls-2 {
        fill: #ef373c;
      }

      .cls-3 {
        fill: #fff;
      }
    </style>
  </defs>
  <path class="cls-1" d="M.5.5v137.66h410.4V.5H.5Z"/>
  <g>
    <g>
      <rect class="cls-3" x="179.04" y="31.19" width="7.04" height="4.46" rx=".37" ry=".37"/>
      <rect class="cls-3" x="179.01" y="36.77" width="7.04" height="17.01" rx=".37" ry=".37"/>
      <rect class="cls-3" x="170.74" y="31.19" width="7.04" height="22.59" rx=".37" ry=".37"/>
      <rect class="cls-3" x="162.46" y="31.19" width="7.04" height="4.46" rx=".37" ry=".37"/>
      <path class="cls-3" d="M169.12,36.77h-12.74c-.22,0-.34.09-.4.34l-1.46,7-1.49-7c-.03-.22-.19-.34-.4-.34h-5.95c-.22,0-.37.12-.4.34l-1.49,7.07-1.39-7.07c-.06-.25-.19-.34-.4-.34h-10.2v-5.3c0-.28-.19-.4-.5-.31l-6.11,1.98c-.22.06-.34.25-.34.46v2.32c0,.65-.34.93-.99.93h-1.33c-.22,0-.37.15-.37.37v4.56c0,.22.15.37.37.37h2.23v5.73c0,4,1.46,6.14,6.26,6.14,1.86,0,3.32-.31,4.12-.68.25-.12.31-.28.31-.53v-4.46c0-.25-.22-.37-.53-.22-.4.19-.81.28-1.27.28-1.24,0-1.86-.46-1.86-2.01v-4.25h3.25c.22,0,.37-.16.37-.37v-3.97l4.12,15.65c.06.22.22.31.46.31h6.07c.22,0,.31-.09.37-.31l1.98-7.16,1.92,7.16c.06.22.15.31.37.31h6.17c.25,0,.4-.09.46-.31l4.09-15.53v15.46c0,.22.15.37.37.37h6.29c.22,0,.37-.15.37-.37v-16.27c0-.22-.15-.37-.37-.37Z"/>
      <path class="cls-3" d="M196.43,36.49c-5.67,0-9.42,3.5-9.42,8.55v.4c0,5.05,3.75,8.58,9.42,8.58s9.42-3.53,9.42-8.58v-.4c0-5.05-3.75-8.55-9.42-8.55ZM198.75,45.36c0,2.29-.96,3.22-2.32,3.22s-2.32-.93-2.32-3.22v-.22c0-2.32.96-3.25,2.32-3.25s2.32.93,2.32,3.25v.22Z"/>
    </g>
    <g>
      <path class="cls-2" d="M69.38,31.24c-21.13,0-38.26,17.01-38.26,38.07s17.13,38.26,38.26,38.26,38.2-17.13,38.2-38.26-17.13-38.07-38.2-38.07ZM69.38,97.55c-15.55,0-28.24-12.75-28.24-28.24s12.69-28.11,28.24-28.11,28.11,12.56,28.11,28.11-12.56,28.24-28.11,28.24Z"/>
      <path class="cls-2" d="M78.83,51.86c-4.31,0-7.93,3.68-7.93,8.06s3.62,7.87,7.93,7.87,7.93-3.55,7.93-7.87-3.49-8.06-7.93-8.06Z"/>
      <path class="cls-2" d="M78.83,51.86c-4.31,0-7.93,3.68-7.93,8.06s3.62,7.87,7.93,7.87,7.93-3.55,7.93-7.87-3.49-8.06-7.93-8.06Z"/>
      <path class="cls-2" d="M78.83,51.86c-4.31,0-7.93,3.68-7.93,8.06s3.62,7.87,7.93,7.87,7.93-3.55,7.93-7.87-3.49-8.06-7.93-8.06Z"/>
      <path class="cls-2" d="M78.83,70.96c-4.31,0-7.93,3.49-7.93,7.93s3.62,7.93,7.93,7.93,7.93-3.55,7.93-7.93-3.49-7.93-7.93-7.93Z"/>
      <path class="cls-2" d="M78.83,70.96c-4.31,0-7.93,3.49-7.93,7.93s3.62,7.93,7.93,7.93,7.93-3.55,7.93-7.93-3.49-7.93-7.93-7.93Z"/>
      <path class="cls-2" d="M78.83,70.96c-4.31,0-7.93,3.49-7.93,7.93s3.62,7.93,7.93,7.93,7.93-3.55,7.93-7.93-3.49-7.93-7.93-7.93Z"/>
      <path class="cls-2" d="M59.8,51.86c-4.44,0-7.93,3.68-7.93,8.06s3.49,7.87,7.93,7.87,7.99-3.55,7.99-7.87-3.62-8.06-7.99-8.06Z"/>
      <path class="cls-2" d="M59.8,51.86c-4.44,0-7.93,3.68-7.93,8.06s3.49,7.87,7.93,7.87,7.99-3.55,7.99-7.87-3.62-8.06-7.99-8.06Z"/>
      <path class="cls-2" d="M59.8,51.86c-4.44,0-7.93,3.68-7.93,8.06s3.49,7.87,7.93,7.87,7.99-3.55,7.99-7.87-3.62-8.06-7.99-8.06Z"/>
      <path class="cls-2" d="M59.8,70.96c-4.44,0-7.93,3.49-7.93,7.93s3.49,7.93,7.93,7.93,7.99-3.55,7.99-7.93-3.62-7.93-7.99-7.93Z"/>
      <path class="cls-2" d="M59.8,70.96c-4.44,0-7.93,3.49-7.93,7.93s3.49,7.93,7.93,7.93,7.99-3.55,7.99-7.93-3.62-7.93-7.99-7.93Z"/>
      <path class="cls-2" d="M59.8,70.96c-4.44,0-7.93,3.49-7.93,7.93s3.49,7.93,7.93,7.93,7.99-3.55,7.99-7.93-3.62-7.93-7.99-7.93Z"/>
    </g>
    <g>
      <path class="cls-3" d="M123.17,102.39v-6.22c4.67,3.98,10.15,6.04,16.18,6.04,5.17,0,8.65-2.55,8.65-7.97s-4.48-5.98-10.27-6.85c-8.03-1.31-15.06-2.68-15.06-12.39,0-9.02,6.35-13.94,15.62-13.94,6.66,0,11.89,1.93,15,4.17v5.85c-4.11-3.11-9.77-4.79-15.12-4.79s-9.02,2.8-9.02,7.9,4.17,6.16,9.9,7.1c8.03,1.37,15.44,2.43,15.44,12.2,0,9.09-6.22,14.13-15,14.13-7.28,0-12.38-2.18-16.31-5.23Z"/>
      <path class="cls-3" d="M159.33,89.94v-.87c0-10.52,6.6-17.43,15.62-17.43s14.44,5.48,14.44,16.74v2.86h-23.71c.37,7.66,5.35,11.27,12.63,11.27,3.73,0,7.03-1,10.08-2.74v5.04c-2.24,1.31-5.85,2.8-11.33,2.8-10.95,0-17.74-6.16-17.74-17.68ZM165.68,86.89h17.55c-.31-7.03-3.48-10.52-8.46-10.52-5.29,0-8.71,3.92-9.09,10.52Z"/>
      <path class="cls-3" d="M192.38,113.53c0-3.17,2.61-5.98,8.53-7.41-4.54-.5-6.47-2.37-6.47-4.79,0-2.8,2.3-5.04,7.66-6.29-5.1-1.68-7.59-5.85-7.59-10.52,0-7.66,6.29-12.01,13.76-12.01h17.24v4.98h-6.54c1.74,1.49,2.86,4.05,2.86,6.78,0,7.1-5.73,11.64-13.88,11.64h-1.06c-2.61,0-6.54,1.06-6.54,3.42,0,1.31,1.37,2.05,4.92,2.05h9.09c7.1,0,11.14,2.24,11.14,7.78,0,6.41-6.04,11.08-18.24,11.08h-1.43c-8.15,0-13.44-2.43-13.44-6.72ZM219.33,110.29c0-2.74-2.24-3.67-6.54-3.67h-5.41c-5.23,0-8.71,2.18-8.71,5.04s3.61,3.86,8.34,3.86h1.31c7.47,0,11.02-2.3,11.02-5.23ZM215.85,84.21c0-4.23-2.43-7.53-7.59-7.53s-7.72,3.36-7.72,7.66c0,4.05,2.37,7.47,7.66,7.47s7.66-3.73,7.66-7.59Z"/>
      <path class="cls-3" d="M231.1,72.51h6.16v7.78c2.43-5.1,6.47-8.71,12.01-8.71,5.17,0,8.9,3.24,9.71,9.15,2.49-5.66,6.54-9.15,12.2-9.15,6.22,0,10.39,3.98,10.39,12.45v22.72h-6.35v-21.22c0-5.66-2.43-8.71-6.85-8.71-3.73,0-6.22,2.3-7.53,4.92-.93,1.68-1.31,3.73-1.31,5.6l-.12,19.42h-6.22v-20.98c0-6.04-2.43-8.96-6.85-8.96-4.05,0-6.29,2.3-7.59,4.92-.87,1.68-1.31,3.67-1.31,5.6v19.42h-6.35v-34.23Z"/>
      <path class="cls-3" d="M288.05,89.94v-.87c0-10.52,6.6-17.43,15.62-17.43s14.44,5.48,14.44,16.74v2.86h-23.71c.37,7.66,5.35,11.27,12.63,11.27,3.74,0,7.03-1,10.08-2.74v5.04c-2.24,1.31-5.85,2.8-11.33,2.8-10.95,0-17.74-6.16-17.74-17.68ZM294.4,86.89h17.55c-.31-7.03-3.49-10.52-8.46-10.52-5.29,0-8.71,3.92-9.09,10.52Z"/>
      <path class="cls-3" d="M324.84,72.51h6.16v8.09c2.37-5.54,6.54-8.96,12.45-8.96,6.54,0,10.64,4.23,10.64,12.57v22.53h-6.35v-21.16c0-5.66-2.68-8.71-7.16-8.71-3.8,0-6.54,2.05-8.03,5.04-.87,1.56-1.37,3.42-1.37,5.35v19.48h-6.35v-34.23Z"/>
      <path class="cls-3" d="M365.05,97.97v-20.42h-6.35v-4.73l2.8-.06c1.99-.06,3.67-.62,3.92-4.17l.56-6.91h5.48v10.83h8.9v5.04h-8.96v19.54c0,3.61,1.99,5.29,5.35,5.29,1.06,0,2.62-.25,3.42-.5v4.54c-1.06.5-3.3,1.06-5.6,1.06-6.35,0-9.52-2.99-9.52-9.52Z"/>
    </g>
  </g>
</svg>