<svg width="122" height="24" xmlns="http://www.w3.org/2000/svg"><path d="M21.264 12.86h.08l1.64.169a.453.453 0 01.4.51 12.024 12.024 0 01-3.8 7.343A11.826 11.826 0 0111.577 24a11.77 11.77 0 01-4.292-.804.449.449 0 01-.252-.247.446.446 0 01-.001-.352l.634-1.534a.446.446 0 01.573-.25 9.242 9.242 0 003.338.618c2.333 0 4.567-.87 6.291-2.45a9.454 9.454 0 002.984-5.73.447.447 0 01.49-.39zM60.932 6.23c1.302 0 2.338.385 3.025 1.117l.133.15v-.686c0-.178.123-.328.286-.362l.072-.008h1.832c.174 0 .318.127.352.296l.007.074v10.296c0 1.639-.432 3.037-1.25 4.044-.987 1.217-2.486 1.834-4.457 1.834-2.74 0-4.9-1.75-5.255-4.257a.372.372 0 01.21-.39l.065-.022 1.792-.426a.35.35 0 01.284.054.367.367 0 01.15.25c.214 1.449 1.32 2.423 2.754 2.423 2.067 0 3.067-1.021 3.132-3.209l.003-.23v-.902c-.72.866-1.85 1.358-3.135 1.358-3.043 0-5.251-2.393-5.251-5.69 0-1.558.514-2.993 1.446-4.04.961-1.08 2.312-1.674 3.805-1.674zM4.017 18.685c.744 0 1.348.61 1.348 1.36 0 .751-.604 1.36-1.348 1.36-.746 0-1.35-.609-1.35-1.36 0-.75.604-1.36 1.35-1.36zM116.72 3.718h1.805c.187 0 .343.125.38.289l.007.072v3.128h2.17c.186 0 .342.124.378.29l.008.072v1.662a.37.37 0 01-.309.354l-.078.007h-2.169v5.522c0 .934.397 1.298 1.415 1.298.193 0 .471-.022.691-.056a.408.408 0 01.314.082c.065.052.11.12.127.197l.01.078v1.556c0 .16-.114.301-.277.346a6.016 6.016 0 01-1.529.182c-2.102 0-3.435-1.204-3.522-3.157l-.004-.204V9.592h-1.874a.382.382 0 01-.379-.288l-.008-.073V7.569c0-.175.133-.32.31-.355l.077-.007h.484c.566 0 1.497-.175 1.58-1.312l.007-.17V4.08a.37.37 0 01.309-.354l.078-.007h1.804zM35.418 6.231c1.504 0 2.726.354 3.633 1.052a3.81 3.81 0 011.316 1.835c.049.152-.028.309-.182.388l-.07.03-1.837.585a.474.474 0 01-.335-.02.363.363 0 01-.205-.227c-.152-.542-.656-1.454-2.32-1.454-1.147 0-1.831.614-1.831 1.208 0 .524.357.875 1.064 1.043l.17.036 2.024.376c2.316.432 3.645 1.66 3.645 3.37 0 1.7-1.687 3.506-4.813 3.506-3.615 0-5.035-1.978-5.302-3.147-.033-.143.047-.29.189-.366l.075-.03 1.891-.57a.468.468 0 01.339.027.356.356 0 01.198.239c.228 1.039 1.213 1.658 2.636 1.658 1.3 0 1.883-.606 1.883-1.207 0-.531-.45-.938-1.242-1.13l-.175-.038-2.127-.398c-2.04-.371-3.307-1.595-3.307-3.192 0-1.937 2.144-3.574 4.683-3.574zm12.23 0c3.39 0 5.495 2.218 5.495 5.787 0 .186-.011.392-.03.562a.353.353 0 01-.282.303l-.076.008h-7.919c.138 1.66 1.397 2.813 3.087 2.813 1.408 0 2.362-.633 2.836-1.883a.362.362 0 01.385-.223l.07.016 1.58.53c.09.03.165.093.207.177a.335.335 0 01.016.265c-.749 2.08-2.701 3.373-5.094 3.373-1.55 0-2.978-.55-4.023-1.55-1.127-1.08-1.723-2.583-1.723-4.347 0-3.65 2.782-5.83 5.472-5.83zm34.315 0c1.97 0 3.957 1.28 4.072 4.129l.006.263V17.6a.362.362 0 01-.293.352l-.073.007h-1.87a.365.365 0 01-.358-.287l-.007-.072v-6.748c0-.858-.28-2.295-2.151-2.295-1.334 0-2.283.965-2.357 2.368l-.004.177V17.6a.361.361 0 01-.292.352l-.073.007H76.67a.365.365 0 01-.36-.287l-.007-.072v-6.748c0-.858-.28-2.295-2.15-2.295-1.37 0-2.306.951-2.38 2.387l-.004.182V17.6a.362.362 0 01-.292.352l-.074.007h-1.869a.365.365 0 01-.358-.287l-.007-.072V6.91c0-.173.126-.318.292-.352l.073-.007h1.8c.176 0 .324.123.358.287l.007.072v.643c.744-.831 1.914-1.322 3.174-1.322 1.465 0 2.714.686 3.368 1.842.818-1.205 2.102-1.842 3.72-1.842zm12.08 0c3.389 0 5.494 2.218 5.494 5.787 0 .186-.011.392-.03.562a.353.353 0 01-.28.303l-.077.008h-7.918c.137 1.66 1.396 2.813 3.085 2.813 1.409 0 2.363-.633 2.837-1.883a.361.361 0 01.385-.223l.07.016 1.58.53c.091.03.165.093.207.177a.335.335 0 01.016.265c-.749 2.08-2.701 3.373-5.095 3.373-1.549 0-2.977-.55-4.022-1.55-1.127-1.08-1.724-2.583-1.724-4.347 0-3.65 2.782-5.83 5.472-5.83zm13.885 0c1.345 0 2.453.46 3.204 1.33.643.745 1.004 1.759 1.053 2.945l.005.277V17.6a.363.363 0 01-.295.352l-.074.007h-1.913a.368.368 0 01-.362-.287l-.007-.072v-6.452c0-1.69-.812-2.545-2.41-2.545-.75 0-1.37.276-1.793.798-.357.443-.57 1.062-.61 1.762l-.006.236V17.6a.363.363 0 01-.295.352l-.075.007h-1.912a.368.368 0 01-.363-.287l-.007-.072V6.91c0-.173.127-.318.296-.352l.074-.007h1.866c.178 0 .327.123.361.287l.008.072v.746c.786-.921 1.934-1.425 3.255-1.425zm-94.11 7.094c.246 0 .449.203.449.453v1.662c0 .25-.203.453-.45.453H.45A.452.452 0 010 15.44v-1.662c0-.25.202-.453.45-.453zm47.434-4.773c-1.794 0-2.953 1.332-2.953 3.393 0 2.092 1.131 3.392 2.953 3.392 1.737 0 2.906-1.363 2.906-3.392 0-2.03-1.169-3.393-2.906-3.393zm-13.58-.065c-1.593 0-2.505 1.083-2.73 2.163l-.025.14h5.541c-.137-1.423-1.199-2.303-2.786-2.303zm46.394 0c-1.592 0-2.504 1.083-2.728 2.163l-.026.14h5.541c-.138-1.423-1.199-2.303-2.787-2.303zM11.578 0c1.342 0 2.658.223 3.913.663a.448.448 0 01.26.237.45.45 0 01.013.353l-.582 1.555a.445.445 0 01-.566.268 9.279 9.279 0 00-3.038-.508A9.207 9.207 0 005.703 4.66a9.507 9.507 0 00-3.18 4.96.447.447 0 01-.534.327l-1.61-.369a.455.455 0 01-.336-.556 12.097 12.097 0 014.06-6.36A11.874 11.874 0 0111.577 0zM22.94 7.3c.248 0 .45.203.45.453v1.661c0 .25-.202.454-.45.454H9.572a.452.452 0 01-.45-.454v-1.66c0-.25.202-.455.45-.455zm-4.045-5.05c.744 0 1.348.61 1.348 1.36 0 .752-.604 1.36-1.348 1.36a1.354 1.354 0 01-1.35-1.36c0-.75.604-1.36 1.35-1.36z" fill="#1DC989" fill-rule="evenodd"/></svg>
