<svg viewBox="0 0 20 19" fill="none" xmlns="http://www.w3.org/2000/svg">
  <path d="M16 5a1 1 0 100-2 1 1 0 000 2z" />
  <path fill-rule="evenodd" clip-rule="evenodd" d="M18.134 11.036a8.207 8.207 0 00-.845-4.796l1.422-.733a9.807 9.807 0 01-1.406 11.026l-1.193-1.066a8.206 8.206 0 002.022-4.43zM13.76 2.711A8.202 8.202 0 003.89 15.467l-1.193 1.066A9.802 9.802 0 0114.493 1.289l-.732 1.422zM14.625 6.5l-4 5-1.25-1 4-5 1.25 1z" />
  <path fill-rule="evenodd" clip-rule="evenodd" d="M9.2 4V1h1.6v3H9.2zM5.434 6.566l-2-2 1.132-1.132 2 2-1.132 1.132zM4 10.8H1V9.2h3v1.6zM19 10.8h-3V9.2h3v1.6zM10 15.379a9.45 9.45 0 00-7.375 3.542l-1.25-1a11.05 11.05 0 0117.25 0l-1.25 1A9.449 9.449 0 0010 15.38z" />
</svg>