<svg width="120" height="26" xmlns="http://www.w3.org/2000/svg"><g fill="#ffffff" fill-rule="evenodd"><rect fill="inherit" fill-rule="nonzero" x="9.00404858" y="8.55222672" width="14.3352227" height="2.48744939" rx="1.2437247"></rect><rect fill="inherit" fill-rule="nonzero" x="0.134412955" y="14.7676113" width="14.3352227" height="2.48744939" rx="1.2437247"></rect><path fill="inherit" d="M1.85425101,10.254251 C2.09891684,10.3174415 2.34924152,10.1735767 2.41781377,9.93036437 C3.95660601,5.11369709 8.91198483,2.26289763 13.8493927,3.35384615 C14.0887837,3.40317713 14.3249448,3.25664345 14.3870445,3.02024291 L14.7919028,1.50931174 C14.8238983,1.38674563 14.8044807,1.25643033 14.7381427,1.14851636 C14.6718046,1.04060239 14.5642943,0.964440448 14.4404858,0.937651822 C8.19714507,-0.467677281 1.92228495,3.16187102 0.0275303644,9.27449393 C-0.00721943011,9.39392123 0.00752597283,9.52230637 0.0684468981,9.63074561 C0.129367823,9.73918486 0.231343916,9.81856399 0.351417004,9.85101215 L1.85425101,10.254251 Z"></path><path fill="inherit" d="M21.6226721,15.5465587 C21.3760279,15.4802264 21.121909,15.6246122 21.0526316,15.8704453 C19.5171119,20.6903576 14.5607834,23.545214 9.62105263,22.4550607 C9.38150763,22.4048598 9.1447895,22.5517392 9.08340081,22.788664 L8.68663968,24.291498 C8.65413781,24.4142895 8.67330722,24.5450331 8.73969031,24.6533262 C8.8060734,24.7616194 8.91388559,24.8380255 9.03805668,24.8647773 C15.2813604,26.2666441 21.5543037,22.6374997 23.4510121,16.5263158 C23.486195,16.4070903 23.4716179,16.2787004 23.4106019,16.170397 C23.349586,16.0620937 23.247328,15.9831015 23.1271255,15.951417 L21.6226721,15.5465587 Z"></path><circle fill="inherit" fill-rule="nonzero" cx="18.8242915" cy="4.4582996" r="1.36356275"></circle><circle fill="inherit" fill-rule="nonzero" cx="4.65263158" cy="21.3473684" r="1.36356275"></circle><path fill="inherit" d="M56.7336032,10.4307692 C57.7393508,9.32631109 59.1703441,8.70603708 60.6639676,8.72712551 C62.0987854,8.72712551 63.2161943,9.1708502 63.9222672,10.0226721 L63.9222672,9.31659919 C63.9318993,9.11446204 64.0926907,8.95227252 64.2947368,8.94089069 L66.1862348,8.94089069 C66.3879539,8.95299734 66.5483447,9.11478285 66.5587045,9.31659919 L66.5587045,19.8186235 C66.617377,21.3005483 66.159426,22.7568325 65.2631579,23.9384615 C64.242915,25.1789474 62.6947368,25.8072874 60.6607287,25.8072874 C57.8331984,25.8072874 55.6016194,24.0178138 55.2340081,21.4623482 C55.2156117,21.2721426 55.335412,21.0958455 55.5190283,21.042915 L57.3668016,20.6089069 C57.3765028,20.6081318 57.3862503,20.6081318 57.3959514,20.6089069 C57.4932981,20.5940873 57.5925317,20.6187653 57.6715973,20.6774564 C57.7506629,20.7361474 57.8030099,20.8239887 57.817004,20.9214575 C57.9879192,22.354297 59.2214425,23.4215263 60.6639676,23.3846154 C62.8728745,23.3846154 63.902834,22.2510121 63.902834,19.8817814 L63.902834,18.9619433 C63.0822009,19.8814611 61.8957401,20.3892664 60.6639676,20.3481781 C57.5206478,20.3481781 55.2404858,17.9076923 55.2404858,14.5489879 C55.2125541,13.0389645 55.7444146,11.5720215 56.7336032,10.4307692 Z M93.4121457,8.58299595 L93.5109312,8.58299595 C96.8906883,8.62834008 98.9846154,10.9813765 98.9846154,14.7465587 C98.9843226,14.9461796 98.9735113,15.1456464 98.9522267,15.3441296 C98.930195,15.5280739 98.7747293,15.6668826 98.5894737,15.6680162 L90.5554656,15.6680162 C90.6057197,17.3554752 92.0010414,18.6902249 93.6890688,18.665587 C94.9974511,18.7473178 96.1891916,17.9154494 96.5635628,16.6591093 C96.6334612,16.473756 96.8366917,16.3760628 97.0251012,16.437247 L98.6234818,17.0040486 C98.7169355,17.0345522 98.792934,17.1034812 98.8323887,17.1935223 C98.8765818,17.2804127 98.8835954,17.3815244 98.8518219,17.4736842 C98.1074491,19.6788895 96.0090024,21.1383355 93.6825911,21.0688259 C92.1573694,21.0836898 90.6895977,20.4877174 89.6064777,19.4137652 C88.424288,18.1704804 87.7931943,16.5031322 87.8558704,14.788664 C87.8558704,10.9020243 90.6801619,8.57489879 93.4089069,8.57489879 L93.4121457,8.58299595 Z M47.9578947,8.58299595 C51.3975709,8.58299595 53.5352227,10.945749 53.5352227,14.7481781 C53.5349298,14.947799 53.5241186,15.1472659 53.502834,15.345749 C53.4828978,15.5307779 53.3261777,15.6707066 53.140081,15.6696356 L45.1060729,15.6696356 C45.1528815,17.3673525 46.5611154,18.7090443 48.2591093,18.6736842 C49.5678349,18.7566399 50.7602635,17.9242911 51.1336032,16.6672065 C51.2014823,16.4800149 51.406558,16.3814347 51.5951417,16.4453441 L53.2,17.0105263 C53.293668,17.04066 53.3697996,17.1097096 53.4089069,17.2 C53.446065,17.2896911 53.446065,17.3904709 53.4089069,17.4801619 C52.6648835,19.6841945 50.5681457,21.1433663 48.242915,21.0753036 C46.7149991,21.0917949 45.2441094,20.4957404 44.1587045,19.4202429 C42.9787247,18.1755706 42.3479959,16.5091864 42.4080972,14.7951417 C42.4080972,10.908502 45.2323887,8.58137652 47.962753,8.58137652 L47.9578947,8.58299595 Z M35.7894737,8.58299595 C37.3327935,8.58299595 38.5813765,8.95708502 39.5060729,9.69716599 C40.1305,10.1952221 40.5936541,10.8668519 40.837247,11.6275304 L40.837247,11.6275304 C40.8527223,11.6928451 40.8413935,11.7616371 40.805791,11.8185402 C40.7701885,11.8754434 40.7132786,11.9157167 40.6477733,11.9303644 L38.7319838,12.5635628 C38.6469726,12.5959375 38.5530274,12.5959375 38.4680162,12.5635628 C38.394885,12.529784 38.3399588,12.4659988 38.3174089,12.388664 C38.1554656,11.7684211 37.5983806,10.7271255 35.7862348,10.7271255 C34.5214575,10.7271255 33.7635628,11.4526316 33.7635628,12.1554656 C33.7635628,12.6218623 34.0048583,13.2226721 35.1449393,13.4396761 L37.2502024,13.8348178 C39.6032389,14.3093117 40.9506073,15.5967611 40.9506073,17.3894737 L40.9506073,17.3587045 C40.9506073,19.140081 39.237247,21.042915 36.0534413,21.042915 C32.3611336,21.042915 30.9101215,18.9538462 30.642915,17.7214575 C30.6246045,17.5882333 30.7087607,17.4623468 30.8388664,17.4283401 L32.8145749,16.8129555 C32.849908,16.8064777 32.8861244,16.8064777 32.9214575,16.8129555 C32.9778641,16.8119405 33.033599,16.8253169 33.0834008,16.8518219 C33.1559454,16.8867145 33.2093134,16.951942 33.2291498,17.0299595 C33.4785425,18.2153846 34.5489879,18.9214575 36.0890688,18.9214575 C37.5222672,18.9214575 38.1748988,18.1716599 38.1748988,17.491498 C38.1748988,16.811336 37.5935223,16.3109312 36.594332,16.1101215 L34.3789474,15.6793522 C32.3125506,15.2890688 31.0251012,14.0048583 31.0251012,12.3336032 C31.0251012,10.2995951 33.2097166,8.58299595 35.7894737,8.58299595 Z M117.174089,5.28744939 C117.38278,5.30030268 117.545335,5.47350523 117.544939,5.68259109 L117.544939,8.92145749 L119.622672,8.92145749 C119.829717,8.93670995 119.989997,9.10899377 119.990293,9.31659919 L119.990293,11.042915 C119.99119,11.2473723 119.827114,11.4143392 119.622672,11.417004 L117.544939,11.417004 L117.544939,17.1805668 C117.544939,18.1360324 117.923887,18.5311741 118.898785,18.5311741 C119.121078,18.5274483 119.342883,18.5090548 119.562753,18.4761134 C119.670432,18.4577313 119.780723,18.4879725 119.863968,18.5587045 C119.943356,18.632384 119.989021,18.7354212 119.990293,18.8437247 L119.990293,20.4631579 C119.991486,20.628701 119.883283,20.7751715 119.724696,20.8226721 C119.25051,20.955609 118.759621,21.0194245 118.267206,21.0121457 C116.184615,21.0121457 114.893927,19.6728745 114.893927,17.5125506 L114.893927,11.4412955 L113.096356,11.4412955 C112.894943,11.4291174 112.735062,11.2671415 112.725499,11.065587 L112.725499,9.33603239 C112.724297,9.1266262 112.887294,8.95295195 113.096356,8.94089069 L113.562753,8.94089069 C114.127935,8.94089069 115.080162,8.74331984 115.080162,7.39595142 L115.080162,5.68259109 C115.078953,5.4731849 115.24195,5.29951066 115.451012,5.28744939 L117.174089,5.28744939 Z M78.1781377,10.5133603 C79.0044911,9.2504216 80.4355114,8.51675438 81.9433198,8.58299595 L81.9433198,8.58299595 C83.9967611,8.58299595 86.0712551,10.0291498 86.0712551,13.188664 L86.0712551,20.5020243 C86.0608953,20.7038406 85.9005045,20.8656261 85.6987854,20.8777328 L83.805668,20.8777328 C83.6045821,20.864836 83.4450965,20.7032611 83.4348178,20.5020243 L83.4348178,13.4234818 C83.4348178,12.5279352 83.1546559,11.0186235 81.2582996,11.0186235 C79.8720648,11.0186235 78.8874494,12.108502 78.8874494,13.6890688 L78.8874494,20.5020243 C78.8778936,20.7035787 78.7180122,20.8655546 78.5165992,20.8777328 L76.5991903,20.8777328 C76.3974712,20.8656261 76.2370804,20.7038406 76.2267206,20.5020243 L76.2267206,13.4234818 C76.2299595,12.5279352 75.951417,11.0121457 74.0534413,11.0121457 C72.6121457,11.0121457 71.6404858,12.0939271 71.6404858,13.7052632 L71.6404858,20.5020243 C71.6302072,20.7032611 71.4707216,20.864836 71.2696356,20.8777328 L69.3781377,20.8777328 C69.1779923,20.8639754 69.0199205,20.7024218 69.0105263,20.5020243 L69.0105263,9.29230769 C69.0206339,9.09222154 69.1783192,8.93106301 69.3781377,8.91659919 L71.1983806,8.91659919 C71.3994665,8.92949598 71.5589521,9.09107092 71.5692308,9.29230769 L71.5692308,9.96761134 C72.3893343,9.07042972 73.5538153,8.56656772 74.7692308,8.58299595 C76.1762533,8.54180936 77.4896972,9.28557428 78.1781377,10.5133603 Z M107.021862,8.58299595 C108.248594,8.53053558 109.43141,9.04462143 110.22996,9.97732794 C110.965198,10.9451932 111.339239,12.139492 111.287449,13.3538462 L111.287449,20.5020243 C111.278859,20.7021589 111.121298,20.863903 110.921457,20.8777328 L109.005668,20.8777328 C108.804273,20.8649116 108.644275,20.7035228 108.633198,20.5020243 L108.633198,13.7360324 C108.633198,11.9659919 107.80081,11.065587 106.220243,11.065587 C105.522493,11.0430954 104.855676,11.3539559 104.424291,11.902834 C103.99586,12.5191562 103.779318,13.2580144 103.807287,14.0080972 L103.807287,20.5020243 C103.797009,20.7032611 103.637523,20.864836 103.436437,20.8777328 L101.523887,20.8777328 C101.322801,20.864836 101.163315,20.7032611 101.153036,20.5020243 L101.153036,9.28421053 C101.161049,9.08170502 101.32155,8.91840025 101.523887,8.90688259 L103.392713,8.90688259 C103.592599,8.9198474 103.750852,9.08088969 103.760324,9.28097166 L103.760324,10.0712551 C104.562908,9.10276601 105.764364,8.55453475 107.021862,8.58299595 Z M60.9927126,11.0898785 C59.1271255,11.0898785 57.9433198,12.4161943 57.9433198,14.5489879 C57.9433198,16.6817814 59.1125506,18.0064777 60.9927126,18.0064777 C62.7854251,18.0064777 63.9935223,16.6153846 63.9935223,14.5489879 C63.9935223,12.4825911 62.7854251,11.0898785 60.9927126,11.0898785 Z M47.9773279,10.982996 C46.5508451,10.9583677 45.3399382,12.0233484 45.1821862,13.4412955 L50.8016194,13.4412955 C50.6672065,11.9238866 49.588664,10.982996 47.9773279,10.982996 L47.9773279,10.982996 Z M93.442915,10.982996 C92.0179453,10.9608197 90.8093742,12.0249793 90.6510121,13.4412955 L96.2720648,13.4412955 C96.1327935,11.9238866 95.0607287,10.982996 93.4412955,10.982996 L93.442915,10.982996 Z"></path><polygon fill="inherit" fill-rule="nonzero" points="33.8121457 1.00242915 33.8121457 4.76923077 32.7449393 4.76923077 32.7449393 1.00242915 31.2696356 1.00242915 31.2696356 0.0890688259 35.3036437 0.0890688259 35.3036437 1.00242915"></polygon><polygon fill="inherit" fill-rule="nonzero" points="41.9643725 4.7854251 40.8550607 4.7854251 39.8380567 1.33603239 38.8032389 4.7854251 37.7165992 4.7854251 36.340081 0.0890688259 37.4736842 0.0890688259 38.3465587 3.47206478 39.3311741 0.0890688259 40.4647773 0.0890688259 41.4364372 3.47206478 42.2817814 0.0890688259 43.3246964 0.0890688259"></polygon><polygon fill="inherit" fill-rule="nonzero" points="44.7935223 4.76923077 44.7935223 0.0890688259 45.8445344 0.0890688259 45.8445344 4.76923077"></polygon><polygon fill="inherit" fill-rule="nonzero" points="47.7360324 4.76923077 47.7360324 0.0890688259 48.8032389 0.0890688259 48.8032389 3.84777328 50.6299595 3.84777328 50.6299595 4.76923077"></polygon><polygon fill="inherit" fill-rule="nonzero" points="52.2202429 4.76923077 52.2202429 0.0890688259 53.2793522 0.0890688259 53.2793522 4.76923077"></polygon><path fill="inherit" d="M57.2421053,4.8582996 C55.9465587,4.8582996 54.9101215,3.92874494 54.9101215,2.43724696 C54.9101215,0.945748988 55.9611336,0.00809716599 57.2502024,0.00809716599 C58.5392713,0.00809716599 59.5805668,0.937651822 59.5805668,2.43724696 C59.5805668,3.93684211 58.5376518,4.8582996 57.2421053,4.8582996 Z M57.2421053,0.864777328 C56.4323887,0.864777328 55.9611336,1.53198381 55.9611336,2.4291498 C55.9611336,3.32631579 56.4469636,4.00161943 57.2421053,4.00161943 C58.037247,4.00161943 58.5052632,3.31821862 58.5052632,2.43724696 C58.5052632,1.5562753 58.0323887,0.864777328 57.2502024,0.864777328 L57.2421053,0.864777328 Z" fill-rule="nonzero"></path></g></svg>