<?xml version="1.0" encoding="UTF-8"?>
<svg id="Capa_2" data-name="Capa 2" xmlns="http://www.w3.org/2000/svg" viewBox="0 0 29.39 28.13">
  <defs>
    <style>
      .color-1 {
        fill: #8f95b2;
      }

      .color-1, .color-2 {
        stroke-width: 0px;
      }

      .color-2 {
        fill: #8f95b2;
      }
    </style>
  </defs>
  <g id="Layer_1" data-name="Layer 1">
    <g>
      <g>
        <path class="color-1" d="M14.51,13.51c-2.51,0-4.55-2.04-4.55-4.55s2.04-4.55,4.55-4.55,4.55,2.04,4.55,4.55-2.04,4.55-4.55,4.55ZM14.51,6.41c-1.41,0-2.55,1.15-2.55,2.55s1.15,2.55,2.55,2.55,2.55-1.15,2.55-2.55-1.15-2.55-2.55-2.55Z"/>
        <path class="color-1" d="M21.13,20.92h-13.03c-.55,0-1-.45-1-1,0-4.14,3.37-7.51,7.51-7.51s7.51,3.37,7.51,7.51c0,.55-.45,1-1,1ZM9.19,18.92h10.85c-.47-2.56-2.72-4.51-5.42-4.51s-4.95,1.95-5.42,4.51Z"/>
      </g>
      <g>
        <path class="color-1" d="M27.54,13.17c-.49,0-.92-.36-.99-.86-.85-5.88-5.99-10.31-11.94-10.31S4,6.01,2.82,11.53c-.12.54-.65.89-1.19.77-.54-.12-.88-.65-.77-1.19C2.24,4.67,8.02,0,14.61,0c6.94,0,12.92,5.17,13.92,12.02.08.55-.3,1.05-.85,1.13-.05,0-.1.01-.15.01Z"/>
        <g>
          <polygon class="color-2" points="26.6 11.93 28.47 11.93 27.54 13.39 26.6 11.93"/>
          <path class="color-1" d="M27.45,14.39c-.34,0-.66-.17-.84-.46l-.94-1.46c-.2-.31-.21-.7-.03-1.02.18-.32.51-.52.88-.52h1.87c.37,0,.7.2.88.52.18.32.16.71-.03,1.02l-.94,1.46c-.18.29-.5.46-.84.46Z"/>
        </g>
      </g>
      <g>
        <path class="color-1" d="M14.61,28.13c-6.74,0-12.55-4.8-13.81-11.4-.1-.54.25-1.07.79-1.17.55-.1,1.07.25,1.17.79,1.08,5.67,6.07,9.78,11.85,9.78,5.44,0,10.22-3.66,11.64-8.9.15-.53.69-.85,1.23-.7.53.14.85.69.7,1.23-1.66,6.11-7.24,10.38-13.57,10.38Z"/>
        <g>
          <polygon class="color-2" points="2.72 16.59 .85 16.59 1.78 15.13 2.72 16.59"/>
          <path class="color-1" d="M2.87,17.59h-1.87c-.37,0-.7-.2-.88-.52-.18-.32-.16-.71.03-1.02l.94-1.46c.37-.58,1.32-.58,1.69,0l.94,1.46c.2.31.21.7.03,1.02-.18.32-.51.52-.88.52Z"/>
        </g>
      </g>
    </g>
  </g>
</svg>