<svg class="ub-w_24px ub-h_24px ub-dspl_flex ub-box-szg_border-box" viewBox="0 0 24 24" fill="none" xmlns="http://www.w3.org/2000/svg"><path d="M3.95 20.5V20.55H4H11.2561H11.3061V20.5V19.2195V19.1695H11.2561H5.33567C5.6559 16.0613 8.14394 13.6311 11.2182 13.3363L11.2634 13.332V13.2866V12.0061V11.9517L11.2092 11.9563C7.17155 12.2999 3.95 15.6931 3.95 19.8597V20.5ZM11.2473 11.1163L11.3061 11.1268V11.0671V9.74391V9.70455L11.2678 9.69531C10.0519 9.40182 9.17195 8.31174 9.17195 7.05489C9.17195 5.79804 10.0519 4.70796 11.2678 4.41447L11.3061 4.40523V4.36586V3.08538V3.02719L11.2486 3.03595C9.26095 3.33841 7.79146 5.02387 7.79146 7.05489C7.79146 9.08656 9.30409 10.7708 11.2473 11.1163ZM16.8049 6.36463H15.4818C15.4346 6.08498 15.3184 5.80903 15.201 5.57092L16.1146 4.65731L16.15 4.62195L16.1146 4.5866L15.2183 3.69025L15.183 3.6549L15.1476 3.69025L14.3246 4.51326C14.1747 4.40099 14.0214 4.28834 13.8671 4.20726V3V2.95H13.8171H12.5366H12.4866V3V5.17683V5.22047L12.5299 5.22637C13.4472 5.35146 14.1939 6.10116 14.1939 7.05488C14.1939 8.01036 13.4457 8.80007 12.5321 8.88313L12.4866 8.88727V8.93293V11.1098V11.1598H12.5366H13.8171H13.8671V11.1098V9.9025C14.0214 9.82142 14.1747 9.70877 14.3246 9.5965L15.1476 10.4195L15.183 10.4549L15.2183 10.4195L16.1146 9.52316L16.15 9.48781L16.1146 9.45245L15.201 8.53883C15.3184 8.30073 15.4346 8.02478 15.4818 7.74512H16.8049H16.8549V7.69512V6.41463V6.36463H16.8049ZM19.559 17.002L19.6051 16.979L19.5807 16.9336L18.9831 15.8238L18.9601 15.7811L18.9168 15.8028L17.8478 16.3373C17.513 15.8044 17.0638 15.3128 16.6135 14.8998L17.3168 13.7827L17.3437 13.74L17.3007 13.7135L16.1909 13.0306L16.1484 13.0044L16.1221 13.0469L15.4647 14.1153C14.9699 13.8314 14.3986 13.5881 13.8245 13.4597V11.9634V11.9134H13.7745H12.494H12.444V11.9634V14.5671V14.6135L12.4903 14.6169C15.3243 14.8284 17.566 17.1972 17.566 20.0731V20.5V20.55H17.616H20.1769H20.2269V20.5V19.2195V19.1695H20.1769H18.897C18.8135 18.6006 18.6901 18.0684 18.4898 17.5367L19.559 17.002ZM12.5416 15.7978L12.4866 15.7923V15.8476V17.1281V17.1713L12.5293 17.1775C13.9567 17.3874 15.0476 18.6048 15.0476 20.0732V20.5V20.55H15.0976H16.3781H16.4281V20.5V20.0732C16.4281 17.8702 14.7008 16.0137 12.5416 15.7978Z" fill="#8F95B2" stroke="#8F95B2" stroke-width="0.1"></path></svg>
