<?xml version="1.0" encoding="UTF-8"?>
<svg width="32px" height="32px" viewBox="0 0 32 32" version="1.1" xmlns="http://www.w3.org/2000/svg" xmlns:xlink="http://www.w3.org/1999/xlink">
    <!-- Generator: Sketch 53.2 (72643) - https://sketchapp.com -->
    <title>icon-s-tech-support</title>
    <desc>Created with Sketch.</desc>
    <g id="icon-s-tech-support" stroke="none" stroke-width="1" fill="none" fill-rule="evenodd" stroke-linecap="round" stroke-linejoin="round">
        <g id="Group-9-Copy" transform="translate(4.000000, 4.000000)" stroke="#52bd95" stroke-width="1.5">
            <path d="M21.0916,8.35 L17.9406,7.506 L17.0966,4.356 L20.0746,1.377 L17.7436,0.785 C17.3576,0.687 16.9486,0.799 16.6666,1.08 L14.6466,3.1 C14.3076,3.44 14.1376,3.912 14.1816,4.388 L14.4526,7.31 C14.5356,8.211 14.1726,9.096 13.4826,9.683 C7.9216,14.415 2.0776,19.728 1.5046,20.301 C0.4986,21.306 0.4986,22.938 1.5046,23.943 C2.5096,24.949 4.1396,24.949 5.1456,23.943 C5.7186,23.37 11.0316,17.526 15.7636,11.964 C16.3506,11.275 17.2356,10.912 18.1376,10.995 L21.0586,11.265 C21.5356,11.31 22.0066,11.139 22.3456,10.8 L24.3656,8.781 C24.6476,8.498 24.7596,8.089 24.6616,7.704 L24.0696,5.372 L21.0916,8.35 Z" id="Stroke-1"></path>
            <polygon id="Stroke-3" points="4.9353 3.4643 7.5723 8.1633 2.8733 5.5273 1.3413 3.9953 3.4033 1.9323"></polygon>
            <path d="M7.5721,8.1635 L9.2561,9.8485" id="Stroke-5"></path>
            <path d="M14.2801,17.7045 C17.2031,21.1325 19.2771,23.5095 19.7101,23.9425 C20.7151,24.9485 22.3461,24.9485 23.3511,23.9425 C24.3571,22.9365 24.3571,21.3065 23.3511,20.3015 C22.9091,19.8595 20.4431,17.7085 16.8991,14.6885" id="Stroke-7"></path>
        </g>
    </g>
</svg>
