<svg xmlns="http://www.w3.org/2000/svg" width="48" height="48">
  <g fill="none" fill-rule="nonzero">
    <rect width="48" height="48" fill="#DBF1E6" rx="24"/>
    <g fill="#49B882">
      <path d="M19.8 16.2V15h-6v-4.8a.6.6 0 0 0-1.2 0v24.6c0 .3.3.6.6.6h6.6v-1.2h-6v-8.4h6v-1.2h-6v-8.4h6zM34.8 19.2H21.6a.6.6 0 0 1-.6-.6v-6c0-.3.3-.6.6-.6h13.2c.3 0 .6.3.6.6v6c0 .3-.3.6-.6.6zM34.8 38.4H21.6a.6.6 0 0 1-.6-.6v-6c0-.3.3-.6.6-.6h13.2c.3 0 .6.3.6.6v6c0 .3-.3.6-.6.6zM34.8 28.8H21.6a.6.6 0 0 1-.6-.6v-6c0-.3.3-.6.6-.6h13.2c.3 0 .6.3.6.6v6c0 .3-.3.6-.6.6z"/>
    </g>
  </g>
</svg>
