<?xml version="1.0" encoding="UTF-8"?>
<svg width="15px" height="15px" viewBox="0 0 15 15" version="1.1" xmlns="http://www.w3.org/2000/svg" xmlns:xlink="http://www.w3.org/1999/xlink">
    <!-- Generator: Sketch 55.2 (78181) - https://sketchapp.com -->
    <title>Group 8</title>
    <desc>Created with Sketch.</desc>
    <g id="docs-design-final" stroke="none" stroke-width="1" fill="none" fill-rule="evenodd">
        <g id="1.1-docs-home" transform="translate(-33.000000, -151.000000)" fill="#12424A" fill-rule="nonzero">
            <g id="Group-8" transform="translate(33.000000, 151.000000)">
                <path d="M14.4663851,5.53327703 L11.4527027,5.53327703 C11.189457,5.53355633 10.9761239,5.74688945 10.9758446,6.01013514 L10.9758446,7.20861486 L9.21942568,7.20861486 C9.05150126,7.20861486 8.91537162,7.3447445 8.91537162,7.51266892 C8.91537162,7.68059334 9.05150126,7.81672297 9.21942568,7.81672297 L10.9773649,7.81672297 L10.9773649,9.0152027 C10.9776442,9.27844838 11.1909773,9.4917815 11.454223,9.49206081 L14.4663851,9.49206081 C14.7296308,9.4917815 14.9429639,9.27844838 14.9432432,9.0152027 L14.9432432,6.01013514 C14.9429639,5.74688945 14.7296308,5.53355633 14.4663851,5.53327703 Z M14.3351351,8.8839527 L11.585473,8.8839527 L11.585473,7.58158784 C11.5907539,7.55899201 11.5934737,7.5358734 11.5935811,7.51266892 C11.5935174,7.4894618 11.590797,7.46633826 11.585473,7.44375 L11.585473,6.14138514 L14.3351351,6.14138514 L14.3351351,8.8839527 Z" id="Shape"></path>
                <path d="M14.5211149,8.8817842e-16 L11.4653716,8.8817842e-16 C11.2004467,0.00027930959 10.9857523,0.214973724 10.985473,0.479898649 L10.985473,1.69611486 L8.1035473,1.69611486 C7.57198277,1.69443263 7.13962466,2.12384181 7.13766892,2.65540541 L7.13766892,5.73496622 C7.13766892,5.90289063 7.27379856,6.03902027 7.44172297,6.03902027 C7.60964739,6.03902027 7.74577703,5.90289063 7.74577703,5.73496622 L7.74577703,2.65540541 C7.74910821,2.46068304 7.90880385,2.30505897 8.1035473,2.30675676 L10.985473,2.30675676 L10.985473,3.54375 C10.9857523,3.80867493 11.2004467,4.02336934 11.4653716,4.02364865 L14.5211149,4.02364865 C14.7856439,4.02281167 14.9997223,3.80828022 15,3.54375 L15,0.480405405 C15,0.215677397 14.7858415,0.00083774686 14.5211149,8.8817842e-16 Z M14.3918919,3.41554054 L11.5935811,3.41554054 L11.5935811,0.608108108 L14.3918919,0.608108108 L14.3918919,3.41554054 Z" id="Shape"></path>
                <path d="M14.4613176,10.9839527 L11.4592905,10.9839527 C11.1952052,10.984232 10.9811915,11.1982458 10.9809122,11.4623311 L10.9809122,12.6876689 L8.1035473,12.6876689 C7.90880385,12.6893667 7.74910821,12.5337426 7.74577703,12.3390203 L7.74577703,9.29037162 C7.74577703,9.1224472 7.60964739,8.98631757 7.44172297,8.98631757 C7.27379856,8.98631757 7.13766892,9.1224472 7.13766892,9.29037162 L7.13766892,12.3390203 C7.14101729,12.8695927 7.57296697,13.2974631 8.1035473,13.295777 L10.9809122,13.295777 L10.9809122,14.5211149 C10.9811915,14.7852002 11.1952052,14.9992139 11.4592905,14.9994932 L14.4613176,14.9994932 C14.7254029,14.9992139 14.9394166,14.7852002 14.9396959,14.5211149 L14.9396959,11.4623311 C14.9394166,11.1982458 14.7254029,10.984232 14.4613176,10.9839527 Z M14.3315878,14.3918919 L11.5890203,14.3918919 L11.5890203,11.5920608 L14.3315878,11.5920608 L14.3315878,14.3918919 Z" id="Shape"></path>
                <path d="M5.66452703,7.20861486 L3.96486486,7.20861486 L3.96486486,6.01013514 C3.96458556,5.74688945 3.75125244,5.53355633 3.48800676,5.53327703 L1.26385135,5.53327703 C1.09592693,5.53327703 0.959797297,5.66940666 0.959797297,5.83733108 C0.959797297,6.0052555 1.09592693,6.14138514 1.26385135,6.14138514 L3.35675676,6.14138514 L3.35675676,7.46858108 C3.35452827,7.48317407 3.35334283,7.49790735 3.35320946,7.51266892 C3.35338409,7.52742861 3.3545693,7.54215902 3.35675676,7.55675676 L3.35675676,8.8839527 L0.608108108,8.8839527 L0.608108108,6.01013514 C0.608108106,5.84221072 0.471978469,5.70608109 0.304054054,5.70608109 C0.136129639,5.70608109 -2.25597319e-13,5.84221072 -2.25597319e-13,6.01013514 L-2.25597319e-13,9.0152027 C0.000279305999,9.27844838 0.213612426,9.4917815 0.476858108,9.49206081 L3.48800676,9.49206081 C3.75125244,9.4917815 3.96458556,9.27844838 3.96486486,9.0152027 L3.96486486,7.81672297 L5.66452703,7.81672297 C5.83245144,7.81672297 5.96858108,7.68059334 5.96858108,7.51266892 C5.96858108,7.3447445 5.83245144,7.20861486 5.66452703,7.20861486 Z" id="Path"></path>
                <path d="M7.44172297,9.41959459 C6.67044353,9.41959459 5.97510923,8.95498707 5.67995337,8.24241778 C5.38479751,7.52984849 5.54794597,6.70964576 6.0933229,6.16426884 C6.63869982,5.61889192 7.45890255,5.45574345 8.17147184,5.75089932 C8.88404112,6.04605518 9.34864865,6.74138948 9.34864865,7.51266892 C9.34753143,8.56537177 8.49442583,9.41847737 7.44172297,9.41959459 L7.44172297,9.41959459 Z M7.44172297,6.06182432 C6.64044363,6.06182432 5.99087838,6.71138957 5.99087838,7.51266892 C5.99087838,8.31394826 6.64044363,8.96351351 7.44172297,8.96351351 C8.24300232,8.96351351 8.89256757,8.31394826 8.89256757,7.51266892 C8.89172963,6.71173692 8.24265497,6.06266227 7.44172297,6.06182432 L7.44172297,6.06182432 Z" id="Shape"></path>
            </g>
        </g>
    </g>
</svg>