<?xml version="1.0" encoding="UTF-8"?>
<svg width="15px" height="10px" viewBox="0 0 15 10" version="1.1" xmlns="http://www.w3.org/2000/svg" xmlns:xlink="http://www.w3.org/1999/xlink">
    <!-- Generator: Sketch 55.2 (78181) - https://sketchapp.com -->
    <title>Segment_BrandEvo_Icons_Partners</title>
    <desc>Created with Sketch.</desc>
    <g id="docs-design-final" stroke="none" stroke-width="1" fill="none" fill-rule="evenodd" stroke-linecap="round" stroke-linejoin="round">
        <g id="1.1-docs-home" transform="translate(-33.000000, -315.000000)" stroke="#2B604B" stroke-width="0.931">
            <g id="Segment_BrandEvo_Icons_Partners" transform="translate(33.000000, 315.000000)">
                <path d="M6.70227273,2.52142857 C6.22337072,3.2502759 5.96879469,4.11517729 5.97268239,5 C5.97268239,6.77739436 6.99510476,8.37963952 8.56282665,9.05914969 C10.1305485,9.73865986 11.9346445,9.36151462 13.133348,8.1036848 C14.3320514,6.84585499 14.6891173,4.95523844 14.0379436,3.3139711 C13.3867699,1.67270376 11.8556924,0.604252785 10.1590909,0.607120388 C9.63364408,0.605360411 9.1127896,0.70964154 8.625,0.914285714" id="Path"></path>
                <path d="M8.29772727,7.47857143 C8.77662928,6.7497241 9.03120531,5.88482271 9.02731761,5 C9.02731761,3.22260564 8.00489524,1.62036048 6.43717335,0.94085031 C4.86945147,0.261340139 3.06535549,0.638485379 1.86665204,1.8963152 C0.667948591,3.15414501 0.310882668,5.04476156 0.962056368,6.6860289 C1.61323007,8.32729624 3.14430762,9.39574721 4.84090909,9.39287961 C5.36635592,9.39463959 5.8872104,9.29035846 6.375,9.08571429" id="Path"></path>
            </g>
        </g>
    </g>
</svg>