<?xml version="1.0" encoding="UTF-8"?>
<svg width="30px" height="20px" viewBox="0 0 30 20" version="1.1" xmlns="http://www.w3.org/2000/svg" xmlns:xlink="http://www.w3.org/1999/xlink">
    <!-- Generator: Sketch 55.2 (78181) - https://sketchapp.com -->
    <title>Segment_BrandEvo_Icons_Partners</title>
    <desc>Created with Sketch.</desc>
    <g id="docs-design-final" stroke="none" stroke-width="1" fill="none" fill-rule="evenodd" stroke-linecap="round" stroke-linejoin="round">
        <g id="1.1-docs-home" transform="translate(-808.000000, -830.000000)" stroke="#2B604B" stroke-width="0.931">
            <g id="Segment_BrandEvo_Icons_Partners" transform="translate(808.000000, 830.000000)">
                <path d="M13.4045455,5.04285714 C12.4467414,6.50055181 11.9375894,8.23035457 11.9453648,10 C11.9453648,13.5547887 13.9902095,16.759279 17.1256533,18.1182994 C20.2610971,19.4773197 23.869289,18.7230292 26.2666959,16.2073696 C28.6641028,13.69171 29.3782347,9.91047688 28.0758873,6.62794219 C26.7735399,3.34540751 23.7113848,1.20850557 20.3181818,1.21424078 C19.2672882,1.21072082 18.2255792,1.41928308 17.25,1.82857143" id="Path"></path>
                <path d="M16.5954545,14.9571429 C17.5532586,13.4994482 18.0624106,11.7696454 18.0546352,10 C18.0546352,6.44521127 16.0097905,3.24072096 12.8743467,1.88170062 C9.73890293,0.522680278 6.13071098,1.27697076 3.73330408,3.79263039 C1.33589718,6.30829003 0.621765335,10.0895231 1.92411274,13.3720578 C3.22646014,16.6545925 6.28861524,18.7914944 9.68181818,18.7857592 C10.7327118,18.7892792 11.7744208,18.5807169 12.75,18.1714286" id="Path"></path>
            </g>
        </g>
    </g>
</svg>