<?xml version="1.0" encoding="UTF-8"?>
<svg width="30px" height="30px" viewBox="0 0 30 30" version="1.1" xmlns="http://www.w3.org/2000/svg" xmlns:xlink="http://www.w3.org/1999/xlink">
    <!-- Generator: Sketch 55.2 (78181) - https://sketchapp.com -->
    <title>icon-protocols</title>
    <desc>Created with Sketch.</desc>
    <g id="docs-design-final" stroke="none" stroke-width="1" fill="none" fill-rule="evenodd">
        <g id="1.1-docs-home" transform="translate(-808.000000, -497.000000)" fill-rule="nonzero">
            <g id="icon-protocols" transform="translate(808.000000, 497.000000)">
                <path d="M25.7875,21.8125 C25.46095,21.8124291 25.1943031,22.0735208 25.1875,22.4 L25.1875,27.5 C25.180677,27.9093238 24.8468807,28.2375569 24.4375,28.2375 L2.25,28.2375 C1.84061929,28.2375569 1.50682301,27.9093238 1.5,27.5 L1.5,22.925 L16.4125,22.925 C16.7389792,22.9181969 17.0000709,22.65155 17,22.325 C17,22.1691853 16.9381029,22.0197524 16.8279252,21.9095748 C16.7177476,21.7993971 16.5683147,21.7375 16.4125,21.7375 L1.5,21.7375 L1.5,15.5875 L7.5,15.5875 C7.70989354,15.5875 7.90384318,15.4755231 8.00878995,15.29375 C8.11373673,15.1119769 8.11373673,14.8880231 8.00878995,14.70625 C7.90384318,14.5244769 7.70989354,14.4125 7.5,14.4125 L1.5,14.4125 L1.5,8.2625 L16.4125,8.2625 C16.7369673,8.2625 17,7.99946729 17,7.675 C17.0000709,7.34844995 16.7389792,7.08180312 16.4125,7.075 L1.5,7.075 L1.5,2.5 C1.4994018,2.38731008 1.52508132,2.27603218 1.575,2.175 C1.71965795,1.88502806 1.60220952,1.53268278 1.3125,1.3875 C1.17385241,1.31449108 1.01141429,1.30122842 0.862759956,1.35077987 C0.714105622,1.40033131 0.592112723,1.50840431 0.525,1.65 C0.386196102,1.91187448 0.313261022,2.2036148 0.3125,2.5 L0.3125,27.5 C0.319372187,28.5651669 1.1848109,29.4250406 2.25,29.4250406 L24.4375,29.4250406 C24.9502041,29.4283293 25.4430528,29.2269881 25.8067683,28.8656191 C26.1704839,28.5042501 26.375,28.0127149 26.375,27.5 L26.375,22.4 C26.375,22.2441853 26.3131029,22.0947524 26.2029252,21.9845748 C26.0927476,21.8743971 25.9433147,21.8125 25.7875,21.8125 L25.7875,21.8125 Z" id="Path" fill="#999999"></path>
                <path d="M24.4375,0.574959358 L4.3125,0.574959358 C4.10260646,0.574959358 3.90865684,0.686976864 3.80371007,0.868749997 C3.6987633,1.05052313 3.6987633,1.27447687 3.80371007,1.45625 C3.90865684,1.63802314 4.10260646,1.75 4.3125,1.75 L24.4375,1.75 C24.8468807,1.74994314 25.180677,2.07817615 25.1875,2.4875 L25.1875,7.6 C25.1943031,7.92647918 25.46095,8.18750001 25.7875,8.18750001 C26.1119673,8.18750001 26.375,7.92446729 26.375,7.6 L26.375,2.5 C26.375,1.98728509 26.1704839,1.49574991 25.8067683,1.1343809 C25.4430528,0.773011886 24.9502041,0.571670682 24.4375,0.574959358 Z" id="Path" fill="#999999"></path>
                <path d="M10.4625,15 C10.4625,15.3244673 10.7255327,15.5875 11.05,15.5875 L22.3,15.5875 C22.5098935,15.5875 22.7038432,15.4755231 22.80879,15.29375 C22.9137367,15.1119769 22.9137367,14.8880231 22.80879,14.70625 C22.7038432,14.5244769 22.5098935,14.4125 22.3,14.4125 L11.05,14.4125 C10.7255327,14.4125 10.4625,14.6755327 10.4625,15 L10.4625,15 Z" id="Path" fill="#999999"></path>
                <path d="M25.8375,18.85 C24.2803204,18.85 22.8764707,17.9119776 22.2805638,16.4733312 C21.6846569,15.0346848 22.0140466,13.3787312 23.1151389,12.2776389 C24.2162312,11.1765466 25.8721848,10.8471569 27.3108312,11.4430638 C28.7494776,12.0389707 29.6875,13.4428204 29.6875,15 C29.6875,17.1262963 27.9637963,18.85 25.8375,18.85 Z M25.8375,12.0375 C24.6349386,12.0172007 23.539453,12.7259781 23.0651187,13.8312261 C22.5907845,14.936474 22.8317526,16.2188112 23.6749446,17.0764785 C24.5181365,17.9341459 25.7961866,18.1969045 26.9093477,17.7414504 C28.0225088,17.2859962 28.7498287,16.2027327 28.75,15 C28.743574,13.3859168 27.45124,12.0713968 25.8375,12.0375 L25.8375,12.0375 Z" id="Shape" fill="#03466B"></path>
            </g>
        </g>
    </g>
</svg>