<svg width="16" height="16" viewBox="0 0 16 16" xmlns="http://www.w3.org/2000/svg"><path d="M5.352 12.883c0 .066-.075.12-.168.12-.107.01-.18-.044-.18-.12 0-.066.073-.119.167-.119.097-.01.18.043.18.12zm-1.004-.149c-.022.066.042.143.14.162.083.033.18 0 .2-.066.018-.066-.043-.142-.14-.172-.083-.023-.177.01-.2.076zm1.426-.056c-.093.023-.158.086-.148.162.01.066.093.11.19.086.094-.023.158-.086.149-.152-.01-.063-.097-.106-.19-.096zM7.897 0C3.423 0 0 3.484 0 8.073c0 3.669 2.252 6.808 5.468 7.914.413.076.558-.186.558-.4 0-.206-.01-1.337-.01-2.032 0 0-2.258.496-2.732-.986 0 0-.368-.963-.897-1.211 0 0-.739-.52.052-.51 0 0 .803.067 1.245.854.706 1.277 1.89.91 2.351.692.075-.53.284-.897.517-1.115-1.804-.206-3.623-.474-3.623-3.656 0-.91.245-1.367.761-1.949-.084-.215-.358-1.102.084-2.246C4.448 3.213 6 4.32 6 4.32a7.402 7.402 0 012.026-.281c.687 0 1.38.096 2.026.28 0 0 1.551-1.11 2.225-.892.442 1.148.168 2.031.084 2.246.516.586.833 1.042.833 1.949 0 3.192-1.9 3.447-3.704 3.656.297.26.549.757.549 1.535 0 1.115-.01 2.494-.01 2.766 0 .215.148.476.558.4C13.813 14.88 16 11.742 16 8.073 16 3.483 12.371 0 7.897 0zM3.135 11.41c-.041.034-.032.11.023.173.052.053.126.076.168.033.042-.033.032-.11-.023-.172-.051-.053-.126-.076-.168-.033zm-.348-.267c-.022.043.01.096.074.129.052.033.116.023.139-.023.023-.043-.01-.096-.074-.13-.065-.02-.116-.01-.139.024zm1.045 1.178c-.051.043-.032.142.042.205.074.076.168.086.21.033.042-.043.022-.142-.042-.205-.071-.076-.168-.086-.21-.033zm-.367-.487c-.052.033-.052.12 0 .196.051.076.138.109.18.076.052-.043.052-.13 0-.205-.045-.077-.129-.11-.18-.067z" fill-rule="nonzero"/></svg>
