<svg width="16" height="16" xmlns="http://www.w3.org/2000/svg"><path d="M14.857 0H1.14C.511 0 0 .518 0 1.154v13.692C0 15.482.51 16 1.14 16h13.717A1.15 1.15 0 0016 14.846V1.154A1.15 1.15 0 0014.857 0zM4.836 13.714H2.464V6.08H4.84v7.635h-.003zM3.65 5.036a1.376 1.376 0 010-2.75c.757 0 1.375.618 1.375 1.375 0 .76-.614 1.375-1.375 1.375zm10.075 8.678h-2.371V10c0-.886-.018-2.025-1.233-2.025-1.235 0-1.425.964-1.425 1.96v3.78H6.325V6.078H8.6V7.12h.032c.318-.6 1.093-1.232 2.247-1.232 2.4 0 2.846 1.582 2.846 3.64v4.185z" fill-rule="nonzero"/></svg>
