<svg width="16" height="13" xmlns="http://www.w3.org/2000/svg"><path d="M14.355 3.24c.01.142.01.284.01.426 0 4.337-3.299 9.334-9.33 9.334A9.264 9.264 0 010 11.527c.264.03.518.041.792.041a6.566 6.566 0 004.071-1.402 3.285 3.285 0 01-3.066-2.275c.203.03.406.051.62.051.294 0 .588-.04.862-.112A3.28 3.28 0 01.65 4.61v-.04c.437.244.945.396 1.483.417A3.278 3.278 0 01.67 2.255c0-.61.162-1.168.447-1.656a9.32 9.32 0 006.761 3.433 3.705 3.705 0 01-.081-.752A3.278 3.278 0 0111.077 0a3.27 3.27 0 012.395 1.036 6.455 6.455 0 002.081-.792 3.271 3.271 0 01-1.441 1.808c.66-.072 1.3-.254 1.888-.508a7.05 7.05 0 01-1.645 1.696z" fill-rule="nonzero"/></svg>
