<svg width="13" height="14" viewBox="0 0 13 14" fill-role="nonzero" xmlns="http://www.w3.org/2000/svg">
<path fill-rule="evenodd" clip-rule="evenodd" d="M12.4399 0.905656C12.4892 0.951668 12.529 1.00697 12.5569 1.0684C12.5849 1.12983 12.6005 1.19619 12.6029 1.26368C12.6053 1.33117 12.5944 1.39847 12.5708 1.46173C12.5472 1.52499 12.5115 1.58297 12.4655 1.63236L8.29633 6.11642L12.898 12.2425C12.9553 12.3188 12.9902 12.4096 12.9988 12.5047C13.0074 12.5998 12.9895 12.6954 12.947 12.7809C12.9045 12.8663 12.8391 12.9382 12.7581 12.9884C12.6771 13.0387 12.5838 13.0653 12.4886 13.0653H9.68146C9.60208 13.0654 9.52377 13.0469 9.45272 13.0114C9.38167 12.9759 9.31981 12.9243 9.27202 12.8608L6.0334 8.55041L1.9882 12.9019C1.9423 12.9513 1.88716 12.9911 1.82592 13.0191C1.76468 13.0471 1.69854 13.0627 1.63128 13.0651C1.56402 13.0674 1.49696 13.0565 1.43391 13.0328C1.37087 13.0092 1.31309 12.9734 1.26386 12.9273C1.21464 12.8813 1.17493 12.826 1.14702 12.7646C1.1191 12.7032 1.10352 12.6368 1.10117 12.5694C1.09881 12.5019 1.10973 12.4347 1.13329 12.3714C1.15685 12.3082 1.1926 12.2502 1.2385 12.2009L5.40771 7.71681L0.805998 1.59073C0.748803 1.51445 0.713919 1.4237 0.705254 1.32865C0.696589 1.2336 0.714486 1.13801 0.756939 1.05259C0.799392 0.967171 0.864724 0.895294 0.945615 0.845015C1.02651 0.794736 1.11976 0.768042 1.21493 0.767922H4.02258C4.10188 0.767962 4.18008 0.786456 4.25104 0.821949C4.322 0.857443 4.38377 0.908967 4.43151 0.972468L7.67013 5.28282L11.7148 0.931353C11.7607 0.881922 11.8158 0.842043 11.8771 0.813996C11.9383 0.78595 12.0045 0.770286 12.0718 0.767899C12.1391 0.765513 12.2062 0.776451 12.2693 0.800088C12.3324 0.823725 12.3902 0.859598 12.4394 0.905656H12.4399ZM7.23866 6.41707C7.22421 6.40031 7.21085 6.38263 7.19869 6.36414L3.76688 1.79527H2.24237L9.93665 12.038H11.4612L7.23866 6.41707Z" fill="#AEB2C1"></path>
</svg>