<svg width="14" height="13" viewBox="0 0 14 13" xmlns="http://www.w3.org/2000/svg"><path d="M12.25 0C13.216 0 14 .774 14 1.73v9.54A1.74 1.74 0 0112.25 13H1.75A1.74 1.74 0 010 11.27V1.73C0 .773.784 0 1.75 0zm.438 2.882H1.312a.145.145 0 00-.145.144v8.244a.58.58 0 00.583.576h10.5a.58.58 0 00.583-.576V3.026a.145.145 0 00-.146-.144zM5.279 4.338c.207 0 .398.108.503.284l2.31 3.876a.147.147 0 00.25.004l.817-1.299a.585.585 0 01.495-.27h1.75a.58.58 0 01.584.576.58.58 0 01-.584.576H10.14c-.101 0-.195.052-.248.136l-1.202 1.9a.588.588 0 01-.998-.013l-2.27-3.815a.147.147 0 00-.127-.07c-.052 0-.1.028-.125.073l-.84 1.492a.584.584 0 01-.51.297H2.655a.58.58 0 01-.583-.576.58.58 0 01.583-.577h.65a.292.292 0 00.254-.148l1.211-2.15a.584.584 0 01.503-.296zM7.875.865a.565.565 0 00-.494.288.554.554 0 00-.09.288.556.556 0 00.09.288.565.565 0 00.987 0 .556.556 0 00.09-.288.554.554 0 00-.09-.288.565.565 0 00-.493-.288zm2.042 0a.565.565 0 00-.494.288.554.554 0 00-.09.288.556.556 0 00.09.288.565.565 0 00.987 0 .556.556 0 00.09-.288.554.554 0 00-.09-.288.565.565 0 00-.493-.288zm2.041 0a.575.575 0 00-.493.288.554.554 0 00-.09.288.556.556 0 00.09.288.565.565 0 00.987 0 .556.556 0 00.09-.288.584.584 0 00-.583-.576z" fill-rule="nonzero"/></svg>
