<svg width="16" height="16" viewBox="0 0 16 16" fill="none" xmlns="http://www.w3.org/2000/svg">
<path fill-rule="evenodd" clip-rule="evenodd" d="M13.65 6.19C13.31 6.19 13.01 6.3 12.77 6.48C12.6 6 12.09 5.64 11.48 5.64C11.07 5.64 10.7 5.8 10.45 6.06C10.22 5.69 9.78 5.43 9.26 5.43C8.69 5.43 8.21 5.74 8.01 6.17L8 5.55V1.5C8 0.67 7.33 0 6.5 0C5.67 0 5 0.67 5 1.5V8.11C4.42 7.7 3.45 6.9 2.52 6.81C0.960003 6.67 0.700003 7.88 1.28 8.13C2.82 8.8 4.27 10.81 4.98 12.08C5.89 14.05 6.07 16 9.86 16C11.95 16 13.29 15.39 14.08 13.88C14.72 12.64 15 10.79 15 8.17V7.38C15 6.73 14.4 6.19 13.65 6.19Z" fill="#8F95B2"/>
</svg>
