<svg width="14" height="14" viewBox="0 0 14 14" xmlns="http://www.w3.org/2000/svg"><g fill-rule="evenodd"><path d="M4.783 12.764a1.75 1.75 0 012.29-2.593.145.145 0 00.223-.123V7c0-.476.195-.932.539-1.262a.146.146 0 00.045-.105V2.625A.875.875 0 007 1.75H.875A.875.875 0 000 2.625v9.625c0 .483.392.875.875.875h3.898a.146.146 0 00.11-.242l-.1-.12zM5.1 4.982a1.238 1.238 0 11-2.476-.002 1.238 1.238 0 012.476.002zM2.083 8.245a.146.146 0 01-.139-.192 2.021 2.021 0 013.836 0 .144.144 0 01-.137.19l-3.56.002z"/><path d="M9.445 5.296a.146.146 0 00.18-.142V1.167C9.625.522 9.103 0 8.458 0H1.75a.583.583 0 000 1.167h6.417c.16 0 .291.13.291.291v3.696a.146.146 0 00.18.142 1.75 1.75 0 01.807 0zM14 12.833a2.333 2.333 0 00-2.333-2.333h-1.604a.146.146 0 01-.146-.146V7a.875.875 0 00-1.75 0v5.329a.146.146 0 01-.258.093l-1.11-1.339A.875.875 0 005.45 12.2l1.504 1.745c.027.032.068.05.11.05h6.79c.08 0 .145-.064.145-.145v-1.017z"/></g></svg>
