<svg xmlns="http://www.w3.org/2000/svg" width="15" height="15" viewBox="0 0 15 15">
  <g fill-rule="evenodd">
    <path fill-rule="nonzero" d="M7.05812503 5.61812497c.2440625-.24398869.6396875-.24398869.88375 6e-8l2.18749957 2.19000109c.1171363.11717187.1829913.27606.1829913.44174125.0000737.34517562-.2796881.62505753-.6248663.62513125H8.59249707c-.08594812.00034625-.15534295.07030188-.15499687.15625063v4.53124965c0 .5177668-.41973313.9375-.9375.9375-.51776688 0-.93749993-.4197332-.9375-.9375l-1e-8-4.53250269c-.00034562-.08594875-.07030125-.15534337-.15625-.1549975H5.3125002c-.16778438.00064-.32878-.06620812-.44676438-.185505-.24272391-.245425-.24053516-.641145.00488922-.88386875zM5.03233779 1.18073718c2.2764875-1.3611125 5.22533121-.6190625 6.58643751 1.6574125l.0313025.03738597c.0243741.02122013.0550837.03460759.0880724.03761386l.2413852.03069247c.7189053.11643049 1.3871597.45047572 1.9129898.95993254l.1573898.16205202c.6074792.66564129.9480089 1.5358046.9500851 2.44233537l-.0050134.1903496c-.0924379 1.76615018-1.4528384 3.22136663-3.229366 3.41587309l-.0408415.0042126-.0410337.0014124-.1033306-.0079154c-.2694574-.0432979-.4849341-.25951638-.5203669-.53826082-.0435275-.34242375.198775-.65529769.5411975-.698825l.1637775-.02270468c1.1330691-.19676848 1.9766401-1.17854532 1.9849663-2.34417657l-.00719-.19202539c-.0449974-.57277566-.2991852-1.11173346-.7178101-1.51171652l-.1424025-.12819514c-.4412274-.36528534-1.0046043-.55533292-1.5813412-.52868605l-.0932345-.00123572c-.2146766-.01955787-.4055574-.15359475-.4948905-.35501428l-.0978437-.19238678c-.5849724-1.06877513-1.68139108-1.76841171-2.90768136-1.84079452-1.959275-.11565-3.6413275 1.37890625-3.756975 3.338175l-.00428214.04439925-.00743777.0439801c-.06966875.33807437-.40020688.5556625-.73828125.48599625l-.15986327-.02496902c-.4272012-.04508326-.85757003.08086125-1.1945117.35434402l-.12018199.10781349c-.30430614.3018549-.47737825.71474015-.47607474 1.14780515l-.00268494.15417937c.01238371.35810084.15419489.70167096.40205997.96520455l.14612066.11513314c.35166687.25215398.77550197.38782423 1.21137939.38486692l.09245966.00539127c.30205391.04011957.53720843.29643543.5419154.61023373.0051775.34517812-.27044687.62919735-.615625.63437495l-.22562308-.0093148c-.74882568-.0555094-1.46145873-.35420731-2.02750192-.85381015L.63572135 9.1118123c-.43537319-.51531029-.6639332-1.17727723-.6357336-1.85618632l.0052722-.17235359c.08610202-1.42594653 1.21662786-2.58335893 2.65912786-2.68637275l.04968626-.01210045c.04644147-.01980018.08165413-.06138299.09218873-.11289955l.05934641-.24036309c.32681195-1.19093365 1.101336-2.21379742 2.16672858-2.85079937z"/>
  </g>
</svg>