<svg width="13" height="15" viewBox="0 0 13 15" xmlns="http://www.w3.org/2000/svg"><g fill-rule="nonzero"><circle cx="6.25" cy="7.5" r="1.875"/><path d="M10.938 1.875H9.374a.313.313 0 00-.313.313v.624c0 .173.14.313.313.313h1.25c.173 0 .313.14.313.313v7.5c0 .172-.14.312-.313.312H8.967a3.576 3.576 0 00-5.433 0H1.875a.312.312 0 01-.313-.313v-7.5c0-.172.14-.312.313-.312h1.25c.173 0 .313-.14.313-.313v-.624a.313.313 0 00-.313-.313H1.562c-.69 0-1.25.56-1.25 1.25V13.75c0 .69.56 1.25 1.25 1.25h9.376c.69 0 1.25-.56 1.25-1.25V3.125c0-.69-.56-1.25-1.25-1.25zM1.874 13.75a.312.312 0 01-.313-.313v-.624c0-.173.14-.313.313-.313h8.75c.173 0 .313.14.313.313v.624c0 .173-.14.313-.313.313h-8.75z"/><path d="M4.375 3.75c0 .518.42.938.938.938h1.875c.517 0 .937-.42.937-.938V1.875a1.875 1.875 0 10-3.75 0V3.75zm1.25-2.188a.625.625 0 111.25 0 .625.625 0 01-1.25 0z"/></g></svg>
