<svg width="16" height="16" viewBox="0 0 16 16" fill="none" xmlns="http://www.w3.org/2000/svg">
<path fill-rule="evenodd" clip-rule="evenodd" d="M12.8847 13.6282C12.8376 13.4024 12.7529 13.1576 12.6494 12.9129C12.3106 12.1035 11.5953 11.6612 10.1176 11.0306C9.98588 10.9741 9.56235 10.7953 9.55294 10.7953C9.35529 10.7106 9.21412 10.6541 9.08235 10.5882C9.10118 10.4941 9.10118 10.4 9.11059 10.2965C9.11059 10.2588 9.12 10.2212 9.12 10.1741C9.05412 10.1176 8.99765 10.0612 8.94118 9.99529C9.14824 9.69412 9.31765 9.3647 9.44941 9.00706C9.46824 8.95059 9.46824 8.95059 9.47765 8.91294C9.75059 8.69647 9.92941 8.37647 10.0329 8.00941C10.1835 7.69882 10.2682 7.32235 10.2306 6.91765C10.2024 6.54117 10.08 6.20235 9.88235 5.94823C9.86353 5.44941 9.81647 4.8847 9.74118 4.49882C9.73176 4.44235 9.72235 4.38588 9.71294 4.32C9.92941 4.26353 10.1647 4.23529 10.3906 4.23529C10.8518 4.23529 11.3788 4.38588 11.7459 4.66823C12.1035 4.94117 12.3765 5.32706 12.4988 5.76941C12.5271 5.86353 12.5459 5.96706 12.5647 6.06117C12.6306 6.40941 12.6682 6.94588 12.6682 7.31294C12.6682 7.33176 12.6682 7.35059 12.6682 7.36C12.8 7.41647 12.9224 7.55765 12.9412 7.84C12.96 8.07529 12.8753 8.26353 12.8188 8.34823C12.7718 8.54588 12.6682 8.76235 12.4612 8.8C12.4424 8.89412 12.4141 8.98823 12.3765 9.08235C12.3765 9.09176 12.3671 9.11059 12.3671 9.11059C12.2071 9.5247 11.9624 9.89176 11.6612 10.1553C11.6612 10.2024 11.6612 10.2494 11.6612 10.2871C11.6894 10.6165 11.5765 10.8424 12.4424 11.2282C13.3176 11.6141 14.6259 12.0188 14.8894 12.64C15.1624 13.2612 15.0494 13.6188 15.0494 13.6188H12.8847V13.6282ZM11.7835 13.2706C12.1318 14.08 11.9906 14.5506 11.9906 14.5506H0.0564706C0.0564706 14.5506 -0.0752941 14.08 0.263529 13.2706C0.602353 12.4612 2.26824 11.9247 3.37882 11.4259C4.48 10.9176 4.36706 10.6165 4.40471 10.2024C4.40471 10.1553 4.41412 10.0988 4.41412 10.0424C4.02824 9.71294 3.70824 9.23294 3.50118 8.67765V8.66823C3.50118 8.66823 3.49176 8.65882 3.49176 8.64941C3.45412 8.53647 3.40706 8.4047 3.37882 8.28235C3.11529 8.23529 2.96471 7.94353 2.90824 7.68C2.85176 7.56706 2.72941 7.31294 2.75765 7.01176C2.79529 6.62588 2.95529 6.44706 3.12471 6.37176C3.12471 6.35294 3.12471 6.33412 3.12471 6.31529C3.12471 5.83529 3.17176 5.12941 3.25647 4.67765C3.27529 4.55529 3.30353 4.42353 3.34118 4.30117C3.50118 3.73647 3.84941 3.23765 4.30118 2.88C4.77176 2.51294 5.44 2.31529 6.03294 2.31529C6.62588 2.31529 7.29412 2.51294 7.76471 2.88C8.21647 3.23765 8.56471 3.73647 8.72471 4.31059C8.76235 4.43294 8.79059 4.5647 8.80941 4.68706C8.89412 5.13882 8.94118 5.83529 8.94118 6.31529C8.94118 6.33412 8.94118 6.36235 8.94118 6.38117C9.11059 6.45647 9.26118 6.63529 9.28941 7.01176C9.31765 7.31294 9.20471 7.56706 9.13882 7.68C9.08235 7.94353 8.94118 8.22588 8.68706 8.27294C8.65882 8.39529 8.62118 8.51765 8.57412 8.64C8.57412 8.64941 8.56471 8.67765 8.56471 8.67765C8.35765 9.22353 8.04706 9.69412 7.67059 10.0424C7.67059 10.0988 7.67059 10.1647 7.67059 10.2118C7.70824 10.6353 7.55765 10.9365 8.66824 11.4353C9.77882 11.9341 11.4447 12.4612 11.7835 13.2706Z" fill="#8F95B2"/>
</svg>
