<svg width="14" height="14" viewBox="0 0 14 14" xmlns="http://www.w3.org/2000/svg"><g fill-rule="nonzero"><path d="M14 8.167a2.62 2.62 0 00-1.75-2.473V5.25a5.25 5.25 0 00-10.5 0v.444a2.625 2.625 0 000 4.948.875.875 0 001.167-.824V5.25a4.083 4.083 0 118.166 0v4.568a.872.872 0 00.292.641v.333c0 .86-.753 1.166-1.458 1.166H8.88a1.167 1.167 0 100 1.167h1.037c1.545 0 2.625-.96 2.625-2.333v-.28A2.625 2.625 0 0014 8.168z"/><circle cx="6" cy="9.771" r="1"/><path d="M4.542 6.125a.73.73 0 00.729-.73.73.73 0 111.02.672c-.619.27-1.02.883-1.02 1.559v.324a.73.73 0 101.459 0v-.324c0-.097.057-.185.146-.224a2.187 2.187 0 10-3.064-2.006.73.73 0 00.73.729z"/></g></svg>
