<svg width="14" height="14" viewBox="0 0 14 14" xmlns="http://www.w3.org/2000/svg"><g fill-rule="nonzero"><rect x="4.375" y="1.167" width="5.25" height="1.167" rx=".146"/><rect x="1.167" y="4.375" width="1.167" height="5.25" rx=".146"/><circle cx="12.25" cy="1.75" r="1.75"/><circle cx="1.75" cy="1.75" r="1.75"/><circle cx="1.75" cy="12.25" r="1.75"/><path d="M8.738 11.812l-.77.768a.866.866 0 01-1.224 0l-.512-.512a.865.865 0 010-1.225l2.195-2.196a.66.66 0 01.934 0l.402.403a.583.583 0 00.824-.825l-.403-.402a1.867 1.867 0 00-2.58 0l-2.196 2.195a2.032 2.032 0 000 2.875l.512.512c.794.792 2.08.792 2.874 0l.769-.768a.583.583 0 00-.825-.825z"/><path d="M12.892 5.408a2.035 2.035 0 00-2.874 0l-.769.768a.583.583 0 00.826.824l.768-.768a.866.866 0 011.225 0l.512.513a.865.865 0 010 1.224l-2.197 2.196a.66.66 0 01-.933 0l-.402-.402a.583.583 0 10-.823.825l.402.402a1.825 1.825 0 002.581 0l2.196-2.196a2.032 2.032 0 000-2.874l-.512-.512z"/></g></svg>
