<svg width="16" height="16" viewBox="0 0 16 16" fill="none" xmlns="http://www.w3.org/2000/svg">
<path fill-rule="evenodd" clip-rule="evenodd" d="M5.63765 12.2259C5.90117 12.2259 6.13647 12.1224 6.30588 11.9529L11.9529 6.30588C12.1224 6.13647 12.2259 5.90117 12.2259 5.63765C12.2259 5.12 11.8024 4.69647 11.2847 4.69647C11.0212 4.69647 10.7859 4.8 10.6165 4.96941L4.96941 10.6165C4.8 10.7859 4.69647 11.0212 4.69647 11.2847C4.69647 11.8024 5.12 12.2259 5.63765 12.2259ZM9.26117 10.3247L6.9647 12.6212L6.02353 13.5624L6.01412 13.5529C5.67529 13.8918 5.21412 14.1176 4.69647 14.1176C3.66117 14.1176 2.81412 13.2706 2.81412 12.2353C2.81412 11.7176 3.04 11.2565 3.37882 10.9176L3.36941 10.9082L4.31059 9.96706L6.60706 7.67059C6.29647 7.57647 5.97647 7.52 5.63765 7.52C4.60235 7.52 3.67059 7.95294 2.99294 8.64L2.97412 8.62117L2.03294 9.56235L2.05176 9.58117C1.3647 10.2588 0.931763 11.1906 0.931763 12.2259C0.931763 14.3059 2.61647 15.9906 4.69647 15.9906C5.73176 15.9906 6.66353 15.5576 7.34117 14.8706L7.36 14.8894L8.30117 13.9482L8.28235 13.9294C8.96941 13.2518 9.40235 12.32 9.40235 11.2847C9.40235 10.9553 9.34588 10.6353 9.26117 10.3247ZM15.9906 4.69647C15.9906 2.61647 14.3059 0.931763 12.2259 0.931763C11.1906 0.931763 10.2588 1.3647 9.58117 2.05176L9.56235 2.03294L8.62117 2.97412L8.64 2.99294C7.96235 3.67059 7.52 4.60235 7.52 5.63765C7.52 5.97647 7.57647 6.28706 7.66117 6.59765L9.95765 4.30117L10.8988 3.36L10.9082 3.36941C11.2471 3.03059 11.7082 2.8047 12.2259 2.8047C13.2612 2.8047 14.1082 3.65176 14.1082 4.68706C14.1082 5.2047 13.8824 5.66588 13.5435 6.0047L13.5529 6.01412L12.6118 6.95529L10.3247 9.26117C10.6353 9.34588 10.9553 9.40235 11.2847 9.40235C12.32 9.40235 13.2518 8.96941 13.9294 8.28235L13.9482 8.30117L14.8894 7.36L14.8706 7.34117C15.5576 6.66353 15.9906 5.74117 15.9906 4.69647Z" fill="#8F95B2"/>
</svg>
