<svg width="14" height="14" viewBox="0 0 14 14" xmlns="http://www.w3.org/2000/svg"><g fill-rule="nonzero"><path d="M2.63 7.292a.583.583 0 00.584-.584l-.006-5.396a.146.146 0 01.148-.145h7.288c.08 0 .146.065.146.145l.002 5.396a.583.583 0 101.167 0V1.167C11.958.522 11.435 0 10.791 0H3.208c-.644 0-1.166.522-1.166 1.167l.003 5.541a.583.583 0 00.586.584z"/><path d="M7.073 8.02a.438.438 0 00.437-.437V7.28a1.216 1.216 0 00.327-2.34l-1.203-.482a.345.345 0 01.128-.665h1.186a.437.437 0 000-.875H7.51v-.292a.438.438 0 00-.875 0v.304a1.216 1.216 0 00-.326 2.34l1.203.482a.345.345 0 01-.128.666H6.198a.437.437 0 000 .875h.437v.291c0 .242.196.438.438.438z"/><path d="M13.923 9.333l-1.02-1.75a.583.583 0 10-1.009.584l.68 1.166h-2.366a.875.875 0 00-.875.875.875.875 0 01-.875.875H5.542a.875.875 0 01-.875-.875.875.875 0 00-.875-.875h-2.36l.679-1.166a.583.583 0 10-1.009-.584l-1.02 1.75A.825.825 0 000 9.625v3.5c0 .483.392.875.875.875h12.25a.875.875 0 00.875-.875v-3.5a.732.732 0 00-.077-.292z"/></g></svg>
