<svg width="16" height="16" viewBox="0 0 16 16" fill="none" xmlns="http://www.w3.org/2000/svg">
<path fill-rule="evenodd" clip-rule="evenodd" d="M8.10002 2C8.03443 2.32311 8 2.65753 8 3C8 3.34247 8.03443 3.67689 8.10003 4H3.66L1.95 8H4C4.55 8 5 8.45 5 9V10H11V9C11 8.45 11.45 8 12 8H13H14.05C14.7582 8 15.4021 7.75878 15.955 7.355L16 7.46V13C16 13.55 15.55 14 15 14H1C0.45 14 0 13.55 0 13V7.46L2.08 2.61C2.23 2.25 2.59 2 3 2H8.10002ZM13 6C11.3431 6 10 4.65685 10 3C10 1.34315 11.3431 0 13 0C14.6569 0 16 1.34315 16 3C16 4.65685 14.6569 6 13 6Z" fill="#8F95B2"/>
</svg>
