<svg width="14" height="14" viewBox=" 0 0 14 14" xmlns="http://www.w3.org/2000/svg"><g fill-rule="nonzero"><path d="M13.932 8.911l-1.73-3.208a1.116 1.116 0 00-.979-.599H9.917a.583.583 0 100 1.167h1.172c.053 0 .102.03.128.076l1.265 2.334a.146.146 0 01-.128.215h-2.146a.875.875 0 00-.875.875.875.875 0 01-.875.875H5.542a.875.875 0 01-.875-.875.875.875 0 00-.875-.875H1.633a.146.146 0 01-.129-.214L2.72 6.35a.146.146 0 01.129-.078h.943a.583.583 0 000-1.167h-1.03a1.112 1.112 0 00-.976.598L.071 8.91A.793.793 0 000 9.187v3.5c0 .484.392.876.875.876h12.25a.875.875 0 00.875-.876v-3.5a.705.705 0 00-.068-.276z"/><path d="M5.048 4.346L6.65 6.484a.437.437 0 00.7 0l1.606-2.138a.437.437 0 00-.35-.7h-.583a.146.146 0 01-.148-.146V1.312a.875.875 0 10-1.75 0V3.5c0 .08-.065.146-.146.146h-.583a.437.437 0 00-.35.7h.002z"/></g></svg>
