<svg width="16" height="16" viewBox="0 0 16 16" fill="none" xmlns="http://www.w3.org/2000/svg">
<path fill-rule="evenodd" clip-rule="evenodd" d="M6.43196 2C6.52583 2.14046 6.63408 2.2725 6.75579 2.39421L8.42012 4H3.66L1.95 8H4C4.55 8 5 8.45 5 9V10H10.1788H11.5574C12.2502 10 12.9202 9.73827 13.3942 9.26421L13.4968 9.16164L14.3466 8.02167C14.7479 7.55592 14.97 6.96544 14.97 6.34V5.05832L16 7.46V13C16 13.55 15.55 14 15 14H1C0.45 14 0 13.55 0 13V7.46L2.08 2.61C2.23 2.25 2.59 2 3 2H6.43196ZM15.48 0C15.79 0 16 0.26 16 0.57C16 0.73 15.94 0.87 15.83 0.98L12.97 3.71V6.34C12.97 6.5 12.91 6.64 12.8 6.75L11.98 7.85C11.88 7.95 11.73 8.02 11.57 8.02C11.26 8.02 11 7.76 11 7.45V3.71L8.17 0.98C8.06 0.87 8 0.73 8 0.57C8 0.26 8.26 0 8.57 0H15.48Z" fill="#8F95B2"/>
</svg>
