<svg width="14" height="14" viewBox="0 0 14 14" xmlns="http://www.w3.org/2000/svg"><g fill-rule="nonzero"><path d="M1.714 14h10.572A1.716 1.716 0 0014 12.286V1.714A1.716 1.716 0 0012.286 0H1.714A1.716 1.716 0 000 1.714v10.572A1.716 1.716 0 001.714 14zm10.572-1.143H1.714a.572.572 0 01-.571-.571V1.75c0-.322.26-.583.583-.583h10.548c.322 0 .583.26.583.583v10.536a.572.572 0 01-.571.571z"/><path d="M10.988 9.095l-1.204 1.069a.147.147 0 01-.184.008l-.797-.59a1.095 1.095 0 00-.662-.198c-.24.005-.471.094-.653.252L6.02 10.939a.584.584 0 10.775.875l1.302-1.156a.146.146 0 01.183-.009l.797.59c.194.137.426.206.662.199.24-.005.471-.095.653-.252l1.37-1.216a.584.584 0 10-.774-.875zM8.36 5.905a.121.121 0 00-.09-.05L5.897 5.67a.122.122 0 00-.13.15l.516 2.322a.123.123 0 00.166.087 3.212 3.212 0 001.93-2.222.121.121 0 00-.02-.103zM4.205 2.222a.124.124 0 00-.067.175l1.321 2.445c.02.036.057.06.099.063l2.767.214a.123.123 0 00.133-.133 3.208 3.208 0 00-4.253-2.761v-.003zM3.404 2.688a.122.122 0 00-.1.023 3.208 3.208 0 001.958 5.747c.062 0 .124 0 .186-.005a.121.121 0 00.09-.049.125.125 0 00.023-.1l-.646-2.906a.132.132 0 00-.011-.032L3.487 2.75a.123.123 0 00-.083-.062z"/><circle cx="10.792" cy="3.208" r="1"/><circle cx="10.792" cy="4.958" r="1"/><circle cx="10.792" cy="6.708" r="1"/></g></svg>
