<svg width="16" height="16" viewBox="0 0 16 16" fill="none" xmlns="http://www.w3.org/2000/svg">
<path fill-rule="evenodd" clip-rule="evenodd" d="M3.28471 3.75529C2.76706 3.75529 2.34353 4.17882 2.34353 4.69647V15.0494C2.34353 15.5671 2.76706 15.9906 3.28471 15.9906C3.80235 15.9906 4.22588 15.5671 4.22588 15.0494V4.69647C4.22588 4.17882 3.80235 3.75529 3.28471 3.75529ZM3.28471 0.931763C2.76706 0.931763 2.34353 1.35529 2.34353 1.87294C2.34353 2.39059 2.76706 2.81412 3.28471 2.81412C3.80235 2.81412 4.22588 2.39059 4.22588 1.87294C4.22588 1.35529 3.80235 0.931763 3.28471 0.931763ZM5.16706 3.78353V10.5882C7.11529 8.60235 10.7388 12.2353 13.6376 10.5882V3.78353C10.8141 5.73176 7.10588 1.87294 5.16706 3.78353Z" fill="#8F95B2"/>
</svg>
