<svg width="14" height="13" viewBox="0 0 14 13" xmlns="http://www.w3.org/2000/svg"><g fill-rule="nonzero"><path d="M5.98 6.45c0-.806.652-1.459 1.457-1.459h4.23c.08 0 .146-.065.146-.146V1.2a.875.875 0 00-.876-.875H1.021a.875.875 0 00-.875.875v5.834c0 .483.392.875.875.875h.875v2.041a.292.292 0 00.498.207l2.248-2.248h1.191c.08 0 .146-.066.146-.146V6.449z"/><path d="M13.27 5.866H7.439a.583.583 0 00-.584.583v3.5c0 .322.261.584.583.584h2.625l2.14 1.901a.292.292 0 00.486-.217v-1.684h.583a.583.583 0 00.583-.584v-3.5a.583.583 0 00-.583-.583z"/></g></svg>
