<svg width="16" height="16" viewBox="0 0 16 16" fill="none" xmlns="http://www.w3.org/2000/svg">
<path fill-rule="evenodd" clip-rule="evenodd" d="M3 1C3 0.45 2.55 0 2 0C1.45 0 1 0.45 1 1V4H3V1ZM3 5H1C0.45 5 0 5.45 0 6V8C0 8.55 0.45 9 1 9H3C3.55 9 4 8.55 4 8V6C4 5.45 3.55 5 3 5ZM15 1C15 0.45 14.55 0 14 0C13.45 0 13 0.45 13 1V3H15V1ZM9 1C9 0.45 8.55 0 8 0C7.45 0 7 0.45 7 1V7H9V1ZM1 15C1 15.55 1.45 16 2 16C2.55 16 3 15.55 3 15V10H1V15ZM15 4H13C12.45 4 12 4.45 12 5V7C12 7.55 12.45 8 13 8H15C15.55 8 16 7.55 16 7V5C16 4.45 15.55 4 15 4ZM13 15C13 15.55 13.45 16 14 16C14.55 16 15 15.55 15 15V9H13V15ZM9 8H7C6.45 8 6 8.45 6 9V11C6 11.55 6.45 12 7 12H9C9.55 12 10 11.55 10 11V9C10 8.45 9.55 8 9 8ZM7 15C7 15.55 7.45 16 8 16C8.55 16 9 15.55 9 15V13H7V15Z" fill="#8F95B2"/>
</svg>
