<svg width="14" height="14" viewBox="0 0 14 14" xmlns="http://www.w3.org/2000/svg"><g fill-rule="nonzero"><path d="M13.592 5.253a.297.297 0 00-.136-.175l-.623-.361c.094-.417.094-.85 0-1.266l.613-.36a.292.292 0 00.106-.398l-.591-1.014a.292.292 0 00-.396-.104l-.645.365c-.3-.326-.694-.55-1.128-.639V.583A.292.292 0 0010.5.292H9.333a.292.292 0 00-.291.291v.718c-.434.088-.83.31-1.13.636l-.644-.362a.292.292 0 00-.395.107L6.28 2.693a.292.292 0 00.106.4l.618.358c-.095.417-.095.85 0 1.266l-.625.36a.292.292 0 00-.106.398l.583 1.014c.08.138.255.186.394.11l.66-.368c.302.325.697.548 1.13.636v.716c0 .161.131.292.292.292H10.5c.161 0 .292-.13.292-.292v-.716c.433-.088.829-.31 1.129-.636l.66.367c.14.077.316.029.395-.109l.584-1.014a.292.292 0 00.032-.221zm-3.675.289a1.458 1.458 0 110-2.917 1.458 1.458 0 010 2.917zM7.621 10.908L7 10.55c.094-.417.094-.849 0-1.266l.618-.358a.292.292 0 00.105-.4l-.591-1.013a.292.292 0 00-.396-.108l-.641.365a2.108 2.108 0 00-1.137-.635v-.718a.292.292 0 00-.291-.292H3.5a.292.292 0 00-.292.292v.717c-.433.088-.829.31-1.129.636l-.644-.362a.292.292 0 00-.395.108l-.592 1.01a.292.292 0 00.106.4l.617.358c-.094.417-.094.85 0 1.266l-.626.358a.292.292 0 00-.106.4l.583 1.013c.08.138.255.187.394.11l.66-.368c.302.326.698.549 1.132.637v.717c0 .16.13.291.292.291h1.167c.16 0 .291-.13.291-.291V12.7c.434-.088.83-.31 1.13-.635l.66.366c.14.078.315.03.395-.109l.583-1.013a.292.292 0 00-.106-.4h.001zm-3.538.467a1.458 1.458 0 110-2.917 1.458 1.458 0 010 2.917z"/></g></svg>
