<svg width="15" height="14" viewBox="0 0 15 14">
  <g fill-rule="evenodd">
    <path fill-rule="nonzero" d="M.1675902 3.65494332l.04865965.01160964L6.93248672 6.4659299c.05820044.02438688.09612359.0812725.09624878.14437563v7.27874887c0 .020629-.00405766.0410567-.01197922.0601042-.03313687.0796785-.12459187.1174078-.20427062.0842707L.38442316 11.354073C.15162128 11.2569811 0 11.0294674 0 10.7772299V3.81092783c0-.02062906.00405766-.04105675.01197922-.06010425.03313688-.07967841.12459188-.11740775.20427063-.08427062zm14.0512791.01523283c.0862943 0 .156196.0700763.1561296.15637759v6.96499996c-.0000684.2449782-.1432522.4673294-.3662503.56875l-5.819375 2.645c-.01981112.0088113-.04123368.0134201-.06291562.0135467-.08663813.0004502-.15724665-.0694098-.15770813-.1560474l.00187379-7.26687143c-.00012313-.06129813.03589031-.11691088.09187499-.141875l6.09186877-2.77c.0202674-.00916527.0422583-.01388042.0645019-.01388042zM3.31874985 1.62780297c.08077687-.0358862.17297312-.0358862.25375-1e-8l6.09812501 2.78000001c.03429143.01562368.06178137.04311362.077405.077405.03577812.07852812.00112312.17119156-.077405.20697l-2.05625.934375c-.07918063.03598519-.16977563.03734407-.25.00375l-6.43125001-2.68c-.0371277-.01581625-.06669607-.04538456-.0825125-.0825125-.03382063-.07939125.00312187-.17116713.0825125-.2049875zm3.61875001-1.575625c.15940625-.06957063.34059375-.06957063.5 0l6.03875004 2.623125c.0348425.01567125.0627362.04356475.0784075.0784075.0353975.07870062.0002931.17119537-.0784075.2065925l-2.23 1.01624999c-.0821988.03738463-.1765513.03738463-.25875 1e-8L4.92499987 1.21280296c-.03540157-.01571437-.06370488-.0440175-.07941938-.07941937-.03501125-.07887375.00054625-.17119475.07941938-.20620563z"/>
  </g>
</svg>