<svg width="15" height="15" viewBox="0 0 15 15">
  <g fill-rule="evenodd">
    <path fill-rule="nonzero" d="M1.56250005 5.312501c.12245.00306125.24114188.04291562.340625.114375l.08160384.06208654c.12600882.11367339.2006246.27580273.20276929.44853971l-.00788214.05011151-.01211789.04926127-.02257764.09700548c-.07991076.25000318-.31262903.42639253-.58242236.42861955h-.15625003c-.08629438 0-.15625001.06995563-.15625.15625V10.625l.00796574.0493871c.02067006.0620913.07924876.1068629.14828426.1068629h8.43750001C9.9300425 10.78125 10 10.7112944 10 10.625V7.34375004c.0015644-.18138063.0829594-.35286.2224981-.46875l.0730074-.05595022c.1022099-.06685603.2226264-.10226173.3461269-.1005699.3406588.00466875.6130342.28461.6084266.62526875v4.37500213c0 .6903563-.5597029 1.2500001-1.250059 1.25H6.40624993c-.08629437 0-.15625001.0699557-.15625.15625v.3125l.00796574.0493871c.02067006.0620913.07924876.1068629.14828426.1068629h1.71875001c.34517812 0 .62500001.2798219.625.625 0 .3451781-.27982188.625-.625.625H3.12499997c-.34517813 0-.62499997-.2798219-.62499997-.625s.27982184-.625.62499997-.625h1.71875002c.08629438 0 .15625001-.0699556.15625001-.15625v-.3125c0-.0862944-.06995563-.15625-.15625001-.15625H1.25c-.69035625 0-1.25-.5596437-1.25-1.25V6.562501l.0064536-.12780519C.07046607 5.80437594.60279103 5.312501 1.25 5.312501zm4.45409186-3.00720559c.3862475-.0025653.70145219.30845783.70403126.69470345v.00000118l-.01038686.0835463c-.02512434.1084867-.09415364.2033162-.19273814.2602037l-.16676637.11016448c-.37760413.27176364-.67291123.64456436-.85073365 1.07733554l.43687062.0000026c.16568125.000035.32456938.06585438.44174125.18299125.24411468.2440375.24417406.63976688.00013343.88388125L5.12762623 6.84924239c-.2443875.24376893-.6401125.24326893-.88388125-.00111732L2.99374502 5.59812512c-.11713625-.11717188-.18299126-.27606-.18299126-.44174125-.00007374-.34517563.27968814-.62505754.62486626-.62513125h.75000002c.21785625-.83655.71708125-1.5725875 1.41375-2.084375l.09470476-.06032961c.09892653-.05236413.2094968-.08048597.32251711-.0812526zM10.7812482 0c.3451781 0 .625.27982187.625.625v.15625l.0079657.04938704C11.434884.8927284 11.4934627.9375 11.5624982.9375l2.6562499 5e-8c.3451781 0 .625.27982187.625.625V5c0 .34517822-.2798219.62500009-.625.62500009H8.59374814c-.34517813 0-.625-.27982187-.625-.62500009V.625l.0067766-.09235795C8.02016498.23125775 8.27994984 0 8.59374814 0z"/>
  </g>
</svg>