<svg width="14" height="14" viewBox="0 0 14 14" xmlns="http://www.w3.org/2000/svg"><g  fill-rule="evenodd"><path d="M7 0a7 7 0 107 7 7.008 7.008 0 00-7-7zm4.274 10.967a9.239 9.239 0 00-8.549 0 5.833 5.833 0 118.55 0z"/><path d="M3.208 6.563h-.875a.438.438 0 000 .875h.875a.437.437 0 100-.875zM4.066 3.447a.437.437 0 10-.619.619l.619.618a.438.438 0 10.618-.618l-.618-.619zM7 3.646a.437.437 0 00.438-.438v-.875a.438.438 0 00-.875 0v.875c0 .242.195.438.437.438zM11.667 6.563h-.875a.437.437 0 100 .875h.875a.438.438 0 000-.875zM10.707 3.877a.292.292 0 00-.357-.044c-.402.242-3.94 2.372-4.381 2.814a1.394 1.394 0 000 1.968c.548.531 1.419.531 1.967 0 .442-.443 2.573-3.98 2.814-4.381a.292.292 0 00-.043-.357z"/></g></svg>
