<svg width="16" height="16" viewBox="0 0 16 16" fill="none" xmlns="http://www.w3.org/2000/svg">
<path fill-rule="evenodd" clip-rule="evenodd" d="M14.3059 6.49411H12.9506C12.8282 6.05176 12.6494 5.62823 12.4235 5.23293L13.4212 4.23529C13.7129 3.94352 13.7129 3.46352 13.4212 3.17176L12.3576 2.10823C12.0659 1.81646 11.5859 1.81646 11.2941 2.10823L10.2965 3.10588C9.90118 2.87999 9.48706 2.71058 9.03529 2.57882V1.22352C9.03529 0.809405 8.69647 0.470581 8.28235 0.470581H6.77647C6.36235 0.470581 6.02353 0.809405 6.02353 1.22352V2.57882C5.55294 2.71058 5.12 2.89882 4.70588 3.13411L3.76471 2.19293C3.48235 1.91058 3.02118 1.91058 2.73882 2.19293L1.72235 3.2094C1.44 3.49176 1.44 3.95293 1.72235 4.23529L2.66353 5.17646C2.42824 5.59058 2.24 6.02352 2.10824 6.49411H0.752941C0.338824 6.49411 0 6.83293 0 7.24705V8.75293C0 9.16705 0.338824 9.50588 0.752941 9.50588H2.10824C2.23059 9.94823 2.40941 10.3718 2.63529 10.7671L1.63765 11.7647C1.34588 12.0565 1.34588 12.5365 1.63765 12.8282L2.70118 13.8918C2.99294 14.1835 3.47294 14.1835 3.76471 13.8918L4.76235 12.8941C5.15765 13.12 5.57176 13.2894 6.02353 13.4212V14.7765C6.02353 15.1906 6.36235 15.5294 6.77647 15.5294H8.28235C8.69647 15.5294 9.03529 15.1906 9.03529 14.7765V13.4212C9.50588 13.2894 9.93882 13.1106 10.3529 12.8659L11.2941 13.8071C11.5765 14.0894 12.0376 14.0894 12.32 13.8071L13.3459 12.7812C13.6282 12.4988 13.6282 12.0376 13.3459 11.7553L12.4047 10.8141C12.64 10.4094 12.8282 9.96705 12.96 9.49646H14.3153C14.7294 9.49646 15.0682 9.15764 15.0682 8.74352V7.24705C15.0588 6.83293 14.72 6.49411 14.3059 6.49411ZM7.52941 11.7647C5.44941 11.7647 3.76471 10.08 3.76471 7.99999C3.76471 5.91999 5.44941 4.23529 7.52941 4.23529V11.7647Z" fill="#8F95B2"/>
</svg>
