<svg width="13" height="15" viewBox="0 0 13 15" xmlns="http://www.w3.org/2000/svg"><g fill-rule="evenodd"><path d="M11.258 6H8.456a.15.15 0 01-.15-.165l.372-3.714a1.929 1.929 0 10-3.84 0l.371 3.714A.15.15 0 015.061 6H2.258a1.5 1.5 0 00-1.5 1.5v.6a.6.6 0 00.6.6h10.8a.6.6 0 00.6-.6v-.6a1.5 1.5 0 00-1.5-1.5zm-3.9-3.75a.6.6 0 11-1.2 0 .6.6 0 011.2 0zM12.158 9.9a.3.3 0 00-.3-.3h-10.2a.3.3 0 00-.3.3v.78a5.164 5.164 0 01-.818 2.796.6.6 0 00.502.924h.9c.702 0 1.358-.35 1.747-.935.128-.19.263-.397.396-.6a.15.15 0 01.276.082v.853a.6.6 0 00.6.6h2.55a.15.15 0 00.15-.15v-1.5a.3.3 0 01.6 0v1.5a.15.15 0 00.15.15h1.2a.15.15 0 00.15-.15V11.7a.3.3 0 01.6 0v2.55a.15.15 0 00.15.15h1.05a.6.6 0 00.6-.6l-.003-3.9z"/></g></svg>
