<svg width="14" height="14" viewBox="0 0 14 14" xmlns="http://www.w3.org/2000/svg"><path d="M12.858 0H1.142C.512 0 0 .511 0 1.141v11.718c.001.63.512 1.14 1.142 1.141h11.716c.63 0 1.141-.511 1.142-1.141V1.141A1.143 1.143 0 0012.858 0zM8.547 10.61a.438.438 0 01-.247.742l-2.647.378a.438.438 0 01-.494-.495l.379-2.647a.438.438 0 01.741-.25l.62.62a.146.146 0 00.206 0L9.063 7a.583.583 0 01.824.825L7.928 9.784a.146.146 0 000 .206l.619.62zM5.453 3.39a.438.438 0 01.247-.742l2.647-.378a.436.436 0 01.495.496l-.378 2.646a.437.437 0 01-.739.25l-.622-.621a.147.147 0 00-.206 0L4.937 7a.583.583 0 01-.825-.825l1.96-1.96a.146.146 0 000-.206l-.619-.619z" fill-rule="evenodd"/></svg>
