<svg width="16" height="16" viewBox="0 0 16 16" fill="none" xmlns="http://www.w3.org/2000/svg">
<path fill-rule="evenodd" clip-rule="evenodd" d="M14.5 12.07V9.93C15.36 9.71 16 8.93 16 8C16 6.9 15.1 6 14 6C13.07 6 12.29 6.64 12.07 7.5H9.93C9.75 6.8 9.2 6.25 8.5 6.07V3.93C9.36 3.71 10 2.93 10 2C10 0.9 9.1 0 8 0C6.9 0 6 0.9 6 2C6 2.93 6.64 3.71 7.5 3.93V6.07C6.8 6.25 6.25 6.8 6.07 7.5H3.93C3.71 6.64 2.93 6 2 6C0.9 6 0 6.9 0 8C0 8.93 0.64 9.71 1.5 9.93V12.07C0.64 12.29 0 13.07 0 14C0 15.1 0.9 16 2 16C3.1 16 4 15.1 4 14C4 13.07 3.36 12.29 2.5 12.07V9.93C3.2 9.75 3.75 9.2 3.93 8.5H6.07C6.25 9.2 6.8 9.75 7.5 9.93V12.07C6.64 12.29 6 13.07 6 14C6 15.1 6.9 16 8 16C9.1 16 10 15.1 10 14C10 13.07 9.36 12.29 8.5 12.07V9.93C9.2 9.75 9.75 9.2 9.93 8.5H12.07C12.25 9.2 12.8 9.75 13.5 9.93V12.07C12.64 12.29 12 13.07 12 14C12 15.1 12.9 16 14 16C15.1 16 16 15.1 16 14C16 13.07 15.36 12.29 14.5 12.07Z" fill="#8F95B2"/>
</svg>
