<svg width="17" height="16" viewBox="0 0 17 16" fill="none" xmlns="http://www.w3.org/2000/svg">
<path fill-rule="evenodd" clip-rule="evenodd" d="M10.12 12.69C8.95 12.16 9.11 11.84 9.07 11.4C9.06 11.34 9.06 11.28 9.06 11.21C9.46 10.84 9.79 10.34 10 9.77C10 9.77 10.01 9.74 10.01 9.73C10.06 9.59 10.1 9.46 10.13 9.33C10.4 9.27 10.56 8.97 10.62 8.7C10.68 8.59 10.81 8.31 10.78 8C10.74 7.59 10.58 7.4 10.4 7.32C10.4 7.3 10.4 7.27 10.4 7.25C10.4 6.74 10.35 6 10.26 5.51C10.24 5.38 10.21 5.24 10.17 5.11C10 4.51 9.64 3.97 9.16 3.59C8.66 3.2 7.96 3 7.33 3C6.71 3 6 3.2 5.51 3.59C5.02 3.97 4.66 4.51 4.49 5.11C4.45 5.24 4.42 5.37 4.4 5.51C4.31 6 4.27 6.74 4.27 7.25C4.27 7.27 4.27 7.29 4.27 7.31C4.08 7.39 3.92 7.58 3.88 7.99C3.85 8.3 3.98 8.58 4.04 8.69C4.1 8.97 4.26 9.28 4.54 9.33C4.57 9.47 4.61 9.6 4.65 9.73C4.65 9.74 4.66 9.75 4.66 9.75V9.76C4.88 10.35 5.21 10.86 5.62 11.22C5.62 11.28 5.61 11.34 5.61 11.39C5.57 11.83 5.69 12.15 4.52 12.68C3.35 13.21 1.59 13.78 1.23 14.63C0.88 15.5 1.03 16 1.03 16H13.63C13.63 16 13.78 15.5 13.41 14.64C13.05 13.79 11.29 13.22 10.12 12.69ZM15.89 2H14.89V1C14.89 0.45 14.44 0 13.89 0C13.34 0 12.89 0.45 12.89 1V2H11.89C11.34 2 10.89 2.45 10.89 3C10.89 3.55 11.34 4 11.89 4H12.89V5C12.89 5.55 13.34 6 13.89 6C14.44 6 14.89 5.55 14.89 5V4H15.89C16.44 4 16.89 3.55 16.89 3C16.89 2.45 16.44 2 15.89 2Z" fill="#8F95B2"/>
</svg>
