<svg width="12" height="15" viewBox="0 0 12 15" xmlns="http://www.w3.org/2000/svg"><path d="M10.462 5.846H10V4.154a4.154 4.154 0 00-8.308 0v1.692h-.461C.55 5.846 0 6.397 0 7.076v6.462c0 .68.551 1.231 1.23 1.231h9.232c.68 0 1.23-.55 1.23-1.23V7.076c0-.68-.55-1.23-1.23-1.23zm-3.87 7.739a2.618 2.618 0 01-3.361-2.508v-1.23c0-.254.036-.505.108-.748a.462.462 0 01.885.263c-.047.157-.07.32-.07.484v1.23A1.694 1.694 0 006.33 12.7a.462.462 0 01.263.885zm-.746-3.97a.385.385 0 110-.769c.552 0 1 .448 1 1v.923a.385.385 0 01-.77 0v-.923a.23.23 0 00-.23-.23zm-.23.539v.923c0 .127.103.23.23.23a.385.385 0 010 .77 1 1 0 01-1-1v-.923a.385.385 0 11.77 0zm2.846.923c0 .388-.086.771-.253 1.122a.462.462 0 11-.833-.397c.108-.227.163-.474.162-.725v-1.23a1.692 1.692 0 00-2.564-1.451.462.462 0 01-.476-.791 2.615 2.615 0 013.964 2.241v1.23zm0-5.539c0 .17-.138.308-.308.308H3.538a.308.308 0 01-.307-.308V4.154a2.615 2.615 0 015.23 0v1.384z" fill-rule="evenodd"/></svg>
