<svg xmlns="http://www.w3.org/2000/svg" width="15" height="15" viewBox="0 0 15 15">
  <g fill-rule="evenodd">
    <path fill-rule="nonzero" d="M13.1249998 8.75c1.0355313 0 1.8750001.83946903 1.8750001 1.8750003v2.5c0 1.0355312-.8394688 1.875-1.8750001 1.875H1.87499992c-1.03553125 0-1.875-.8394688-1.875-1.875V10.625l.0056412-.1465298C.0803939 9.5114229.88877967 8.75 1.87499992 8.75zM11.875 10.9375c-.5177669 0-.9375.4197331-.9375.9375s.4197331.9375.9375.9375l.1093322-.0063072c.466255-.0541549.8281678-.4504093.8281678-.9311928l-.0063073-.1093323c-.0541548-.466255-.4504092-.8281677-.9311927-.8281677zm-6.25000002.5375001H3.4375c-.25888375 0-.46875004.2098662-.46875004.46875l.00755218.0842584c.03968992.2186713.23107893.3844916.46119782.3844916h2.18750002c.25888375 0 .46875-.2098663.46875-.46875 0-.2588838-.20986625-.46875-.46875-.46875zM7.91295776.10759465l.0844547.0704414a.61212379.61212379 0 01.00071391.0007139l2.13562503 2.13375003c.2385181.23792125.2390019.62415125.0010807.86266875-.1145525.11484-.27012627.17932625-.43233064.17920562H8.64000145c-.0690355 1e-8-.1276142.0447716-.14828426.10686296l-.00796574.04938704v2.614375c0 .50534063-.40965937.915-.915.915-.50534062 0-.915-.40965937-.915-.915L6.651875 3.511875c0-.08629437-.06995563-.15625-.15625-.15625H5.43125001c-.33723875.00010885-.61071313-.27318875-.61082191-.61042813 0-.16237062.06456628-.31807625.17957191-.43269687L7.13562496.17875005c.21135889-.21170945.5397-.23548507.7773328-.0711554z"/>
  </g>
</svg>