<svg width="16" height="16" viewBox="0 0 16 16" fill="none" xmlns="http://www.w3.org/2000/svg">
<path fill-rule="evenodd" clip-rule="evenodd" d="M8 16C9.1 16 10 15.1 10 14H6C6 15.1 6.9 16 8 16ZM11.3988 2.33274L10.9863 2.74523C10.4445 2.26362 9.73942 1.99 9 1.99C7.35008 1.99 6 3.33077 6 4.98C6 5.77906 6.31954 6.53797 6.87579 7.09421L8.87804 9.08646C9.43408 9.64132 10.192 9.96 10.99 9.96C11.7402 9.96 12.4551 9.67832 13 9.18352V10C13 10.55 13.45 11 14 11C14.55 11 15 11.45 15 12C15 12.55 14.55 13 14 13H2C1.45 13 1 12.55 1 12C1 11.45 1.45 11 2 11C2.55 11 3 10.55 3 10V6C3 3.57 4.73 1.55 7.02 1.1C7.02 1.06 7 1.04 7 1C7 0.45 7.45 0 8 0C8.55 0 9 0.45 9 1C9 1.04 8.98 1.06 8.98 1.1C9.90271 1.28132 10.7345 1.71753 11.3988 2.33274ZM10.29 7.67L8.29 5.68C8.11 5.5 8 5.25 8 4.98C8 4.44 8.45 3.99 9 3.99C9.27 3.99 9.52 4.1 9.7 4.28L10.99 5.57L14.27 2.29C14.45 2.11 14.69 2 14.97 2C15.52 2 15.97 2.44 15.97 2.99C15.97 3.27 15.86 3.51 15.67 3.69L11.69 7.67C11.51 7.85 11.26 7.96 10.99 7.96C10.72 7.96 10.47 7.85 10.29 7.67Z" fill="#8F95B2"/>
</svg>
