<svg width="16" height="16" viewBox="0 0 16 16" fill="none" xmlns="http://www.w3.org/2000/svg">
<path fill-rule="evenodd" clip-rule="evenodd" d="M2 11V13H4V11H2ZM1 9H5C5.55 9 6 9.45 6 10V14C6 14.55 5.55 15 5 15H1C0.45 15 0 14.55 0 14V10C0 9.45 0.45 9 1 9ZM10 3H15C15.55 3 16 3.45 16 4C16 4.55 15.55 5 15 5H10C9.45 5 9 4.55 9 4C9 3.45 9.45 3 10 3ZM6 1C6.55 1 7 1.45 7 2C7 2.28 6.89 2.53 6.71 2.71L3.71 6.71C3.53 6.89 3.28 7 3 7C2.72 7 2.47 6.89 2.29 6.71L0.29 4.71C0.11 4.53 0 4.28 0 4C0 3.45 0.45 3 1 3C1.28 3 1.53 3.11 1.71 3.29L3 4.59L5.29 1.29C5.47 1.11 5.72 1 6 1ZM10 11H15C15.55 11 16 11.45 16 12C16 12.55 15.55 13 15 13H10C9.45 13 9 12.55 9 12C9 11.45 9.45 11 10 11Z" fill="#8F95B2"/>
</svg>
