<svg width="14" height="14" viewBox="0 0 14 14" xmlns="http://www.w3.org/2000/svg"><path d="M13.402 6.096c.6-1.173.6-2.564 0-3.738l-.017-.035c-.044-.084-.095-.165-.146-.247-.022-.035-.04-.071-.063-.106-.035-.052-.076-.103-.117-.154a4.102 4.102 0 00-.4-.474l-.031-.028a4.07 4.07 0 00-.35-.306c-.044-.034-.09-.067-.134-.099a4.083 4.083 0 00-5.26.432 4.04 4.04 0 00-.886 1.33.576.576 0 00.563.79h.02a.56.56 0 00.493-.337 2.917 2.917 0 113.484 3.912 2.691 2.691 0 01-.417.08.145.145 0 01-.162-.155l.099-1.88A1.1 1.1 0 008.91 3.914l-2.753.145a2.438 2.438 0 00-1.375.618L.49 8.972a1.167 1.167 0 000 1.65l2.887 2.887a1.167 1.167 0 001.65 0L9.32 9.213c.039-.039.075-.08.109-.123a.146.146 0 00-.101-.236 4.586 4.586 0 01-2.254-.824.148.148 0 00-.068-.025 1.153 1.153 0 01-.686-.329 1.167 1.167 0 011.65-1.65c.12.12.212.266.268.427a.146.146 0 01-.17.19.576.576 0 00-.488 1.01 4.106 4.106 0 004.496-.058l.045-.033c.187-.13.363-.276.525-.436l.015-.013c.146-.148.281-.308.403-.477.038-.051.08-.101.117-.155.023-.034.041-.07.063-.105.05-.081.102-.163.146-.248a.1.1 0 01.011-.032zm-8.467 4.667a.583.583 0 01-.825 0l-.875-.875a.583.583 0 01.825-.824l.875.875a.583.583 0 010 .825z" fill-rule="evenodd"/></svg>
