
<svg width="15" height="15" viewBox="0 0 15 15">
  <g fill-rule="evenodd">
    <path fill-rule="nonzero" d="M8.54125004 9.955c.25888375 0 .46875.20986636.46875.46875011 0 .25888375-.20986625.46874999-.46875.46874999h-.04124998c-.08629438 0-.15625001.0699556-.15625.15625v2.70125c0 .2588831-.20986625.46875-.46875.46875-.25888313 0-.46874996-.2098663-.46875-.46875l.00000126-2.7018763-.0081329-.0497836c-.02083596-.0617597-.07935936-.1061169-.14811836-.1058402h-.0375c-.25888375 0-.46875-.20986625-.46875-.46875 0-.25888375.20986625-.46875.46875-.46875zm2.99874936-1.8e-7c.2588838 0 .46875.20986625.46875.46875 0 .25888375-.2098662.46874998-.46875.46874998h-.0412525c-.0859481.0003463-.1553429.0703019-.1549968.1562506v2.7012497c0 .2588831-.2098663.46875-.46875.46875-.2588832 0-.46875-.2098663-.46875-.46875V11.04875c0-.0862944-.0699557-.15625-.15625-.15625h-.043125c-.25888379 0-.46875004-.20986625-.46875004-.46875 0-.25888375.20986625-.46875018.46875004-.46875018zM5.54937506 9.955l.08425847.00755219c.21867127.03968994.38449152.23107909.38449152.46119798v3.32625003c0 .2588831-.20986625.46875-.46875.46875-.25888313 0-.46874996-.2098663-.46875-.46875v-.7056251c0-.0862944-.06995563-.15625-.15625-.15625h-.393125c-.08629437 0-.15625001.0699556-.15625.15625v.705625c0 .2588831-.20986625.4687501-.46875.4687501-.25888312 0-.46875-.2098664-.46875-.4687501V10.42375c0-.25888375.20986625-.46875.46875-.46875.25888375 0 .46875.20986625.46875.46875v1.370625l.00796574.049387c.02067006.0620914.07924876.106863.14828426.106863h.39312501c.08629438 0 .15625-.0699556.15625-.15625V10.42375l.00755218-.08425848C5.12786716 10.12082025 5.31925617 9.955 5.54937506 9.955zm7.98375074-.00001034c.7098375-.00260246 1.3190631.50488504 1.4447687 1.20351004.1430375.79495-.3854437 1.5553369-1.1803937 1.698375l-.0417157.0139027c-.051683.0258149-.0861892.0790378-.08641.1392223v.7400004c0 .2588831-.2098663.46875-.46875.46875-.2588832 0-.46875-.2098663-.46875-.46875V10.42375l.0075521-.08425883c.03969-.21867309.231079-.38450151.4611979-.38450151zM13.1250001.78125C14.1605313.78125 15 1.62071875 15 2.65625v5.31250042c0 .34517813-.2798222.62500002-.6250004.625l-.0923579-.0067766c-.3013843-.04464023-.532642-.3044251-.532642-.6182234V4.06250033l-.0079658-.04938706c-.02067-.06209137-.0792487-.10686297-.1482842-.10686296H1.40624966c-.08629437 0-.15625001.06995562-.15625.15625v7.65624999l.0067766.0923579c.04464024.3013843.30442511.5326421.6182234.5326421l.09235799.0067766C2.268742 12.3951671 2.5 12.654952 2.5 12.9687503l-.00677661.0923579c-.04464028.3013843-.3044254.5326421-.6182237.5326421L1.874 13.59325l-.1455298-.0051409c-.91869493-.0710152-1.65181385-.8041341-1.722829-1.722829L0 11.7187503V2.65625l.0056412-.1465298C.080394 1.5426729.88877976.78125 1.875.78125zm.6999388 10.2593139c-.0862931.0003796-.1559418.0706409-.1555638.1569346v.4481263c-.000206.0469363.0206987.091479.0569344.1213125.06662.0548496.1650909.0453077.2199406-.0213123l.0508354-.0741799c.1016696-.1806825.0847247-.4092103-.0508347-.5739444l-.0342801-.0309116c-.025514-.0169155-.0557409-.0261613-.0870318-.0260252zM2.18750316 1.71875003l-.09073538.00706019c-.20825658.03158429-.38915797.16689497-.47676461.36293981l-.03136269.08201815c-.01690943.0559668-.02575445.11421555-.02613729.1729818l.0128467.1096121c.01515652.07184343.0433173.14064037.0834033.20288787l.04626497.07149558c.05106619.06788659.11608896.12449919.19104443.16581383.2920175.16095813.65922937.05471125.8201875-.23730937l.05105364-.09784623c.02789083-.0679212.04331694-.14064037.04519944-.21465453l-.01284672-.10961133c-.01515652-.07184343-.0433173-.14064037-.0834033-.20288787l-.05178187-.07729447c-.11412379-.14526659-.28896562-.23303745-.47696812-.23520553zm2.47893755.07519015c-.2920175-.16095812-.65922937-.05471125-.8201875.23730938l-.05105011.0978455c-.02789097.0679212-.04331725.14064037-.04519992.21465454l.01284671.10961247c.01515651.07184343.04331729.14064037.08340329.20288787l.04626498.07149559c.05106619.06788659.11608896.12449919.19104443.16581383.2920175.16095813.65922937.05471125.8201875-.23730937l.05105006-.09784547c.02789097-.06792121.04331724-.14064037.04519993-.21465454l-.01284671-.10961257c-.01515652-.07184342-.04331729-.14064037-.08340329-.20288787l-.04626494-.07149553c-.05106619-.06788658-.11608896-.12449918-.19104443-.16581383zm2.18750001 1e-8c-.2920175-.16095812-.65922938-.05471125-.8201875.23730938l-.05105012.0978455c-.02789096.0679212-.04331724.14064037-.04519991.21465454l.0128467.10961247c.01515652.07184343.0433173.14064037.0834033.20288787l.04626497.07149558c.05106619.06788659.11608896.12449919.19104443.16581383.2920175.16095813.65922937.05471125.8201875-.23730937l.05104987-.09784551c.02789114-.0679212.04331745-.14064037.04520013-.21465454l-.01284671-.10961251c-.01515651-.07184342-.04331729-.14064037-.08340329-.20288787l-.04626495-.07149554c-.05106618-.06788658-.11608895-.12449919-.19104442-.16581383z"/>
  </g>
</svg>