<svg viewBox="0 0 16 14" xmlns="http://www.w3.org/2000/svg">
  <path d="M15.992 5.374c-.08.58-.73.96-1.43 1.05-.15.02-.32.04-.49.05.06.01.11.01.16.02.71.08 1.23.47 1.15 1.05-.08.58-.73.96-1.43 1.05-.34.04-.72.07-1.13.09h-.01c-.24.01-.49.02-.75.02-.48.02-1.11.04-1.59.08-.36.03-.41.28-.37.53.35.9.54 1.91.5 2.91-.04.85-.6 1.679-1.41 1.769-.671.07-1.161-.39-.991-.98.56-1.93-2.07-4.22-4.2-5.51V1.505c1.66-1.03 4.35-1.56 7.48-1.5.19 0 .39.01.62.02h.09c.22.01.46.03.73.05.71.06 1.54.51 1.5 1.09-.03.51-.4.79-.87.93.27.02.54.04.79.06.71.06 1.24.45 1.17 1.04-.06.58-.7.97-1.41 1.07-.02 0-.05.01-.07.01.29.02.57.03.81.05.71.03 1.23.47 1.15 1.05zM2 7.994H0v-7h2c.55 0 1 .45 1 1v5c0 .56-.45 1-1 1z" fill="#A5B0BA" fill-rule="nonzero"/>
</svg>