<svg width="32" height="18" viewBox="0 0 32 18" fill="none" xmlns="http://www.w3.org/2000/svg">
<path d="M30.08 5.14217H11.5198V0.64285C11.5198 0.520667 11.4851 0.401019 11.4199 0.29792C11.3546 0.194821 11.2614 0.112539 11.1513 0.0607113C11.0412 0.00888319 10.9186 -0.0103449 10.798 0.00527833C10.6774 0.0209015 10.5637 0.0707295 10.4702 0.148926L0.460535 8.01209C0.316392 8.13277 0.200422 8.28382 0.120838 8.45452C0.0412529 8.62523 0 8.81143 0 8.99994C0 9.18844 0.0412529 9.37464 0.120838 9.54535C0.200422 9.71606 0.316392 9.8671 0.460535 9.98778L10.4702 17.8511C10.5637 17.9293 10.6774 17.9791 10.798 17.9947C10.9186 18.0103 11.0412 17.9911 11.1513 17.9393C11.2614 17.8875 11.3546 17.8052 11.4199 17.7021C11.4851 17.599 11.5198 17.4793 11.5198 17.3572V12.8577H30.08C30.5892 12.8577 31.0776 12.6545 31.4376 12.2927C31.7977 11.931 32 11.4404 32 10.9288V7.07105C32 6.55948 31.7977 6.06886 31.4376 5.70712C31.0776 5.34539 30.5892 5.14217 30.08 5.14217Z" fill="#1F477D"/>
</svg>
