<svg width="32" height="18" viewBox="0 0 32 18" fill="none" xmlns="http://www.w3.org/2000/svg">
<path d="M1.92002 5.14217H20.4802V0.64285C20.4802 0.520667 20.5149 0.401019 20.5801 0.29792C20.6454 0.194821 20.7386 0.112539 20.8487 0.0607113C20.9588 0.00888319 21.0814 -0.0103449 21.202 0.00527833C21.3226 0.0209015 21.4363 0.0707295 21.5298 0.148926L31.5395 8.01209C31.6836 8.13277 31.7996 8.28382 31.8792 8.45452C31.9587 8.62523 32 8.81143 32 8.99994C32 9.18844 31.9587 9.37464 31.8792 9.54535C31.7996 9.71606 31.6836 9.8671 31.5395 9.98778L21.5298 17.8511C21.4363 17.9293 21.3226 17.9791 21.202 17.9947C21.0814 18.0103 20.9588 17.9911 20.8487 17.9393C20.7386 17.8875 20.6454 17.8052 20.5801 17.7021C20.5149 17.599 20.4802 17.4793 20.4802 17.3572V12.8577H1.92002C1.4108 12.8577 0.922434 12.6545 0.562361 12.2927C0.20229 11.931 1.90735e-06 11.4404 1.90735e-06 10.9288V7.07105C1.90735e-06 6.55948 0.20229 6.06886 0.562361 5.70712C0.922434 5.34539 1.4108 5.14217 1.92002 5.14217Z" fill="#1F477D"/>
</svg>
