<svg width="12" height="12" viewBox="0 0 12 12" fill="none" xmlns="http://www.w3.org/2000/svg">
<path d="M11.8544 6.26742L10.4403 4.85243C10.2459 4.65803 9.92761 4.65803 9.73336 4.85333L5.23324 9.3524L4.70703 12L7.35445 11.4736L11.8544 6.97454C12.0488 6.78013 12.0488 6.46182 11.8544 6.26742Z" fill="#A5B0BA"/>
<path d="M9.00004 3.49989L5.5 0V3.49989H9.00004Z" fill="#A5B0BA"/>
<path d="M4.31156 8.85982L8.67232 4.49996H5.50004C4.94772 4.49996 4.50011 4.05175 4.50011 3.49989V0H1.00007C0.447761 0 0 0.447161 0 0.998875V10.9999C0 11.5522 0.447761 12 1.00007 12H3.68709L4.31156 8.85982Z" fill="#A5B0BA"/>
</svg>
