<svg width="16" height="17" xmlns="http://www.w3.org/2000/svg">
  <path d="M.2 10.25l1.66 1.69c.13.13.3.2.47.2h4.34c.18 0 .33.15.33.33v3.37c0 .19.15.34.33.34h1.34c.18 0 .33-.15.33-.34v-3.37c0-.18.15-.33.33-.33h4c.37 0 .67-.3.67-.68V8.1c0-.37-.3-.67-.67-.67h-4A.34.34 0 019 7.08V6.4c0-.2.15-.34.33-.34h4.34c.17 0 .34-.07.47-.2l1.66-1.69a.68.68 0 000-.95l-1.66-1.68a.66.66 0 00-.47-.2H9.33A.34.34 0 019 1 1 1 0 008 0a1 1 0 00-1 1.01c0 .19-.15.34-.33.34h-4c-.37 0-.67.3-.67.67V5.4c0 .38.3.68.67.68h4c.18 0 .33.15.33.34v.67c0 .19-.15.34-.33.34H2.33a.66.66 0 00-.47.2L.2 9.3a.68.68 0 000 .95z" fill-rule="nonzero"/>
</svg>
