<svg width="16" height="17" xmlns="http://www.w3.org/2000/svg">
  <g fill-rule="nonzero">
    <path d="M8.2 9.1L4.87 7.99c-.24-.08-.5-.08-.74 0L.8 9.09c-.48.16-.8.61-.8 1.11v4.37c0 .5.32.95.8 1.1l3.33 1.12c.24.08.5.08.74 0l3.33-1.11c.48-.16.8-.6.8-1.1V10.2a1.2 1.2 0 00-.8-1.1zm-3.75-.17h.1l1.9.63a.17.17 0 010 .32l-2.13.72a.16.16 0 01-.11 0l-1.92-.63a.17.17 0 010-.32l2.16-.72zm3.44 5.8l-2.84.94a.17.17 0 01-.22-.15v-3.93c0-.07.05-.14.12-.16l2.83-.94a.17.17 0 01.22.16v3.92c0 .07-.05.14-.11.16zM12.61 7.48c.43-.14.72-.55.72-1V2.84c0-.45-.3-.85-.72-1L9.83.9a1.07 1.07 0 00-.66 0l-2.78.93c-.43.14-.72.54-.72 1v3.64c0 .45.29.86.72 1l2.78.93c.21.07.45.07.66 0l2.78-.93zm-2.56-.2a.17.17 0 01-.22-.17V4.08c0-.07.05-.13.12-.15l2.16-.72a.16.16 0 01.22.16l-.04 3.04c0 .07-.04.14-.11.16l-2.13.7zm-.53-5.42l1.27.42a.17.17 0 010 .32l-1.47.5a.17.17 0 01-.1 0l-1.25-.42a.17.17 0 010-.31l1.55-.51zM15.35 9.3l-2.22-.73a.95.95 0 00-.6 0l-2.22.74a.94.94 0 00-.64.9v2.9c0 .41.26.78.65.9l2.21.74c.2.07.4.07.6 0l2.22-.74a.94.94 0 00.65-.9v-2.9c0-.4-.27-.77-.65-.9zm-2.53.22l.63.21a.17.17 0 010 .32l-.8.28a.16.16 0 01-.11 0l-.6-.2a.17.17 0 010-.32l.88-.3zm.57 4.1a.17.17 0 01-.22-.15v-2.28l1.62-.54a.17.17 0 01.22.15l.03 2.14c0 .08-.05.14-.12.16l-1.53.53z"/>
  </g>
</svg>
