<svg width="16" height="16" xmlns="http://www.w3.org/2000/svg">
  <g fill-rule="evenodd">
    <path d="M.53.53c-.13.13-.2.3-.2.48v7.42c0 .38.3.68.67.68h5.33c.37 0 .67-.3.67-.68V1.02c0-.38-.3-.68-.67-.68H1a.66.66 0 00-.47.19zM15 .33L9.67.34c-.37 0-.67.3-.67.68v3.37c0 .37.3.67.67.67H15c.37 0 .67-.3.67-.67V1c0-.38-.3-.68-.67-.68zM6.8 15.65c.13-.12.2-.3.2-.48V11.8c0-.37-.3-.67-.67-.67H1c-.37 0-.67.3-.67.67v3.36c0 .38.3.68.67.68h5.33c.18 0 .35-.06.47-.19zM15 7.08H9.67c-.37 0-.67.3-.67.68v7.42c0 .37.3.67.67.67l5.33-.01c.37 0 .67-.3.67-.67V7.76c0-.37-.3-.68-.67-.68z"/>
  </g>
</svg>
