<svg width="16" height="17" xmlns="http://www.w3.org/2000/svg"><g fill-rule="nonzero"><path d="M11.672 12.473a.67.67 0 00-.667.674v.338c0 .186-.149.337-.333.337H7.005a.335.335 0 01-.333-.337V2.697c0-.186.15-.337.333-.337h3.667c.184 0 .333.15.333.337v.674a.67.67 0 00.667.674.67.67 0 00.667-.674V1.686a.67.67 0 00-.667-.675h-5V.337a.339.339 0 00-.125-.263.33.33 0 00-.28-.066l-6 1.349a.336.336 0 00-.262.329v12.81c0 .158.109.295.262.33l6 1.348a.334.334 0 00.405-.33v-.675h5a.67.67 0 00.667-.674v-1.348a.67.67 0 00-.667-.674zM5.005 8.428c0 .558-.447 1.011-1 1.011-.552 0-1-.453-1-1.011 0-.559.448-1.012 1-1.012.553 0 1 .453 1 1.012z"/><path d="M14.995 7.416h-2.75v-1.18a.675.675 0 00-.352-.594.66.66 0 00-.685.034l-3.25 2.19a.676.676 0 000 1.123l3.25 2.191a.66.66 0 00.685.034.675.675 0 00.352-.595v-1.18h2.75a.998.998 0 00.866-.506 1.021 1.021 0 000-1.01.998.998 0 00-.866-.507z"/></g></svg>
