<svg width="13" height="17" xmlns="http://www.w3.org/2000/svg">
  <path d="M11.16 7.18h-.5V5.32A4.5 4.5 0 006.25.77 4.5 4.5 0 001.8 5.32v1.86h-.5C.6 7.18 0 7.78 0 8.52v7.09c0 .74.59 1.35 1.31 1.35h9.85c.72 0 1.31-.6 1.31-1.35V8.52c0-.74-.59-1.34-1.31-1.34zm-4.13 8.48c-.84.25-1.75.09-2.46-.45a2.9 2.9 0 01-1.12-2.3v-1.35c0-.28.03-.55.11-.82a.49.49 0 01.61-.34c.26.08.41.36.34.63a1.9 1.9 0 00-.08.53v1.35c0 1.02.8 1.85 1.8 1.85.18 0 .35-.02.52-.07a.5.5 0 01.6.34.5.5 0 01-.32.63zm-.8-4.35a.42.42 0 01-.4-.42c0-.24.18-.43.4-.43.6 0 1.07.5 1.07 1.1v1.01c0 .23-.18.42-.4.42a.42.42 0 01-.42-.42v-1.01a.25.25 0 00-.24-.25zM6 11.9v1c0 .15.11.26.25.26.22 0 .4.19.4.42 0 .24-.18.42-.4.42-.6 0-1.07-.49-1.07-1.1v-1c0-.24.18-.42.4-.42.24 0 .42.18.42.42zm3.04 1c0 .43-.1.85-.27 1.24a.49.49 0 01-.86.07.52.52 0 01-.03-.5c.11-.26.17-.53.17-.8v-1.35c0-.67-.35-1.29-.92-1.61a1.76 1.76 0 00-1.81.02.48.48 0 01-.68-.17.51.51 0 01.17-.7 2.73 2.73 0 012.8-.04c.88.51 1.43 1.47 1.43 2.5v1.35zm0-6.06c0 .18-.15.34-.33.34H3.77a.33.33 0 01-.32-.34V5.32a2.83 2.83 0 012.79-2.87 2.83 2.83 0 012.79 2.87v1.52z" fill-rule="nonzero"/>
</svg>
