<svg viewBox="0 0 12 12" xmlns="http://www.w3.org/2000/svg">
  <path d="M11.695.784a.98.98 0 00-.719-.28c-1.92.057-3.853.434-4.828 1.154a.25.25 0 01-.297 0C4.877.938 2.944.561 1.023.504a.975.975 0 00-.719.28 1.01 1.01 0 00-.304.72v7.25a1 1 0 00.978 1c2.983.085 4.522.91 4.522 1.242a.5.5 0 101 0c0-.333 1.538-1.157 4.522-1.243a1 1 0 00.978-1V1.505c0-.272-.11-.531-.305-.721zM1.24 8.763a.25.25 0 01-.24-.25l-.006-6.75a.25.25 0 01.262-.25c2.8.127 4.244.911 4.244 1.233V9.29a.25.25 0 01-.35.229 11.469 11.469 0 00-3.911-.755zm9.754-.25a.25.25 0 01-.239.25 11.454 11.454 0 00-3.904.755.25.25 0 01-.35-.229V2.746c0-.321 1.443-1.105 4.238-1.232a.25.25 0 01.262.25l-.007 6.749z" fill-rule="nonzero" fill="#67798B"/>
</svg>