<svg width="16" height="17" xmlns="http://www.w3.org/2000/svg">
  <g transform="translate(-120.000000, -169.000000) translate(120.000000, 81.000000) translate(0.000000, 11.000000) translate(0.000000, 77.000000)" fill-rule="nonzero">
    <path d="M12.67 6.74c0-.37-.3-.67-.67-.67h-1.83A.17.17 0 0110 5.9V4.05c0-.38-.3-.68-.67-.68H6.67c-.37 0-.67.3-.67.68V5.9c0 .1-.07.17-.17.17H4c-.37 0-.67.3-.67.67v2.7c0 .37.3.67.67.67h1.83c.1 0 .17.08.17.17v1.86c0 .37.3.67.67.67h2.66c.37 0 .67-.3.67-.67v-1.86c0-.1.07-.17.17-.17H12c.37 0 .67-.3.67-.67v-2.7z"/>
    <rect y="6.57" width="2.33" height="3.03" rx=".67"/>
    <rect x="13.67" y="6.57" width="2.33" height="3.03" rx=".67"/>
    <rect x="6.5" width="3" height="2.36" rx=".67"/>
    <rect x="6.5" y="13.82" width="3" height="2.36" rx=".67"/>
  </g>
</svg>
