<svg width="16" height="14" xmlns="http://www.w3.org/2000/svg">
  <g fill-rule="nonzero">
    <path d="M16 3.78c0-.76-.6-1.37-1.33-1.37H13.5a.17.17 0 01-.17-.17v-1.2c0-.38-.3-.69-.66-.69H1.33C.6.35 0 .97 0 1.72v8.22c0 .38.3.69.67.69h1.16c.1 0 .17.07.17.17V12c0 .75.6 1.37 1.33 1.37h2c.37 0 .67-.3.67-.69a.5.5 0 01.5-.51c.28 0 .5.23.5.51 0 .38.3.69.67.69h2.66c.37 0 .67-.3.67-.69a.5.5 0 01.5-.51c.28 0 .5.23.5.51 0 .38.3.69.67.69h2c.73 0 1.33-.62 1.33-1.37V3.78zm-1.33 7.88c0 .18-.15.34-.34.34h-1.01a.17.17 0 01-.15-.1c-.3-.67-.95-1.1-1.67-1.1s-1.37.43-1.67 1.1a.17.17 0 01-.15.1H8.32a.17.17 0 01-.15-.1c-.3-.67-.95-1.1-1.67-1.1s-1.37.43-1.67 1.1a.17.17 0 01-.15.1H3.67a.34.34 0 01-.34-.34V4.12c0-.19.15-.34.34-.34h10.66c.19 0 .34.15.34.34v7.54z"/>
    <path d="M9.83 6c0 .29.23.52.5.52h3a.5.5 0 00.5-.52.5.5 0 00-.5-.51h-3a.5.5 0 00-.5.51zM12 7.55h-1.67a.5.5 0 00-.5.5c0 .3.23.52.5.52H12a.5.5 0 00.5-.51.5.5 0 00-.5-.51zM7.54 7.95v-.14c.36-.47.55-1.07.5-1.67a1.43 1.43 0 00-.66-1.3 1.35 1.35 0 00-1.43 0c-.43.28-.7.77-.66 1.3a2.4 2.4 0 00.49 1.63c.01.06.02.12 0 .18-.87.34-1.35.59-1.56 1.01-.1.24-.18.5-.21.76-.02.1 0 .2.07.28.06.08.15.13.25.13H9c.1 0 .2-.05.26-.13a.35.35 0 00.07-.28 2.94 2.94 0 00-.22-.76c-.2-.42-.7-.67-1.57-1z"/>
  </g>
</svg>
