<svg width="16" height="16" viewBox="0 0 32 32" fill="none" xmlns="http://www.w3.org/2000/svg">
<path fill-rule="evenodd" clip-rule="evenodd" d="M0.390664 20.276L3.724 23.6093C3.9734 23.8603 4.31287 24.001 4.66666 24H13.3333C13.7015 24 14 24.2985 14 24.6667V31.3333C14 31.7015 14.2985 32 14.6667 32H17.3333C17.7015 32 18 31.7015 18 31.3333V24.6667C18 24.2985 18.2985 24 18.6667 24H26.6667C27.403 24 28 23.403 28 22.6667V16C28 15.2636 27.403 14.6667 26.6667 14.6667H18.6667C18.2985 14.6667 18 14.3682 18 14V12.6667C18 12.2985 18.2985 12 18.6667 12H27.3333C27.6871 12.001 28.0266 11.8603 28.276 11.6093L31.6093 8.276C32.1298 7.75533 32.1298 6.91133 31.6093 6.39067L28.276 3.05733C28.0266 2.80639 27.6871 2.66571 27.3333 2.66667H18.6667C18.2985 2.66667 18 2.36819 18 2C18 0.89543 17.1046 0 16 0C14.8954 0 14 0.89543 14 2C14 2.36819 13.7015 2.66667 13.3333 2.66667H5.33333C4.59695 2.66667 4 3.26362 4 4V10.6667C4 11.403 4.59695 12 5.33333 12H13.3333C13.7015 12 14 12.2985 14 12.6667V14C14 14.3682 13.7015 14.6667 13.3333 14.6667H4.66666C4.31287 14.6657 3.9734 14.8064 3.724 15.0573L0.390664 18.3907C-0.129845 18.9113 -0.129845 19.7553 0.390664 20.276Z"/>
</svg>

