<svg width="16" height="17" xmlns="http://www.w3.org/2000/svg">
  <g fill-rule="nonzero">
    <path d="M15 3.03H1a1 1 0 00-1 1.02v1.68a1 1 0 001 1.01h14a1 1 0 001-1v-1.7a1 1 0 00-1-1zM2.17 4.9c0-.47.37-.84.83-.84.46 0 .83.37.83.84 0 .46-.37.84-.83.84a.84.84 0 01-.83-.84zm3.5.84a.84.84 0 01-.84-.84.84.84 0 111.67 0c0 .46-.37.84-.83.84zM15.15 1.38l-2.6-1.3a.66.66 0 00-.3-.08h-8.5c-.1 0-.21.03-.3.07L.85 1.4a.34.34 0 00.15.63h14a.34.34 0 00.15-.64zM15 7.75H1a1 1 0 00-1 1.01v1.69a1 1 0 001 1.01h14a1 1 0 001-1.01V8.76a1 1 0 00-1-1zM2.17 9.61c0-.47.37-.85.83-.85.46 0 .83.38.83.85 0 .46-.37.84-.83.84a.84.84 0 01-.83-.84zm3.5.84a.84.84 0 01-.84-.84c0-.47.38-.85.84-.85.46 0 .83.38.83.85 0 .46-.37.84-.83.84zM15 12.47H1a1 1 0 00-1 1.01v1.69a1 1 0 001 1.01h14a1 1 0 001-1.01v-1.69a1 1 0 00-1-1zM2.17 14.33c0-.47.37-.85.83-.85.46 0 .83.38.83.85 0 .46-.37.84-.83.84a.84.84 0 01-.83-.84zm3.5.84a.84.84 0 01-.84-.84c0-.47.38-.85.84-.85.46 0 .83.38.83.85 0 .46-.37.84-.83.84z"/>
  </g>
</svg>
