<svg width="16" height="18" xmlns="http://www.w3.org/2000/svg">
  <g fill-rule="nonzero">
    <path d="M4.08 12.14h-1.3a.5.5 0 00-.48.5c0 .28.21.5.48.51h1.3c.18 0 .35-.09.44-.24.1-.16.1-.36 0-.52a.49.49 0 00-.44-.25zM4.85 10.2l-1.13-.67a.48.48 0 00-.5-.02.5.5 0 00-.25.45c0 .18.1.35.26.44l1.13.67c.24.14.53.05.67-.19a.51.51 0 00-.18-.68zM5.81 7.75a.48.48 0 00-.67-.19.51.51 0 00-.18.69l.66 1.16c.13.24.43.33.67.19a.51.51 0 00.18-.7L5.8 7.76zM8 9.12a.5.5 0 00.49-.5V7.28a.5.5 0 00-.49-.5.5.5 0 00-.49.5v1.34c0 .28.22.5.49.5zM12.77 10.4c.23-.15.3-.45.17-.68a.48.48 0 00-.66-.2l-1.13.68a.5.5 0 00-.23.56.5.5 0 00.47.37c.09 0 .17-.02.25-.06l1.13-.67zM13.23 12.14h-1.31a.5.5 0 00-.47.5c0 .28.2.5.47.51h1.3a.5.5 0 00.48-.5.5.5 0 00-.47-.5zM10.33 8.24l-2.85 2.93a1.9 1.9 0 00-.46 1.14v.34c0 .16.06.32.19.43.12.1.3.15.45.1l.35-.07c.4-.1.71-.38.89-.75l1.57-4.03a.09.09 0 00-.04-.1.08.08 0 00-.1 0v.01z"/>
    <path d="M1.96 17h12.08c1.08 0 1.96-.9 1.96-2V2.58c0-1.11-.88-2.01-1.96-2.01H1.96C.88.57 0 1.47 0 2.58V15c0 1.1.88 2 1.96 2zM7.35 2.59a.5.5 0 01-.3.47.48.48 0 01-.54-.11.51.51 0 01-.1-.55.48.48 0 01.8-.16c.09.09.14.22.14.35zm-1.96 0a.5.5 0 01-.5.5.5.5 0 01-.48-.5c0-.28.22-.5.49-.5.13 0 .25.05.35.14.09.1.14.23.14.36zm-1.96 0a.5.5 0 01-.5.5.5.5 0 01-.48-.5c0-.28.22-.5.49-.5.13 0 .25.05.35.14.09.1.14.23.14.36zm10.61 13.09H1.96a.66.66 0 01-.65-.68V5.11c0-.38.3-.68.66-.68h12.06c.37 0 .66.3.66.68V15c0 .37-.29.67-.65.67z"/>
  </g>
</svg>
