<svg width="16" height="17" xmlns="http://www.w3.org/2000/svg">
  <path d="M8 .66a8 8 0 100 16 8 8 0 000-16zm6.29 5.77a.17.17 0 01-.16.23h-2.57a.17.17 0 01-.14-.08c-.34-.55-.8-1-1.34-1.34A.17.17 0 0110 5.1V2.53a.17.17 0 01.22-.16 6.7 6.7 0 014.07 4.06zM8 11.32a2.67 2.67 0 110-5.33 2.67 2.67 0 010 5.33zM5.78 2.37a.17.17 0 01.22.16V5.1c0 .06-.03.11-.08.14-.54.33-1 .79-1.33 1.33a.17.17 0 01-.15.09H1.87a.17.17 0 01-.14-.07.16.16 0 01-.02-.15 6.7 6.7 0 014.07-4.07zm-4.07 8.5a.17.17 0 01.16-.22h2.57c.06 0 .11.03.14.08.34.55.8 1 1.34 1.34.05.03.08.08.08.14v2.57a.17.17 0 01-.22.15 6.7 6.7 0 01-4.07-4.05zm8.51 4.07a.17.17 0 01-.22-.16v-2.57c0-.06.03-.11.08-.14.54-.33 1-.8 1.33-1.33a.17.17 0 01.15-.08h2.57a.17.17 0 01.15.22 6.7 6.7 0 01-4.06 4.06z" fill-rule="nonzero"/>
</svg>
