<svg width="16" height="17" xmlns="http://www.w3.org/2000/svg">
  <g fill-rule="nonzero">
    <path d="M10.28.43C8.4.43 6.62 1.4 5.56 3a.7.7 0 00-.05.68c.1.21.3.36.54.38.24.02.47-.1.6-.3a4.33 4.33 0 015.18-1.68c1.9.73 3.06 2.7 2.82 4.77a4.46 4.46 0 01-3.85 3.94 4.39 4.39 0 01-4.64-2.91.66.66 0 00-.85-.4.68.68 0 00-.39.87 5.69 5.69 0 006.7 3.66 5.87 5.87 0 004.34-6.4A5.77 5.77 0 0010.28.43z"/>
    <path d="M9.5 13.39a4.33 4.33 0 01-5.22 1.67 4.53 4.53 0 01-2.77-4.84 4.45 4.45 0 013.96-3.87 4.4 4.4 0 014.57 3.09.65.65 0 001.12.24.7.7 0 00.13-.67A5.72 5.72 0 005.35 5 5.79 5.79 0 00.2 10.03a5.9 5.9 0 003.6 6.3c2.48.98 5.29.08 6.79-2.18a.7.7 0 00.05-.67.66.66 0 00-.55-.39.65.65 0 00-.6.3z"/>
  </g>
</svg>
