<svg width="16" height="16" viewBox="0 0 32 32" fill="none" xmlns="http://www.w3.org/2000/svg">
<path fill-rule="evenodd" clip-rule="evenodd" d="M0 2C0 0.895431 0.895431 0 2 0H30C31.1046 0 32 0.895431 32 2V6C32 7.10457 31.1046 8 30 8H16.6668C15.5622 8 14.6668 8.89543 14.6668 10V19.3332C14.6668 20.4378 13.7714 21.3332 12.6668 21.3332H2C0.895431 21.3332 0 20.4378 0 19.3332V2ZM17.3332 12.6668C17.3332 11.5622 18.2286 10.6668 19.3332 10.6668H30C31.1046 10.6668 32 11.5622 32 12.6668V30C32 31.1046 31.1046 32 30 32H2C0.895431 32 0 31.1046 0 30V26C0 24.8954 0.895432 24 2 24H15.3332C16.4378 24 17.3332 23.1046 17.3332 22V12.6668Z"/>
</svg>
